<?xml version="1.0" encoding="us-ascii" standalone="no"?><svg xmlns="http://www.w3.org/2000/svg" xmlns:xlink="http://www.w3.org/1999/xlink" contentStyleType="text/css" height="451px" preserveAspectRatio="none" style="width:647px;height:451px;background:#FFFFFF;" version="1.1" viewBox="0 0 647 451" width="647px" zoomAndPan="magnify"><defs/><g><!--class ChannelData--><g id="elem_ChannelData"><rect codeLine="3" fill="#F1F1F1" height="48" id="ChannelData" rx="2.5" ry="2.5" style="stroke:#181818;stroke-width:0.5;" width="125" x="262" y="115"/><ellipse cx="277" cy="131" fill="#ADD1B2" rx="11" ry="11" style="stroke:#181818;stroke-width:1.0;"/><path d="M279.9844,136.6406 Q279.4063,136.9375 278.7656,137.0781 Q278.125,137.2344 277.4219,137.2344 Q274.9063,137.2344 273.5781,135.5938 Q272.2656,133.9375 272.2656,130.8125 Q272.2656,127.6719 273.5781,126.0313 Q274.9063,124.375 277.4219,124.375 Q278.125,124.375 278.7656,124.5313 Q279.4219,124.6719 279.9844,124.9688 L279.9844,127.6875 Q279.3438,127.1094 278.75,126.8438 Q278.1563,126.5781 277.5313,126.5781 Q276.1875,126.5781 275.5,127.6406 Q274.8125,128.7031 274.8125,130.8125 Q274.8125,132.9063 275.5,133.9844 Q276.1875,135.0469 277.5313,135.0469 Q278.1563,135.0469 278.75,134.7813 Q279.3438,134.5 279.9844,133.9219 L279.9844,136.6406 Z " fill="#000000"/><text fill="#000000" font-family="sans-serif" font-size="14" lengthAdjust="spacing" textLength="93" x="291" y="135.8467">ChannelData</text><line style="stroke:#181818;stroke-width:0.5;" x1="263" x2="386" y1="147" y2="147"/><line style="stroke:#181818;stroke-width:0.5;" x1="263" x2="386" y1="155" y2="155"/></g><!--class MeasureData--><g id="elem_MeasureData"><rect fill="#F1F1F1" height="48" id="MeasureData" rx="2.5" ry="2.5" style="stroke:#181818;stroke-width:0.5;" width="127" x="179" y="7"/><ellipse cx="194" cy="23" fill="#ADD1B2" rx="11" ry="11" style="stroke:#181818;stroke-width:1.0;"/><path d="M196.9844,28.6406 Q196.4063,28.9375 195.7656,29.0781 Q195.125,29.2344 194.4219,29.2344 Q191.9063,29.2344 190.5781,27.5938 Q189.2656,25.9375 189.2656,22.8125 Q189.2656,19.6719 190.5781,18.0313 Q191.9063,16.375 194.4219,16.375 Q195.125,16.375 195.7656,16.5313 Q196.4219,16.6719 196.9844,16.9688 L196.9844,19.6875 Q196.3438,19.1094 195.75,18.8438 Q195.1563,18.5781 194.5313,18.5781 Q193.1875,18.5781 192.5,19.6406 Q191.8125,20.7031 191.8125,22.8125 Q191.8125,24.9063 192.5,25.9844 Q193.1875,27.0469 194.5313,27.0469 Q195.1563,27.0469 195.75,26.7813 Q196.3438,26.5 196.9844,25.9219 L196.9844,28.6406 Z " fill="#000000"/><text fill="#000000" font-family="sans-serif" font-size="14" lengthAdjust="spacing" textLength="95" x="208" y="27.8467">MeasureData</text><line style="stroke:#181818;stroke-width:0.5;" x1="180" x2="305" y1="39" y2="39"/><line style="stroke:#181818;stroke-width:0.5;" x1="180" x2="305" y1="47" y2="47"/></g><!--class ArrayChannelData--><g id="elem_ArrayChannelData"><rect codeLine="5" fill="#F1F1F1" height="48" id="ArrayChannelData" rx="2.5" ry="2.5" style="stroke:#181818;stroke-width:0.5;" width="164" x="267.5" y="223"/><ellipse cx="282.5" cy="239" fill="#ADD1B2" rx="11" ry="11" style="stroke:#181818;stroke-width:1.0;"/><path d="M285.4844,244.6406 Q284.9063,244.9375 284.2656,245.0781 Q283.625,245.2344 282.9219,245.2344 Q280.4063,245.2344 279.0781,243.5938 Q277.7656,241.9375 277.7656,238.8125 Q277.7656,235.6719 279.0781,234.0313 Q280.4063,232.375 282.9219,232.375 Q283.625,232.375 284.2656,232.5313 Q284.9219,232.6719 285.4844,232.9688 L285.4844,235.6875 Q284.8438,235.1094 284.25,234.8438 Q283.6563,234.5781 283.0313,234.5781 Q281.6875,234.5781 281,235.6406 Q280.3125,236.7031 280.3125,238.8125 Q280.3125,240.9063 281,241.9844 Q281.6875,243.0469 283.0313,243.0469 Q283.6563,243.0469 284.25,242.7813 Q284.8438,242.5 285.4844,241.9219 L285.4844,244.6406 Z " fill="#000000"/><text fill="#000000" font-family="sans-serif" font-size="14" lengthAdjust="spacing" textLength="132" x="296.5" y="243.8467">ArrayChannelData</text><line style="stroke:#181818;stroke-width:0.5;" x1="268.5" x2="430.5" y1="255" y2="255"/><line style="stroke:#181818;stroke-width:0.5;" x1="268.5" x2="430.5" y1="263" y2="263"/></g><!--class MCAChannelData--><g id="elem_MCAChannelData"><rect codeLine="8" fill="#F1F1F1" height="113.1875" id="MCAChannelData" rx="2.5" ry="2.5" style="stroke:#181818;stroke-width:0.5;" width="204" x="277.5" y="331"/><ellipse cx="313.65" cy="347" fill="#ADD1B2" rx="11" ry="11" style="stroke:#181818;stroke-width:1.0;"/><path d="M316.6344,352.6406 Q316.0563,352.9375 315.4156,353.0781 Q314.775,353.2344 314.0719,353.2344 Q311.5563,353.2344 310.2281,351.5938 Q308.9156,349.9375 308.9156,346.8125 Q308.9156,343.6719 310.2281,342.0313 Q311.5563,340.375 314.0719,340.375 Q314.775,340.375 315.4156,340.5313 Q316.0719,340.6719 316.6344,340.9688 L316.6344,343.6875 Q315.9938,343.1094 315.4,342.8438 Q314.8063,342.5781 314.1813,342.5781 Q312.8375,342.5781 312.15,343.6406 Q311.4625,344.7031 311.4625,346.8125 Q311.4625,348.9063 312.15,349.9844 Q312.8375,351.0469 314.1813,351.0469 Q314.8063,351.0469 315.4,350.7813 Q315.9938,350.5 316.6344,349.9219 L316.6344,352.6406 Z " fill="#000000"/><text fill="#000000" font-family="sans-serif" font-size="14" lengthAdjust="spacing" textLength="125" x="332.35" y="351.8467">MCAChannelData</text><line style="stroke:#181818;stroke-width:0.5;" x1="278.5" x2="480.5" y1="363" y2="363"/><text fill="#000000" font-family="sans-serif" font-size="14" lengthAdjust="spacing" textLength="70" x="283.5" y="379.9951">axis : Axis</text><text fill="#000000" font-family="sans-serif" font-size="14" lengthAdjust="spacing" textLength="192" x="283.5" y="396.292">roi[] : MCAChannelROIData</text><text fill="#000000" font-family="sans-serif" font-size="14" lengthAdjust="spacing" textLength="152" x="283.5" y="412.5889">life_time : np.ndarray</text><text fill="#000000" font-family="sans-serif" font-size="14" lengthAdjust="spacing" textLength="158" x="283.5" y="428.8857">real_time : np.ndarray</text><line style="stroke:#181818;stroke-width:0.5;" x1="278.5" x2="480.5" y1="436.1875" y2="436.1875"/></g><!--class Axis--><g id="elem_Axis"><rect codeLine="15" fill="#F1F1F1" height="113.1875" id="Axis" rx="2.5" ry="2.5" style="stroke:#181818;stroke-width:0.5;" width="123" x="517" y="331"/><ellipse cx="559.9" cy="347" fill="#ADD1B2" rx="11" ry="11" style="stroke:#181818;stroke-width:1.0;"/><path d="M562.8844,352.6406 Q562.3063,352.9375 561.6656,353.0781 Q561.025,353.2344 560.3219,353.2344 Q557.8063,353.2344 556.4781,351.5938 Q555.1656,349.9375 555.1656,346.8125 Q555.1656,343.6719 556.4781,342.0313 Q557.8063,340.375 560.3219,340.375 Q561.025,340.375 561.6656,340.5313 Q562.3219,340.6719 562.8844,340.9688 L562.8844,343.6875 Q562.2438,343.1094 561.65,342.8438 Q561.0563,342.5781 560.4313,342.5781 Q559.0875,342.5781 558.4,343.6406 Q557.7125,344.7031 557.7125,346.8125 Q557.7125,348.9063 558.4,349.9844 Q559.0875,351.0469 560.4313,351.0469 Q561.0563,351.0469 561.65,350.7813 Q562.2438,350.5 562.8844,349.9219 L562.8844,352.6406 Z " fill="#000000"/><text fill="#000000" font-family="sans-serif" font-size="14" lengthAdjust="spacing" textLength="29" x="580.1" y="351.8467">Axis</text><line style="stroke:#181818;stroke-width:0.5;" x1="518" x2="639" y1="363" y2="363"/><text fill="#000000" font-family="sans-serif" font-size="14" lengthAdjust="spacing" textLength="111" x="523" y="379.9951">quantity : string</text><text fill="#000000" font-family="sans-serif" font-size="14" lengthAdjust="spacing" textLength="80" x="523" y="396.292">unit : string</text><text fill="#000000" font-family="sans-serif" font-size="14" lengthAdjust="spacing" textLength="104" x="523" y="412.5889">symbol : string</text><text fill="#000000" font-family="sans-serif" font-size="14" lengthAdjust="spacing" textLength="88" x="523" y="428.8857">label : string</text><line style="stroke:#181818;stroke-width:0.5;" x1="518" x2="639" y1="436.1875" y2="436.1875"/></g><!--class MCAChannelROIData--><g id="elem_MCAChannelROIData"><rect codeLine="26" fill="#F1F1F1" height="80.5938" id="MCAChannelROIData" rx="2.5" ry="2.5" style="stroke:#181818;stroke-width:0.5;" width="235" x="7" y="347"/><ellipse cx="45.85" cy="363" fill="#ADD1B2" rx="11" ry="11" style="stroke:#181818;stroke-width:1.0;"/><path d="M48.8344,368.6406 Q48.2563,368.9375 47.6156,369.0781 Q46.975,369.2344 46.2719,369.2344 Q43.7563,369.2344 42.4281,367.5938 Q41.1156,365.9375 41.1156,362.8125 Q41.1156,359.6719 42.4281,358.0313 Q43.7563,356.375 46.2719,356.375 Q46.975,356.375 47.6156,356.5313 Q48.2719,356.6719 48.8344,356.9688 L48.8344,359.6875 Q48.1938,359.1094 47.6,358.8438 Q47.0063,358.5781 46.3813,358.5781 Q45.0375,358.5781 44.35,359.6406 Q43.6625,360.7031 43.6625,362.8125 Q43.6625,364.9063 44.35,365.9844 Q45.0375,367.0469 46.3813,367.0469 Q47.0063,367.0469 47.6,366.7813 Q48.1938,366.5 48.8344,365.9219 L48.8344,368.6406 Z " fill="#000000"/><text fill="#000000" font-family="sans-serif" font-size="14" lengthAdjust="spacing" textLength="150" x="65.15" y="367.8467">MCAChannelROIData</text><line style="stroke:#181818;stroke-width:0.5;" x1="8" x2="241" y1="379" y2="379"/><text fill="#000000" font-family="sans-serif" font-size="14" lengthAdjust="spacing" textLength="88" x="13" y="395.9951">label : string</text><text fill="#000000" font-family="sans-serif" font-size="14" lengthAdjust="spacing" textLength="223" x="13" y="412.292">marker : np.ndarray(dtype=int)</text><line style="stroke:#181818;stroke-width:0.5;" x1="8" x2="241" y1="419.5938" y2="419.5938"/></g><!--reverse link MeasureData to ChannelData--><g id="link_MeasureData_ChannelData"><path d="M271.3029,69.2378 C284.9629,86.8978 292.74,96.94 306.46,114.68 " fill="none" id="MeasureData-backto-ChannelData" style="stroke:#181818;stroke-width:1.0;"/><polygon fill="none" points="260.29,55,266.557,72.9088,276.0489,65.5668,260.29,55" style="stroke:#181818;stroke-width:1.0;"/></g><!--reverse link ChannelData to ArrayChannelData--><g id="link_ChannelData_ArrayChannelData"><path d="M334.0565,180.5183 C338.2265,198.1783 339.82,204.94 344,222.68 " fill="none" id="ChannelData-backto-ArrayChannelData" style="stroke:#181818;stroke-width:1.0;"/><polygon fill="none" points="329.92,163,328.2171,181.8971,339.8959,179.1394,329.92,163" style="stroke:#181818;stroke-width:1.0;"/></g><!--reverse link ArrayChannelData to MCAChannelData--><g id="link_ArrayChannelData_MCAChannelData"><path d="M358.3334,288.7714 C361.8734,305.1014 362.95,310.08 367.46,330.94 " fill="none" id="ArrayChannelData-backto-MCAChannelData" style="stroke:#181818;stroke-width:1.0;"/><polygon fill="none" points="354.52,271.18,352.4696,290.0426,364.1972,287.5003,354.52,271.18" style="stroke:#181818;stroke-width:1.0;"/></g><!--reverse link MCAChannelData to Axis--><g id="link_MCAChannelData_Axis"><path codeLine="22" d="M493.72,387.5 C505.44,387.5 505.16,387.5 516.88,387.5 " fill="none" id="MCAChannelData-backto-Axis" style="stroke:#181818;stroke-width:1.0;"/><polygon fill="#181818" points="481.72,387.5,487.72,391.5,493.72,387.5,487.72,383.5,481.72,387.5" style="stroke:#181818;stroke-width:1.0;"/></g><!--link MCAChannelROIData to MCAChannelData--><g id="link_MCAChannelROIData_MCAChannelData"><path codeLine="24" d="M242.04,387.5 C253.85,387.5 253.67,387.5 265.48,387.5 " fill="none" id="MCAChannelROIData-to-MCAChannelData" style="stroke:#181818;stroke-width:1.0;"/><polygon fill="#181818" points="277.48,387.5,271.48,383.5,265.48,387.5,271.48,391.5,277.48,387.5" style="stroke:#181818;stroke-width:1.0;"/><text fill="#000000" font-family="sans-serif" font-size="13" lengthAdjust="spacing" textLength="24" x="249.9338" y="384.1263">0..n</text></g><!--reverse link MeasureData to MCAChannelROIData--><g id="link_MeasureData_MCAChannelROIData"><path d="M229.0757,72.3389 C209.2857,131.7989 162.35,272.79 137.65,346.99 " fill="none" id="MeasureData-backto-MCAChannelROIData" style="stroke:#181818;stroke-width:1.0;"/><polygon fill="none" points="234.76,55.26,223.3827,70.4441,234.7686,74.2337,234.76,55.26" style="stroke:#181818;stroke-width:1.0;"/></g><!--SRC=[RL71ReCm3BtdAw9UkbK2Tgwq0-ekErIJUfscoMrSi9e4bXYf2F7l2z1k5CWbylFpiv-zpfbBlqsIKeFbokZuL9ZafC7xI15a3emGVIXtELYB-WqO95uPhV9oZ-0hXnrsfwNEGRt47MDDAmGN6NAEJZQtolqkNQgR2JP2XWTNyd8hq_3riIleyoi0_og7Z_T-i2whwOpVJ0O3mvQnLT2f3eK8UY7L_Xdg6WqzVwgm9E8wC3qxibcFLfRu4V6rEHRw4TDmn14Kv2T-Dz5WHimSoDLB7DkLZ3QJ7OdPvkuL2mUwUMZEX5grqtd6AGFk4kuoNiUJuhh4LxByt8tUYby0]--></g></svg>