<?xml version="1.0" encoding="us-ascii" standalone="no"?><svg xmlns="http://www.w3.org/2000/svg" xmlns:xlink="http://www.w3.org/1999/xlink" contentStyleType="text/css" height="462px" preserveAspectRatio="none" style="width:618px;height:462px;background:#FFFFFF;" version="1.1" viewBox="0 0 618 462" width="618px" zoomAndPan="magnify"><defs/><g><!--class ChannelData--><g id="elem_ChannelData"><rect codeLine="3" fill="#F1F1F1" height="48" id="ChannelData" rx="2.5" ry="2.5" style="stroke:#181818;stroke-width:0.5;" width="119" x="177" y="115"/><ellipse cx="192" cy="131" fill="#ADD1B2" rx="11" ry="11" style="stroke:#181818;stroke-width:1.0;"/><path d="M191.4688,137.9219 Q189.7188,137.9219 188.5781,137.1875 Q187.4531,136.4375 186.8906,135.0938 Q186.3438,133.7344 186.3438,131.9375 Q186.3438,129.9063 187,128.4531 Q187.6563,127 188.9375,126.2188 Q190.2188,125.4375 192.0938,125.4375 Q192.9844,125.4375 193.6563,125.625 Q194.3281,125.7969 195.0156,126.1406 L194.2031,128.1563 Q193.5781,127.8438 193.0313,127.7188 Q192.5,127.5938 192.0156,127.5938 Q190.8438,127.5938 190.1406,128.125 Q189.4375,128.6563 189.1406,129.6094 Q188.8438,130.5625 188.8438,131.8281 Q188.8438,133.8438 189.5625,134.8125 Q190.2813,135.7656 191.875,135.7656 Q192.4688,135.7656 193.0938,135.6094 Q193.7188,135.4531 194.5469,135.0781 L194.5469,137.2969 Q193.8125,137.6094 193.0156,137.7656 Q192.2344,137.9219 191.4688,137.9219 Z " fill="#000000"/><text fill="#000000" font-family="sans-serif" font-size="14" lengthAdjust="spacing" textLength="87" x="206" y="136.432">ChannelData</text><line style="stroke:#181818;stroke-width:0.5;" x1="178" x2="295" y1="147" y2="147"/><line style="stroke:#181818;stroke-width:0.5;" x1="178" x2="295" y1="155" y2="155"/></g><!--class MeasureData--><g id="elem_MeasureData"><rect fill="#F1F1F1" height="48" id="MeasureData" rx="2.5" ry="2.5" style="stroke:#181818;stroke-width:0.5;" width="122" x="175.5" y="7"/><ellipse cx="190.5" cy="23" fill="#ADD1B2" rx="11" ry="11" style="stroke:#181818;stroke-width:1.0;"/><path d="M189.9688,29.9219 Q188.2188,29.9219 187.0781,29.1875 Q185.9531,28.4375 185.3906,27.0938 Q184.8438,25.7344 184.8438,23.9375 Q184.8438,21.9063 185.5,20.4531 Q186.1563,19 187.4375,18.2188 Q188.7188,17.4375 190.5938,17.4375 Q191.4844,17.4375 192.1563,17.625 Q192.8281,17.7969 193.5156,18.1406 L192.7031,20.1563 Q192.0781,19.8438 191.5313,19.7188 Q191,19.5938 190.5156,19.5938 Q189.3438,19.5938 188.6406,20.125 Q187.9375,20.6563 187.6406,21.6094 Q187.3438,22.5625 187.3438,23.8281 Q187.3438,25.8438 188.0625,26.8125 Q188.7813,27.7656 190.375,27.7656 Q190.9688,27.7656 191.5938,27.6094 Q192.2188,27.4531 193.0469,27.0781 L193.0469,29.2969 Q192.3125,29.6094 191.5156,29.7656 Q190.7344,29.9219 189.9688,29.9219 Z " fill="#000000"/><text fill="#000000" font-family="sans-serif" font-size="14" lengthAdjust="spacing" textLength="90" x="204.5" y="28.432">MeasureData</text><line style="stroke:#181818;stroke-width:0.5;" x1="176.5" x2="296.5" y1="39" y2="39"/><line style="stroke:#181818;stroke-width:0.5;" x1="176.5" x2="296.5" y1="47" y2="47"/></g><!--class ArrayChannelData--><g id="elem_ArrayChannelData"><rect codeLine="5" fill="#F1F1F1" height="48" id="ArrayChannelData" rx="2.5" ry="2.5" style="stroke:#181818;stroke-width:0.5;" width="155" x="253" y="223"/><ellipse cx="268" cy="239" fill="#ADD1B2" rx="11" ry="11" style="stroke:#181818;stroke-width:1.0;"/><path d="M267.4688,245.9219 Q265.7188,245.9219 264.5781,245.1875 Q263.4531,244.4375 262.8906,243.0938 Q262.3438,241.7344 262.3438,239.9375 Q262.3438,237.9063 263,236.4531 Q263.6563,235 264.9375,234.2188 Q266.2188,233.4375 268.0938,233.4375 Q268.9844,233.4375 269.6563,233.625 Q270.3281,233.7969 271.0156,234.1406 L270.2031,236.1563 Q269.5781,235.8438 269.0313,235.7188 Q268.5,235.5938 268.0156,235.5938 Q266.8438,235.5938 266.1406,236.125 Q265.4375,236.6563 265.1406,237.6094 Q264.8438,238.5625 264.8438,239.8281 Q264.8438,241.8438 265.5625,242.8125 Q266.2813,243.7656 267.875,243.7656 Q268.4688,243.7656 269.0938,243.6094 Q269.7188,243.4531 270.5469,243.0781 L270.5469,245.2969 Q269.8125,245.6094 269.0156,245.7656 Q268.2344,245.9219 267.4688,245.9219 Z " fill="#000000"/><text fill="#000000" font-family="sans-serif" font-size="14" lengthAdjust="spacing" textLength="123" x="282" y="244.432">ArrayChannelData</text><line style="stroke:#181818;stroke-width:0.5;" x1="254" x2="407" y1="255" y2="255"/><line style="stroke:#181818;stroke-width:0.5;" x1="254" x2="407" y1="263" y2="263"/></g><!--class MCAChannelData--><g id="elem_MCAChannelData"><rect codeLine="8" fill="#F1F1F1" height="124.2717" id="MCAChannelData" rx="2.5" ry="2.5" style="stroke:#181818;stroke-width:0.5;" width="195" x="261" y="331"/><ellipse cx="296.25" cy="347" fill="#ADD1B2" rx="11" ry="11" style="stroke:#181818;stroke-width:1.0;"/><path d="M295.7188,353.9219 Q293.9688,353.9219 292.8281,353.1875 Q291.7031,352.4375 291.1406,351.0938 Q290.5938,349.7344 290.5938,347.9375 Q290.5938,345.9063 291.25,344.4531 Q291.9063,343 293.1875,342.2188 Q294.4688,341.4375 296.3438,341.4375 Q297.2344,341.4375 297.9063,341.625 Q298.5781,341.7969 299.2656,342.1406 L298.4531,344.1563 Q297.8281,343.8438 297.2813,343.7188 Q296.75,343.5938 296.2656,343.5938 Q295.0938,343.5938 294.3906,344.125 Q293.6875,344.6563 293.3906,345.6094 Q293.0938,346.5625 293.0938,347.8281 Q293.0938,349.8438 293.8125,350.8125 Q294.5313,351.7656 296.125,351.7656 Q296.7188,351.7656 297.3438,351.6094 Q297.9688,351.4531 298.7969,351.0781 L298.7969,353.2969 Q298.0625,353.6094 297.2656,353.7656 Q296.4844,353.9219 295.7188,353.9219 Z " fill="#000000"/><text fill="#000000" font-family="sans-serif" font-size="14" lengthAdjust="spacing" textLength="118" x="314.75" y="352.432">MCAChannelData</text><line style="stroke:#181818;stroke-width:0.5;" x1="262" x2="455" y1="363" y2="363"/><text fill="#000000" font-family="sans-serif" font-size="14" lengthAdjust="spacing" textLength="65" x="267" y="381.9659">axis : Axis</text><text fill="#000000" font-family="sans-serif" font-size="14" lengthAdjust="spacing" textLength="183" x="267" y="401.0339">roi[] : MCAChannelROIData</text><text fill="#000000" font-family="sans-serif" font-size="14" lengthAdjust="spacing" textLength="144" x="267" y="420.1018">life_time : np.ndarray</text><text fill="#000000" font-family="sans-serif" font-size="14" lengthAdjust="spacing" textLength="149" x="267" y="439.1697">real_time : np.ndarray</text><line style="stroke:#181818;stroke-width:0.5;" x1="262" x2="455" y1="447.2717" y2="447.2717"/></g><!--class Axis--><g id="elem_Axis"><rect codeLine="15" fill="#F1F1F1" height="124.2717" id="Axis" rx="2.5" ry="2.5" style="stroke:#181818;stroke-width:0.5;" width="120" x="491.5" y="331"/><ellipse cx="533.95" cy="347" fill="#ADD1B2" rx="11" ry="11" style="stroke:#181818;stroke-width:1.0;"/><path d="M533.4188,353.9219 Q531.6688,353.9219 530.5281,353.1875 Q529.4031,352.4375 528.8406,351.0938 Q528.2938,349.7344 528.2938,347.9375 Q528.2938,345.9063 528.95,344.4531 Q529.6063,343 530.8875,342.2188 Q532.1688,341.4375 534.0438,341.4375 Q534.9344,341.4375 535.6063,341.625 Q536.2781,341.7969 536.9656,342.1406 L536.1531,344.1563 Q535.5281,343.8438 534.9813,343.7188 Q534.45,343.5938 533.9656,343.5938 Q532.7938,343.5938 532.0906,344.125 Q531.3875,344.6563 531.0906,345.6094 Q530.7938,346.5625 530.7938,347.8281 Q530.7938,349.8438 531.5125,350.8125 Q532.2313,351.7656 533.825,351.7656 Q534.4188,351.7656 535.0438,351.6094 Q535.6688,351.4531 536.4969,351.0781 L536.4969,353.2969 Q535.7625,353.6094 534.9656,353.7656 Q534.1844,353.9219 533.4188,353.9219 Z " fill="#000000"/><text fill="#000000" font-family="sans-serif" font-size="14" lengthAdjust="spacing" textLength="27" x="554.05" y="352.432">Axis</text><line style="stroke:#181818;stroke-width:0.5;" x1="492.5" x2="610.5" y1="363" y2="363"/><text fill="#000000" font-family="sans-serif" font-size="14" lengthAdjust="spacing" textLength="108" x="497.5" y="381.9659">quantity : string</text><text fill="#000000" font-family="sans-serif" font-size="14" lengthAdjust="spacing" textLength="79" x="497.5" y="401.0339">unit : string</text><text fill="#000000" font-family="sans-serif" font-size="14" lengthAdjust="spacing" textLength="100" x="497.5" y="420.1018">symbol : string</text><text fill="#000000" font-family="sans-serif" font-size="14" lengthAdjust="spacing" textLength="85" x="497.5" y="439.1697">label : string</text><line style="stroke:#181818;stroke-width:0.5;" x1="492.5" x2="610.5" y1="447.2717" y2="447.2717"/></g><!--class MCAChannelROIData--><g id="elem_MCAChannelROIData"><rect codeLine="26" fill="#F1F1F1" height="86.1358" id="MCAChannelROIData" rx="2.5" ry="2.5" style="stroke:#181818;stroke-width:0.5;" width="219" x="7" y="350"/><ellipse cx="41.8" cy="366" fill="#ADD1B2" rx="11" ry="11" style="stroke:#181818;stroke-width:1.0;"/><path d="M41.2688,372.9219 Q39.5188,372.9219 38.3781,372.1875 Q37.2531,371.4375 36.6906,370.0938 Q36.1438,368.7344 36.1438,366.9375 Q36.1438,364.9063 36.8,363.4531 Q37.4563,362 38.7375,361.2188 Q40.0188,360.4375 41.8938,360.4375 Q42.7844,360.4375 43.4563,360.625 Q44.1281,360.7969 44.8156,361.1406 L44.0031,363.1563 Q43.3781,362.8438 42.8313,362.7188 Q42.3,362.5938 41.8156,362.5938 Q40.6438,362.5938 39.9406,363.125 Q39.2375,363.6563 38.9406,364.6094 Q38.6438,365.5625 38.6438,366.8281 Q38.6438,368.8438 39.3625,369.8125 Q40.0813,370.7656 41.675,370.7656 Q42.2688,370.7656 42.8938,370.6094 Q43.5188,370.4531 44.3469,370.0781 L44.3469,372.2969 Q43.6125,372.6094 42.8156,372.7656 Q42.0344,372.9219 41.2688,372.9219 Z " fill="#000000"/><text fill="#000000" font-family="sans-serif" font-size="14" lengthAdjust="spacing" textLength="143" x="60.2" y="371.432">MCAChannelROIData</text><line style="stroke:#181818;stroke-width:0.5;" x1="8" x2="225" y1="382" y2="382"/><text fill="#000000" font-family="sans-serif" font-size="14" lengthAdjust="spacing" textLength="85" x="13" y="400.9659">label : string</text><text fill="#000000" font-family="sans-serif" font-size="14" lengthAdjust="spacing" textLength="207" x="13" y="420.0339">marker : np.ndarray(dtype=int)</text><line style="stroke:#181818;stroke-width:0.5;" x1="8" x2="225" y1="428.1358" y2="428.1358"/></g><!--reverse link MeasureData to ChannelData--><g id="link_MeasureData_ChannelData"><path d="M236.5,73 C236.5,90.66 236.5,96.94 236.5,114.68 " fill="none" id="MeasureData-backto-ChannelData" style="stroke:#181818;stroke-width:1.0;"/><polygon fill="none" points="236.5,55,230.5,73,242.5,73,236.5,55" style="stroke:#181818;stroke-width:1.0;"/></g><!--reverse link ChannelData to ArrayChannelData--><g id="link_ChannelData_ArrayChannelData"><path d="M268.8424,176.4677 C284.5024,194.1277 294.09,204.94 309.82,222.68 " fill="none" id="ChannelData-backto-ArrayChannelData" style="stroke:#181818;stroke-width:1.0;"/><polygon fill="none" points="256.9,163,264.3532,180.4485,273.3317,172.4868,256.9,163" style="stroke:#181818;stroke-width:1.0;"/></g><!--reverse link ArrayChannelData to MCAChannelData--><g id="link_ArrayChannelData_MCAChannelData"><path d="M338.4374,288.8087 C341.5774,304.9487 342.48,309.62 346.58,330.7 " fill="none" id="ArrayChannelData-backto-MCAChannelData" style="stroke:#181818;stroke-width:1.0;"/><polygon fill="none" points="335,271.14,332.5478,289.9545,344.327,287.6629,335,271.14" style="stroke:#181818;stroke-width:1.0;"/></g><!--reverse link MCAChannelData to Axis--><g id="link_MCAChannelData_Axis"><path codeLine="22" d="M468.13,393 C479.8,393 479.48,393 491.15,393 " fill="none" id="MCAChannelData-backto-Axis" style="stroke:#181818;stroke-width:1.0;"/><polygon fill="#181818" points="456.13,393,462.13,397,468.13,393,462.13,389,456.13,393" style="stroke:#181818;stroke-width:1.0;"/></g><!--link MCAChannelROIData to MCAChannelData--><g id="link_MCAChannelROIData_MCAChannelData"><path codeLine="24" d="M226.16,393 C237.7,393 237.25,393 248.79,393 " fill="none" id="MCAChannelROIData-to-MCAChannelData" style="stroke:#181818;stroke-width:1.0;"/><polygon fill="#181818" points="260.79,393,254.79,389,248.79,393,254.79,397,260.79,393" style="stroke:#181818;stroke-width:1.0;"/><text fill="#000000" font-family="sans-serif" font-size="13" lengthAdjust="spacing" textLength="21" x="233.8578" y="389.3707">0..n</text></g><!--reverse link ChannelData to MCAChannelROIData--><g id="link_ChannelData_MCAChannelROIData"><path d="M217.6882,179.5101 C197.4882,221.9101 162.17,296.09 136.65,349.68 " fill="none" id="ChannelData-backto-MCAChannelROIData" style="stroke:#181818;stroke-width:1.0;"/><polygon fill="none" points="225.43,163.26,212.2715,176.9295,223.1049,182.0907,225.43,163.26" style="stroke:#181818;stroke-width:1.0;"/></g><!--SRC=[RL6nQiCm4Dtr5I9Bsu3jpe4E9bqwX4BNKiebkjYYqjcLpX1Z_E-LxAPrR6iHUdVtxhsdkvAvzhiigmqGDzQafyfc9mFU9qf3uS0ACJpblWGYDC_08F72IChB0u9l74RisfOx1-rQxnJhUY6uAf1BTBBxdJpiyxMv1M4dP3XmqLxkP1wkuUqg_VuHW7-MjzUNGLYi6dt6JzOMGmVLAIc8hECWWbafzN-6ug9nvtSJGjBSXaxFJbCne0rflaLyQu-LkSKC77421VgPtsqocX4B1tBpcAQqaSbsbf5O97UTM0rzqD6TDHhLp_LCInRSL_YNQHptYjiQdpJnGvJUYny0]--></g></svg>