<?xml version="1.0" encoding="us-ascii" standalone="no"?><svg xmlns="http://www.w3.org/2000/svg" xmlns:xlink="http://www.w3.org/1999/xlink" contentStyleType="text/css" height="657px" preserveAspectRatio="none" style="width:1251px;height:657px;background:#FFFFFF;" version="1.1" viewBox="0 0 1251 657" width="1251px" zoomAndPan="magnify"><defs/><g><!--class Metadata--><g id="elem_Metadata"><rect codeLine="2" fill="#F1F1F1" height="80.5938" id="Metadata" rx="2.5" ry="2.5" style="stroke:#181818;stroke-width:0.5;" width="106" x="611" y="7"/><ellipse cx="629.15" cy="23" fill="#ADD1B2" rx="11" ry="11" style="stroke:#181818;stroke-width:1.0;"/><path d="M632.1344,28.6406 Q631.5563,28.9375 630.9156,29.0781 Q630.275,29.2344 629.5719,29.2344 Q627.0563,29.2344 625.7281,27.5938 Q624.4156,25.9375 624.4156,22.8125 Q624.4156,19.6719 625.7281,18.0313 Q627.0563,16.375 629.5719,16.375 Q630.275,16.375 630.9156,16.5313 Q631.5719,16.6719 632.1344,16.9688 L632.1344,19.6875 Q631.4938,19.1094 630.9,18.8438 Q630.3063,18.5781 629.6813,18.5781 Q628.3375,18.5781 627.65,19.6406 Q626.9625,20.7031 626.9625,22.8125 Q626.9625,24.9063 627.65,25.9844 Q628.3375,27.0469 629.6813,27.0469 Q630.3063,27.0469 630.9,26.7813 Q631.4938,26.5 632.1344,25.9219 L632.1344,28.6406 Z " fill="#000000"/><text fill="#000000" font-family="sans-serif" font-size="14" lengthAdjust="spacing" textLength="67" x="643.85" y="27.8467">Metadata</text><line style="stroke:#181818;stroke-width:0.5;" x1="612" x2="716" y1="39" y2="39"/><text fill="#000000" font-family="sans-serif" font-size="14" lengthAdjust="spacing" textLength="94" x="617" y="55.9951">name : string</text><text fill="#000000" font-family="sans-serif" font-size="14" lengthAdjust="spacing" textLength="91" x="617" y="72.292">options : dict</text><line style="stroke:#181818;stroke-width:0.5;" x1="612" x2="716" y1="79.5938" y2="79.5938"/></g><path d="M752,15 L752,38.6992 L708,67.4453 L752,46.6992 L752,70.3984 A0,0 0 0 0 752,70.3984 L1244,70.3984 A0,0 0 0 0 1244,70.3984 L1244,25 L1234,15 L752,15 A0,0 0 0 0 752,15 " fill="#FEFFDD" style="stroke:#181818;stroke-width:0.5;"/><path d="M1234,15 L1234,25 L1244,25 L1234,15 " fill="#FEFFDD" style="stroke:#181818;stroke-width:0.5;"/><text fill="#000000" font-family="sans-serif" font-size="13" lengthAdjust="spacing" textLength="154" x="758" y="32.0669">The difference between</text><text fill="#000000" font-family="monospace" font-size="13" lengthAdjust="spacing" textLength="56" x="916" y="32.0669">options</text><text fill="#000000" font-family="sans-serif" font-size="13" lengthAdjust="spacing" textLength="138" x="976" y="32.0669">here in Metadata and</text><text fill="#000000" font-family="monospace" font-size="13" lengthAdjust="spacing" textLength="56" x="1118" y="32.0669">options</text><text fill="#000000" font-family="sans-serif" font-size="13" lengthAdjust="spacing" textLength="51" x="1178" y="32.0669">in Data:</text><text fill="#000000" font-family="sans-serif" font-size="13" lengthAdjust="spacing" textLength="456" x="758" y="47.1997">Options in Data vary potentially for each data point, hence are arrays,</text><text fill="#000000" font-family="sans-serif" font-size="13" lengthAdjust="spacing" textLength="469" x="758" y="62.3325">while options in Metadata are scalar and don't change for a Data object.</text><!--class Data--><g id="elem_Data"><rect codeLine="12" fill="#F1F1F1" height="48" id="Data" rx="2.5" ry="2.5" style="stroke:#181818;stroke-width:0.5;" width="66" x="931" y="172.5"/><ellipse cx="946" cy="188.5" fill="#ADD1B2" rx="11" ry="11" style="stroke:#181818;stroke-width:1.0;"/><path d="M948.9844,194.1406 Q948.4063,194.4375 947.7656,194.5781 Q947.125,194.7344 946.4219,194.7344 Q943.9063,194.7344 942.5781,193.0938 Q941.2656,191.4375 941.2656,188.3125 Q941.2656,185.1719 942.5781,183.5313 Q943.9063,181.875 946.4219,181.875 Q947.125,181.875 947.7656,182.0313 Q948.4219,182.1719 948.9844,182.4688 L948.9844,185.1875 Q948.3438,184.6094 947.75,184.3438 Q947.1563,184.0781 946.5313,184.0781 Q945.1875,184.0781 944.5,185.1406 Q943.8125,186.2031 943.8125,188.3125 Q943.8125,190.4063 944.5,191.4844 Q945.1875,192.5469 946.5313,192.5469 Q947.1563,192.5469 947.75,192.2813 Q948.3438,192 948.9844,191.4219 L948.9844,194.1406 Z " fill="#000000"/><text fill="#000000" font-family="sans-serif" font-size="14" lengthAdjust="spacing" textLength="34" x="960" y="193.3467">Data</text><line style="stroke:#181818;stroke-width:0.5;" x1="932" x2="996" y1="204.5" y2="204.5"/><line style="stroke:#181818;stroke-width:0.5;" x1="932" x2="996" y1="212.5" y2="212.5"/></g><g id="elem_GMN6"><path d="M1021.5,317 L1021.5,357.2656 A0,0 0 0 0 1021.5,357.2656 L1146.5,357.2656 A0,0 0 0 0 1146.5,357.2656 L1146.5,327 L1136.5,317 L1071.34,317 L984.09,220.68 L1063.34,317 L1021.5,317 A0,0 0 0 0 1021.5,317 " fill="#FEFFDD" style="stroke:#181818;stroke-width:0.5;"/><path d="M1136.5,317 L1136.5,327 L1146.5,327 L1136.5,317 " fill="#FEFFDD" style="stroke:#181818;stroke-width:0.5;"/><text fill="#000000" font-family="sans-serif" font-size="13" lengthAdjust="spacing" textLength="104" x="1027.5" y="334.0669">See diagram for</text><text fill="#000000" font-family="sans-serif" font-size="13" lengthAdjust="spacing" textLength="86" x="1027.5" y="349.1997">data module.</text></g><!--class AbstractDeviceMetadata--><g id="elem_AbstractDeviceMetadata"><rect codeLine="16" fill="#F1F1F1" height="96.8906" id="AbstractDeviceMetadata" rx="2.5" ry="2.5" style="stroke:#181818;stroke-width:0.5;" width="207" x="274.5" y="148"/><ellipse cx="289.5" cy="164" fill="#B4A7E5" rx="11" ry="11" style="stroke:#181818;stroke-width:1.0;"/><path d="M285.4219,159.75 L285.4219,157.5938 L292.8125,157.5938 L292.8125,159.75 L290.3438,159.75 L290.3438,167.8438 L292.8125,167.8438 L292.8125,170 L285.4219,170 L285.4219,167.8438 L287.8906,167.8438 L287.8906,159.75 L285.4219,159.75 Z " fill="#000000"/><text fill="#000000" font-family="sans-serif" font-size="14" font-style="italic" lengthAdjust="spacing" textLength="175" x="303.5" y="168.8467">AbstractDeviceMetadata</text><line style="stroke:#181818;stroke-width:0.5;" x1="275.5" x2="480.5" y1="180" y2="180"/><text fill="#000000" font-family="sans-serif" font-size="14" lengthAdjust="spacing" textLength="66" x="280.5" y="196.9951">id : string</text><text fill="#000000" font-family="sans-serif" font-size="14" lengthAdjust="spacing" textLength="70" x="280.5" y="213.292">pv : string</text><text fill="#000000" font-family="sans-serif" font-size="14" lengthAdjust="spacing" textLength="149" x="280.5" y="229.5889">access_mode : string</text><line style="stroke:#181818;stroke-width:0.5;" x1="275.5" x2="480.5" y1="236.8906" y2="236.8906"/></g><!--class MeasureMetadata--><g id="elem_MeasureMetadata"><rect codeLine="22" fill="#F1F1F1" height="64.2969" id="MeasureMetadata" rx="2.5" ry="2.5" style="stroke:#181818;stroke-width:0.5;" width="160" x="584" y="164.5"/><ellipse cx="599" cy="180.5" fill="#ADD1B2" rx="11" ry="11" style="stroke:#181818;stroke-width:1.0;"/><path d="M601.9844,186.1406 Q601.4063,186.4375 600.7656,186.5781 Q600.125,186.7344 599.4219,186.7344 Q596.9063,186.7344 595.5781,185.0938 Q594.2656,183.4375 594.2656,180.3125 Q594.2656,177.1719 595.5781,175.5313 Q596.9063,173.875 599.4219,173.875 Q600.125,173.875 600.7656,174.0313 Q601.4219,174.1719 601.9844,174.4688 L601.9844,177.1875 Q601.3438,176.6094 600.75,176.3438 Q600.1563,176.0781 599.5313,176.0781 Q598.1875,176.0781 597.5,177.1406 Q596.8125,178.2031 596.8125,180.3125 Q596.8125,182.4063 597.5,183.4844 Q598.1875,184.5469 599.5313,184.5469 Q600.1563,184.5469 600.75,184.2813 Q601.3438,184 601.9844,183.4219 L601.9844,186.1406 Z " fill="#000000"/><text fill="#000000" font-family="sans-serif" font-size="14" lengthAdjust="spacing" textLength="128" x="613" y="185.3467">MeasureMetadata</text><line style="stroke:#181818;stroke-width:0.5;" x1="585" x2="743" y1="196.5" y2="196.5"/><text fill="#000000" font-family="sans-serif" font-size="14" lengthAdjust="spacing" textLength="80" x="590" y="213.4951">unit : string</text><line style="stroke:#181818;stroke-width:0.5;" x1="585" x2="743" y1="220.7969" y2="220.7969"/></g><!--class MonitorMetadata--><g id="elem_MonitorMetadata"><rect codeLine="26" fill="#F1F1F1" height="48" id="MonitorMetadata" rx="2.5" ry="2.5" style="stroke:#181818;stroke-width:0.5;" width="153" x="77.5" y="313"/><ellipse cx="92.5" cy="329" fill="#ADD1B2" rx="11" ry="11" style="stroke:#181818;stroke-width:1.0;"/><path d="M95.4844,334.6406 Q94.9063,334.9375 94.2656,335.0781 Q93.625,335.2344 92.9219,335.2344 Q90.4063,335.2344 89.0781,333.5938 Q87.7656,331.9375 87.7656,328.8125 Q87.7656,325.6719 89.0781,324.0313 Q90.4063,322.375 92.9219,322.375 Q93.625,322.375 94.2656,322.5313 Q94.9219,322.6719 95.4844,322.9688 L95.4844,325.6875 Q94.8438,325.1094 94.25,324.8438 Q93.6563,324.5781 93.0313,324.5781 Q91.6875,324.5781 91,325.6406 Q90.3125,326.7031 90.3125,328.8125 Q90.3125,330.9063 91,331.9844 Q91.6875,333.0469 93.0313,333.0469 Q93.6563,333.0469 94.25,332.7813 Q94.8438,332.5 95.4844,331.9219 L95.4844,334.6406 Z " fill="#000000"/><text fill="#000000" font-family="sans-serif" font-size="14" lengthAdjust="spacing" textLength="121" x="106.5" y="333.8467">MonitorMetadata</text><line style="stroke:#181818;stroke-width:0.5;" x1="78.5" x2="229.5" y1="345" y2="345"/><line style="stroke:#181818;stroke-width:0.5;" x1="78.5" x2="229.5" y1="353" y2="353"/></g><!--class DeviceMetadata--><g id="elem_DeviceMetadata"><rect codeLine="29" fill="#F1F1F1" height="48" id="DeviceMetadata" rx="2.5" ry="2.5" style="stroke:#181818;stroke-width:0.5;" width="148" x="624" y="313"/><ellipse cx="639" cy="329" fill="#ADD1B2" rx="11" ry="11" style="stroke:#181818;stroke-width:1.0;"/><path d="M641.9844,334.6406 Q641.4063,334.9375 640.7656,335.0781 Q640.125,335.2344 639.4219,335.2344 Q636.9063,335.2344 635.5781,333.5938 Q634.2656,331.9375 634.2656,328.8125 Q634.2656,325.6719 635.5781,324.0313 Q636.9063,322.375 639.4219,322.375 Q640.125,322.375 640.7656,322.5313 Q641.4219,322.6719 641.9844,322.9688 L641.9844,325.6875 Q641.3438,325.1094 640.75,324.8438 Q640.1563,324.5781 639.5313,324.5781 Q638.1875,324.5781 637.5,325.6406 Q636.8125,326.7031 636.8125,328.8125 Q636.8125,330.9063 637.5,331.9844 Q638.1875,333.0469 639.5313,333.0469 Q640.1563,333.0469 640.75,332.7813 Q641.3438,332.5 641.9844,331.9219 L641.9844,334.6406 Z " fill="#000000"/><text fill="#000000" font-family="sans-serif" font-size="14" lengthAdjust="spacing" textLength="116" x="653" y="333.8467">DeviceMetadata</text><line style="stroke:#181818;stroke-width:0.5;" x1="625" x2="771" y1="345" y2="345"/><line style="stroke:#181818;stroke-width:0.5;" x1="625" x2="771" y1="353" y2="353"/></g><!--class AxisMetadata--><g id="elem_AxisMetadata"><rect codeLine="32" fill="#F1F1F1" height="64.2969" id="AxisMetadata" rx="2.5" ry="2.5" style="stroke:#181818;stroke-width:0.5;" width="129" x="459.5" y="305"/><ellipse cx="474.95" cy="321" fill="#ADD1B2" rx="11" ry="11" style="stroke:#181818;stroke-width:1.0;"/><path d="M477.9344,326.6406 Q477.3563,326.9375 476.7156,327.0781 Q476.075,327.2344 475.3719,327.2344 Q472.8563,327.2344 471.5281,325.5938 Q470.2156,323.9375 470.2156,320.8125 Q470.2156,317.6719 471.5281,316.0313 Q472.8563,314.375 475.3719,314.375 Q476.075,314.375 476.7156,314.5313 Q477.3719,314.6719 477.9344,314.9688 L477.9344,317.6875 Q477.2938,317.1094 476.7,316.8438 Q476.1063,316.5781 475.4813,316.5781 Q474.1375,316.5781 473.45,317.6406 Q472.7625,318.7031 472.7625,320.8125 Q472.7625,322.9063 473.45,323.9844 Q474.1375,325.0469 475.4813,325.0469 Q476.1063,325.0469 476.7,324.7813 Q477.2938,324.5 477.9344,323.9219 L477.9344,326.6406 Z " fill="#000000"/><text fill="#000000" font-family="sans-serif" font-size="14" lengthAdjust="spacing" textLength="96" x="489.05" y="325.8467">AxisMetadata</text><line style="stroke:#181818;stroke-width:0.5;" x1="460.5" x2="587.5" y1="337" y2="337"/><text fill="#000000" font-family="sans-serif" font-size="14" lengthAdjust="spacing" textLength="117" x="465.5" y="353.9951">deadband : float</text><line style="stroke:#181818;stroke-width:0.5;" x1="460.5" x2="587.5" y1="361.2969" y2="361.2969"/></g><!--class ChannelMetadata--><g id="elem_ChannelMetadata"><rect codeLine="36" fill="#F1F1F1" height="48" id="ChannelMetadata" rx="2.5" ry="2.5" style="stroke:#181818;stroke-width:0.5;" width="158" x="266" y="313"/><ellipse cx="281" cy="329" fill="#ADD1B2" rx="11" ry="11" style="stroke:#181818;stroke-width:1.0;"/><path d="M283.9844,334.6406 Q283.4063,334.9375 282.7656,335.0781 Q282.125,335.2344 281.4219,335.2344 Q278.9063,335.2344 277.5781,333.5938 Q276.2656,331.9375 276.2656,328.8125 Q276.2656,325.6719 277.5781,324.0313 Q278.9063,322.375 281.4219,322.375 Q282.125,322.375 282.7656,322.5313 Q283.4219,322.6719 283.9844,322.9688 L283.9844,325.6875 Q283.3438,325.1094 282.75,324.8438 Q282.1563,324.5781 281.5313,324.5781 Q280.1875,324.5781 279.5,325.6406 Q278.8125,326.7031 278.8125,328.8125 Q278.8125,330.9063 279.5,331.9844 Q280.1875,333.0469 281.5313,333.0469 Q282.1563,333.0469 282.75,332.7813 Q283.3438,332.5 283.9844,331.9219 L283.9844,334.6406 Z " fill="#000000"/><text fill="#000000" font-family="sans-serif" font-size="14" lengthAdjust="spacing" textLength="126" x="295" y="333.8467">ChannelMetadata</text><line style="stroke:#181818;stroke-width:0.5;" x1="267" x2="423" y1="345" y2="345"/><line style="stroke:#181818;stroke-width:0.5;" x1="267" x2="423" y1="353" y2="353"/></g><!--class TimestampMetadata--><g id="elem_TimestampMetadata"><rect codeLine="39" fill="#F1F1F1" height="48" id="TimestampMetadata" rx="2.5" ry="2.5" style="stroke:#181818;stroke-width:0.5;" width="179" x="807.5" y="313"/><ellipse cx="822.5" cy="329" fill="#ADD1B2" rx="11" ry="11" style="stroke:#181818;stroke-width:1.0;"/><path d="M825.4844,334.6406 Q824.9063,334.9375 824.2656,335.0781 Q823.625,335.2344 822.9219,335.2344 Q820.4063,335.2344 819.0781,333.5938 Q817.7656,331.9375 817.7656,328.8125 Q817.7656,325.6719 819.0781,324.0313 Q820.4063,322.375 822.9219,322.375 Q823.625,322.375 824.2656,322.5313 Q824.9219,322.6719 825.4844,322.9688 L825.4844,325.6875 Q824.8438,325.1094 824.25,324.8438 Q823.6563,324.5781 823.0313,324.5781 Q821.6875,324.5781 821,325.6406 Q820.3125,326.7031 820.3125,328.8125 Q820.3125,330.9063 821,331.9844 Q821.6875,333.0469 823.0313,333.0469 Q823.6563,333.0469 824.25,332.7813 Q824.8438,332.5 825.4844,331.9219 L825.4844,334.6406 Z " fill="#000000"/><text fill="#000000" font-family="sans-serif" font-size="14" lengthAdjust="spacing" textLength="147" x="836.5" y="333.8467">TimestampMetadata</text><line style="stroke:#181818;stroke-width:0.5;" x1="808.5" x2="985.5" y1="345" y2="345"/><line style="stroke:#181818;stroke-width:0.5;" x1="808.5" x2="985.5" y1="353" y2="353"/></g><!--class AverageChannelMetadata--><g id="elem_AverageChannelMetadata"><rect codeLine="42" fill="#F1F1F1" height="113.1875" id="AverageChannelMetadata" rx="2.5" ry="2.5" style="stroke:#181818;stroke-width:0.5;" width="218" x="469" y="429"/><ellipse cx="484" cy="445" fill="#ADD1B2" rx="11" ry="11" style="stroke:#181818;stroke-width:1.0;"/><path d="M486.9844,450.6406 Q486.4063,450.9375 485.7656,451.0781 Q485.125,451.2344 484.4219,451.2344 Q481.9063,451.2344 480.5781,449.5938 Q479.2656,447.9375 479.2656,444.8125 Q479.2656,441.6719 480.5781,440.0313 Q481.9063,438.375 484.4219,438.375 Q485.125,438.375 485.7656,438.5313 Q486.4219,438.6719 486.9844,438.9688 L486.9844,441.6875 Q486.3438,441.1094 485.75,440.8438 Q485.1563,440.5781 484.5313,440.5781 Q483.1875,440.5781 482.5,441.6406 Q481.8125,442.7031 481.8125,444.8125 Q481.8125,446.9063 482.5,447.9844 Q483.1875,449.0469 484.5313,449.0469 Q485.1563,449.0469 485.75,448.7813 Q486.3438,448.5 486.9844,447.9219 L486.9844,450.6406 Z " fill="#000000"/><text fill="#000000" font-family="sans-serif" font-size="14" lengthAdjust="spacing" textLength="186" x="498" y="449.8467">AverageChannelMetadata</text><line style="stroke:#181818;stroke-width:0.5;" x1="470" x2="686" y1="461" y2="461"/><text fill="#000000" font-family="sans-serif" font-size="14" lengthAdjust="spacing" textLength="146" x="475" y="477.9951">n_averages : integer</text><text fill="#000000" font-family="sans-serif" font-size="14" lengthAdjust="spacing" textLength="107" x="475" y="494.292">low_limit : float</text><text fill="#000000" font-family="sans-serif" font-size="14" lengthAdjust="spacing" textLength="165" x="475" y="510.5889">max_attempts : integer</text><text fill="#000000" font-family="sans-serif" font-size="14" lengthAdjust="spacing" textLength="149" x="475" y="526.8857">max_deviation : float</text><line style="stroke:#181818;stroke-width:0.5;" x1="470" x2="686" y1="534.1875" y2="534.1875"/></g><!--class IntervalChannelMetadata--><g id="elem_IntervalChannelMetadata"><rect codeLine="49" fill="#F1F1F1" height="64.2969" id="IntervalChannelMetadata" rx="2.5" ry="2.5" style="stroke:#181818;stroke-width:0.5;" width="212" x="7" y="453.5"/><ellipse cx="22" cy="469.5" fill="#ADD1B2" rx="11" ry="11" style="stroke:#181818;stroke-width:1.0;"/><path d="M24.9844,475.1406 Q24.4063,475.4375 23.7656,475.5781 Q23.125,475.7344 22.4219,475.7344 Q19.9063,475.7344 18.5781,474.0938 Q17.2656,472.4375 17.2656,469.3125 Q17.2656,466.1719 18.5781,464.5313 Q19.9063,462.875 22.4219,462.875 Q23.125,462.875 23.7656,463.0313 Q24.4219,463.1719 24.9844,463.4688 L24.9844,466.1875 Q24.3438,465.6094 23.75,465.3438 Q23.1563,465.0781 22.5313,465.0781 Q21.1875,465.0781 20.5,466.1406 Q19.8125,467.2031 19.8125,469.3125 Q19.8125,471.4063 20.5,472.4844 Q21.1875,473.5469 22.5313,473.5469 Q23.1563,473.5469 23.75,473.2813 Q24.3438,473 24.9844,472.4219 L24.9844,475.1406 Z " fill="#000000"/><text fill="#000000" font-family="sans-serif" font-size="14" lengthAdjust="spacing" textLength="180" x="36" y="474.3467">IntervalChannelMetadata</text><line style="stroke:#181818;stroke-width:0.5;" x1="8" x2="218" y1="485.5" y2="485.5"/><text fill="#000000" font-family="sans-serif" font-size="14" lengthAdjust="spacing" textLength="154" x="13" y="502.4951">trigger_interval : float</text><line style="stroke:#181818;stroke-width:0.5;" x1="8" x2="218" y1="509.7969" y2="509.7969"/></g><!--class NormalizedMetadata--><g id="elem_NormalizedMetadata"><rect codeLine="55" fill="#F1F1F1" height="64.2969" id="NormalizedMetadata" rx="2.5" ry="2.5" style="stroke:#181818;stroke-width:0.5;" width="180" x="254" y="453.5"/><ellipse cx="269" cy="469.5" fill="#B4A7E5" rx="11" ry="11" style="stroke:#181818;stroke-width:1.0;"/><path d="M264.9219,465.25 L264.9219,463.0938 L272.3125,463.0938 L272.3125,465.25 L269.8438,465.25 L269.8438,473.3438 L272.3125,473.3438 L272.3125,475.5 L264.9219,475.5 L264.9219,473.3438 L267.3906,473.3438 L267.3906,465.25 L264.9219,465.25 Z " fill="#000000"/><text fill="#000000" font-family="sans-serif" font-size="14" font-style="italic" lengthAdjust="spacing" textLength="148" x="283" y="474.3467">NormalizedMetadata</text><line style="stroke:#181818;stroke-width:0.5;" x1="255" x2="433" y1="485.5" y2="485.5"/><text fill="#000000" font-family="sans-serif" font-size="14" lengthAdjust="spacing" textLength="144" x="260" y="502.4951">normalize_id : string</text><line style="stroke:#181818;stroke-width:0.5;" x1="255" x2="433" y1="509.7969" y2="509.7969"/></g><!--class AverageNormalizedChannelMetadata--><g id="elem_AverageNormalizedChannelMetadata"><rect codeLine="59" fill="#F1F1F1" height="48" id="AverageNormalizedChannelMetadata" rx="2.5" ry="2.5" style="stroke:#181818;stroke-width:0.5;" width="299" x="394.5" y="602"/><ellipse cx="409.5" cy="618" fill="#ADD1B2" rx="11" ry="11" style="stroke:#181818;stroke-width:1.0;"/><path d="M412.4844,623.6406 Q411.9063,623.9375 411.2656,624.0781 Q410.625,624.2344 409.9219,624.2344 Q407.4063,624.2344 406.0781,622.5938 Q404.7656,620.9375 404.7656,617.8125 Q404.7656,614.6719 406.0781,613.0313 Q407.4063,611.375 409.9219,611.375 Q410.625,611.375 411.2656,611.5313 Q411.9219,611.6719 412.4844,611.9688 L412.4844,614.6875 Q411.8438,614.1094 411.25,613.8438 Q410.6563,613.5781 410.0313,613.5781 Q408.6875,613.5781 408,614.6406 Q407.3125,615.7031 407.3125,617.8125 Q407.3125,619.9063 408,620.9844 Q408.6875,622.0469 410.0313,622.0469 Q410.6563,622.0469 411.25,621.7813 Q411.8438,621.5 412.4844,620.9219 L412.4844,623.6406 Z " fill="#000000"/><text fill="#000000" font-family="sans-serif" font-size="14" lengthAdjust="spacing" textLength="267" x="423.5" y="622.8467">AverageNormalizedChannelMetadata</text><line style="stroke:#181818;stroke-width:0.5;" x1="395.5" x2="692.5" y1="634" y2="634"/><line style="stroke:#181818;stroke-width:0.5;" x1="395.5" x2="692.5" y1="642" y2="642"/></g><!--class IntervalNormalizedChannelMetadata--><g id="elem_IntervalNormalizedChannelMetadata"><rect codeLine="61" fill="#F1F1F1" height="48" id="IntervalNormalizedChannelMetadata" rx="2.5" ry="2.5" style="stroke:#181818;stroke-width:0.5;" width="293" x="33.5" y="602"/><ellipse cx="48.5" cy="618" fill="#ADD1B2" rx="11" ry="11" style="stroke:#181818;stroke-width:1.0;"/><path d="M51.4844,623.6406 Q50.9063,623.9375 50.2656,624.0781 Q49.625,624.2344 48.9219,624.2344 Q46.4063,624.2344 45.0781,622.5938 Q43.7656,620.9375 43.7656,617.8125 Q43.7656,614.6719 45.0781,613.0313 Q46.4063,611.375 48.9219,611.375 Q49.625,611.375 50.2656,611.5313 Q50.9219,611.6719 51.4844,611.9688 L51.4844,614.6875 Q50.8438,614.1094 50.25,613.8438 Q49.6563,613.5781 49.0313,613.5781 Q47.6875,613.5781 47,614.6406 Q46.3125,615.7031 46.3125,617.8125 Q46.3125,619.9063 47,620.9844 Q47.6875,622.0469 49.0313,622.0469 Q49.6563,622.0469 50.25,621.7813 Q50.8438,621.5 51.4844,620.9219 L51.4844,623.6406 Z " fill="#000000"/><text fill="#000000" font-family="sans-serif" font-size="14" lengthAdjust="spacing" textLength="261" x="62.5" y="622.8467">IntervalNormalizedChannelMetadata</text><line style="stroke:#181818;stroke-width:0.5;" x1="34.5" x2="325.5" y1="634" y2="634"/><line style="stroke:#181818;stroke-width:0.5;" x1="34.5" x2="325.5" y1="642" y2="642"/></g><!--reverse link Metadata to MeasureMetadata--><g id="link_Metadata_MeasureMetadata"><path d="M664,106.28 C664,130.09 664,141.92 664,164.07 " fill="none" id="Metadata-backto-MeasureMetadata" style="stroke:#181818;stroke-width:1.0;"/><polygon fill="none" points="664,88.28,658,106.28,670,106.28,664,88.28" style="stroke:#181818;stroke-width:1.0;"/></g><!--reverse link Metadata to MonitorMetadata--><g id="link_Metadata_MonitorMetadata"><path d="M592.7275,48.86 C508.9875,51.28 363.17,66.5 257,148 C201.2,190.83 171.65,272.89 160.01,312.91 " fill="none" id="Metadata-backto-MonitorMetadata" style="stroke:#181818;stroke-width:1.0;"/><polygon fill="none" points="610.72,48.34,592.5542,42.8625,592.9008,54.8575,610.72,48.34" style="stroke:#181818;stroke-width:1.0;"/></g><!--reverse link AbstractDeviceMetadata to MonitorMetadata--><g id="link_AbstractDeviceMetadata_MonitorMetadata"><path d="M285.6007,254.6271 C248.5207,277.5571 221.08,294.52 191.29,312.94 " fill="none" id="AbstractDeviceMetadata-backto-MonitorMetadata" style="stroke:#181818;stroke-width:1.0;stroke-dasharray:7.0,7.0;"/><polygon fill="none" points="300.91,245.16,282.445,249.524,288.7565,259.7302,300.91,245.16" style="stroke:#181818;stroke-width:1.0;"/></g><!--reverse link MeasureMetadata to DeviceMetadata--><g id="link_MeasureMetadata_DeviceMetadata"><path d="M675.9247,246.0601 C682.1947,271.5801 686.63,289.68 692.3,312.78 " fill="none" id="MeasureMetadata-backto-DeviceMetadata" style="stroke:#181818;stroke-width:1.0;"/><polygon fill="none" points="671.63,228.58,670.098,247.4917,681.7514,244.6286,671.63,228.58" style="stroke:#181818;stroke-width:1.0;"/></g><!--reverse link AbstractDeviceMetadata to DeviceMetadata--><g id="link_AbstractDeviceMetadata_DeviceMetadata"><path d="M498.4103,249.617 C552.8003,273.147 600.56,293.83 644.8,312.98 " fill="none" id="AbstractDeviceMetadata-backto-DeviceMetadata" style="stroke:#181818;stroke-width:1.0;stroke-dasharray:7.0,7.0;"/><polygon fill="none" points="481.89,242.47,496.028,255.1237,500.7926,244.1102,481.89,242.47" style="stroke:#181818;stroke-width:1.0;"/></g><!--reverse link MeasureMetadata to AxisMetadata--><g id="link_MeasureMetadata_AxisMetadata"><path d="M619.7852,241.2407 C596.8952,263.8907 578.78,281.81 555.8,304.54 " fill="none" id="MeasureMetadata-backto-AxisMetadata" style="stroke:#181818;stroke-width:1.0;"/><polygon fill="none" points="632.58,228.58,615.565,236.9757,624.0054,245.5056,632.58,228.58" style="stroke:#181818;stroke-width:1.0;"/></g><!--reverse link AbstractDeviceMetadata to AxisMetadata--><g id="link_AbstractDeviceMetadata_AxisMetadata"><path d="M441.2996,257.5474 C462.0896,277.2674 472.55,287.2 491.08,304.77 " fill="none" id="AbstractDeviceMetadata-backto-AxisMetadata" style="stroke:#181818;stroke-width:1.0;stroke-dasharray:7.0,7.0;"/><polygon fill="none" points="428.24,245.16,437.1704,261.9006,445.4287,253.1942,428.24,245.16" style="stroke:#181818;stroke-width:1.0;"/></g><!--reverse link MeasureMetadata to ChannelMetadata--><g id="link_MeasureMetadata_ChannelMetadata"><path d="M575.8987,235.7479 C516.9287,261.3479 451.17,289.91 397.99,313 " fill="none" id="MeasureMetadata-backto-ChannelMetadata" style="stroke:#181818;stroke-width:1.0;"/><polygon fill="none" points="592.41,228.58,573.5095,230.2441,578.288,241.2516,592.41,228.58" style="stroke:#181818;stroke-width:1.0;"/></g><!--reverse link AbstractDeviceMetadata to ChannelMetadata--><g id="link_AbstractDeviceMetadata_ChannelMetadata"><path d="M362.4712,262.6706 C357.0312,285.5206 354.93,294.34 350.54,312.75 " fill="none" id="AbstractDeviceMetadata-backto-ChannelMetadata" style="stroke:#181818;stroke-width:1.0;stroke-dasharray:7.0,7.0;"/><polygon fill="none" points="366.64,245.16,356.6343,261.281,368.308,264.0602,366.64,245.16" style="stroke:#181818;stroke-width:1.0;"/></g><!--reverse link MeasureMetadata to TimestampMetadata--><g id="link_MeasureMetadata_TimestampMetadata"><path d="M731.7631,237.7769 C774.8331,263.3769 819.46,289.91 858.3,313 " fill="none" id="MeasureMetadata-backto-TimestampMetadata" style="stroke:#181818;stroke-width:1.0;"/><polygon fill="none" points="716.29,228.58,728.6975,242.9346,734.8287,232.6192,716.29,228.58" style="stroke:#181818;stroke-width:1.0;"/></g><!--reverse link ChannelMetadata to AverageChannelMetadata--><g id="link_ChannelMetadata_AverageChannelMetadata"><path d="M396.899,370.6298 C425.739,388.7598 451.91,405.22 489.27,428.71 " fill="none" id="ChannelMetadata-backto-AverageChannelMetadata" style="stroke:#181818;stroke-width:1.0;"/><polygon fill="none" points="381.66,361.05,393.7057,375.7095,400.0923,365.5502,381.66,361.05" style="stroke:#181818;stroke-width:1.0;"/></g><!--reverse link ChannelMetadata to IntervalChannelMetadata--><g id="link_ChannelMetadata_IntervalChannelMetadata"><path d="M293.2706,370.661 C253.8406,395.561 206.02,425.76 162.23,453.41 " fill="none" id="ChannelMetadata-backto-IntervalChannelMetadata" style="stroke:#181818;stroke-width:1.0;"/><polygon fill="none" points="308.49,361.05,290.067,365.5879,296.4743,375.7341,308.49,361.05" style="stroke:#181818;stroke-width:1.0;"/></g><!--link Metadata to Data--><g id="link_Metadata_Data"><path codeLine="53" d="M717.29,78.66 C723.23,81.87 729.22,85.04 735,88 C803.61,123.13 874.8178,155.716 919.7078,175.816 " fill="none" id="Metadata-to-Data" style="stroke:#181818;stroke-width:1.0;"/><polygon fill="#181818" points="930.66,180.72,926.8186,174.6173,919.7078,175.816,923.5492,181.9187,930.66,180.72" style="stroke:#181818;stroke-width:1.0;"/></g><!--reverse link AverageChannelMetadata to AverageNormalizedChannelMetadata--><g id="link_AverageChannelMetadata_AverageNormalizedChannelMetadata"><path d="M560.0752,559.5201 C554.9352,580.4401 553.67,585.62 549.66,601.96 " fill="none" id="AverageChannelMetadata-backto-AverageNormalizedChannelMetadata" style="stroke:#181818;stroke-width:1.0;"/><polygon fill="none" points="564.37,542.04,554.2485,558.0885,565.9019,560.9517,564.37,542.04" style="stroke:#181818;stroke-width:1.0;"/></g><!--reverse link NormalizedMetadata to AverageNormalizedChannelMetadata--><g id="link_NormalizedMetadata_AverageNormalizedChannelMetadata"><path d="M403.6785,527.8272 C440.6485,553.4272 477.44,578.91 510.78,602 " fill="none" id="NormalizedMetadata-backto-AverageNormalizedChannelMetadata" style="stroke:#181818;stroke-width:1.0;stroke-dasharray:7.0,7.0;"/><polygon fill="none" points="388.88,517.58,400.2627,532.7601,407.0942,522.8944,388.88,517.58" style="stroke:#181818;stroke-width:1.0;"/></g><!--reverse link IntervalChannelMetadata to IntervalNormalizedChannelMetadata--><g id="link_IntervalChannelMetadata_IntervalNormalizedChannelMetadata"><path d="M135.8758,533.785 C148.2158,559.305 157.59,578.68 168.77,601.78 " fill="none" id="IntervalChannelMetadata-backto-IntervalNormalizedChannelMetadata" style="stroke:#181818;stroke-width:1.0;"/><polygon fill="none" points="128.04,517.58,130.4741,536.3969,141.2774,531.173,128.04,517.58" style="stroke:#181818;stroke-width:1.0;"/></g><!--reverse link NormalizedMetadata to IntervalNormalizedChannelMetadata--><g id="link_NormalizedMetadata_IntervalNormalizedChannelMetadata"><path d="M293.4467,529.1923 C263.1267,554.7923 234.58,578.91 207.24,602 " fill="none" id="NormalizedMetadata-backto-IntervalNormalizedChannelMetadata" style="stroke:#181818;stroke-width:1.0;stroke-dasharray:7.0,7.0;"/><polygon fill="none" points="307.2,517.58,289.5759,524.6079,297.3174,533.7768,307.2,517.58" style="stroke:#181818;stroke-width:1.0;"/></g><!--SRC=[hLFBRjim4BphAmXV0XH9Fa2teBxqaERG70i8At8biU138DUodIB_tYMjMB8SmIWG0pfu7pEpirnf84RnZ0GA2CJVGl3FWKLHYaX1kpP7V4_QkyX1fIKLxuNpX2BejYFXctD_MOw5kUcrGovl6Wpe98eQQO_en6Op5cqsekESq6uI04vT571kcu0puCkeOWoA0S9HzAp4aGPZZgBnGI38JcIitcj7zyoHs26aBy0ntcUiVQSDdkUwaC2LKOA1aDKex-v8o0vSYva0JkI-_eEI7WlackH6KSZivVRausXHxOcyBSKlJ5v06y0caDykKrclTWOVYuA5OcY0TJxLR3j8skAW9IuMezNbMlhXyZz8YJ5M33lRt_k7icU4k0iJ9XxOENMr_PtJz5ctvxWFwztQzWOjxoAk3t56MsGci4k9jp7de4y77Ry6ClcW45ITNa0f6kE19fxl_1WScYzM_wejHWBRtyITZpnWW1RN52tZutrNS6fB1vsUNeiX9upVLqRRlF_Jp2bguL014TgUbWqffNWaI6TqRTIFzAm7CFydZnzUomIL7hldkEVIXuTl-TJcj_FJ1mj6lw5Q3loHgEONj3HnQb_Jk-BsRC-VIRYoupRHcd4tcVu1]--></g></svg>