<?xml version="1.0" encoding="us-ascii" standalone="no"?><svg xmlns="http://www.w3.org/2000/svg" xmlns:xlink="http://www.w3.org/1999/xlink" contentStyleType="text/css" height="342px" preserveAspectRatio="none" style="width:199px;height:342px;background:#FFFFFF;" version="1.1" viewBox="0 0 199 342" width="199px" zoomAndPan="magnify"><defs/><g><!--cluster evefile--><g id="cluster_evefile"><path d="M8.5,6 L64.5,6 A3.75,3.75 0 0 1 67,8.5 L74,28.2969 L189.5,28.2969 A2.5,2.5 0 0 1 192,30.7969 L192,236.5 A2.5,2.5 0 0 1 189.5,239 L8.5,239 A2.5,2.5 0 0 1 6,236.5 L6,8.5 A2.5,2.5 0 0 1 8.5,6 " fill="none" style="stroke:#000000;stroke-width:1.5;"/><line style="stroke:#000000;stroke-width:1.5;" x1="6" x2="74" y1="28.2969" y2="28.2969"/><text fill="#000000" font-family="sans-serif" font-size="14" font-weight="bold" lengthAdjust="spacing" textLength="55" x="10" y="20.9951">evefile</text></g><!--cluster entities--><g id="cluster_entities"><path d="M32.5,49 L95.5,49 A3.75,3.75 0 0 1 98,51.5 L105,71.2969 L165.5,71.2969 A2.5,2.5 0 0 1 168,73.7969 L168,212.5 A2.5,2.5 0 0 1 165.5,215 L32.5,215 A2.5,2.5 0 0 1 30,212.5 L30,51.5 A2.5,2.5 0 0 1 32.5,49 " fill="none" style="stroke:#000000;stroke-width:1.5;"/><line style="stroke:#000000;stroke-width:1.5;" x1="30" x2="105" y1="71.2969" y2="71.2969"/><text fill="#000000" font-family="sans-serif" font-size="14" font-weight="bold" lengthAdjust="spacing" textLength="62" x="34" y="63.9951">entities</text></g><!--cluster file--><g id="cluster_file"><path d="M56.5,92 L83.5,92 A3.75,3.75 0 0 1 86,94.5 L93,114.2969 L141.5,114.2969 A2.5,2.5 0 0 1 144,116.7969 L144,188.5 A2.5,2.5 0 0 1 141.5,191 L56.5,191 A2.5,2.5 0 0 1 54,188.5 L54,94.5 A2.5,2.5 0 0 1 56.5,92 " fill="none" style="stroke:#000000;stroke-width:1.5;"/><line style="stroke:#000000;stroke-width:1.5;" x1="54" x2="93" y1="114.2969" y2="114.2969"/><text fill="#000000" font-family="sans-serif" font-size="14" font-weight="bold" lengthAdjust="spacing" textLength="26" x="58" y="106.9951">file</text></g><!--class File--><g id="elem_File"><rect fill="#F1F1F1" height="48" id="File" rx="2.5" ry="2.5" style="stroke:#181818;stroke-width:0.5;" width="57" x="70.5" y="127"/><ellipse cx="85.5" cy="143" fill="#ADD1B2" rx="11" ry="11" style="stroke:#181818;stroke-width:1.0;"/><path d="M88.4844,148.6406 Q87.9063,148.9375 87.2656,149.0781 Q86.625,149.2344 85.9219,149.2344 Q83.4063,149.2344 82.0781,147.5938 Q80.7656,145.9375 80.7656,142.8125 Q80.7656,139.6719 82.0781,138.0313 Q83.4063,136.375 85.9219,136.375 Q86.625,136.375 87.2656,136.5313 Q87.9219,136.6719 88.4844,136.9688 L88.4844,139.6875 Q87.8438,139.1094 87.25,138.8438 Q86.6563,138.5781 86.0313,138.5781 Q84.6875,138.5781 84,139.6406 Q83.3125,140.7031 83.3125,142.8125 Q83.3125,144.9063 84,145.9844 Q84.6875,147.0469 86.0313,147.0469 Q86.6563,147.0469 87.25,146.7813 Q87.8438,146.5 88.4844,145.9219 L88.4844,148.6406 Z " fill="#000000"/><text fill="#000000" font-family="sans-serif" font-size="14" lengthAdjust="spacing" textLength="25" x="99.5" y="147.8467">File</text><line style="stroke:#181818;stroke-width:0.5;" x1="71.5" x2="126.5" y1="159" y2="159"/><line style="stroke:#181818;stroke-width:0.5;" x1="71.5" x2="126.5" y1="167" y2="167"/></g><!--class EveFile--><g id="elem_EveFile"><rect codeLine="3" fill="#F1F1F1" height="80.5938" id="EveFile" rx="2.5" ry="2.5" style="stroke:#181818;stroke-width:0.5;" width="84" x="57" y="255"/><ellipse cx="72.45" cy="271" fill="#ADD1B2" rx="11" ry="11" style="stroke:#181818;stroke-width:1.0;"/><path d="M75.4344,276.6406 Q74.8563,276.9375 74.2156,277.0781 Q73.575,277.2344 72.8719,277.2344 Q70.3563,277.2344 69.0281,275.5938 Q67.7156,273.9375 67.7156,270.8125 Q67.7156,267.6719 69.0281,266.0313 Q70.3563,264.375 72.8719,264.375 Q73.575,264.375 74.2156,264.5313 Q74.8719,264.6719 75.4344,264.9688 L75.4344,267.6875 Q74.7938,267.1094 74.2,266.8438 Q73.6063,266.5781 72.9813,266.5781 Q71.6375,266.5781 70.95,267.6406 Q70.2625,268.7031 70.2625,270.8125 Q70.2625,272.9063 70.95,273.9844 Q71.6375,275.0469 72.9813,275.0469 Q73.6063,275.0469 74.2,274.7813 Q74.7938,274.5 75.4344,273.9219 L75.4344,276.6406 Z " fill="#000000"/><text fill="#000000" font-family="sans-serif" font-size="14" lengthAdjust="spacing" textLength="51" x="86.55" y="275.8467">EveFile</text><line style="stroke:#181818;stroke-width:0.5;" x1="58" x2="140" y1="287" y2="287"/><line style="stroke:#181818;stroke-width:0.5;" x1="58" x2="140" y1="295" y2="295"/><text fill="#000000" font-family="sans-serif" font-size="14" lengthAdjust="spacing" textLength="41" x="63" y="311.9951">load()</text><text fill="#000000" font-family="sans-serif" font-size="14" lengthAdjust="spacing" textLength="72" x="63" y="328.292">get_data()</text></g><!--reverse link File to EveFile--><g id="link_File_EveFile"><path d="M99,193.21 C99,214.74 99,229.23 99,254.86 " fill="none" id="File-backto-EveFile" style="stroke:#181818;stroke-width:1.0;"/><polygon fill="none" points="99,175.21,93,193.21,105,193.21,99,175.21" style="stroke:#181818;stroke-width:1.0;"/></g><!--SRC=[7Sgn2eGm48JXFa-HJgymwUtlNaCMCyR09egxYd3uxePCzNymtQgwo-ZzpbJqpEpcBVkPIMG8YU91sPX6-xtmImoBMr62M5nOgXsA9aqGrzGkVsFhUAFGVrf6w1H8gV8nBm00]--></g></svg>