<?xml version="1.0" encoding="us-ascii" standalone="no"?><svg xmlns="http://www.w3.org/2000/svg" xmlns:xlink="http://www.w3.org/1999/xlink" contentStyleType="text/css" height="446px" preserveAspectRatio="none" style="width:617px;height:446px;background:#FFFFFF;" version="1.1" viewBox="0 0 617 446" width="617px" zoomAndPan="magnify"><defs/><g><!--class File--><g id="elem_File"><rect codeLine="2" fill="#F1F1F1" height="129.4844" id="File" rx="2.5" ry="2.5" style="stroke:#181818;stroke-width:0.5;" width="285" x="116.5" y="7"/><ellipse cx="242.25" cy="23" fill="#ADD1B2" rx="11" ry="11" style="stroke:#181818;stroke-width:1.0;"/><path d="M245.2344,28.6406 Q244.6563,28.9375 244.0156,29.0781 Q243.375,29.2344 242.6719,29.2344 Q240.1563,29.2344 238.8281,27.5938 Q237.5156,25.9375 237.5156,22.8125 Q237.5156,19.6719 238.8281,18.0313 Q240.1563,16.375 242.6719,16.375 Q243.375,16.375 244.0156,16.5313 Q244.6719,16.6719 245.2344,16.9688 L245.2344,19.6875 Q244.5938,19.1094 244,18.8438 Q243.4063,18.5781 242.7813,18.5781 Q241.4375,18.5781 240.75,19.6406 Q240.0625,20.7031 240.0625,22.8125 Q240.0625,24.9063 240.75,25.9844 Q241.4375,27.0469 242.7813,27.0469 Q243.4063,27.0469 244,26.7813 Q244.5938,26.5 245.2344,25.9219 L245.2344,28.6406 Z " fill="#000000"/><text fill="#000000" font-family="sans-serif" font-size="14" lengthAdjust="spacing" textLength="25" x="262.75" y="27.8467">File</text><line style="stroke:#181818;stroke-width:0.5;" x1="117.5" x2="400.5" y1="39" y2="39"/><text fill="#000000" font-family="sans-serif" font-size="14" lengthAdjust="spacing" textLength="149" x="122.5" y="55.9951">metadata : Metadata</text><text fill="#000000" font-family="sans-serif" font-size="14" lengthAdjust="spacing" textLength="211" x="122.5" y="72.292">log_messages : LogMessage[]</text><text fill="#000000" font-family="sans-serif" font-size="14" lengthAdjust="spacing" textLength="136" x="122.5" y="88.5889">snapshots : Data{}</text><text fill="#000000" font-family="sans-serif" font-size="14" lengthAdjust="spacing" textLength="128" x="122.5" y="104.8857">monitors : Data{}</text><text fill="#000000" font-family="sans-serif" font-size="14" lengthAdjust="spacing" textLength="273" x="122.5" y="121.1826">position_timestamps : TimestampData</text><line style="stroke:#181818;stroke-width:0.5;" x1="117.5" x2="400.5" y1="128.4844" y2="128.4844"/></g><!--class Data--><g id="elem_Data"><rect fill="#F1F1F1" height="48" id="Data" rx="2.5" ry="2.5" style="stroke:#181818;stroke-width:0.5;" width="66" x="7" y="294"/><ellipse cx="22" cy="310" fill="#ADD1B2" rx="11" ry="11" style="stroke:#181818;stroke-width:1.0;"/><path d="M24.9844,315.6406 Q24.4063,315.9375 23.7656,316.0781 Q23.125,316.2344 22.4219,316.2344 Q19.9063,316.2344 18.5781,314.5938 Q17.2656,312.9375 17.2656,309.8125 Q17.2656,306.6719 18.5781,305.0313 Q19.9063,303.375 22.4219,303.375 Q23.125,303.375 23.7656,303.5313 Q24.4219,303.6719 24.9844,303.9688 L24.9844,306.6875 Q24.3438,306.1094 23.75,305.8438 Q23.1563,305.5781 22.5313,305.5781 Q21.1875,305.5781 20.5,306.6406 Q19.8125,307.7031 19.8125,309.8125 Q19.8125,311.9063 20.5,312.9844 Q21.1875,314.0469 22.5313,314.0469 Q23.1563,314.0469 23.75,313.7813 Q24.3438,313.5 24.9844,312.9219 L24.9844,315.6406 Z " fill="#000000"/><text fill="#000000" font-family="sans-serif" font-size="14" lengthAdjust="spacing" textLength="34" x="36" y="314.8467">Data</text><line style="stroke:#181818;stroke-width:0.5;" x1="8" x2="72" y1="326" y2="326"/><line style="stroke:#181818;stroke-width:0.5;" x1="8" x2="72" y1="334" y2="334"/></g><!--class Metadata--><g id="elem_Metadata"><rect codeLine="12" fill="#F1F1F1" height="243.5625" id="Metadata" rx="2.5" ry="2.5" style="stroke:#181818;stroke-width:0.5;" width="302" x="108" y="196"/><ellipse cx="221.25" cy="212" fill="#ADD1B2" rx="11" ry="11" style="stroke:#181818;stroke-width:1.0;"/><path d="M224.2344,217.6406 Q223.6563,217.9375 223.0156,218.0781 Q222.375,218.2344 221.6719,218.2344 Q219.1563,218.2344 217.8281,216.5938 Q216.5156,214.9375 216.5156,211.8125 Q216.5156,208.6719 217.8281,207.0313 Q219.1563,205.375 221.6719,205.375 Q222.375,205.375 223.0156,205.5313 Q223.6719,205.6719 224.2344,205.9688 L224.2344,208.6875 Q223.5938,208.1094 223,207.8438 Q222.4063,207.5781 221.7813,207.5781 Q220.4375,207.5781 219.75,208.6406 Q219.0625,209.7031 219.0625,211.8125 Q219.0625,213.9063 219.75,214.9844 Q220.4375,216.0469 221.7813,216.0469 Q222.4063,216.0469 223,215.7813 Q223.5938,215.5 224.2344,214.9219 L224.2344,217.6406 Z " fill="#000000"/><text fill="#000000" font-family="sans-serif" font-size="14" lengthAdjust="spacing" textLength="67" x="241.75" y="216.8467">Metadata</text><line style="stroke:#181818;stroke-width:0.5;" x1="109" x2="409" y1="228" y2="228"/><text fill="#000000" font-family="sans-serif" font-size="14" lengthAdjust="spacing" textLength="116" x="114" y="244.9951">filename : string</text><text fill="#000000" font-family="sans-serif" font-size="14" lengthAdjust="spacing" textLength="156" x="114" y="261.292">eveh5_version : string</text><text fill="#000000" font-family="sans-serif" font-size="14" lengthAdjust="spacing" textLength="138" x="114" y="277.5889">eve_version : string</text><text fill="#000000" font-family="sans-serif" font-size="14" lengthAdjust="spacing" textLength="134" x="114" y="293.8857">xml_version: string</text><text fill="#000000" font-family="sans-serif" font-size="14" lengthAdjust="spacing" textLength="208" x="114" y="310.1826">measurement_station : string</text><text fill="#000000" font-family="sans-serif" font-size="14" lengthAdjust="spacing" textLength="109" x="114" y="326.4795">start : datetime</text><text fill="#000000" font-family="sans-serif" font-size="14" lengthAdjust="spacing" textLength="104" x="114" y="342.7764">end : datetime</text><text fill="#000000" font-family="sans-serif" font-size="14" lengthAdjust="spacing" textLength="132" x="114" y="359.0732">description : string</text><text fill="#000000" font-family="sans-serif" font-size="14" lengthAdjust="spacing" textLength="145" x="114" y="375.3701">simulation : boolean</text><text fill="#000000" font-family="sans-serif" font-size="14" lengthAdjust="spacing" textLength="156" x="114" y="391.667">preferred_axis : string</text><text fill="#000000" font-family="sans-serif" font-size="14" lengthAdjust="spacing" textLength="185" x="114" y="407.9639">preferred_channel : string</text><text fill="#000000" font-family="sans-serif" font-size="14" lengthAdjust="spacing" textLength="290" x="114" y="424.2607">preferred_normalisation_channel : string</text><line style="stroke:#181818;stroke-width:0.5;" x1="109" x2="409" y1="431.5625" y2="431.5625"/></g><!--class LogMessage--><g id="elem_LogMessage"><rect codeLine="27" fill="#F1F1F1" height="80.5938" id="LogMessage" rx="2.5" ry="2.5" style="stroke:#181818;stroke-width:0.5;" width="165" x="445.5" y="277.5"/><ellipse cx="480.75" cy="293.5" fill="#ADD1B2" rx="11" ry="11" style="stroke:#181818;stroke-width:1.0;"/><path d="M483.7344,299.1406 Q483.1563,299.4375 482.5156,299.5781 Q481.875,299.7344 481.1719,299.7344 Q478.6563,299.7344 477.3281,298.0938 Q476.0156,296.4375 476.0156,293.3125 Q476.0156,290.1719 477.3281,288.5313 Q478.6563,286.875 481.1719,286.875 Q481.875,286.875 482.5156,287.0313 Q483.1719,287.1719 483.7344,287.4688 L483.7344,290.1875 Q483.0938,289.6094 482.5,289.3438 Q481.9063,289.0781 481.2813,289.0781 Q479.9375,289.0781 479.25,290.1406 Q478.5625,291.2031 478.5625,293.3125 Q478.5625,295.4063 479.25,296.4844 Q479.9375,297.5469 481.2813,297.5469 Q481.9063,297.5469 482.5,297.2813 Q483.0938,297 483.7344,296.4219 L483.7344,299.1406 Z " fill="#000000"/><text fill="#000000" font-family="sans-serif" font-size="14" lengthAdjust="spacing" textLength="88" x="499.25" y="298.3467">LogMessage</text><line style="stroke:#181818;stroke-width:0.5;" x1="446.5" x2="609.5" y1="309.5" y2="309.5"/><text fill="#000000" font-family="sans-serif" font-size="14" lengthAdjust="spacing" textLength="153" x="451.5" y="326.4951">timestamp : datetime</text><text fill="#000000" font-family="sans-serif" font-size="14" lengthAdjust="spacing" textLength="117" x="451.5" y="342.792">message : string</text><line style="stroke:#181818;stroke-width:0.5;" x1="446.5" x2="609.5" y1="350.0938" y2="350.0938"/></g><!--reverse link File to Data--><g id="link_File_Data"><path codeLine="10" d="M143.3272,143.4961 C120.4672,160.7761 107.51,173.71 90,196 C66.69,225.67 52.59,267.74 45.55,293.65 " fill="none" id="File-backto-Data" style="stroke:#181818;stroke-width:1.0;"/><polygon fill="#181818" points="152.9,136.26,145.7016,136.6871,143.3272,143.4961,150.5256,143.069,152.9,136.26" style="stroke:#181818;stroke-width:1.0;"/><text fill="#000000" font-family="sans-serif" font-size="13" lengthAdjust="spacing" textLength="8" x="37.9278" y="282.9696">n</text></g><!--reverse link File to Metadata--><g id="link_File_Metadata"><path codeLine="32" d="M259,148.1 C259,166.5 259,175.21 259,195.88 " fill="none" id="File-backto-Metadata" style="stroke:#181818;stroke-width:1.0;"/><polygon fill="#181818" points="259,136.1,255,142.1,259,148.1,263,142.1,259,136.1" style="stroke:#181818;stroke-width:1.0;"/></g><!--reverse link File to LogMessage--><g id="link_File_LogMessage"><path codeLine="33" d="M364.5045,143.2559 C389.3245,161.4159 405.65,174.94 428,196 C454.38,220.85 480.34,252.54 499.2,277.26 " fill="none" id="File-backto-LogMessage" style="stroke:#181818;stroke-width:1.0;"/><polygon fill="#181818" points="354.82,136.17,357.3003,142.9411,364.5045,143.2559,362.0242,136.4848,354.82,136.17" style="stroke:#181818;stroke-width:1.0;"/><text fill="#000000" font-family="sans-serif" font-size="13" lengthAdjust="spacing" textLength="8" x="357.4367" y="156.5612">1</text><text fill="#000000" font-family="sans-serif" font-size="13" lengthAdjust="spacing" textLength="8" x="485.7675" y="266.3818">n</text></g><!--SRC=[TLAxRiCm3Dpr5OB70XawTCbST6gsRaLXi3PZ2v0eGsI2087_lRJyWfrKatH77eyYAm_CziDvj7TZzGGKg4707krfkcRSnwOCo0mDidAViJcDh- -Vp3D1nssKWNpNf7i_oaLo4jCExI8xSP5ASQef4BeXu6j-396cDoRRUZaSR455JZUcodvdPwFbiuOH15G9bkIeoIXUiNqhhvXO2prGpubRy3EnmGC2Nn8692dLeJmaAfX48JM5GqzZ6QhtK8rS9TSz4N3XucVXtnWz0erVbV2CAM5TmitnDcdbgXQ8qFz7Kqm1lEDSu36ud_zrdUgq3SjyzerCgx3HMCQrB4v6YjTY6U9QmFm1]--></g></svg>