<?xml version="1.0" encoding="us-ascii" standalone="no"?><svg xmlns="http://www.w3.org/2000/svg" xmlns:xlink="http://www.w3.org/1999/xlink" contentStyleType="text/css" height="274px" preserveAspectRatio="none" style="width:880px;height:274px;background:#FFFFFF;" version="1.1" viewBox="0 0 880 274" width="880px" zoomAndPan="magnify"><defs/><g><!--class VersionMapperFactory--><g id="elem_VersionMapperFactory"><rect codeLine="3" fill="#F1F1F1" height="80.5938" id="VersionMapperFactory" rx="2.5" ry="2.5" style="stroke:#181818;stroke-width:0.5;" width="193" x="680.5" y="31"/><ellipse cx="695.5" cy="47" fill="#ADD1B2" rx="11" ry="11" style="stroke:#181818;stroke-width:1.0;"/><path d="M698.4844,52.6406 Q697.9063,52.9375 697.2656,53.0781 Q696.625,53.2344 695.9219,53.2344 Q693.4063,53.2344 692.0781,51.5938 Q690.7656,49.9375 690.7656,46.8125 Q690.7656,43.6719 692.0781,42.0313 Q693.4063,40.375 695.9219,40.375 Q696.625,40.375 697.2656,40.5313 Q697.9219,40.6719 698.4844,40.9688 L698.4844,43.6875 Q697.8438,43.1094 697.25,42.8438 Q696.6563,42.5781 696.0313,42.5781 Q694.6875,42.5781 694,43.6406 Q693.3125,44.7031 693.3125,46.8125 Q693.3125,48.9063 694,49.9844 Q694.6875,51.0469 696.0313,51.0469 Q696.6563,51.0469 697.25,50.7813 Q697.8438,50.5 698.4844,49.9219 L698.4844,52.6406 Z " fill="#000000"/><text fill="#000000" font-family="sans-serif" font-size="14" lengthAdjust="spacing" textLength="161" x="709.5" y="51.8467">VersionMapperFactory</text><line style="stroke:#181818;stroke-width:0.5;" x1="681.5" x2="872.5" y1="63" y2="63"/><ellipse cx="691.5" cy="76.6484" fill="none" rx="3" ry="3" style="stroke:#038048;stroke-width:1.0;"/><text fill="#000000" font-family="sans-serif" font-size="14" lengthAdjust="spacing" textLength="121" x="700.5" y="79.9951">eveh5 : HDF5File</text><line style="stroke:#181818;stroke-width:0.5;" x1="681.5" x2="872.5" y1="87.2969" y2="87.2969"/><ellipse cx="691.5" cy="100.9453" fill="#84BE84" rx="3" ry="3" style="stroke:#038048;stroke-width:1.0;"/><text fill="#000000" font-family="sans-serif" font-size="14" lengthAdjust="spacing" textLength="96" x="700.5" y="104.292">get_mapper()</text></g><!--class VersionMapper--><g id="elem_VersionMapper"><rect codeLine="8" fill="#F1F1F1" height="113.1875" id="VersionMapper" rx="2.5" ry="2.5" style="stroke:#181818;stroke-width:0.5;" width="170" x="269" y="15"/><ellipse cx="297.5" cy="31" fill="#ADD1B2" rx="11" ry="11" style="stroke:#181818;stroke-width:1.0;"/><path d="M300.4844,36.6406 Q299.9063,36.9375 299.2656,37.0781 Q298.625,37.2344 297.9219,37.2344 Q295.4063,37.2344 294.0781,35.5938 Q292.7656,33.9375 292.7656,30.8125 Q292.7656,27.6719 294.0781,26.0313 Q295.4063,24.375 297.9219,24.375 Q298.625,24.375 299.2656,24.5313 Q299.9219,24.6719 300.4844,24.9688 L300.4844,27.6875 Q299.8438,27.1094 299.25,26.8438 Q298.6563,26.5781 298.0313,26.5781 Q296.6875,26.5781 296,27.6406 Q295.3125,28.7031 295.3125,30.8125 Q295.3125,32.9063 296,33.9844 Q296.6875,35.0469 298.0313,35.0469 Q298.6563,35.0469 299.25,34.7813 Q299.8438,34.5 300.4844,33.9219 L300.4844,36.6406 Z " fill="#000000"/><text fill="#000000" font-family="sans-serif" font-size="14" lengthAdjust="spacing" textLength="108" x="314.5" y="35.8467">VersionMapper</text><line style="stroke:#181818;stroke-width:0.5;" x1="270" x2="438" y1="47" y2="47"/><ellipse cx="280" cy="60.6484" fill="none" rx="3" ry="3" style="stroke:#038048;stroke-width:1.0;"/><text fill="#000000" font-family="sans-serif" font-size="14" lengthAdjust="spacing" textLength="125" x="289" y="63.9951">source : HDF5File</text><ellipse cx="280" cy="76.9453" fill="none" rx="3" ry="3" style="stroke:#038048;stroke-width:1.0;"/><text fill="#000000" font-family="sans-serif" font-size="14" lengthAdjust="spacing" textLength="143" x="289" y="80.292">destination : EveFile</text><rect fill="none" height="6" style="stroke:#C82930;stroke-width:1.0;" width="6" x="277" y="90.2422"/><text fill="#000000" font-family="sans-serif" font-size="14" lengthAdjust="spacing" textLength="144" x="289" y="96.5889">_mapping : Mapping</text><line style="stroke:#181818;stroke-width:0.5;" x1="270" x2="438" y1="103.8906" y2="103.8906"/><ellipse cx="280" cy="117.5391" fill="#84BE84" rx="3" ry="3" style="stroke:#038048;stroke-width:1.0;"/><text fill="#000000" font-family="sans-serif" font-size="14" lengthAdjust="spacing" textLength="42" x="289" y="120.8857">map()</text></g><g id="elem_GMN4"><path d="M10.5,6 L10.5,137.0625 A0,0 0 0 0 10.5,137.0625 L233.5,137.0625 A0,0 0 0 0 233.5,137.0625 L233.5,75.5 L268.63,71.5 L233.5,67.5 L233.5,16 L223.5,6 L10.5,6 A0,0 0 0 0 10.5,6 " fill="#FEFFDD" style="stroke:#181818;stroke-width:0.5;"/><path d="M223.5,6 L223.5,16 L233.5,16 L223.5,6 " fill="#FEFFDD" style="stroke:#181818;stroke-width:0.5;"/><text fill="#000000" font-family="sans-serif" font-size="13" lengthAdjust="spacing" textLength="161" x="16.5" y="23.0669">For EveFile and HDF5File</text><text fill="#000000" font-family="sans-serif" font-size="13" lengthAdjust="spacing" textLength="180" x="16.5" y="38.1997">see the respective modules</text><text fill="#000000" font-family="sans-serif" font-size="13" lengthAdjust="spacing" textLength="187" x="16.5" y="53.3325">implementing these classes.</text><text fill="#000000" font-family="sans-serif" font-size="13" lengthAdjust="spacing" textLength="8" x="16.5" y="68.4653">&#160;</text><text fill="#000000" font-family="sans-serif" font-size="13" lengthAdjust="spacing" textLength="179" x="16.5" y="83.5981">VersionMapper implements</text><text fill="#000000" font-family="sans-serif" font-size="13" lengthAdjust="spacing" textLength="159" x="16.5" y="98.731">that part of the mapping</text><text fill="#000000" font-family="sans-serif" font-size="13" lengthAdjust="spacing" textLength="180" x="16.5" y="113.8638">functionality common to all</text><text fill="#000000" font-family="sans-serif" font-size="13" lengthAdjust="spacing" textLength="202" x="16.5" y="128.9966">versions of the eveH5 schema.</text></g><!--class Mapping--><g id="elem_Mapping"><rect codeLine="25" fill="#F1F1F1" height="96.8906" id="Mapping" rx="2.5" ry="2.5" style="stroke:#181818;stroke-width:0.5;" width="171" x="474.5" y="23"/><ellipse cx="525.25" cy="39" fill="#ADD1B2" rx="11" ry="11" style="stroke:#181818;stroke-width:1.0;"/><path d="M528.2344,44.6406 Q527.6563,44.9375 527.0156,45.0781 Q526.375,45.2344 525.6719,45.2344 Q523.1563,45.2344 521.8281,43.5938 Q520.5156,41.9375 520.5156,38.8125 Q520.5156,35.6719 521.8281,34.0313 Q523.1563,32.375 525.6719,32.375 Q526.375,32.375 527.0156,32.5313 Q527.6719,32.6719 528.2344,32.9688 L528.2344,35.6875 Q527.5938,35.1094 527,34.8438 Q526.4063,34.5781 525.7813,34.5781 Q524.4375,34.5781 523.75,35.6406 Q523.0625,36.7031 523.0625,38.8125 Q523.0625,40.9063 523.75,41.9844 Q524.4375,43.0469 525.7813,43.0469 Q526.4063,43.0469 527,42.7813 Q527.5938,42.5 528.2344,41.9219 L528.2344,44.6406 Z " fill="#000000"/><text fill="#000000" font-family="sans-serif" font-size="14" lengthAdjust="spacing" textLength="61" x="545.75" y="43.8467">Mapping</text><line style="stroke:#181818;stroke-width:0.5;" x1="475.5" x2="644.5" y1="55" y2="55"/><ellipse cx="485.5" cy="68.6484" fill="none" rx="3" ry="3" style="stroke:#038048;stroke-width:1.0;"/><text fill="#000000" font-family="sans-serif" font-size="14" lengthAdjust="spacing" textLength="116" x="494.5" y="71.9951">filename : string</text><ellipse cx="485.5" cy="84.9453" fill="none" rx="3" ry="3" style="stroke:#038048;stroke-width:1.0;"/><text fill="#000000" font-family="sans-serif" font-size="14" lengthAdjust="spacing" textLength="145" x="494.5" y="88.292">mapping_table : dict</text><line style="stroke:#181818;stroke-width:0.5;" x1="475.5" x2="644.5" y1="95.5938" y2="95.5938"/><ellipse cx="485.5" cy="109.2422" fill="#84BE84" rx="3" ry="3" style="stroke:#038048;stroke-width:1.0;"/><text fill="#000000" font-family="sans-serif" font-size="14" lengthAdjust="spacing" textLength="41" x="494.5" y="112.5889">load()</text></g><!--class VersionMapperVx--><g id="elem_VersionMapperVx"><rect codeLine="33" fill="#F1F1F1" height="48" id="VersionMapperVx" rx="2.5" ry="2.5" style="stroke:#181818;stroke-width:0.5;" width="158" x="275" y="208.5"/><ellipse cx="290" cy="224.5" fill="#ADD1B2" rx="11" ry="11" style="stroke:#181818;stroke-width:1.0;"/><path d="M292.9844,230.1406 Q292.4063,230.4375 291.7656,230.5781 Q291.125,230.7344 290.4219,230.7344 Q287.9063,230.7344 286.5781,229.0938 Q285.2656,227.4375 285.2656,224.3125 Q285.2656,221.1719 286.5781,219.5313 Q287.9063,217.875 290.4219,217.875 Q291.125,217.875 291.7656,218.0313 Q292.4219,218.1719 292.9844,218.4688 L292.9844,221.1875 Q292.3438,220.6094 291.75,220.3438 Q291.1563,220.0781 290.5313,220.0781 Q289.1875,220.0781 288.5,221.1406 Q287.8125,222.2031 287.8125,224.3125 Q287.8125,226.4063 288.5,227.4844 Q289.1875,228.5469 290.5313,228.5469 Q291.1563,228.5469 291.75,228.2813 Q292.3438,228 292.9844,227.4219 L292.9844,230.1406 Z " fill="#000000"/><text fill="#000000" font-family="sans-serif" font-size="14" lengthAdjust="spacing" textLength="126" x="304" y="229.3467">VersionMapperVx</text><line style="stroke:#181818;stroke-width:0.5;" x1="276" x2="432" y1="240.5" y2="240.5"/><line style="stroke:#181818;stroke-width:0.5;" x1="276" x2="432" y1="248.5" y2="248.5"/></g><g id="elem_GMN11"><path d="M6,197 L6,267.5313 A0,0 0 0 0 6,267.5313 L240,267.5313 A0,0 0 0 0 240,267.5313 L240,236.5 L274.95,232.5 L240,228.5 L240,207 L230,197 L6,197 A0,0 0 0 0 6,197 " fill="#FEFFDD" style="stroke:#181818;stroke-width:0.5;"/><path d="M230,197 L230,207 L240,207 L230,197 " fill="#FEFFDD" style="stroke:#181818;stroke-width:0.5;"/><text fill="#000000" font-family="sans-serif" font-size="13" lengthAdjust="spacing" textLength="195" x="12" y="214.0669">Most probably, the classes for</text><text fill="#000000" font-family="sans-serif" font-size="13" lengthAdjust="spacing" textLength="189" x="12" y="229.1997">the different eveH5 schemas</text><text fill="#000000" font-family="sans-serif" font-size="13" lengthAdjust="spacing" textLength="213" x="12" y="244.3325">are not a hierarchy, but all direct</text><text fill="#000000" font-family="sans-serif" font-size="13" lengthAdjust="spacing" textLength="193" x="12" y="259.4653">subclasses of VersionMapper.</text></g><!--reverse link VersionMapper to Mapping--><g id="link_VersionMapper_Mapping"><path codeLine="31" d="M451.3,71.5 C462.93,71.5 462.56,71.5 474.19,71.5 " fill="none" id="VersionMapper-backto-Mapping" style="stroke:#181818;stroke-width:1.0;"/><polygon fill="#181818" points="439.3,71.5,445.3,75.5,451.3,71.5,445.3,67.5,439.3,71.5" style="stroke:#181818;stroke-width:1.0;"/></g><!--reverse link VersionMapper to VersionMapperVx--><g id="link_VersionMapper_VersionMapperVx"><path d="M354,146.11 C354,173.69 354,187.5 354,208.48 " fill="none" id="VersionMapper-backto-VersionMapperVx" style="stroke:#181818;stroke-width:1.0;"/><polygon fill="none" points="354,128.11,348,146.11,360,146.11,354,128.11" style="stroke:#181818;stroke-width:1.0;"/></g><!--SRC=[VP4zRy9038Rt_0fl_GGc5kOsOc5bHSx58IVTHtJdHA2g_xs-2w6ae3A5i_s-VXy_jSnTtAnMdK77lJLBvUrA6OnnKMiy1hH5aV_2daBKtksmwoYKgDY7CtmL8Byt6gXTmmQs7-Mwr8R6roFnmURsvvVY-w7E911z7nJTATGKMJjawPVQvq3NqY8hQtUKzztuDOx8StPpdWaCDGo-cNlcljA7IG_GrNFVI0JS4WIA7IdM0u7rTMyevhAsdI5BZfEzz4M278tYiiWDyuZNzd6QMsJeCEJ5aekzMR_fdKffqMW-Wzp2IdBsWCRa-Z0gnsbMm6_N45LB5fS5kJh5daXVk4oC6uddq2RAaSCjiDHrOAnCgjLQyLWn7klnSlD0huihyaSttP-0JYoxtD_wlxFiJzbrvwFW2RwITSxlEUG5BZG-N0YIRDaq50Jg3C5860E1-012gobWKAq8LJqdYZ8Ow18mzjKa_NUPNvO_]--></g></svg>