<?xml version="1.0" encoding="us-ascii" standalone="no"?><svg xmlns="http://www.w3.org/2000/svg" xmlns:xlink="http://www.w3.org/1999/xlink" contentStyleType="text/css" height="512px" preserveAspectRatio="none" style="width:591px;height:512px;background:#FFFFFF;" version="1.1" viewBox="0 0 591 512" width="591px" zoomAndPan="magnify"><defs/><g><!--class File--><g id="elem_File"><rect codeLine="2" fill="#F1F1F1" height="162.4075" id="File" rx="2.5" ry="2.5" style="stroke:#181818;stroke-width:0.5;" width="269" x="115" y="7"/><ellipse cx="233.75" cy="23" fill="#ADD1B2" rx="11" ry="11" style="stroke:#181818;stroke-width:1.0;"/><path d="M233.2188,29.9219 Q231.4688,29.9219 230.3281,29.1875 Q229.2031,28.4375 228.6406,27.0938 Q228.0938,25.7344 228.0938,23.9375 Q228.0938,21.9063 228.75,20.4531 Q229.4063,19 230.6875,18.2188 Q231.9688,17.4375 233.8438,17.4375 Q234.7344,17.4375 235.4063,17.625 Q236.0781,17.7969 236.7656,18.1406 L235.9531,20.1563 Q235.3281,19.8438 234.7813,19.7188 Q234.25,19.5938 233.7656,19.5938 Q232.5938,19.5938 231.8906,20.125 Q231.1875,20.6563 230.8906,21.6094 Q230.5938,22.5625 230.5938,23.8281 Q230.5938,25.8438 231.3125,26.8125 Q232.0313,27.7656 233.625,27.7656 Q234.2188,27.7656 234.8438,27.6094 Q235.4688,27.4531 236.2969,27.0781 L236.2969,29.2969 Q235.5625,29.6094 234.7656,29.7656 Q233.9844,29.9219 233.2188,29.9219 Z " fill="#000000"/><text fill="#000000" font-family="sans-serif" font-size="14" lengthAdjust="spacing" textLength="23" x="254.25" y="28.432">File</text><line style="stroke:#181818;stroke-width:0.5;" x1="116" x2="383" y1="39" y2="39"/><text fill="#000000" font-family="sans-serif" font-size="14" lengthAdjust="spacing" textLength="140" x="121" y="57.9659">metadata : Metadata</text><text fill="#000000" font-family="sans-serif" font-size="14" lengthAdjust="spacing" textLength="200" x="121" y="77.0339">log_messages : LogMessage[]</text><text fill="#000000" font-family="sans-serif" font-size="14" lengthAdjust="spacing" textLength="83" x="121" y="96.1018">data : Data{}</text><text fill="#000000" font-family="sans-serif" font-size="14" lengthAdjust="spacing" textLength="122" x="121" y="115.1697">snapshots : Data{}</text><text fill="#000000" font-family="sans-serif" font-size="14" lengthAdjust="spacing" textLength="113" x="121" y="134.2376">monitors : Data{}</text><text fill="#000000" font-family="sans-serif" font-size="14" lengthAdjust="spacing" textLength="257" x="121" y="153.3055">position_timestamps : TimestampData</text><line style="stroke:#181818;stroke-width:0.5;" x1="116" x2="383" y1="161.4075" y2="161.4075"/></g><!--class Data--><g id="elem_Data"><rect fill="#F1F1F1" height="48" id="Data" rx="2.5" ry="2.5" style="stroke:#181818;stroke-width:0.5;" width="63" x="7" y="343.5"/><ellipse cx="22" cy="359.5" fill="#ADD1B2" rx="11" ry="11" style="stroke:#181818;stroke-width:1.0;"/><path d="M21.4688,366.4219 Q19.7188,366.4219 18.5781,365.6875 Q17.4531,364.9375 16.8906,363.5938 Q16.3438,362.2344 16.3438,360.4375 Q16.3438,358.4063 17,356.9531 Q17.6563,355.5 18.9375,354.7188 Q20.2188,353.9375 22.0938,353.9375 Q22.9844,353.9375 23.6563,354.125 Q24.3281,354.2969 25.0156,354.6406 L24.2031,356.6563 Q23.5781,356.3438 23.0313,356.2188 Q22.5,356.0938 22.0156,356.0938 Q20.8438,356.0938 20.1406,356.625 Q19.4375,357.1563 19.1406,358.1094 Q18.8438,359.0625 18.8438,360.3281 Q18.8438,362.3438 19.5625,363.3125 Q20.2813,364.2656 21.875,364.2656 Q22.4688,364.2656 23.0938,364.1094 Q23.7188,363.9531 24.5469,363.5781 L24.5469,365.7969 Q23.8125,366.1094 23.0156,366.2656 Q22.2344,366.4219 21.4688,366.4219 Z " fill="#000000"/><text fill="#000000" font-family="sans-serif" font-size="14" lengthAdjust="spacing" textLength="31" x="36" y="364.932">Data</text><line style="stroke:#181818;stroke-width:0.5;" x1="8" x2="69" y1="375.5" y2="375.5"/><line style="stroke:#181818;stroke-width:0.5;" x1="8" x2="69" y1="383.5" y2="383.5"/></g><!--class Metadata--><g id="elem_Metadata"><rect codeLine="13" fill="#F1F1F1" height="276.815" id="Metadata" rx="2.5" ry="2.5" style="stroke:#181818;stroke-width:0.5;" width="288" x="105.5" y="229"/><ellipse cx="213.25" cy="245" fill="#ADD1B2" rx="11" ry="11" style="stroke:#181818;stroke-width:1.0;"/><path d="M212.7188,251.9219 Q210.9688,251.9219 209.8281,251.1875 Q208.7031,250.4375 208.1406,249.0938 Q207.5938,247.7344 207.5938,245.9375 Q207.5938,243.9063 208.25,242.4531 Q208.9063,241 210.1875,240.2188 Q211.4688,239.4375 213.3438,239.4375 Q214.2344,239.4375 214.9063,239.625 Q215.5781,239.7969 216.2656,240.1406 L215.4531,242.1563 Q214.8281,241.8438 214.2813,241.7188 Q213.75,241.5938 213.2656,241.5938 Q212.0938,241.5938 211.3906,242.125 Q210.6875,242.6563 210.3906,243.6094 Q210.0938,244.5625 210.0938,245.8281 Q210.0938,247.8438 210.8125,248.8125 Q211.5313,249.7656 213.125,249.7656 Q213.7188,249.7656 214.3438,249.6094 Q214.9688,249.4531 215.7969,249.0781 L215.7969,251.2969 Q215.0625,251.6094 214.2656,251.7656 Q213.4844,251.9219 212.7188,251.9219 Z " fill="#000000"/><text fill="#000000" font-family="sans-serif" font-size="14" lengthAdjust="spacing" textLength="64" x="233.75" y="250.432">Metadata</text><line style="stroke:#181818;stroke-width:0.5;" x1="106.5" x2="392.5" y1="261" y2="261"/><text fill="#000000" font-family="sans-serif" font-size="14" lengthAdjust="spacing" textLength="111" x="111.5" y="279.9659">filename : string</text><text fill="#000000" font-family="sans-serif" font-size="14" lengthAdjust="spacing" textLength="147" x="111.5" y="299.0339">eveh5_version : string</text><text fill="#000000" font-family="sans-serif" font-size="14" lengthAdjust="spacing" textLength="130" x="111.5" y="318.1018">eve_version : string</text><text fill="#000000" font-family="sans-serif" font-size="14" lengthAdjust="spacing" textLength="127" x="111.5" y="337.1697">xml_version: string</text><text fill="#000000" font-family="sans-serif" font-size="14" lengthAdjust="spacing" textLength="198" x="111.5" y="356.2376">measurement_station : string</text><text fill="#000000" font-family="sans-serif" font-size="14" lengthAdjust="spacing" textLength="103" x="111.5" y="375.3055">start : datetime</text><text fill="#000000" font-family="sans-serif" font-size="14" lengthAdjust="spacing" textLength="98" x="111.5" y="394.3734">end : datetime</text><text fill="#000000" font-family="sans-serif" font-size="14" lengthAdjust="spacing" textLength="128" x="111.5" y="413.4414">description : string</text><text fill="#000000" font-family="sans-serif" font-size="14" lengthAdjust="spacing" textLength="137" x="111.5" y="432.5093">simulation : boolean</text><text fill="#000000" font-family="sans-serif" font-size="14" lengthAdjust="spacing" textLength="149" x="111.5" y="451.5772">preferred_axis : string</text><text fill="#000000" font-family="sans-serif" font-size="14" lengthAdjust="spacing" textLength="177" x="111.5" y="470.6451">preferred_channel : string</text><text fill="#000000" font-family="sans-serif" font-size="14" lengthAdjust="spacing" textLength="276" x="111.5" y="489.713">preferred_normalisation_channel : string</text><line style="stroke:#181818;stroke-width:0.5;" x1="106.5" x2="392.5" y1="497.815" y2="497.815"/></g><!--class LogMessage--><g id="elem_LogMessage"><rect codeLine="28" fill="#F1F1F1" height="86.1358" id="LogMessage" rx="2.5" ry="2.5" style="stroke:#181818;stroke-width:0.5;" width="156" x="428.5" y="324.5"/><ellipse cx="461.5" cy="340.5" fill="#ADD1B2" rx="11" ry="11" style="stroke:#181818;stroke-width:1.0;"/><path d="M460.9688,347.4219 Q459.2188,347.4219 458.0781,346.6875 Q456.9531,345.9375 456.3906,344.5938 Q455.8438,343.2344 455.8438,341.4375 Q455.8438,339.4063 456.5,337.9531 Q457.1563,336.5 458.4375,335.7188 Q459.7188,334.9375 461.5938,334.9375 Q462.4844,334.9375 463.1563,335.125 Q463.8281,335.2969 464.5156,335.6406 L463.7031,337.6563 Q463.0781,337.3438 462.5313,337.2188 Q462,337.0938 461.5156,337.0938 Q460.3438,337.0938 459.6406,337.625 Q458.9375,338.1563 458.6406,339.1094 Q458.3438,340.0625 458.3438,341.3281 Q458.3438,343.3438 459.0625,344.3125 Q459.7813,345.2656 461.375,345.2656 Q461.9688,345.2656 462.5938,345.1094 Q463.2188,344.9531 464.0469,344.5781 L464.0469,346.7969 Q463.3125,347.1094 462.5156,347.2656 Q461.7344,347.4219 460.9688,347.4219 Z " fill="#000000"/><text fill="#000000" font-family="sans-serif" font-size="14" lengthAdjust="spacing" textLength="84" x="479.5" y="345.932">LogMessage</text><line style="stroke:#181818;stroke-width:0.5;" x1="429.5" x2="583.5" y1="356.5" y2="356.5"/><text fill="#000000" font-family="sans-serif" font-size="14" lengthAdjust="spacing" textLength="144" x="434.5" y="375.4659">timestamp : datetime</text><text fill="#000000" font-family="sans-serif" font-size="14" lengthAdjust="spacing" textLength="112" x="434.5" y="394.5339">message : string</text><line style="stroke:#181818;stroke-width:0.5;" x1="429.5" x2="583.5" y1="402.6358" y2="402.6358"/></g><!--reverse link File to Data--><g id="link_File_Data"><path codeLine="11" d="M131.6705,177.4573 C112.1505,195.4673 102.2,207.53 87.5,229 C62.88,264.97 49.22,314.67 42.91,343.42 " fill="none" id="File-backto-Data" style="stroke:#181818;stroke-width:1.0;"/><polygon fill="#181818" points="140.49,169.32,133.3678,170.4488,131.6705,177.4573,138.7927,176.3285,140.49,169.32" style="stroke:#181818;stroke-width:1.0;"/><text fill="#000000" font-family="sans-serif" font-size="13" lengthAdjust="spacing" textLength="8" x="35.0202" y="331.656">n</text></g><!--reverse link File to Metadata--><g id="link_File_Metadata"><path codeLine="33" d="M249.5,181.26 C249.5,199.99 249.5,208.46 249.5,228.9 " fill="none" id="File-backto-Metadata" style="stroke:#181818;stroke-width:1.0;"/><polygon fill="#181818" points="249.5,169.26,245.5,175.26,249.5,181.26,253.5,175.26,249.5,169.26" style="stroke:#181818;stroke-width:1.0;"/></g><!--reverse link File to LogMessage--><g id="link_File_LogMessage"><path codeLine="34" d="M359.4207,177.1978 C380.5407,195.8678 393,208.39 411.5,229 C438.15,258.69 463.57,296.16 481.41,324.48 " fill="none" id="File-backto-LogMessage" style="stroke:#181818;stroke-width:1.0;"/><polygon fill="#181818" points="350.43,169.25,352.2761,176.2208,359.4207,177.1978,357.5746,170.227,350.43,169.25" style="stroke:#181818;stroke-width:1.0;"/><text fill="#000000" font-family="sans-serif" font-size="13" lengthAdjust="spacing" textLength="7" x="352.4118" y="191.4346">1</text><text fill="#000000" font-family="sans-serif" font-size="13" lengthAdjust="spacing" textLength="8" x="468.4102" y="312.571">n</text></g><!--SRC=[TPAxRiCm34LtVONWiK263bqo5vsQhLjH6ApDs08aoX2P843WVoyjls0dzIBhN3v5LXwOxOVpQE_6wXTGe0O1UxIdwJTp7vio83CqoAfznkOqthv_iZxvlEjnxpDXWexRABp58PAJc7QqY-p4HIh5QHQ1q0q6N_Dbi3IzCRdGbyF15bHaTsEgtC5SwzZ4MSq80ce8bkIeoHIlsBwLLqoiYHwavy8j-5dOy830buG1IKgjK1uS5IPHf4NXqDEOXkezgf6hvBed0Lou-3dmRumUWSQdIdZ6bB0kuUPuwxHgLGj4wF-JAQO0td5Ey6ZSp- -wpddQZsK- -qQcvTZ4MCQrh58cnMkn375DOFu0]--></g></svg>