<?xml version="1.0" encoding="us-ascii" standalone="no"?><svg xmlns="http://www.w3.org/2000/svg" xmlns:xlink="http://www.w3.org/1999/xlink" contentStyleType="text/css" height="392px" preserveAspectRatio="none" style="width:674px;height:392px;background:#FFFFFF;" version="1.1" viewBox="0 0 674 392" width="674px" zoomAndPan="magnify"><defs/><g><!--class HDF5Item--><g id="elem_HDF5Item"><rect codeLine="3" fill="#F1F1F1" height="113.1875" id="HDF5Item" rx="2.5" ry="2.5" style="stroke:#181818;stroke-width:0.5;" width="128" x="238" y="7"/><ellipse cx="264.25" cy="23" fill="#ADD1B2" rx="11" ry="11" style="stroke:#181818;stroke-width:1.0;"/><path d="M267.2344,28.6406 Q266.6563,28.9375 266.0156,29.0781 Q265.375,29.2344 264.6719,29.2344 Q262.1563,29.2344 260.8281,27.5938 Q259.5156,25.9375 259.5156,22.8125 Q259.5156,19.6719 260.8281,18.0313 Q262.1563,16.375 264.6719,16.375 Q265.375,16.375 266.0156,16.5313 Q266.6719,16.6719 267.2344,16.9688 L267.2344,19.6875 Q266.5938,19.1094 266,18.8438 Q265.4063,18.5781 264.7813,18.5781 Q263.4375,18.5781 262.75,19.6406 Q262.0625,20.7031 262.0625,22.8125 Q262.0625,24.9063 262.75,25.9844 Q263.4375,27.0469 264.7813,27.0469 Q265.4063,27.0469 266,26.7813 Q266.5938,26.5 267.2344,25.9219 L267.2344,28.6406 Z " fill="#000000"/><text fill="#000000" font-family="sans-serif" font-size="14" lengthAdjust="spacing" textLength="71" x="280.75" y="27.8467">HDF5Item</text><line style="stroke:#181818;stroke-width:0.5;" x1="239" x2="365" y1="39" y2="39"/><text fill="#000000" font-family="sans-serif" font-size="14" lengthAdjust="spacing" textLength="116" x="244" y="55.9951">filename : string</text><text fill="#000000" font-family="sans-serif" font-size="14" lengthAdjust="spacing" textLength="94" x="244" y="72.292">name : string</text><text fill="#000000" font-family="sans-serif" font-size="14" lengthAdjust="spacing" textLength="107" x="244" y="88.5889">attributes : dict</text><line style="stroke:#181818;stroke-width:0.5;" x1="239" x2="365" y1="95.8906" y2="95.8906"/><text fill="#000000" font-family="sans-serif" font-size="14" lengthAdjust="spacing" textLength="108" x="244" y="112.8857">get_attributes()</text></g><path d="M401,15.5 L401,54.332 L360,51.1484 L401,62.332 L401,101.1641 A0,0 0 0 0 401,101.1641 L667,101.1641 A0,0 0 0 0 667,101.1641 L667,25.5 L657,15.5 L401,15.5 A0,0 0 0 0 401,15.5 " fill="#FEFFDD" style="stroke:#181818;stroke-width:0.5;"/><path d="M657,15.5 L657,25.5 L667,25.5 L657,15.5 " fill="#FEFFDD" style="stroke:#181818;stroke-width:0.5;"/><text fill="#000000" font-family="sans-serif" font-size="13" lengthAdjust="spacing" textLength="245" x="407" y="32.5669">filename is the name (including path)</text><text fill="#000000" font-family="sans-serif" font-size="13" lengthAdjust="spacing" textLength="204" x="407" y="47.6997">of the HDF5 file originally read.</text><text fill="#000000" font-family="sans-serif" font-size="13" lengthAdjust="spacing" textLength="220" x="407" y="62.8325">Together with the name attribute,</text><text fill="#000000" font-family="sans-serif" font-size="13" lengthAdjust="spacing" textLength="200" x="407" y="77.9653">this makes accessing contents</text><text fill="#000000" font-family="sans-serif" font-size="13" lengthAdjust="spacing" textLength="220" x="407" y="93.0981">on demand (deferred load) trivial.</text><path d="M25.5,23 L25.5,93.5313 A0,0 0 0 0 25.5,93.5313 L202.5,93.5313 A0,0 0 0 0 202.5,93.5313 L202.5,62.2656 L242,67.4453 L202.5,54.2656 L202.5,33 L192.5,23 L25.5,23 A0,0 0 0 0 25.5,23 " fill="#FEFFDD" style="stroke:#181818;stroke-width:0.5;"/><path d="M192.5,23 L192.5,33 L202.5,33 L192.5,23 " fill="#FEFFDD" style="stroke:#181818;stroke-width:0.5;"/><text fill="#000000" font-family="sans-serif" font-size="13" lengthAdjust="spacing" textLength="135" x="31.5" y="40.0669">name is the full path</text><text fill="#000000" font-family="sans-serif" font-size="13" lengthAdjust="spacing" textLength="115" x="31.5" y="55.1997">to the HDF5 item,</text><text fill="#000000" font-family="sans-serif" font-size="13" lengthAdjust="spacing" textLength="156" x="31.5" y="70.3325">necessary for accessing</text><text fill="#000000" font-family="sans-serif" font-size="13" lengthAdjust="spacing" textLength="60" x="31.5" y="85.4653">via h5py.</text><!--class HDF5Group--><g id="elem_HDF5Group"><rect codeLine="25" fill="#F1F1F1" height="80.5938" id="HDF5Group" rx="2.5" ry="2.5" style="stroke:#181818;stroke-width:0.5;" width="152" x="7" y="180"/><ellipse cx="38.65" cy="196" fill="#ADD1B2" rx="11" ry="11" style="stroke:#181818;stroke-width:1.0;"/><path d="M41.6344,201.6406 Q41.0563,201.9375 40.4156,202.0781 Q39.775,202.2344 39.0719,202.2344 Q36.5563,202.2344 35.2281,200.5938 Q33.9156,198.9375 33.9156,195.8125 Q33.9156,192.6719 35.2281,191.0313 Q36.5563,189.375 39.0719,189.375 Q39.775,189.375 40.4156,189.5313 Q41.0719,189.6719 41.6344,189.9688 L41.6344,192.6875 Q40.9938,192.1094 40.4,191.8438 Q39.8063,191.5781 39.1813,191.5781 Q37.8375,191.5781 37.15,192.6406 Q36.4625,193.7031 36.4625,195.8125 Q36.4625,197.9063 37.15,198.9844 Q37.8375,200.0469 39.1813,200.0469 Q39.8063,200.0469 40.4,199.7813 Q40.9938,199.5 41.6344,198.9219 L41.6344,201.6406 Z " fill="#000000"/><text fill="#000000" font-family="sans-serif" font-size="14" lengthAdjust="spacing" textLength="83" x="56.35" y="200.8467">HDF5Group</text><line style="stroke:#181818;stroke-width:0.5;" x1="8" x2="158" y1="212" y2="212"/><text fill="#000000" font-family="sans-serif" font-size="14" lengthAdjust="spacing" textLength="140" x="13" y="228.9951">&lt;item&gt; : HDF5Item</text><line style="stroke:#181818;stroke-width:0.5;" x1="8" x2="158" y1="236.2969" y2="236.2969"/><text fill="#000000" font-family="sans-serif" font-size="14" lengthAdjust="spacing" textLength="76" x="13" y="253.292">add_item()</text></g><path d="M194,188 L194,211.6992 L153,224.1484 L194,219.6992 L194,243.3984 A0,0 0 0 0 194,243.3984 L418,243.3984 A0,0 0 0 0 418,243.3984 L418,198 L408,188 L194,188 A0,0 0 0 0 194,188 " fill="#FEFFDD" style="stroke:#181818;stroke-width:0.5;"/><path d="M408,188 L408,198 L418,198 L408,188 " fill="#FEFFDD" style="stroke:#181818;stroke-width:0.5;"/><text fill="#000000" font-family="sans-serif" font-size="13" lengthAdjust="spacing" textLength="203" x="200" y="205.0669">Each item is added as attribute</text><text fill="#000000" font-family="sans-serif" font-size="13" lengthAdjust="spacing" textLength="199" x="200" y="220.1997">to the class and accessible via</text><text fill="#000000" font-family="sans-serif" font-size="13" lengthAdjust="spacing" textLength="201" x="200" y="235.3325">an iterator: "for item in group".</text><!--class HDF5Dataset--><g id="elem_HDF5Dataset"><rect codeLine="36" fill="#F1F1F1" height="80.5938" id="HDF5Dataset" rx="2.5" ry="2.5" style="stroke:#181818;stroke-width:0.5;" width="135" x="453.5" y="180"/><ellipse cx="472.55" cy="196" fill="#ADD1B2" rx="11" ry="11" style="stroke:#181818;stroke-width:1.0;"/><path d="M475.5344,201.6406 Q474.9563,201.9375 474.3156,202.0781 Q473.675,202.2344 472.9719,202.2344 Q470.4563,202.2344 469.1281,200.5938 Q467.8156,198.9375 467.8156,195.8125 Q467.8156,192.6719 469.1281,191.0313 Q470.4563,189.375 472.9719,189.375 Q473.675,189.375 474.3156,189.5313 Q474.9719,189.6719 475.5344,189.9688 L475.5344,192.6875 Q474.8938,192.1094 474.3,191.8438 Q473.7063,191.5781 473.0813,191.5781 Q471.7375,191.5781 471.05,192.6406 Q470.3625,193.7031 470.3625,195.8125 Q470.3625,197.9063 471.05,198.9844 Q471.7375,200.0469 473.0813,200.0469 Q473.7063,200.0469 474.3,199.7813 Q474.8938,199.5 475.5344,198.9219 L475.5344,201.6406 Z " fill="#000000"/><text fill="#000000" font-family="sans-serif" font-size="14" lengthAdjust="spacing" textLength="94" x="487.45" y="200.8467">HDF5Dataset</text><line style="stroke:#181818;stroke-width:0.5;" x1="454.5" x2="587.5" y1="212" y2="212"/><text fill="#000000" font-family="sans-serif" font-size="14" lengthAdjust="spacing" textLength="123" x="459.5" y="228.9951">data : np.ndarray</text><line style="stroke:#181818;stroke-width:0.5;" x1="454.5" x2="587.5" y1="236.2969" y2="236.2969"/><text fill="#000000" font-family="sans-serif" font-size="14" lengthAdjust="spacing" textLength="72" x="459.5" y="253.292">get_data()</text></g><!--class HDF5File--><g id="elem_HDF5File"><rect codeLine="42" fill="#F1F1F1" height="64.2969" id="HDF5File" rx="2.5" ry="2.5" style="stroke:#181818;stroke-width:0.5;" width="96" x="35" y="321"/><ellipse cx="50" cy="337" fill="#ADD1B2" rx="11" ry="11" style="stroke:#181818;stroke-width:1.0;"/><path d="M52.9844,342.6406 Q52.4063,342.9375 51.7656,343.0781 Q51.125,343.2344 50.4219,343.2344 Q47.9063,343.2344 46.5781,341.5938 Q45.2656,339.9375 45.2656,336.8125 Q45.2656,333.6719 46.5781,332.0313 Q47.9063,330.375 50.4219,330.375 Q51.125,330.375 51.7656,330.5313 Q52.4219,330.6719 52.9844,330.9688 L52.9844,333.6875 Q52.3438,333.1094 51.75,332.8438 Q51.1563,332.5781 50.5313,332.5781 Q49.1875,332.5781 48.5,333.6406 Q47.8125,334.7031 47.8125,336.8125 Q47.8125,338.9063 48.5,339.9844 Q49.1875,341.0469 50.5313,341.0469 Q51.1563,341.0469 51.75,340.7813 Q52.3438,340.5 52.9844,339.9219 L52.9844,342.6406 Z " fill="#000000"/><text fill="#000000" font-family="sans-serif" font-size="14" lengthAdjust="spacing" textLength="64" x="64" y="341.8467">HDF5File</text><line style="stroke:#181818;stroke-width:0.5;" x1="36" x2="130" y1="353" y2="353"/><line style="stroke:#181818;stroke-width:0.5;" x1="36" x2="130" y1="361" y2="361"/><text fill="#000000" font-family="sans-serif" font-size="14" lengthAdjust="spacing" textLength="43" x="41" y="377.9951">read()</text></g><!--reverse link HDF5Item to HDF5Group--><g id="link_HDF5Item_HDF5Group"><path d="M223.0769,120.3578 C191.7769,142.5078 169.18,158.5 139.05,179.83 " fill="none" id="HDF5Item-backto-HDF5Group" style="stroke:#181818;stroke-width:1.0;"/><polygon fill="none" points="237.77,109.96,219.611,115.4601,226.5429,125.2555,237.77,109.96" style="stroke:#181818;stroke-width:1.0;"/></g><!--reverse link HDF5Item to HDF5Dataset--><g id="link_HDF5Item_HDF5Dataset"><path d="M380.9231,120.3578 C412.2231,142.5078 434.82,158.5 464.95,179.83 " fill="none" id="HDF5Item-backto-HDF5Dataset" style="stroke:#181818;stroke-width:1.0;"/><polygon fill="none" points="366.23,109.96,377.4571,125.2555,384.389,115.4601,366.23,109.96" style="stroke:#181818;stroke-width:1.0;"/></g><!--reverse link HDF5Group to HDF5File--><g id="link_HDF5Group_HDF5File"><path d="M83,279.01 C83,298.21 83,302.96 83,320.91 " fill="none" id="HDF5Group-backto-HDF5File" style="stroke:#181818;stroke-width:1.0;"/><polygon fill="none" points="83,261.01,77,279.01,89,279.01,83,261.01" style="stroke:#181818;stroke-width:1.0;"/></g><!--SRC=[TP91JyCm38Nl_HNMBcmIRATTAiG91jovJwPncuWqgH8Nc13_7IU1jjh4JftjlFU-E5UQUOZrRZTOT3psTjluVjTOZF566Um2zbML_yBJ_M7_pDJ3LmNoQuqbXpr13P63SLskNbQGvVjrP8fILwRXNEs8ZtDdlQc-gyfv9WYcqmo-dUpgUd8wCpOHM5EnN1lNs569AGp8UfCdHIKD9ALy2hoe6uVMdY0GgcsUUl4IHbE03yDwLfpINUSfrcBNuvjWODDGZCcgyOx9SInk3XJrw1Ii5RKK0Ycm7jK6HEZTeDrEa9RQCyO5tvAj7QtDG2M3dtcC72l97AKu64xG-Z27opsn1RqVJjbwNkDZyEC0z2dXrSLYRvFqdIphhrxMgDGnDVvRLPQiwz_3HUa16vs39XmHa0l1E5_iagbaIvVt2_0gwvBqnTibbO3iGmshH5b47NJ9TNL6Tu-CaVW_FYLjeNF3rYaC0K_JWqoTmhTGEwI7ivGgbrUqqYjA9tu0]--></g></svg>