<?xml version="1.0" encoding="us-ascii" standalone="no"?><svg xmlns="http://www.w3.org/2000/svg" xmlns:xlink="http://www.w3.org/1999/xlink" contentStyleType="text/css" height="762px" preserveAspectRatio="none" style="width:627px;height:762px;background:#FFFFFF;" version="1.1" viewBox="0 0 627 762" width="627px" zoomAndPan="magnify"><defs/><g><!--cluster evefile--><g id="cluster_evefile"><path d="M8.5,6 L64.5,6 A3.75,3.75 0 0 1 67,8.5 L74,28.2969 L617.5,28.2969 A2.5,2.5 0 0 1 620,30.7969 L620,752.5 A2.5,2.5 0 0 1 617.5,755 L8.5,755 A2.5,2.5 0 0 1 6,752.5 L6,8.5 A2.5,2.5 0 0 1 8.5,6 " fill="none" style="stroke:#000000;stroke-width:1.5;"/><line style="stroke:#000000;stroke-width:1.5;" x1="6" x2="74" y1="28.2969" y2="28.2969"/><text fill="#000000" font-family="sans-serif" font-size="14" font-weight="bold" lengthAdjust="spacing" textLength="55" x="10" y="20.9951">evefile</text></g><!--cluster boundaries--><g id="cluster_boundaries"><path d="M40.5,57 L130.5,57 A3.75,3.75 0 0 1 133,59.5 L140,79.2969 L282.5,79.2969 A2.5,2.5 0 0 1 285,81.7969 L285,174.5 A2.5,2.5 0 0 1 282.5,177 L40.5,177 A2.5,2.5 0 0 1 38,174.5 L38,59.5 A2.5,2.5 0 0 1 40.5,57 " fill="none" style="stroke:#000000;stroke-width:1.5;"/><line style="stroke:#000000;stroke-width:1.5;" x1="38" x2="140" y1="79.2969" y2="79.2969"/><text fill="#000000" font-family="sans-serif" font-size="14" font-weight="bold" lengthAdjust="spacing" textLength="89" x="42" y="71.9951">boundaries</text></g><!--cluster controllers--><g id="cluster_controllers"><path d="M40.5,217 L128.5,217 A3.75,3.75 0 0 1 131,219.5 L138,239.2969 L585.5,239.2969 A2.5,2.5 0 0 1 588,241.7969 L588,334.5 A2.5,2.5 0 0 1 585.5,337 L40.5,337 A2.5,2.5 0 0 1 38,334.5 L38,219.5 A2.5,2.5 0 0 1 40.5,217 " fill="none" style="stroke:#000000;stroke-width:1.5;"/><line style="stroke:#000000;stroke-width:1.5;" x1="38" x2="138" y1="239.2969" y2="239.2969"/><text fill="#000000" font-family="sans-serif" font-size="14" font-weight="bold" lengthAdjust="spacing" textLength="87" x="42" y="231.9951">controllers</text></g><!--cluster entities--><g id="cluster_entities"><path d="M40.5,377 L103.5,377 A3.75,3.75 0 0 1 106,379.5 L113,399.2969 L187.5,399.2969 A2.5,2.5 0 0 1 190,401.7969 L190,720.5 A2.5,2.5 0 0 1 187.5,723 L40.5,723 A2.5,2.5 0 0 1 38,720.5 L38,379.5 A2.5,2.5 0 0 1 40.5,377 " fill="none" style="stroke:#000000;stroke-width:1.5;"/><line style="stroke:#000000;stroke-width:1.5;" x1="38" x2="113" y1="399.2969" y2="399.2969"/><text fill="#000000" font-family="sans-serif" font-size="14" font-weight="bold" lengthAdjust="spacing" textLength="62" x="42" y="391.9951">entities</text></g><path d="M84,100 L140,100 A3.75,3.75 0 0 1 142.5,102.5 L149.5,122.2969 L154,122.2969 A2.5,2.5 0 0 1 156.5,124.7969 L156.5,150.0938 A2.5,2.5 0 0 1 154,152.5938 L84,152.5938 A2.5,2.5 0 0 1 81.5,150.0938 L81.5,102.5 A2.5,2.5 0 0 1 84,100 " fill="#F1F1F1" style="stroke:#181818;stroke-width:0.5;"/><line style="stroke:#181818;stroke-width:0.5;" x1="81.5" x2="149.5" y1="122.2969" y2="122.2969"/><text fill="#000000" font-family="sans-serif" font-size="14" font-weight="bold" lengthAdjust="spacing" textLength="55" x="85.5" y="114.9951">evefile</text><path d="M194,100 L244,100 A3.75,3.75 0 0 1 246.5,102.5 L253.5,122.2969 L258,122.2969 A2.5,2.5 0 0 1 260.5,124.7969 L260.5,150.0938 A2.5,2.5 0 0 1 258,152.5938 L194,152.5938 A2.5,2.5 0 0 1 191.5,150.0938 L191.5,102.5 A2.5,2.5 0 0 1 194,100 " fill="#F1F1F1" style="stroke:#181818;stroke-width:0.5;"/><line style="stroke:#181818;stroke-width:0.5;" x1="191.5" x2="253.5" y1="122.2969" y2="122.2969"/><text fill="#000000" font-family="sans-serif" font-size="14" font-weight="bold" lengthAdjust="spacing" textLength="49" x="195.5" y="114.9951">eveh5</text><path d="M384.5,260 L547.5,260 A3.75,3.75 0 0 1 550,262.5 L557,282.2969 L561.5,282.2969 A2.5,2.5 0 0 1 564,284.7969 L564,310.0938 A2.5,2.5 0 0 1 561.5,312.5938 L384.5,312.5938 A2.5,2.5 0 0 1 382,310.0938 L382,262.5 A2.5,2.5 0 0 1 384.5,260 " fill="#F1F1F1" style="stroke:#181818;stroke-width:0.5;"/><line style="stroke:#181818;stroke-width:0.5;" x1="382" x2="557" y1="282.2969" y2="282.2969"/><text fill="#000000" font-family="sans-serif" font-size="14" font-weight="bold" lengthAdjust="spacing" textLength="162" x="386" y="274.9951">timestamp_mapping</text><path d="M274,260 L330,260 A3.75,3.75 0 0 1 332.5,262.5 L339.5,282.2969 L344,282.2969 A2.5,2.5 0 0 1 346.5,284.7969 L346.5,310.0938 A2.5,2.5 0 0 1 344,312.5938 L274,312.5938 A2.5,2.5 0 0 1 271.5,310.0938 L271.5,262.5 A2.5,2.5 0 0 1 274,260 " fill="#F1F1F1" style="stroke:#181818;stroke-width:0.5;"/><line style="stroke:#181818;stroke-width:0.5;" x1="271.5" x2="339.5" y1="282.2969" y2="282.2969"/><text fill="#000000" font-family="sans-serif" font-size="14" font-weight="bold" lengthAdjust="spacing" textLength="55" x="275.5" y="274.9951">joining</text><path d="M84,260 L220,260 A3.75,3.75 0 0 1 222.5,262.5 L229.5,282.2969 L234,282.2969 A2.5,2.5 0 0 1 236.5,284.7969 L236.5,310.0938 A2.5,2.5 0 0 1 234,312.5938 L84,312.5938 A2.5,2.5 0 0 1 81.5,310.0938 L81.5,262.5 A2.5,2.5 0 0 1 84,260 " fill="#F1F1F1" style="stroke:#181818;stroke-width:0.5;"/><line style="stroke:#181818;stroke-width:0.5;" x1="81.5" x2="229.5" y1="282.2969" y2="282.2969"/><text fill="#000000" font-family="sans-serif" font-size="14" font-weight="bold" lengthAdjust="spacing" textLength="135" x="85.5" y="274.9951">version_mapping</text><path d="M97.5,420 L124.5,420 A3.75,3.75 0 0 1 127,422.5 L134,442.2969 L138.5,442.2969 A2.5,2.5 0 0 1 141,444.7969 L141,470.0938 A2.5,2.5 0 0 1 138.5,472.5938 L97.5,472.5938 A2.5,2.5 0 0 1 95,470.0938 L95,422.5 A2.5,2.5 0 0 1 97.5,420 " fill="#F1F1F1" style="stroke:#181818;stroke-width:0.5;"/><line style="stroke:#181818;stroke-width:0.5;" x1="95" x2="134" y1="442.2969" y2="442.2969"/><text fill="#000000" font-family="sans-serif" font-size="14" font-weight="bold" lengthAdjust="spacing" textLength="26" x="99" y="434.9951">file</text><path d="M93,533 L129,533 A3.75,3.75 0 0 1 131.5,535.5 L138.5,555.2969 L143,555.2969 A2.5,2.5 0 0 1 145.5,557.7969 L145.5,583.0938 A2.5,2.5 0 0 1 143,585.5938 L93,585.5938 A2.5,2.5 0 0 1 90.5,583.0938 L90.5,535.5 A2.5,2.5 0 0 1 93,533 " fill="#F1F1F1" style="stroke:#181818;stroke-width:0.5;"/><line style="stroke:#181818;stroke-width:0.5;" x1="90.5" x2="138.5" y1="555.2969" y2="555.2969"/><text fill="#000000" font-family="sans-serif" font-size="14" font-weight="bold" lengthAdjust="spacing" textLength="35" x="94.5" y="547.9951">data</text><path d="M72.5,646 L149.5,646 A3.75,3.75 0 0 1 152,648.5 L159,668.2969 L163.5,668.2969 A2.5,2.5 0 0 1 166,670.7969 L166,696.0938 A2.5,2.5 0 0 1 163.5,698.5938 L72.5,698.5938 A2.5,2.5 0 0 1 70,696.0938 L70,648.5 A2.5,2.5 0 0 1 72.5,646 " fill="#F1F1F1" style="stroke:#181818;stroke-width:0.5;"/><line style="stroke:#181818;stroke-width:0.5;" x1="70" x2="159" y1="668.2969" y2="668.2969"/><text fill="#000000" font-family="sans-serif" font-size="14" font-weight="bold" lengthAdjust="spacing" textLength="76" x="74" y="660.9951">metadata</text><!--link evefile to eveh5--><g id="link_evefile_eveh5"><path codeLine="7" d="M156.62,126.5 C168.18,126.5 173.74,126.5 185.31,126.5 " fill="none" id="evefile-to-eveh5" style="stroke:#181818;stroke-width:1.0;"/><polygon fill="#181818" points="191.31,126.5,182.31,122.5,186.31,126.5,182.31,130.5,191.31,126.5" style="stroke:#181818;stroke-width:1.0;"/></g><!--link file to data--><g id="link_file_data"><path codeLine="21" d="M118,473.24 C118,491.18 118,508.99 118,526.89 " fill="none" id="file-to-data" style="stroke:#181818;stroke-width:1.0;"/><polygon fill="#181818" points="118,532.89,122,523.89,118,527.89,114,523.89,118,532.89" style="stroke:#181818;stroke-width:1.0;"/></g><!--link data to metadata--><g id="link_data_metadata"><path codeLine="22" d="M118,586.24 C118,604.18 118,621.99 118,639.89 " fill="none" id="data-to-metadata" style="stroke:#181818;stroke-width:1.0;"/><polygon fill="#181818" points="118,645.89,122,636.89,118,640.89,114,636.89,118,645.89" style="stroke:#181818;stroke-width:1.0;"/></g><!--link boundaries to controllers--><g id="link_boundaries_controllers"><path codeLine="25" d="M46,177.5361 C46,177.8165 46,178.0974 46,178.379 C46,187.3876 46,196.9572 46,206.5263 C46,208.9185 46,211.3107 46,213.6942 C46,214.29 46,214.8853 46,215.4799 C46,215.7773 46,216.0744 46,216.3713 C46,216.5198 46,210.6682 46,210.8166 " fill="none" id="boundaries-to-controllers" style="stroke:#181818;stroke-width:1.0;"/><polygon fill="#181818" points="46,216.8166,50,207.8166,46,211.8166,42,207.8166,46,216.8166" style="stroke:#181818;stroke-width:1.0;"/></g><!--link controllers to entities--><g id="link_controllers_entities"><path codeLine="26" d="M46,337.5361 C46,337.8165 46,338.0974 46,338.379 C46,347.3876 46,356.9572 46,366.5263 C46,368.9185 46,371.3107 46,373.6942 C46,374.29 46,374.8853 46,375.4799 C46,375.7773 46,376.0744 46,376.3713 C46,376.5198 46,370.6682 46,370.8166 " fill="none" id="controllers-to-entities" style="stroke:#181818;stroke-width:1.0;"/><polygon fill="#181818" points="46,376.8166,50,367.8166,46,371.8166,42,367.8166,46,376.8166" style="stroke:#181818;stroke-width:1.0;"/></g><!--SRC=[bP5D3e8m48NtFKLthY2wOEjLp4X77A7JfbHT4EukWiLA2ebTzdjl_jwkhOajED1IMPA7OY-4XRA62YK-y48Doax8uIr-yxEvim97s7u42P7i-XIw5Z48skmuiH7qoPwbOUzCqw1BDVMaiVMWxKc3jSHLgltD4A-Wnr2M32_TwL6GFVdDvMT97btnMt3JeS33VmwD7bPTqtsLUV9mvBTg9gCba513H7iduiwcf9Q9_CZZf69zc5VqGhm0]--></g></svg>