<?xml version="1.0" encoding="us-ascii" standalone="no"?><svg xmlns="http://www.w3.org/2000/svg" xmlns:xlink="http://www.w3.org/1999/xlink" contentStyleType="text/css" height="414px" preserveAspectRatio="none" style="width:197px;height:414px;background:#FFFFFF;" version="1.1" viewBox="0 0 197 414" width="197px" zoomAndPan="magnify"><defs/><g><!--cluster evefile--><g id="cluster_evefile"><path d="M8.5,6.602 L54.5,6.602 A3.75,3.75 0 0 1 57,9.102 L64,31.6699 L187.5,31.6699 A2.5,2.5 0 0 1 190,34.1699 L190,246.102 A2.5,2.5 0 0 1 187.5,248.602 L8.5,248.602 A2.5,2.5 0 0 1 6,246.102 L6,9.102 A2.5,2.5 0 0 1 8.5,6.602 " fill="none" style="stroke:#000000;stroke-width:1.5;"/><line style="stroke:#000000;stroke-width:1.5;" x1="6" x2="64" y1="31.6699" y2="31.6699"/><text fill="#000000" font-family="sans-serif" font-size="14" font-weight="bold" lengthAdjust="spacing" textLength="45" x="10" y="23.5679">evefile</text></g><!--cluster entities--><g id="cluster_entities"><path d="M32.5,52.602 L85.5,52.602 A3.75,3.75 0 0 1 88,55.102 L95,77.6699 L163.5,77.6699 A2.5,2.5 0 0 1 166,80.1699 L166,222.102 A2.5,2.5 0 0 1 163.5,224.602 L32.5,224.602 A2.5,2.5 0 0 1 30,222.102 L30,55.102 A2.5,2.5 0 0 1 32.5,52.602 " fill="none" style="stroke:#000000;stroke-width:1.5;"/><line style="stroke:#000000;stroke-width:1.5;" x1="30" x2="95" y1="77.6699" y2="77.6699"/><text fill="#000000" font-family="sans-serif" font-size="14" font-weight="bold" lengthAdjust="spacing" textLength="52" x="34" y="69.5679">entities</text></g><!--cluster file--><g id="cluster_file"><path d="M56.5,98.602 L78.5,98.602 A3.75,3.75 0 0 1 81,101.102 L88,123.6699 L139.5,123.6699 A2.5,2.5 0 0 1 142,126.1699 L142,198.102 A2.5,2.5 0 0 1 139.5,200.602 L56.5,200.602 A2.5,2.5 0 0 1 54,198.102 L54,101.102 A2.5,2.5 0 0 1 56.5,98.602 " fill="none" style="stroke:#000000;stroke-width:1.5;"/><line style="stroke:#000000;stroke-width:1.5;" x1="54" x2="88" y1="123.6699" y2="123.6699"/><text fill="#000000" font-family="sans-serif" font-size="14" font-weight="bold" lengthAdjust="spacing" textLength="21" x="58" y="115.5679">file</text></g><!--class File--><g id="elem_File"><rect fill="#F1F1F1" height="48" id="File" rx="2.5" ry="2.5" style="stroke:#181818;stroke-width:0.5;" width="55" x="70.5" y="136.602"/><ellipse cx="85.5" cy="152.602" fill="#ADD1B2" rx="11" ry="11" style="stroke:#181818;stroke-width:1.0;"/><path d="M84.9688,159.5239 Q83.2188,159.5239 82.0781,158.7895 Q80.9531,158.0395 80.3906,156.6957 Q79.8438,155.3364 79.8438,153.5395 Q79.8438,151.5082 80.5,150.0551 Q81.1563,148.602 82.4375,147.8207 Q83.7188,147.0395 85.5938,147.0395 Q86.4844,147.0395 87.1563,147.227 Q87.8281,147.3989 88.5156,147.7426 L87.7031,149.7582 Q87.0781,149.4457 86.5313,149.3207 Q86,149.1957 85.5156,149.1957 Q84.3438,149.1957 83.6406,149.727 Q82.9375,150.2582 82.6406,151.2114 Q82.3438,152.1645 82.3438,153.4301 Q82.3438,155.4457 83.0625,156.4145 Q83.7813,157.3676 85.375,157.3676 Q85.9688,157.3676 86.5938,157.2114 Q87.2188,157.0551 88.0469,156.6801 L88.0469,158.8989 Q87.3125,159.2114 86.5156,159.3676 Q85.7344,159.5239 84.9688,159.5239 Z " fill="#000000"/><text fill="#000000" font-family="sans-serif" font-size="14" lengthAdjust="spacing" textLength="23" x="99.5" y="158.034">File</text><line style="stroke:#181818;stroke-width:0.5;" x1="71.5" x2="124.5" y1="168.602" y2="168.602"/><line style="stroke:#181818;stroke-width:0.5;" x1="71.5" x2="124.5" y1="176.602" y2="176.602"/></g><!--class EveFile--><g id="elem_EveFile"><rect codeLine="3" fill="#F1F1F1" height="143.3396" id="EveFile" rx="2.5" ry="2.5" style="stroke:#181818;stroke-width:0.5;" width="149" x="23.5" y="264.602"/><ellipse cx="70.75" cy="280.602" fill="#ADD1B2" rx="11" ry="11" style="stroke:#181818;stroke-width:1.0;"/><path d="M70.2188,287.5239 Q68.4688,287.5239 67.3281,286.7895 Q66.2031,286.0395 65.6406,284.6957 Q65.0938,283.3364 65.0938,281.5395 Q65.0938,279.5082 65.75,278.0551 Q66.4063,276.602 67.6875,275.8207 Q68.9688,275.0395 70.8438,275.0395 Q71.7344,275.0395 72.4063,275.227 Q73.0781,275.3989 73.7656,275.7426 L72.9531,277.7582 Q72.3281,277.4457 71.7813,277.3207 Q71.25,277.1957 70.7656,277.1957 Q69.5938,277.1957 68.8906,277.727 Q68.1875,278.2582 67.8906,279.2114 Q67.5938,280.1645 67.5938,281.4301 Q67.5938,283.4457 68.3125,284.4145 Q69.0313,285.3676 70.625,285.3676 Q71.2188,285.3676 71.8438,285.2114 Q72.4688,285.0551 73.2969,284.6801 L73.2969,286.8989 Q72.5625,287.2114 71.7656,287.3676 Q70.9844,287.5239 70.2188,287.5239 Z " fill="#000000"/><text fill="#000000" font-family="sans-serif" font-size="14" lengthAdjust="spacing" textLength="46" x="91.25" y="286.034">EveFile</text><line style="stroke:#181818;stroke-width:0.5;" x1="24.5" x2="171.5" y1="296.602" y2="296.602"/><line style="stroke:#181818;stroke-width:0.5;" x1="24.5" x2="171.5" y1="304.602" y2="304.602"/><text fill="#000000" font-family="sans-serif" font-size="14" lengthAdjust="spacing" textLength="66" x="29.5" y="323.5679">get_data()</text><text fill="#000000" font-family="sans-serif" font-size="14" lengthAdjust="spacing" textLength="117" x="29.5" y="342.6358">get_data_names()</text><text fill="#000000" font-family="sans-serif" font-size="14" lengthAdjust="spacing" textLength="114" x="29.5" y="361.7038">get_joined_data()</text><text fill="#000000" font-family="sans-serif" font-size="14" lengthAdjust="spacing" textLength="137" x="29.5" y="380.7717">get_preferred_data()</text><text fill="#000000" font-family="sans-serif" font-size="14" lengthAdjust="spacing" textLength="106" x="29.5" y="399.8396">get_dataframe()</text></g><!--reverse link File to EveFile--><g id="link_File_EveFile"><path d="M98,202.642 C98,223.012 98,235.832 98,264.282 " fill="none" id="File-backto-EveFile" style="stroke:#181818;stroke-width:1.0;"/><polygon fill="none" points="98,184.642,92,202.642,104,202.642,98,184.642" style="stroke:#181818;stroke-width:1.0;"/></g><!--SRC=[PSux3iCW40JGdbFG9Ia2lVla6jRA33OHOCHkB4jHxXv2bSzsRsQAFImYXGThIwGiznJDj2OxHM8-kq1pfQHKfxvik8O8ZLsG7MjiyCq6MO84iEdgauVIxMR8w4ZeUFhYc2c1FyBR6ZBSxxHKUDJwNxpfsrzesLEz0000]--></g></svg>