<?xml version="1.0" encoding="us-ascii" standalone="no"?><svg xmlns="http://www.w3.org/2000/svg" xmlns:xlink="http://www.w3.org/1999/xlink" contentStyleType="text/css" height="723px" preserveAspectRatio="none" style="width:1025px;height:723px;background:#FFFFFF;" version="1.1" viewBox="0 0 1025 723" width="1025px" zoomAndPan="magnify"><defs/><g><!--class Data--><g id="elem_Data"><rect codeLine="3" fill="#F1F1F1" height="145.7813" id="Data" rx="2.5" ry="2.5" style="stroke:#181818;stroke-width:0.5;" width="193" x="406.5" y="7"/><ellipse cx="481.75" cy="23" fill="#ADD1B2" rx="11" ry="11" style="stroke:#181818;stroke-width:1.0;"/><path d="M484.7344,28.6406 Q484.1563,28.9375 483.5156,29.0781 Q482.875,29.2344 482.1719,29.2344 Q479.6563,29.2344 478.3281,27.5938 Q477.0156,25.9375 477.0156,22.8125 Q477.0156,19.6719 478.3281,18.0313 Q479.6563,16.375 482.1719,16.375 Q482.875,16.375 483.5156,16.5313 Q484.1719,16.6719 484.7344,16.9688 L484.7344,19.6875 Q484.0938,19.1094 483.5,18.8438 Q482.9063,18.5781 482.2813,18.5781 Q480.9375,18.5781 480.25,19.6406 Q479.5625,20.7031 479.5625,22.8125 Q479.5625,24.9063 480.25,25.9844 Q480.9375,27.0469 482.2813,27.0469 Q482.9063,27.0469 483.5,26.7813 Q484.0938,26.5 484.7344,25.9219 L484.7344,28.6406 Z " fill="#000000"/><text fill="#000000" font-family="sans-serif" font-size="14" lengthAdjust="spacing" textLength="34" x="502.25" y="27.8467">Data</text><line style="stroke:#181818;stroke-width:0.5;" x1="407.5" x2="598.5" y1="39" y2="39"/><text fill="#000000" font-family="sans-serif" font-size="14" lengthAdjust="spacing" textLength="149" x="412.5" y="55.9951">metadata : Metadata</text><text fill="#000000" font-family="sans-serif" font-size="14" lengthAdjust="spacing" textLength="91" x="412.5" y="72.292">options : dict</text><text fill="#000000" font-family="sans-serif" font-size="14" lengthAdjust="spacing" textLength="181" x="412.5" y="88.5889">importer[] : DataImporter</text><text fill="#000000" font-family="sans-serif" font-size="14" lengthAdjust="spacing" textLength="130" x="412.5" y="104.8857">_data : np.ndarray</text><line style="stroke:#181818;stroke-width:0.5;" x1="407.5" x2="598.5" y1="112.1875" y2="112.1875"/><text fill="#000000" font-family="sans-serif" font-size="14" lengthAdjust="spacing" textLength="42" x="412.5" y="129.1826">data()</text><text fill="#000000" font-family="sans-serif" font-size="14" lengthAdjust="spacing" textLength="72" x="412.5" y="145.4795">get_data()</text></g><!--class DataImporter--><g id="elem_DataImporter"><rect codeLine="12" fill="#F1F1F1" height="80.5938" id="DataImporter" rx="2.5" ry="2.5" style="stroke:#181818;stroke-width:0.5;" width="128" x="704" y="39.5"/><ellipse cx="719" cy="55.5" fill="#ADD1B2" rx="11" ry="11" style="stroke:#181818;stroke-width:1.0;"/><path d="M721.9844,61.1406 Q721.4063,61.4375 720.7656,61.5781 Q720.125,61.7344 719.4219,61.7344 Q716.9063,61.7344 715.5781,60.0938 Q714.2656,58.4375 714.2656,55.3125 Q714.2656,52.1719 715.5781,50.5313 Q716.9063,48.875 719.4219,48.875 Q720.125,48.875 720.7656,49.0313 Q721.4219,49.1719 721.9844,49.4688 L721.9844,52.1875 Q721.3438,51.6094 720.75,51.3438 Q720.1563,51.0781 719.5313,51.0781 Q718.1875,51.0781 717.5,52.1406 Q716.8125,53.2031 716.8125,55.3125 Q716.8125,57.4063 717.5,58.4844 Q718.1875,59.5469 719.5313,59.5469 Q720.1563,59.5469 720.75,59.2813 Q721.3438,59 721.9844,58.4219 L721.9844,61.1406 Z " fill="#000000"/><text fill="#000000" font-family="sans-serif" font-size="14" lengthAdjust="spacing" textLength="96" x="733" y="60.3467">DataImporter</text><line style="stroke:#181818;stroke-width:0.5;" x1="705" x2="831" y1="71.5" y2="71.5"/><text fill="#000000" font-family="sans-serif" font-size="14" lengthAdjust="spacing" textLength="101" x="710" y="88.4951">source : string</text><line style="stroke:#181818;stroke-width:0.5;" x1="705" x2="831" y1="95.7969" y2="95.7969"/><text fill="#000000" font-family="sans-serif" font-size="14" lengthAdjust="spacing" textLength="41" x="710" y="112.792">load()</text></g><!--class HDF5DataImporter--><g id="elem_HDF5DataImporter"><rect codeLine="17" fill="#F1F1F1" height="80.5938" id="HDF5DataImporter" rx="2.5" ry="2.5" style="stroke:#181818;stroke-width:0.5;" width="167" x="718.5" y="213"/><ellipse cx="733.5" cy="229" fill="#ADD1B2" rx="11" ry="11" style="stroke:#181818;stroke-width:1.0;"/><path d="M736.4844,234.6406 Q735.9063,234.9375 735.2656,235.0781 Q734.625,235.2344 733.9219,235.2344 Q731.4063,235.2344 730.0781,233.5938 Q728.7656,231.9375 728.7656,228.8125 Q728.7656,225.6719 730.0781,224.0313 Q731.4063,222.375 733.9219,222.375 Q734.625,222.375 735.2656,222.5313 Q735.9219,222.6719 736.4844,222.9688 L736.4844,225.6875 Q735.8438,225.1094 735.25,224.8438 Q734.6563,224.5781 734.0313,224.5781 Q732.6875,224.5781 732,225.6406 Q731.3125,226.7031 731.3125,228.8125 Q731.3125,230.9063 732,231.9844 Q732.6875,233.0469 734.0313,233.0469 Q734.6563,233.0469 735.25,232.7813 Q735.8438,232.5 736.4844,231.9219 L736.4844,234.6406 Z " fill="#000000"/><text fill="#000000" font-family="sans-serif" font-size="14" lengthAdjust="spacing" textLength="135" x="747.5" y="233.8467">HDF5DataImporter</text><line style="stroke:#181818;stroke-width:0.5;" x1="719.5" x2="884.5" y1="245" y2="245"/><text fill="#000000" font-family="sans-serif" font-size="14" lengthAdjust="spacing" textLength="85" x="724.5" y="261.9951">item : string</text><text fill="#000000" font-family="sans-serif" font-size="14" lengthAdjust="spacing" textLength="102" x="724.5" y="278.292">mapping : dict</text><line style="stroke:#181818;stroke-width:0.5;" x1="719.5" x2="884.5" y1="285.5938" y2="285.5938"/></g><!--class Metadata--><g id="elem_Metadata"><rect codeLine="22" fill="#F1F1F1" height="48" id="Metadata" rx="2.5" ry="2.5" style="stroke:#181818;stroke-width:0.5;" width="99" x="204.5" y="56"/><ellipse cx="219.5" cy="72" fill="#ADD1B2" rx="11" ry="11" style="stroke:#181818;stroke-width:1.0;"/><path d="M222.4844,77.6406 Q221.9063,77.9375 221.2656,78.0781 Q220.625,78.2344 219.9219,78.2344 Q217.4063,78.2344 216.0781,76.5938 Q214.7656,74.9375 214.7656,71.8125 Q214.7656,68.6719 216.0781,67.0313 Q217.4063,65.375 219.9219,65.375 Q220.625,65.375 221.2656,65.5313 Q221.9219,65.6719 222.4844,65.9688 L222.4844,68.6875 Q221.8438,68.1094 221.25,67.8438 Q220.6563,67.5781 220.0313,67.5781 Q218.6875,67.5781 218,68.6406 Q217.3125,69.7031 217.3125,71.8125 Q217.3125,73.9063 218,74.9844 Q218.6875,76.0469 220.0313,76.0469 Q220.6563,76.0469 221.25,75.7813 Q221.8438,75.5 222.4844,74.9219 L222.4844,77.6406 Z " fill="#000000"/><text fill="#000000" font-family="sans-serif" font-size="14" lengthAdjust="spacing" textLength="67" x="233.5" y="76.8467">Metadata</text><line style="stroke:#181818;stroke-width:0.5;" x1="205.5" x2="302.5" y1="88" y2="88"/><line style="stroke:#181818;stroke-width:0.5;" x1="205.5" x2="302.5" y1="96" y2="96"/></g><g id="elem_GMN7"><path d="M28.5,60 L28.5,100.2656 A0,0 0 0 0 28.5,100.2656 L169.5,100.2656 A0,0 0 0 0 169.5,100.2656 L169.5,84 L204.18,80 L169.5,76 L169.5,70 L159.5,60 L28.5,60 A0,0 0 0 0 28.5,60 " fill="#FEFFDD" style="stroke:#181818;stroke-width:0.5;"/><path d="M159.5,60 L159.5,70 L169.5,70 L159.5,60 " fill="#FEFFDD" style="stroke:#181818;stroke-width:0.5;"/><text fill="#000000" font-family="sans-serif" font-size="13" lengthAdjust="spacing" textLength="104" x="34.5" y="77.0669">See diagram for</text><text fill="#000000" font-family="sans-serif" font-size="13" lengthAdjust="spacing" textLength="120" x="34.5" y="92.1997">metadata module.</text></g><!--class MeasureData--><g id="elem_MeasureData"><rect codeLine="29" fill="#F1F1F1" height="64.2969" id="MeasureData" rx="2.5" ry="2.5" style="stroke:#181818;stroke-width:0.5;" width="293" x="390.5" y="221.5"/><ellipse cx="485.25" cy="237.5" fill="#ADD1B2" rx="11" ry="11" style="stroke:#181818;stroke-width:1.0;"/><path d="M488.2344,243.1406 Q487.6563,243.4375 487.0156,243.5781 Q486.375,243.7344 485.6719,243.7344 Q483.1563,243.7344 481.8281,242.0938 Q480.5156,240.4375 480.5156,237.3125 Q480.5156,234.1719 481.8281,232.5313 Q483.1563,230.875 485.6719,230.875 Q486.375,230.875 487.0156,231.0313 Q487.6719,231.1719 488.2344,231.4688 L488.2344,234.1875 Q487.5938,233.6094 487,233.3438 Q486.4063,233.0781 485.7813,233.0781 Q484.4375,233.0781 483.75,234.1406 Q483.0625,235.2031 483.0625,237.3125 Q483.0625,239.4063 483.75,240.4844 Q484.4375,241.5469 485.7813,241.5469 Q486.4063,241.5469 487,241.2813 Q487.5938,241 488.2344,240.4219 L488.2344,243.1406 Z " fill="#000000"/><text fill="#000000" font-family="sans-serif" font-size="14" lengthAdjust="spacing" textLength="95" x="505.75" y="242.3467">MeasureData</text><line style="stroke:#181818;stroke-width:0.5;" x1="391.5" x2="682.5" y1="253.5" y2="253.5"/><text fill="#000000" font-family="sans-serif" font-size="14" lengthAdjust="spacing" textLength="281" x="396.5" y="270.4951">position_counts : np.ndarray(dtype=int)</text><line style="stroke:#181818;stroke-width:0.5;" x1="391.5" x2="682.5" y1="277.7969" y2="277.7969"/></g><!--class MonitorData--><g id="elem_MonitorData"><rect codeLine="33" fill="#F1F1F1" height="64.2969" id="MonitorData" rx="2.5" ry="2.5" style="stroke:#181818;stroke-width:0.5;" width="271" x="84.5" y="221.5"/><ellipse cx="171.75" cy="237.5" fill="#ADD1B2" rx="11" ry="11" style="stroke:#181818;stroke-width:1.0;"/><path d="M174.7344,243.1406 Q174.1563,243.4375 173.5156,243.5781 Q172.875,243.7344 172.1719,243.7344 Q169.6563,243.7344 168.3281,242.0938 Q167.0156,240.4375 167.0156,237.3125 Q167.0156,234.1719 168.3281,232.5313 Q169.6563,230.875 172.1719,230.875 Q172.875,230.875 173.5156,231.0313 Q174.1719,231.1719 174.7344,231.4688 L174.7344,234.1875 Q174.0938,233.6094 173.5,233.3438 Q172.9063,233.0781 172.2813,233.0781 Q170.9375,233.0781 170.25,234.1406 Q169.5625,235.2031 169.5625,237.3125 Q169.5625,239.4063 170.25,240.4844 Q170.9375,241.5469 172.2813,241.5469 Q172.9063,241.5469 173.5,241.2813 Q174.0938,241 174.7344,240.4219 L174.7344,243.1406 Z " fill="#000000"/><text fill="#000000" font-family="sans-serif" font-size="14" lengthAdjust="spacing" textLength="88" x="192.25" y="242.3467">MonitorData</text><line style="stroke:#181818;stroke-width:0.5;" x1="85.5" x2="354.5" y1="253.5" y2="253.5"/><text fill="#000000" font-family="sans-serif" font-size="14" lengthAdjust="spacing" textLength="259" x="90.5" y="270.4951">milliseconds : np.ndarray(dtype=int)</text><line style="stroke:#181818;stroke-width:0.5;" x1="85.5" x2="354.5" y1="277.7969" y2="277.7969"/></g><!--class DeviceData--><g id="elem_DeviceData"><rect codeLine="40" fill="#F1F1F1" height="48" id="DeviceData" rx="2.5" ry="2.5" style="stroke:#181818;stroke-width:0.5;" width="115" x="205.5" y="378.5"/><ellipse cx="220.5" cy="394.5" fill="#ADD1B2" rx="11" ry="11" style="stroke:#181818;stroke-width:1.0;"/><path d="M223.4844,400.1406 Q222.9063,400.4375 222.2656,400.5781 Q221.625,400.7344 220.9219,400.7344 Q218.4063,400.7344 217.0781,399.0938 Q215.7656,397.4375 215.7656,394.3125 Q215.7656,391.1719 217.0781,389.5313 Q218.4063,387.875 220.9219,387.875 Q221.625,387.875 222.2656,388.0313 Q222.9219,388.1719 223.4844,388.4688 L223.4844,391.1875 Q222.8438,390.6094 222.25,390.3438 Q221.6563,390.0781 221.0313,390.0781 Q219.6875,390.0781 219,391.1406 Q218.3125,392.2031 218.3125,394.3125 Q218.3125,396.4063 219,397.4844 Q219.6875,398.5469 221.0313,398.5469 Q221.6563,398.5469 222.25,398.2813 Q222.8438,398 223.4844,397.4219 L223.4844,400.1406 Z " fill="#000000"/><text fill="#000000" font-family="sans-serif" font-size="14" lengthAdjust="spacing" textLength="83" x="234.5" y="399.3467">DeviceData</text><line style="stroke:#181818;stroke-width:0.5;" x1="206.5" x2="319.5" y1="410.5" y2="410.5"/><line style="stroke:#181818;stroke-width:0.5;" x1="206.5" x2="319.5" y1="418.5" y2="418.5"/></g><!--class AxisData--><g id="elem_AxisData"><rect codeLine="42" fill="#F1F1F1" height="64.2969" id="AxisData" rx="2.5" ry="2.5" style="stroke:#181818;stroke-width:0.5;" width="177" x="355.5" y="370.5"/><ellipse cx="408.25" cy="386.5" fill="#ADD1B2" rx="11" ry="11" style="stroke:#181818;stroke-width:1.0;"/><path d="M411.2344,392.1406 Q410.6563,392.4375 410.0156,392.5781 Q409.375,392.7344 408.6719,392.7344 Q406.1563,392.7344 404.8281,391.0938 Q403.5156,389.4375 403.5156,386.3125 Q403.5156,383.1719 404.8281,381.5313 Q406.1563,379.875 408.6719,379.875 Q409.375,379.875 410.0156,380.0313 Q410.6719,380.1719 411.2344,380.4688 L411.2344,383.1875 Q410.5938,382.6094 410,382.3438 Q409.4063,382.0781 408.7813,382.0781 Q407.4375,382.0781 406.75,383.1406 Q406.0625,384.2031 406.0625,386.3125 Q406.0625,388.4063 406.75,389.4844 Q407.4375,390.5469 408.7813,390.5469 Q409.4063,390.5469 410,390.2813 Q410.5938,390 411.2344,389.4219 L411.2344,392.1406 Z " fill="#000000"/><text fill="#000000" font-family="sans-serif" font-size="14" lengthAdjust="spacing" textLength="63" x="428.75" y="391.3467">AxisData</text><line style="stroke:#181818;stroke-width:0.5;" x1="356.5" x2="531.5" y1="402.5" y2="402.5"/><text fill="#000000" font-family="sans-serif" font-size="14" lengthAdjust="spacing" textLength="165" x="361.5" y="419.4951">set_values : np.ndarray</text><line style="stroke:#181818;stroke-width:0.5;" x1="356.5" x2="531.5" y1="426.7969" y2="426.7969"/></g><!--class ChannelData--><g id="elem_ChannelData"><rect codeLine="46" fill="#F1F1F1" height="48" id="ChannelData" rx="2.5" ry="2.5" style="stroke:#181818;stroke-width:0.5;" width="125" x="567.5" y="378.5"/><ellipse cx="582.5" cy="394.5" fill="#ADD1B2" rx="11" ry="11" style="stroke:#181818;stroke-width:1.0;"/><path d="M585.4844,400.1406 Q584.9063,400.4375 584.2656,400.5781 Q583.625,400.7344 582.9219,400.7344 Q580.4063,400.7344 579.0781,399.0938 Q577.7656,397.4375 577.7656,394.3125 Q577.7656,391.1719 579.0781,389.5313 Q580.4063,387.875 582.9219,387.875 Q583.625,387.875 584.2656,388.0313 Q584.9219,388.1719 585.4844,388.4688 L585.4844,391.1875 Q584.8438,390.6094 584.25,390.3438 Q583.6563,390.0781 583.0313,390.0781 Q581.6875,390.0781 581,391.1406 Q580.3125,392.2031 580.3125,394.3125 Q580.3125,396.4063 581,397.4844 Q581.6875,398.5469 583.0313,398.5469 Q583.6563,398.5469 584.25,398.2813 Q584.8438,398 585.4844,397.4219 L585.4844,400.1406 Z " fill="#000000"/><text fill="#000000" font-family="sans-serif" font-size="14" lengthAdjust="spacing" textLength="93" x="596.5" y="399.3467">ChannelData</text><line style="stroke:#181818;stroke-width:0.5;" x1="568.5" x2="691.5" y1="410.5" y2="410.5"/><line style="stroke:#181818;stroke-width:0.5;" x1="568.5" x2="691.5" y1="418.5" y2="418.5"/></g><!--class TimestampData--><g id="elem_TimestampData"><rect codeLine="49" fill="#F1F1F1" height="96.8906" id="TimestampData" rx="2.5" ry="2.5" style="stroke:#181818;stroke-width:0.5;" width="287" x="727.5" y="354"/><ellipse cx="809.75" cy="370" fill="#ADD1B2" rx="11" ry="11" style="stroke:#181818;stroke-width:1.0;"/><path d="M812.7344,375.6406 Q812.1563,375.9375 811.5156,376.0781 Q810.875,376.2344 810.1719,376.2344 Q807.6563,376.2344 806.3281,374.5938 Q805.0156,372.9375 805.0156,369.8125 Q805.0156,366.6719 806.3281,365.0313 Q807.6563,363.375 810.1719,363.375 Q810.875,363.375 811.5156,363.5313 Q812.1719,363.6719 812.7344,363.9688 L812.7344,366.6875 Q812.0938,366.1094 811.5,365.8438 Q810.9063,365.5781 810.2813,365.5781 Q808.9375,365.5781 808.25,366.6406 Q807.5625,367.7031 807.5625,369.8125 Q807.5625,371.9063 808.25,372.9844 Q808.9375,374.0469 810.2813,374.0469 Q810.9063,374.0469 811.5,373.7813 Q812.0938,373.5 812.7344,372.9219 L812.7344,375.6406 Z " fill="#000000"/><text fill="#000000" font-family="sans-serif" font-size="14" lengthAdjust="spacing" textLength="114" x="830.25" y="374.8467">TimestampData</text><line style="stroke:#181818;stroke-width:0.5;" x1="728.5" x2="1013.5" y1="386" y2="386"/><text fill="#000000" font-family="sans-serif" font-size="14" lengthAdjust="spacing" textLength="275" x="733.5" y="402.9951">_first_positions : np.ndarray(dtype=int)</text><text fill="#000000" font-family="sans-serif" font-size="14" lengthAdjust="spacing" textLength="273" x="733.5" y="419.292">_last_positions : np.ndarray(dtype=int)</text><line style="stroke:#181818;stroke-width:0.5;" x1="728.5" x2="1013.5" y1="426.5938" y2="426.5938"/><text fill="#000000" font-family="sans-serif" font-size="14" lengthAdjust="spacing" textLength="258" x="733.5" y="443.5889">get_position(timestamp, mode=last)</text></g><!--class SinglePointChannelData--><g id="elem_SinglePointChannelData"><rect codeLine="55" fill="#F1F1F1" height="48" id="SinglePointChannelData" rx="2.5" ry="2.5" style="stroke:#181818;stroke-width:0.5;" width="204" x="7" y="535.5"/><ellipse cx="22" cy="551.5" fill="#ADD1B2" rx="11" ry="11" style="stroke:#181818;stroke-width:1.0;"/><path d="M24.9844,557.1406 Q24.4063,557.4375 23.7656,557.5781 Q23.125,557.7344 22.4219,557.7344 Q19.9063,557.7344 18.5781,556.0938 Q17.2656,554.4375 17.2656,551.3125 Q17.2656,548.1719 18.5781,546.5313 Q19.9063,544.875 22.4219,544.875 Q23.125,544.875 23.7656,545.0313 Q24.4219,545.1719 24.9844,545.4688 L24.9844,548.1875 Q24.3438,547.6094 23.75,547.3438 Q23.1563,547.0781 22.5313,547.0781 Q21.1875,547.0781 20.5,548.1406 Q19.8125,549.2031 19.8125,551.3125 Q19.8125,553.4063 20.5,554.4844 Q21.1875,555.5469 22.5313,555.5469 Q23.1563,555.5469 23.75,555.2813 Q24.3438,555 24.9844,554.4219 L24.9844,557.1406 Z " fill="#000000"/><text fill="#000000" font-family="sans-serif" font-size="14" lengthAdjust="spacing" textLength="172" x="36" y="556.3467">SinglePointChannelData</text><line style="stroke:#181818;stroke-width:0.5;" x1="8" x2="210" y1="567.5" y2="567.5"/><line style="stroke:#181818;stroke-width:0.5;" x1="8" x2="210" y1="575.5" y2="575.5"/></g><!--class NormalizedChannelData--><g id="elem_NormalizedChannelData"><rect codeLine="57" fill="#F1F1F1" height="80.5938" id="NormalizedChannelData" rx="2.5" ry="2.5" style="stroke:#181818;stroke-width:0.5;" width="226" x="246" y="519"/><ellipse cx="270" cy="535" fill="#B4A7E5" rx="11" ry="11" style="stroke:#181818;stroke-width:1.0;"/><path d="M265.9219,530.75 L265.9219,528.5938 L273.3125,528.5938 L273.3125,530.75 L270.8438,530.75 L270.8438,538.8438 L273.3125,538.8438 L273.3125,541 L265.9219,541 L265.9219,538.8438 L268.3906,538.8438 L268.3906,530.75 L265.9219,530.75 Z " fill="#000000"/><text fill="#000000" font-family="sans-serif" font-size="14" font-style="italic" lengthAdjust="spacing" textLength="174" x="286" y="539.8467">NormalizedChannelData</text><line style="stroke:#181818;stroke-width:0.5;" x1="247" x2="471" y1="551" y2="551"/><text fill="#000000" font-family="sans-serif" font-size="14" lengthAdjust="spacing" textLength="210" x="252" y="567.9951">normalized_data : np.ndarray</text><text fill="#000000" font-family="sans-serif" font-size="14" lengthAdjust="spacing" textLength="214" x="252" y="584.292">normalizing_data : np.ndarray</text><line style="stroke:#181818;stroke-width:0.5;" x1="247" x2="471" y1="591.5938" y2="591.5938"/></g><!--class SinglePointNormalizedChannelData--><g id="elem_SinglePointNormalizedChannelData"><rect codeLine="62" fill="#F1F1F1" height="48" id="SinglePointNormalizedChannelData" rx="2.5" ry="2.5" style="stroke:#181818;stroke-width:0.5;" width="285" x="58.5" y="668"/><ellipse cx="73.5" cy="684" fill="#ADD1B2" rx="11" ry="11" style="stroke:#181818;stroke-width:1.0;"/><path d="M76.4844,689.6406 Q75.9063,689.9375 75.2656,690.0781 Q74.625,690.2344 73.9219,690.2344 Q71.4063,690.2344 70.0781,688.5938 Q68.7656,686.9375 68.7656,683.8125 Q68.7656,680.6719 70.0781,679.0313 Q71.4063,677.375 73.9219,677.375 Q74.625,677.375 75.2656,677.5313 Q75.9219,677.6719 76.4844,677.9688 L76.4844,680.6875 Q75.8438,680.1094 75.25,679.8438 Q74.6563,679.5781 74.0313,679.5781 Q72.6875,679.5781 72,680.6406 Q71.3125,681.7031 71.3125,683.8125 Q71.3125,685.9063 72,686.9844 Q72.6875,688.0469 74.0313,688.0469 Q74.6563,688.0469 75.25,687.7813 Q75.8438,687.5 76.4844,686.9219 L76.4844,689.6406 Z " fill="#000000"/><text fill="#000000" font-family="sans-serif" font-size="14" lengthAdjust="spacing" textLength="253" x="87.5" y="688.8467">SinglePointNormalizedChannelData</text><line style="stroke:#181818;stroke-width:0.5;" x1="59.5" x2="342.5" y1="700" y2="700"/><line style="stroke:#181818;stroke-width:0.5;" x1="59.5" x2="342.5" y1="708" y2="708"/></g><!--class AverageChannelData--><g id="elem_AverageChannelData"><rect codeLine="65" fill="#F1F1F1" height="80.5938" id="AverageChannelData" rx="2.5" ry="2.5" style="stroke:#181818;stroke-width:0.5;" width="246" x="507" y="519"/><ellipse cx="549.45" cy="535" fill="#ADD1B2" rx="11" ry="11" style="stroke:#181818;stroke-width:1.0;"/><path d="M552.4344,540.6406 Q551.8563,540.9375 551.2156,541.0781 Q550.575,541.2344 549.8719,541.2344 Q547.3563,541.2344 546.0281,539.5938 Q544.7156,537.9375 544.7156,534.8125 Q544.7156,531.6719 546.0281,530.0313 Q547.3563,528.375 549.8719,528.375 Q550.575,528.375 551.2156,528.5313 Q551.8719,528.6719 552.4344,528.9688 L552.4344,531.6875 Q551.7938,531.1094 551.2,530.8438 Q550.6063,530.5781 549.9813,530.5781 Q548.6375,530.5781 547.95,531.6406 Q547.2625,532.7031 547.2625,534.8125 Q547.2625,536.9063 547.95,537.9844 Q548.6375,539.0469 549.9813,539.0469 Q550.6063,539.0469 551.2,538.7813 Q551.7938,538.5 552.4344,537.9219 L552.4344,540.6406 Z " fill="#000000"/><text fill="#000000" font-family="sans-serif" font-size="14" lengthAdjust="spacing" textLength="153" x="569.55" y="539.8467">AverageChannelData</text><line style="stroke:#181818;stroke-width:0.5;" x1="508" x2="752" y1="551" y2="551"/><text fill="#000000" font-family="sans-serif" font-size="14" lengthAdjust="spacing" textLength="234" x="513" y="567.9951">attempts : np.ndarray(dtype=int)</text><text fill="#000000" font-family="sans-serif" font-size="14" lengthAdjust="spacing" textLength="132" x="513" y="584.292">mean : np.ndarray</text><line style="stroke:#181818;stroke-width:0.5;" x1="508" x2="752" y1="591.5938" y2="591.5938"/></g><!--class AverageNormalizedChannelData--><g id="elem_AverageNormalizedChannelData"><rect codeLine="70" fill="#F1F1F1" height="48" id="AverageNormalizedChannelData" rx="2.5" ry="2.5" style="stroke:#181818;stroke-width:0.5;" width="266" x="425" y="668"/><ellipse cx="440" cy="684" fill="#ADD1B2" rx="11" ry="11" style="stroke:#181818;stroke-width:1.0;"/><path d="M442.9844,689.6406 Q442.4063,689.9375 441.7656,690.0781 Q441.125,690.2344 440.4219,690.2344 Q437.9063,690.2344 436.5781,688.5938 Q435.2656,686.9375 435.2656,683.8125 Q435.2656,680.6719 436.5781,679.0313 Q437.9063,677.375 440.4219,677.375 Q441.125,677.375 441.7656,677.5313 Q442.4219,677.6719 442.9844,677.9688 L442.9844,680.6875 Q442.3438,680.1094 441.75,679.8438 Q441.1563,679.5781 440.5313,679.5781 Q439.1875,679.5781 438.5,680.6406 Q437.8125,681.7031 437.8125,683.8125 Q437.8125,685.9063 438.5,686.9844 Q439.1875,688.0469 440.5313,688.0469 Q441.1563,688.0469 441.75,687.7813 Q442.3438,687.5 442.9844,686.9219 L442.9844,689.6406 Z " fill="#000000"/><text fill="#000000" font-family="sans-serif" font-size="14" lengthAdjust="spacing" textLength="234" x="454" y="688.8467">AverageNormalizedChannelData</text><line style="stroke:#181818;stroke-width:0.5;" x1="426" x2="690" y1="700" y2="700"/><line style="stroke:#181818;stroke-width:0.5;" x1="426" x2="690" y1="708" y2="708"/></g><!--class IntervalChannelData--><g id="elem_IntervalChannelData"><rect codeLine="73" fill="#F1F1F1" height="96.8906" id="IntervalChannelData" rx="2.5" ry="2.5" style="stroke:#181818;stroke-width:0.5;" width="230" x="788" y="511"/><ellipse cx="825.95" cy="527" fill="#ADD1B2" rx="11" ry="11" style="stroke:#181818;stroke-width:1.0;"/><path d="M828.9344,532.6406 Q828.3563,532.9375 827.7156,533.0781 Q827.075,533.2344 826.3719,533.2344 Q823.8563,533.2344 822.5281,531.5938 Q821.2156,529.9375 821.2156,526.8125 Q821.2156,523.6719 822.5281,522.0313 Q823.8563,520.375 826.3719,520.375 Q827.075,520.375 827.7156,520.5313 Q828.3719,520.6719 828.9344,520.9688 L828.9344,523.6875 Q828.2938,523.1094 827.7,522.8438 Q827.1063,522.5781 826.4813,522.5781 Q825.1375,522.5781 824.45,523.6406 Q823.7625,524.7031 823.7625,526.8125 Q823.7625,528.9063 824.45,529.9844 Q825.1375,531.0469 826.4813,531.0469 Q827.1063,531.0469 827.7,530.7813 Q828.2938,530.5 828.9344,529.9219 L828.9344,532.6406 Z " fill="#000000"/><text fill="#000000" font-family="sans-serif" font-size="14" lengthAdjust="spacing" textLength="147" x="845.05" y="531.8467">IntervalChannelData</text><line style="stroke:#181818;stroke-width:0.5;" x1="789" x2="1017" y1="543" y2="543"/><text fill="#000000" font-family="sans-serif" font-size="14" lengthAdjust="spacing" textLength="218" x="794" y="559.9951">counts : np.ndarray(dtype=int)</text><text fill="#000000" font-family="sans-serif" font-size="14" lengthAdjust="spacing" textLength="132" x="794" y="576.292">mean : np.ndarray</text><text fill="#000000" font-family="sans-serif" font-size="14" lengthAdjust="spacing" textLength="112" x="794" y="592.5889">std : np.ndarray</text><line style="stroke:#181818;stroke-width:0.5;" x1="789" x2="1017" y1="599.8906" y2="599.8906"/></g><!--class IntervalNormalizedChannelData--><g id="elem_IntervalNormalizedChannelData"><rect codeLine="79" fill="#F1F1F1" height="48" id="IntervalNormalizedChannelData" rx="2.5" ry="2.5" style="stroke:#181818;stroke-width:0.5;" width="260" x="749" y="668"/><ellipse cx="764" cy="684" fill="#ADD1B2" rx="11" ry="11" style="stroke:#181818;stroke-width:1.0;"/><path d="M766.9844,689.6406 Q766.4063,689.9375 765.7656,690.0781 Q765.125,690.2344 764.4219,690.2344 Q761.9063,690.2344 760.5781,688.5938 Q759.2656,686.9375 759.2656,683.8125 Q759.2656,680.6719 760.5781,679.0313 Q761.9063,677.375 764.4219,677.375 Q765.125,677.375 765.7656,677.5313 Q766.4219,677.6719 766.9844,677.9688 L766.9844,680.6875 Q766.3438,680.1094 765.75,679.8438 Q765.1563,679.5781 764.5313,679.5781 Q763.1875,679.5781 762.5,680.6406 Q761.8125,681.7031 761.8125,683.8125 Q761.8125,685.9063 762.5,686.9844 Q763.1875,688.0469 764.5313,688.0469 Q765.1563,688.0469 765.75,687.7813 Q766.3438,687.5 766.9844,686.9219 L766.9844,689.6406 Z " fill="#000000"/><text fill="#000000" font-family="sans-serif" font-size="14" lengthAdjust="spacing" textLength="228" x="778" y="688.8467">IntervalNormalizedChannelData</text><line style="stroke:#181818;stroke-width:0.5;" x1="750" x2="1008" y1="700" y2="700"/><line style="stroke:#181818;stroke-width:0.5;" x1="750" x2="1008" y1="708" y2="708"/></g><!--reverse link DataImporter to HDF5DataImporter--><g id="link_DataImporter_HDF5DataImporter"><path d="M779.3894,138.4366 C784.8794,166.1366 788.67,185.28 794.16,212.94 " fill="none" id="DataImporter-backto-HDF5DataImporter" style="stroke:#181818;stroke-width:1.0;"/><polygon fill="none" points="775.89,120.78,773.5039,139.603,785.275,137.2701,775.89,120.78" style="stroke:#181818;stroke-width:1.0;"/></g><!--reverse link Data to DataImporter--><g id="link_Data_DataImporter"><path codeLine="26" d="M611.53,80 C646.3,80 669.07,80 703.84,80 " fill="none" id="Data-backto-DataImporter" style="stroke:#181818;stroke-width:1.0;"/><polygon fill="#181818" points="599.53,80,605.53,84,611.53,80,605.53,76,599.53,80" style="stroke:#181818;stroke-width:1.0;"/><text fill="#000000" font-family="sans-serif" font-size="13" lengthAdjust="spacing" textLength="8" x="687.959" y="76.2309">n</text></g><!--link Metadata to Data--><g id="link_Metadata_Data"><path codeLine="27" d="M303.61,80 C337.88,80 360.15,80 394.42,80 " fill="none" id="Metadata-to-Data" style="stroke:#181818;stroke-width:1.0;"/><polygon fill="#181818" points="406.42,80,400.42,76,394.42,80,400.42,84,406.42,80" style="stroke:#181818;stroke-width:1.0;"/></g><!--reverse link Data to MeasureData--><g id="link_Data_MeasureData"><path d="M520.8201,170.8864 C525.5401,194.6964 527.04,202.26 530.82,221.33 " fill="none" id="Data-backto-MeasureData" style="stroke:#181818;stroke-width:1.0;"/><polygon fill="none" points="517.32,153.23,514.9347,172.0531,526.7056,169.7197,517.32,153.23" style="stroke:#181818;stroke-width:1.0;"/></g><!--reverse link Data to MonitorData--><g id="link_Data_MonitorData"><path d="M391.0054,148.8678 C345.6854,176.3278 308.92,198.62 271.31,221.4 " fill="none" id="Data-backto-MonitorData" style="stroke:#181818;stroke-width:1.0;"/><polygon fill="none" points="406.4,139.54,387.8962,143.7363,394.1147,153.9993,406.4,139.54" style="stroke:#181818;stroke-width:1.0;"/></g><!--link Metadata to MonitorData--><!--link MonitorData to MeasureData--><!--reverse link MeasureData to DeviceData--><g id="link_MeasureData_DeviceData"><path d="M454.4827,293.3902 C415.3627,312.2302 381.39,329.5 338,354 C324.71,361.5 310.49,370.31 298.03,378.28 " fill="none" id="MeasureData-backto-DeviceData" style="stroke:#181818;stroke-width:1.0;"/><polygon fill="none" points="470.7,285.58,451.8793,287.9844,457.0861,298.7959,470.7,285.58" style="stroke:#181818;stroke-width:1.0;"/></g><!--reverse link MeasureData to AxisData--><g id="link_MeasureData_AxisData"><path d="M507.6541,300.88 C491.8641,325.83 479.47,345.44 463.69,370.37 " fill="none" id="MeasureData-backto-AxisData" style="stroke:#181818;stroke-width:1.0;"/><polygon fill="none" points="517.28,285.67,502.5842,297.6713,512.7241,304.0886,517.28,285.67" style="stroke:#181818;stroke-width:1.0;"/></g><!--reverse link MeasureData to ChannelData--><g id="link_MeasureData_ChannelData"><path d="M566.3424,300.8821 C583.8324,328.5321 599.37,353.08 615.19,378.09 " fill="none" id="MeasureData-backto-ChannelData" style="stroke:#181818;stroke-width:1.0;"/><polygon fill="none" points="556.72,285.67,561.2717,304.0896,571.4131,297.6747,556.72,285.67" style="stroke:#181818;stroke-width:1.0;"/></g><!--reverse link MeasureData to TimestampData--><g id="link_MeasureData_TimestampData"><path d="M624.3043,292.9224 C669.3043,312.7324 711.96,331.51 762.78,353.87 " fill="none" id="MeasureData-backto-TimestampData" style="stroke:#181818;stroke-width:1.0;"/><polygon fill="none" points="607.83,285.67,621.8869,298.4138,626.7218,287.4309,607.83,285.67" style="stroke:#181818;stroke-width:1.0;"/></g><!--reverse link ChannelData to SinglePointChannelData--><g id="link_ChannelData_SinglePointChannelData"><path d="M581.8608,436.237 C567.9108,445.067 566.33,444.85 550,451 C413.76,502.28 367.82,470.49 228,511 C205.35,517.56 181.06,526.83 160.36,535.45 " fill="none" id="ChannelData-backto-SinglePointChannelData" style="stroke:#181818;stroke-width:1.0;"/><polygon fill="none" points="597.07,426.61,578.6518,431.1673,585.0698,441.3068,597.07,426.61" style="stroke:#181818;stroke-width:1.0;"/></g><!--reverse link SinglePointChannelData to SinglePointNormalizedChannelData--><g id="link_SinglePointChannelData_SinglePointNormalizedChannelData"><path d="M135.6093,598.2432 C152.3193,621.9532 167.85,643.98 184.62,667.76 " fill="none" id="SinglePointChannelData-backto-SinglePointNormalizedChannelData" style="stroke:#181818;stroke-width:1.0;"/><polygon fill="none" points="125.24,583.53,130.7049,601.6996,140.5137,594.7867,125.24,583.53" style="stroke:#181818;stroke-width:1.0;"/></g><!--reverse link NormalizedChannelData to SinglePointNormalizedChannelData--><g id="link_NormalizedChannelData_SinglePointNormalizedChannelData"><path d="M297.2893,611.4697 C270.3993,633.6697 251.66,649.16 228.92,667.94 " fill="none" id="NormalizedChannelData-backto-SinglePointNormalizedChannelData" style="stroke:#181818;stroke-width:1.0;stroke-dasharray:7.0,7.0;"/><polygon fill="none" points="311.17,600.01,293.4694,606.8428,301.1092,616.0966,311.17,600.01" style="stroke:#181818;stroke-width:1.0;"/></g><!--reverse link ChannelData to AverageChannelData--><g id="link_ChannelData_AverageChannelData"><path d="M630,444.71 C630,469.03 630,489.69 630,518.86 " fill="none" id="ChannelData-backto-AverageChannelData" style="stroke:#181818;stroke-width:1.0;"/><polygon fill="none" points="630,426.71,624,444.71,636,444.71,630,426.71" style="stroke:#181818;stroke-width:1.0;"/></g><!--reverse link AverageChannelData to AverageNormalizedChannelData--><g id="link_AverageChannelData_AverageNormalizedChannelData"><path d="M599.5037,615.7699 C587.2537,637.9699 581.09,649.16 570.72,667.94 " fill="none" id="AverageChannelData-backto-AverageNormalizedChannelData" style="stroke:#181818;stroke-width:1.0;"/><polygon fill="none" points="608.2,600.01,594.2504,612.8711,604.757,618.6687,608.2,600.01" style="stroke:#181818;stroke-width:1.0;"/></g><!--reverse link NormalizedChannelData to AverageNormalizedChannelData--><g id="link_NormalizedChannelData_AverageNormalizedChannelData"><path d="M434.3031,609.8794 C468.1631,632.0794 494.19,649.16 522.83,667.94 " fill="none" id="NormalizedChannelData-backto-AverageNormalizedChannelData" style="stroke:#181818;stroke-width:1.0;stroke-dasharray:7.0,7.0;"/><polygon fill="none" points="419.25,600.01,431.0133,614.8971,437.5929,604.8617,419.25,600.01" style="stroke:#181818;stroke-width:1.0;"/></g><!--reverse link ChannelData to IntervalChannelData--><g id="link_ChannelData_IntervalChannelData"><path d="M683.9939,435.8823 C697.1039,443.6923 696.42,443.19 710,451 C744.58,470.89 782.91,492.36 816.25,510.84 " fill="none" id="ChannelData-backto-IntervalChannelData" style="stroke:#181818;stroke-width:1.0;"/><polygon fill="none" points="668.53,426.67,680.9232,441.037,687.0647,430.7277,668.53,426.67" style="stroke:#181818;stroke-width:1.0;"/></g><!--reverse link IntervalChannelData to IntervalNormalizedChannelData--><g id="link_IntervalChannelData_IntervalNormalizedChannelData"><path d="M890.9446,626.0532 C887.2246,646.2832 886.32,651.2 883.29,667.66 " fill="none" id="IntervalChannelData-backto-IntervalNormalizedChannelData" style="stroke:#181818;stroke-width:1.0;"/><polygon fill="none" points="894.2,608.35,885.0436,624.9681,896.8457,627.1383,894.2,608.35" style="stroke:#181818;stroke-width:1.0;"/></g><!--reverse link NormalizedChannelData to IntervalNormalizedChannelData--><g id="link_NormalizedChannelData_IntervalNormalizedChannelData"><path d="M480.3379,605.6569 C488.9979,608.5069 480.57,605.58 489,608 C574.49,632.58 672.42,653.4 748.76,668.04 " fill="none" id="NormalizedChannelData-backto-IntervalNormalizedChannelData" style="stroke:#181818;stroke-width:1.0;stroke-dasharray:7.0,7.0;"/><polygon fill="none" points="463.24,600.03,478.4623,611.3562,482.2135,599.9576,463.24,600.03" style="stroke:#181818;stroke-width:1.0;"/></g><!--SRC=[bLHDQzmm4BtxLuXSkWrDQ0-v15883Q4vf1JIMnhCO8qtG_I5D5wIBllVAmdBQuEzc_WaZsRUlFT6qgVmGiQ11osa8_7jucjLDGf243V08BQLY9z61fb-ByLzlynnwvYi2J4igU4S8ksiP_IFJp6Q8ExwGDwjUnJZpeq4x-4jXrDqzJalryXr_xiRCoamFQDWEzzWH0hioQnpJ5cGuxAVDxSNar9yPJHo5eyOzHHDWtDnNRGDgCM0MBYhZ6KK2bk-50-8CHFMoSdM-hzcC4rRsIayhwhiwEcPE34dKsi6pBFJlB7l1Q7pcEl6v7lIsvPGoPrmDb0QHDtOpd2O-BkI_ERmYWoFdBctXjZwOxYQbAA0ZKtx1q3tz1-VIKeqJz_7BQfnkt7ANjqmQTnGCzKxatNzIc4ffvoFU8mse3gS4jzRyECPZ45r06P8_KCQ0uDsHteMs-gMVE2wJ6NPkabHRFNUcdH7IkQA2xilwQ3XLS8PZVeXdc65lsqidfCyZcrZKKn3tqAyMh-irw3e7yf9JYPWXhs52rqIOlEPZ3boy-qApGKLyR5Hg36T-IMwGw_h3NfOur4J9bC1Zk-2uyFZq0XcGM3VzB2u6MOV4NQNHXRF-iUK7NagvdNbcyLoGMmXSbZj7DrtoVqF]--></g></svg>