<?xml version="1.0" encoding="us-ascii" standalone="no"?><svg xmlns="http://www.w3.org/2000/svg" xmlns:xlink="http://www.w3.org/1999/xlink" contentStyleType="text/css" height="739px" preserveAspectRatio="none" style="width:999px;height:739px;background:#FFFFFF;" version="1.1" viewBox="0 0 999 739" width="999px" zoomAndPan="magnify"><defs/><g><!--class Data--><g id="elem_Data"><rect codeLine="3" fill="#F1F1F1" height="145.7813" id="Data" rx="2.5" ry="2.5" style="stroke:#181818;stroke-width:0.5;" width="193" x="384" y="7"/><ellipse cx="459.25" cy="23" fill="#ADD1B2" rx="11" ry="11" style="stroke:#181818;stroke-width:1.0;"/><path d="M462.2344,28.6406 Q461.6563,28.9375 461.0156,29.0781 Q460.375,29.2344 459.6719,29.2344 Q457.1563,29.2344 455.8281,27.5938 Q454.5156,25.9375 454.5156,22.8125 Q454.5156,19.6719 455.8281,18.0313 Q457.1563,16.375 459.6719,16.375 Q460.375,16.375 461.0156,16.5313 Q461.6719,16.6719 462.2344,16.9688 L462.2344,19.6875 Q461.5938,19.1094 461,18.8438 Q460.4063,18.5781 459.7813,18.5781 Q458.4375,18.5781 457.75,19.6406 Q457.0625,20.7031 457.0625,22.8125 Q457.0625,24.9063 457.75,25.9844 Q458.4375,27.0469 459.7813,27.0469 Q460.4063,27.0469 461,26.7813 Q461.5938,26.5 462.2344,25.9219 L462.2344,28.6406 Z " fill="#000000"/><text fill="#000000" font-family="sans-serif" font-size="14" lengthAdjust="spacing" textLength="34" x="479.75" y="27.8467">Data</text><line style="stroke:#181818;stroke-width:0.5;" x1="385" x2="576" y1="39" y2="39"/><text fill="#000000" font-family="sans-serif" font-size="14" lengthAdjust="spacing" textLength="149" x="390" y="55.9951">metadata : Metadata</text><text fill="#000000" font-family="sans-serif" font-size="14" lengthAdjust="spacing" textLength="91" x="390" y="72.292">options : dict</text><text fill="#000000" font-family="sans-serif" font-size="14" lengthAdjust="spacing" textLength="181" x="390" y="88.5889">importer[] : DataImporter</text><text fill="#000000" font-family="sans-serif" font-size="14" lengthAdjust="spacing" textLength="130" x="390" y="104.8857">_data : np.ndarray</text><line style="stroke:#181818;stroke-width:0.5;" x1="385" x2="576" y1="112.1875" y2="112.1875"/><text fill="#000000" font-family="sans-serif" font-size="14" lengthAdjust="spacing" textLength="42" x="390" y="129.1826">data()</text><text fill="#000000" font-family="sans-serif" font-size="14" lengthAdjust="spacing" textLength="72" x="390" y="145.4795">get_data()</text></g><!--class DataImporter--><g id="elem_DataImporter"><rect codeLine="12" fill="#F1F1F1" height="80.5938" id="DataImporter" rx="2.5" ry="2.5" style="stroke:#181818;stroke-width:0.5;" width="128" x="681.5" y="39.5"/><ellipse cx="696.5" cy="55.5" fill="#ADD1B2" rx="11" ry="11" style="stroke:#181818;stroke-width:1.0;"/><path d="M699.4844,61.1406 Q698.9063,61.4375 698.2656,61.5781 Q697.625,61.7344 696.9219,61.7344 Q694.4063,61.7344 693.0781,60.0938 Q691.7656,58.4375 691.7656,55.3125 Q691.7656,52.1719 693.0781,50.5313 Q694.4063,48.875 696.9219,48.875 Q697.625,48.875 698.2656,49.0313 Q698.9219,49.1719 699.4844,49.4688 L699.4844,52.1875 Q698.8438,51.6094 698.25,51.3438 Q697.6563,51.0781 697.0313,51.0781 Q695.6875,51.0781 695,52.1406 Q694.3125,53.2031 694.3125,55.3125 Q694.3125,57.4063 695,58.4844 Q695.6875,59.5469 697.0313,59.5469 Q697.6563,59.5469 698.25,59.2813 Q698.8438,59 699.4844,58.4219 L699.4844,61.1406 Z " fill="#000000"/><text fill="#000000" font-family="sans-serif" font-size="14" lengthAdjust="spacing" textLength="96" x="710.5" y="60.3467">DataImporter</text><line style="stroke:#181818;stroke-width:0.5;" x1="682.5" x2="808.5" y1="71.5" y2="71.5"/><text fill="#000000" font-family="sans-serif" font-size="14" lengthAdjust="spacing" textLength="101" x="687.5" y="88.4951">source : string</text><line style="stroke:#181818;stroke-width:0.5;" x1="682.5" x2="808.5" y1="95.7969" y2="95.7969"/><text fill="#000000" font-family="sans-serif" font-size="14" lengthAdjust="spacing" textLength="41" x="687.5" y="112.792">load()</text></g><!--class HDF5DataImporter--><g id="elem_HDF5DataImporter"><rect codeLine="17" fill="#F1F1F1" height="80.5938" id="HDF5DataImporter" rx="2.5" ry="2.5" style="stroke:#181818;stroke-width:0.5;" width="167" x="696" y="213"/><ellipse cx="711" cy="229" fill="#ADD1B2" rx="11" ry="11" style="stroke:#181818;stroke-width:1.0;"/><path d="M713.9844,234.6406 Q713.4063,234.9375 712.7656,235.0781 Q712.125,235.2344 711.4219,235.2344 Q708.9063,235.2344 707.5781,233.5938 Q706.2656,231.9375 706.2656,228.8125 Q706.2656,225.6719 707.5781,224.0313 Q708.9063,222.375 711.4219,222.375 Q712.125,222.375 712.7656,222.5313 Q713.4219,222.6719 713.9844,222.9688 L713.9844,225.6875 Q713.3438,225.1094 712.75,224.8438 Q712.1563,224.5781 711.5313,224.5781 Q710.1875,224.5781 709.5,225.6406 Q708.8125,226.7031 708.8125,228.8125 Q708.8125,230.9063 709.5,231.9844 Q710.1875,233.0469 711.5313,233.0469 Q712.1563,233.0469 712.75,232.7813 Q713.3438,232.5 713.9844,231.9219 L713.9844,234.6406 Z " fill="#000000"/><text fill="#000000" font-family="sans-serif" font-size="14" lengthAdjust="spacing" textLength="135" x="725" y="233.8467">HDF5DataImporter</text><line style="stroke:#181818;stroke-width:0.5;" x1="697" x2="862" y1="245" y2="245"/><text fill="#000000" font-family="sans-serif" font-size="14" lengthAdjust="spacing" textLength="85" x="702" y="261.9951">item : string</text><text fill="#000000" font-family="sans-serif" font-size="14" lengthAdjust="spacing" textLength="102" x="702" y="278.292">mapping : dict</text><line style="stroke:#181818;stroke-width:0.5;" x1="697" x2="862" y1="285.5938" y2="285.5938"/></g><!--class Metadata--><g id="elem_Metadata"><rect codeLine="22" fill="#F1F1F1" height="48" id="Metadata" rx="2.5" ry="2.5" style="stroke:#181818;stroke-width:0.5;" width="99" x="182" y="56"/><ellipse cx="197" cy="72" fill="#ADD1B2" rx="11" ry="11" style="stroke:#181818;stroke-width:1.0;"/><path d="M199.9844,77.6406 Q199.4063,77.9375 198.7656,78.0781 Q198.125,78.2344 197.4219,78.2344 Q194.9063,78.2344 193.5781,76.5938 Q192.2656,74.9375 192.2656,71.8125 Q192.2656,68.6719 193.5781,67.0313 Q194.9063,65.375 197.4219,65.375 Q198.125,65.375 198.7656,65.5313 Q199.4219,65.6719 199.9844,65.9688 L199.9844,68.6875 Q199.3438,68.1094 198.75,67.8438 Q198.1563,67.5781 197.5313,67.5781 Q196.1875,67.5781 195.5,68.6406 Q194.8125,69.7031 194.8125,71.8125 Q194.8125,73.9063 195.5,74.9844 Q196.1875,76.0469 197.5313,76.0469 Q198.1563,76.0469 198.75,75.7813 Q199.3438,75.5 199.9844,74.9219 L199.9844,77.6406 Z " fill="#000000"/><text fill="#000000" font-family="sans-serif" font-size="14" lengthAdjust="spacing" textLength="67" x="211" y="76.8467">Metadata</text><line style="stroke:#181818;stroke-width:0.5;" x1="183" x2="280" y1="88" y2="88"/><line style="stroke:#181818;stroke-width:0.5;" x1="183" x2="280" y1="96" y2="96"/></g><g id="elem_GMN7"><path d="M6,60 L6,100.2656 A0,0 0 0 0 6,100.2656 L147,100.2656 A0,0 0 0 0 147,100.2656 L147,84 L181.68,80 L147,76 L147,70 L137,60 L6,60 A0,0 0 0 0 6,60 " fill="#FEFFDD" style="stroke:#181818;stroke-width:0.5;"/><path d="M137,60 L137,70 L147,70 L137,60 " fill="#FEFFDD" style="stroke:#181818;stroke-width:0.5;"/><text fill="#000000" font-family="sans-serif" font-size="13" lengthAdjust="spacing" textLength="104" x="12" y="77.0669">See diagram for</text><text fill="#000000" font-family="sans-serif" font-size="13" lengthAdjust="spacing" textLength="120" x="12" y="92.1997">metadata module.</text></g><!--class MeasureData--><g id="elem_MeasureData"><rect codeLine="29" fill="#F1F1F1" height="64.2969" id="MeasureData" rx="2.5" ry="2.5" style="stroke:#181818;stroke-width:0.5;" width="293" x="368" y="221.5"/><ellipse cx="462.75" cy="237.5" fill="#ADD1B2" rx="11" ry="11" style="stroke:#181818;stroke-width:1.0;"/><path d="M465.7344,243.1406 Q465.1563,243.4375 464.5156,243.5781 Q463.875,243.7344 463.1719,243.7344 Q460.6563,243.7344 459.3281,242.0938 Q458.0156,240.4375 458.0156,237.3125 Q458.0156,234.1719 459.3281,232.5313 Q460.6563,230.875 463.1719,230.875 Q463.875,230.875 464.5156,231.0313 Q465.1719,231.1719 465.7344,231.4688 L465.7344,234.1875 Q465.0938,233.6094 464.5,233.3438 Q463.9063,233.0781 463.2813,233.0781 Q461.9375,233.0781 461.25,234.1406 Q460.5625,235.2031 460.5625,237.3125 Q460.5625,239.4063 461.25,240.4844 Q461.9375,241.5469 463.2813,241.5469 Q463.9063,241.5469 464.5,241.2813 Q465.0938,241 465.7344,240.4219 L465.7344,243.1406 Z " fill="#000000"/><text fill="#000000" font-family="sans-serif" font-size="14" lengthAdjust="spacing" textLength="95" x="483.25" y="242.3467">MeasureData</text><line style="stroke:#181818;stroke-width:0.5;" x1="369" x2="660" y1="253.5" y2="253.5"/><text fill="#000000" font-family="sans-serif" font-size="14" lengthAdjust="spacing" textLength="281" x="374" y="270.4951">position_counts : np.ndarray(dtype=int)</text><line style="stroke:#181818;stroke-width:0.5;" x1="369" x2="660" y1="277.7969" y2="277.7969"/></g><!--class MonitorData--><g id="elem_MonitorData"><rect codeLine="33" fill="#F1F1F1" height="64.2969" id="MonitorData" rx="2.5" ry="2.5" style="stroke:#181818;stroke-width:0.5;" width="271" x="62" y="221.5"/><ellipse cx="149.25" cy="237.5" fill="#ADD1B2" rx="11" ry="11" style="stroke:#181818;stroke-width:1.0;"/><path d="M152.2344,243.1406 Q151.6563,243.4375 151.0156,243.5781 Q150.375,243.7344 149.6719,243.7344 Q147.1563,243.7344 145.8281,242.0938 Q144.5156,240.4375 144.5156,237.3125 Q144.5156,234.1719 145.8281,232.5313 Q147.1563,230.875 149.6719,230.875 Q150.375,230.875 151.0156,231.0313 Q151.6719,231.1719 152.2344,231.4688 L152.2344,234.1875 Q151.5938,233.6094 151,233.3438 Q150.4063,233.0781 149.7813,233.0781 Q148.4375,233.0781 147.75,234.1406 Q147.0625,235.2031 147.0625,237.3125 Q147.0625,239.4063 147.75,240.4844 Q148.4375,241.5469 149.7813,241.5469 Q150.4063,241.5469 151,241.2813 Q151.5938,241 152.2344,240.4219 L152.2344,243.1406 Z " fill="#000000"/><text fill="#000000" font-family="sans-serif" font-size="14" lengthAdjust="spacing" textLength="88" x="169.75" y="242.3467">MonitorData</text><line style="stroke:#181818;stroke-width:0.5;" x1="63" x2="332" y1="253.5" y2="253.5"/><text fill="#000000" font-family="sans-serif" font-size="14" lengthAdjust="spacing" textLength="259" x="68" y="270.4951">milliseconds : np.ndarray(dtype=int)</text><line style="stroke:#181818;stroke-width:0.5;" x1="63" x2="332" y1="277.7969" y2="277.7969"/></g><!--class DeviceData--><g id="elem_DeviceData"><rect codeLine="40" fill="#F1F1F1" height="48" id="DeviceData" rx="2.5" ry="2.5" style="stroke:#181818;stroke-width:0.5;" width="115" x="183" y="378.5"/><ellipse cx="198" cy="394.5" fill="#ADD1B2" rx="11" ry="11" style="stroke:#181818;stroke-width:1.0;"/><path d="M200.9844,400.1406 Q200.4063,400.4375 199.7656,400.5781 Q199.125,400.7344 198.4219,400.7344 Q195.9063,400.7344 194.5781,399.0938 Q193.2656,397.4375 193.2656,394.3125 Q193.2656,391.1719 194.5781,389.5313 Q195.9063,387.875 198.4219,387.875 Q199.125,387.875 199.7656,388.0313 Q200.4219,388.1719 200.9844,388.4688 L200.9844,391.1875 Q200.3438,390.6094 199.75,390.3438 Q199.1563,390.0781 198.5313,390.0781 Q197.1875,390.0781 196.5,391.1406 Q195.8125,392.2031 195.8125,394.3125 Q195.8125,396.4063 196.5,397.4844 Q197.1875,398.5469 198.5313,398.5469 Q199.1563,398.5469 199.75,398.2813 Q200.3438,398 200.9844,397.4219 L200.9844,400.1406 Z " fill="#000000"/><text fill="#000000" font-family="sans-serif" font-size="14" lengthAdjust="spacing" textLength="83" x="212" y="399.3467">DeviceData</text><line style="stroke:#181818;stroke-width:0.5;" x1="184" x2="297" y1="410.5" y2="410.5"/><line style="stroke:#181818;stroke-width:0.5;" x1="184" x2="297" y1="418.5" y2="418.5"/></g><!--class AxisData--><g id="elem_AxisData"><rect codeLine="42" fill="#F1F1F1" height="64.2969" id="AxisData" rx="2.5" ry="2.5" style="stroke:#181818;stroke-width:0.5;" width="177" x="333" y="370.5"/><ellipse cx="385.75" cy="386.5" fill="#ADD1B2" rx="11" ry="11" style="stroke:#181818;stroke-width:1.0;"/><path d="M388.7344,392.1406 Q388.1563,392.4375 387.5156,392.5781 Q386.875,392.7344 386.1719,392.7344 Q383.6563,392.7344 382.3281,391.0938 Q381.0156,389.4375 381.0156,386.3125 Q381.0156,383.1719 382.3281,381.5313 Q383.6563,379.875 386.1719,379.875 Q386.875,379.875 387.5156,380.0313 Q388.1719,380.1719 388.7344,380.4688 L388.7344,383.1875 Q388.0938,382.6094 387.5,382.3438 Q386.9063,382.0781 386.2813,382.0781 Q384.9375,382.0781 384.25,383.1406 Q383.5625,384.2031 383.5625,386.3125 Q383.5625,388.4063 384.25,389.4844 Q384.9375,390.5469 386.2813,390.5469 Q386.9063,390.5469 387.5,390.2813 Q388.0938,390 388.7344,389.4219 L388.7344,392.1406 Z " fill="#000000"/><text fill="#000000" font-family="sans-serif" font-size="14" lengthAdjust="spacing" textLength="63" x="406.25" y="391.3467">AxisData</text><line style="stroke:#181818;stroke-width:0.5;" x1="334" x2="509" y1="402.5" y2="402.5"/><text fill="#000000" font-family="sans-serif" font-size="14" lengthAdjust="spacing" textLength="165" x="339" y="419.4951">set_values : np.ndarray</text><line style="stroke:#181818;stroke-width:0.5;" x1="334" x2="509" y1="426.7969" y2="426.7969"/></g><!--class ChannelData--><g id="elem_ChannelData"><rect codeLine="46" fill="#F1F1F1" height="48" id="ChannelData" rx="2.5" ry="2.5" style="stroke:#181818;stroke-width:0.5;" width="125" x="545" y="378.5"/><ellipse cx="560" cy="394.5" fill="#ADD1B2" rx="11" ry="11" style="stroke:#181818;stroke-width:1.0;"/><path d="M562.9844,400.1406 Q562.4063,400.4375 561.7656,400.5781 Q561.125,400.7344 560.4219,400.7344 Q557.9063,400.7344 556.5781,399.0938 Q555.2656,397.4375 555.2656,394.3125 Q555.2656,391.1719 556.5781,389.5313 Q557.9063,387.875 560.4219,387.875 Q561.125,387.875 561.7656,388.0313 Q562.4219,388.1719 562.9844,388.4688 L562.9844,391.1875 Q562.3438,390.6094 561.75,390.3438 Q561.1563,390.0781 560.5313,390.0781 Q559.1875,390.0781 558.5,391.1406 Q557.8125,392.2031 557.8125,394.3125 Q557.8125,396.4063 558.5,397.4844 Q559.1875,398.5469 560.5313,398.5469 Q561.1563,398.5469 561.75,398.2813 Q562.3438,398 562.9844,397.4219 L562.9844,400.1406 Z " fill="#000000"/><text fill="#000000" font-family="sans-serif" font-size="14" lengthAdjust="spacing" textLength="93" x="574" y="399.3467">ChannelData</text><line style="stroke:#181818;stroke-width:0.5;" x1="546" x2="669" y1="410.5" y2="410.5"/><line style="stroke:#181818;stroke-width:0.5;" x1="546" x2="669" y1="418.5" y2="418.5"/></g><!--class TimestampData--><g id="elem_TimestampData"><rect codeLine="49" fill="#F1F1F1" height="96.8906" id="TimestampData" rx="2.5" ry="2.5" style="stroke:#181818;stroke-width:0.5;" width="287" x="705" y="354"/><ellipse cx="787.25" cy="370" fill="#ADD1B2" rx="11" ry="11" style="stroke:#181818;stroke-width:1.0;"/><path d="M790.2344,375.6406 Q789.6563,375.9375 789.0156,376.0781 Q788.375,376.2344 787.6719,376.2344 Q785.1563,376.2344 783.8281,374.5938 Q782.5156,372.9375 782.5156,369.8125 Q782.5156,366.6719 783.8281,365.0313 Q785.1563,363.375 787.6719,363.375 Q788.375,363.375 789.0156,363.5313 Q789.6719,363.6719 790.2344,363.9688 L790.2344,366.6875 Q789.5938,366.1094 789,365.8438 Q788.4063,365.5781 787.7813,365.5781 Q786.4375,365.5781 785.75,366.6406 Q785.0625,367.7031 785.0625,369.8125 Q785.0625,371.9063 785.75,372.9844 Q786.4375,374.0469 787.7813,374.0469 Q788.4063,374.0469 789,373.7813 Q789.5938,373.5 790.2344,372.9219 L790.2344,375.6406 Z " fill="#000000"/><text fill="#000000" font-family="sans-serif" font-size="14" lengthAdjust="spacing" textLength="114" x="807.75" y="374.8467">TimestampData</text><line style="stroke:#181818;stroke-width:0.5;" x1="706" x2="991" y1="386" y2="386"/><text fill="#000000" font-family="sans-serif" font-size="14" lengthAdjust="spacing" textLength="275" x="711" y="402.9951">_first_positions : np.ndarray(dtype=int)</text><text fill="#000000" font-family="sans-serif" font-size="14" lengthAdjust="spacing" textLength="273" x="711" y="419.292">_last_positions : np.ndarray(dtype=int)</text><line style="stroke:#181818;stroke-width:0.5;" x1="706" x2="991" y1="426.5938" y2="426.5938"/><text fill="#000000" font-family="sans-serif" font-size="14" lengthAdjust="spacing" textLength="258" x="711" y="443.5889">get_position(timestamp, mode=last)</text></g><!--class NormalizedChannelData--><g id="elem_NormalizedChannelData"><rect codeLine="55" fill="#F1F1F1" height="80.5938" id="NormalizedChannelData" rx="2.5" ry="2.5" style="stroke:#181818;stroke-width:0.5;" width="226" x="498.5" y="527"/><ellipse cx="522.5" cy="543" fill="#B4A7E5" rx="11" ry="11" style="stroke:#181818;stroke-width:1.0;"/><path d="M518.4219,538.75 L518.4219,536.5938 L525.8125,536.5938 L525.8125,538.75 L523.3438,538.75 L523.3438,546.8438 L525.8125,546.8438 L525.8125,549 L518.4219,549 L518.4219,546.8438 L520.8906,546.8438 L520.8906,538.75 L518.4219,538.75 Z " fill="#000000"/><text fill="#000000" font-family="sans-serif" font-size="14" font-style="italic" lengthAdjust="spacing" textLength="174" x="538.5" y="547.8467">NormalizedChannelData</text><line style="stroke:#181818;stroke-width:0.5;" x1="499.5" x2="723.5" y1="559" y2="559"/><text fill="#000000" font-family="sans-serif" font-size="14" lengthAdjust="spacing" textLength="210" x="504.5" y="575.9951">normalized_data : np.ndarray</text><text fill="#000000" font-family="sans-serif" font-size="14" lengthAdjust="spacing" textLength="214" x="504.5" y="592.292">normalizing_data : np.ndarray</text><line style="stroke:#181818;stroke-width:0.5;" x1="499.5" x2="723.5" y1="599.5938" y2="599.5938"/></g><!--class AverageChannelData--><g id="elem_AverageChannelData"><rect codeLine="60" fill="#F1F1F1" height="96.8906" id="AverageChannelData" rx="2.5" ry="2.5" style="stroke:#181818;stroke-width:0.5;" width="246" x="217.5" y="519"/><ellipse cx="259.95" cy="535" fill="#ADD1B2" rx="11" ry="11" style="stroke:#181818;stroke-width:1.0;"/><path d="M262.9344,540.6406 Q262.3563,540.9375 261.7156,541.0781 Q261.075,541.2344 260.3719,541.2344 Q257.8563,541.2344 256.5281,539.5938 Q255.2156,537.9375 255.2156,534.8125 Q255.2156,531.6719 256.5281,530.0313 Q257.8563,528.375 260.3719,528.375 Q261.075,528.375 261.7156,528.5313 Q262.3719,528.6719 262.9344,528.9688 L262.9344,531.6875 Q262.2938,531.1094 261.7,530.8438 Q261.1063,530.5781 260.4813,530.5781 Q259.1375,530.5781 258.45,531.6406 Q257.7625,532.7031 257.7625,534.8125 Q257.7625,536.9063 258.45,537.9844 Q259.1375,539.0469 260.4813,539.0469 Q261.1063,539.0469 261.7,538.7813 Q262.2938,538.5 262.9344,537.9219 L262.9344,540.6406 Z " fill="#000000"/><text fill="#000000" font-family="sans-serif" font-size="14" lengthAdjust="spacing" textLength="153" x="280.05" y="539.8467">AverageChannelData</text><line style="stroke:#181818;stroke-width:0.5;" x1="218.5" x2="462.5" y1="551" y2="551"/><text fill="#000000" font-family="sans-serif" font-size="14" lengthAdjust="spacing" textLength="234" x="223.5" y="567.9951">attempts : np.ndarray(dtype=int)</text><text fill="#000000" font-family="sans-serif" font-size="14" lengthAdjust="spacing" textLength="132" x="223.5" y="584.292">mean : np.ndarray</text><text fill="#000000" font-family="sans-serif" font-size="14" lengthAdjust="spacing" textLength="112" x="223.5" y="600.5889">std : np.ndarray</text><line style="stroke:#181818;stroke-width:0.5;" x1="218.5" x2="462.5" y1="607.8906" y2="607.8906"/></g><!--class AverageNormalizedChannelData--><g id="elem_AverageNormalizedChannelData"><rect codeLine="66" fill="#F1F1F1" height="48" id="AverageNormalizedChannelData" rx="2.5" ry="2.5" style="stroke:#181818;stroke-width:0.5;" width="266" x="325.5" y="684"/><ellipse cx="340.5" cy="700" fill="#ADD1B2" rx="11" ry="11" style="stroke:#181818;stroke-width:1.0;"/><path d="M343.4844,705.6406 Q342.9063,705.9375 342.2656,706.0781 Q341.625,706.2344 340.9219,706.2344 Q338.4063,706.2344 337.0781,704.5938 Q335.7656,702.9375 335.7656,699.8125 Q335.7656,696.6719 337.0781,695.0313 Q338.4063,693.375 340.9219,693.375 Q341.625,693.375 342.2656,693.5313 Q342.9219,693.6719 343.4844,693.9688 L343.4844,696.6875 Q342.8438,696.1094 342.25,695.8438 Q341.6563,695.5781 341.0313,695.5781 Q339.6875,695.5781 339,696.6406 Q338.3125,697.7031 338.3125,699.8125 Q338.3125,701.9063 339,702.9844 Q339.6875,704.0469 341.0313,704.0469 Q341.6563,704.0469 342.25,703.7813 Q342.8438,703.5 343.4844,702.9219 L343.4844,705.6406 Z " fill="#000000"/><text fill="#000000" font-family="sans-serif" font-size="14" lengthAdjust="spacing" textLength="234" x="354.5" y="704.8467">AverageNormalizedChannelData</text><line style="stroke:#181818;stroke-width:0.5;" x1="326.5" x2="590.5" y1="716" y2="716"/><line style="stroke:#181818;stroke-width:0.5;" x1="326.5" x2="590.5" y1="724" y2="724"/></g><!--class IntervalChannelData--><g id="elem_IntervalChannelData"><rect codeLine="69" fill="#F1F1F1" height="113.1875" id="IntervalChannelData" rx="2.5" ry="2.5" style="stroke:#181818;stroke-width:0.5;" width="230" x="759.5" y="511"/><ellipse cx="797.45" cy="527" fill="#ADD1B2" rx="11" ry="11" style="stroke:#181818;stroke-width:1.0;"/><path d="M800.4344,532.6406 Q799.8563,532.9375 799.2156,533.0781 Q798.575,533.2344 797.8719,533.2344 Q795.3563,533.2344 794.0281,531.5938 Q792.7156,529.9375 792.7156,526.8125 Q792.7156,523.6719 794.0281,522.0313 Q795.3563,520.375 797.8719,520.375 Q798.575,520.375 799.2156,520.5313 Q799.8719,520.6719 800.4344,520.9688 L800.4344,523.6875 Q799.7938,523.1094 799.2,522.8438 Q798.6063,522.5781 797.9813,522.5781 Q796.6375,522.5781 795.95,523.6406 Q795.2625,524.7031 795.2625,526.8125 Q795.2625,528.9063 795.95,529.9844 Q796.6375,531.0469 797.9813,531.0469 Q798.6063,531.0469 799.2,530.7813 Q799.7938,530.5 800.4344,529.9219 L800.4344,532.6406 Z " fill="#000000"/><text fill="#000000" font-family="sans-serif" font-size="14" lengthAdjust="spacing" textLength="147" x="816.55" y="531.8467">IntervalChannelData</text><line style="stroke:#181818;stroke-width:0.5;" x1="760.5" x2="988.5" y1="543" y2="543"/><text fill="#000000" font-family="sans-serif" font-size="14" lengthAdjust="spacing" textLength="167" x="765.5" y="559.9951">raw_data : raggedarray</text><text fill="#000000" font-family="sans-serif" font-size="14" lengthAdjust="spacing" textLength="218" x="765.5" y="576.292">counts : np.ndarray(dtype=int)</text><text fill="#000000" font-family="sans-serif" font-size="14" lengthAdjust="spacing" textLength="132" x="765.5" y="592.5889">mean : np.ndarray</text><text fill="#000000" font-family="sans-serif" font-size="14" lengthAdjust="spacing" textLength="112" x="765.5" y="608.8857">std : np.ndarray</text><line style="stroke:#181818;stroke-width:0.5;" x1="760.5" x2="988.5" y1="616.1875" y2="616.1875"/></g><!--class IntervalNormalizedChannelData--><g id="elem_IntervalNormalizedChannelData"><rect codeLine="76" fill="#F1F1F1" height="48" id="IntervalNormalizedChannelData" rx="2.5" ry="2.5" style="stroke:#181818;stroke-width:0.5;" width="260" x="685.5" y="684"/><ellipse cx="700.5" cy="700" fill="#ADD1B2" rx="11" ry="11" style="stroke:#181818;stroke-width:1.0;"/><path d="M703.4844,705.6406 Q702.9063,705.9375 702.2656,706.0781 Q701.625,706.2344 700.9219,706.2344 Q698.4063,706.2344 697.0781,704.5938 Q695.7656,702.9375 695.7656,699.8125 Q695.7656,696.6719 697.0781,695.0313 Q698.4063,693.375 700.9219,693.375 Q701.625,693.375 702.2656,693.5313 Q702.9219,693.6719 703.4844,693.9688 L703.4844,696.6875 Q702.8438,696.1094 702.25,695.8438 Q701.6563,695.5781 701.0313,695.5781 Q699.6875,695.5781 699,696.6406 Q698.3125,697.7031 698.3125,699.8125 Q698.3125,701.9063 699,702.9844 Q699.6875,704.0469 701.0313,704.0469 Q701.6563,704.0469 702.25,703.7813 Q702.8438,703.5 703.4844,702.9219 L703.4844,705.6406 Z " fill="#000000"/><text fill="#000000" font-family="sans-serif" font-size="14" lengthAdjust="spacing" textLength="228" x="714.5" y="704.8467">IntervalNormalizedChannelData</text><line style="stroke:#181818;stroke-width:0.5;" x1="686.5" x2="944.5" y1="716" y2="716"/><line style="stroke:#181818;stroke-width:0.5;" x1="686.5" x2="944.5" y1="724" y2="724"/></g><!--reverse link DataImporter to HDF5DataImporter--><g id="link_DataImporter_HDF5DataImporter"><path d="M756.8894,138.4366 C762.3794,166.1366 766.17,185.28 771.66,212.94 " fill="none" id="DataImporter-backto-HDF5DataImporter" style="stroke:#181818;stroke-width:1.0;"/><polygon fill="none" points="753.39,120.78,751.0039,139.603,762.775,137.2701,753.39,120.78" style="stroke:#181818;stroke-width:1.0;"/></g><!--reverse link Data to DataImporter--><g id="link_Data_DataImporter"><path codeLine="26" d="M589.03,80 C623.8,80 646.57,80 681.34,80 " fill="none" id="Data-backto-DataImporter" style="stroke:#181818;stroke-width:1.0;"/><polygon fill="#181818" points="577.03,80,583.03,84,589.03,80,583.03,76,577.03,80" style="stroke:#181818;stroke-width:1.0;"/><text fill="#000000" font-family="sans-serif" font-size="13" lengthAdjust="spacing" textLength="8" x="665.459" y="76.2309">n</text></g><!--link Metadata to Data--><g id="link_Metadata_Data"><path codeLine="27" d="M281.11,80 C315.38,80 337.65,80 371.92,80 " fill="none" id="Metadata-to-Data" style="stroke:#181818;stroke-width:1.0;"/><polygon fill="#181818" points="383.92,80,377.92,76,371.92,80,377.92,84,383.92,80" style="stroke:#181818;stroke-width:1.0;"/></g><!--reverse link Data to MeasureData--><g id="link_Data_MeasureData"><path d="M498.3201,170.8864 C503.0401,194.6964 504.54,202.26 508.32,221.33 " fill="none" id="Data-backto-MeasureData" style="stroke:#181818;stroke-width:1.0;"/><polygon fill="none" points="494.82,153.23,492.4347,172.0531,504.2056,169.7197,494.82,153.23" style="stroke:#181818;stroke-width:1.0;"/></g><!--reverse link Data to MonitorData--><g id="link_Data_MonitorData"><path d="M368.5054,148.8678 C323.1854,176.3278 286.42,198.62 248.81,221.4 " fill="none" id="Data-backto-MonitorData" style="stroke:#181818;stroke-width:1.0;"/><polygon fill="none" points="383.9,139.54,365.3962,143.7363,371.6147,153.9993,383.9,139.54" style="stroke:#181818;stroke-width:1.0;"/></g><!--link Metadata to MonitorData--><!--link MonitorData to MeasureData--><!--reverse link MeasureData to DeviceData--><g id="link_MeasureData_DeviceData"><path d="M431.9827,293.3902 C392.8627,312.2302 358.89,329.5 315.5,354 C302.21,361.5 287.99,370.31 275.53,378.28 " fill="none" id="MeasureData-backto-DeviceData" style="stroke:#181818;stroke-width:1.0;"/><polygon fill="none" points="448.2,285.58,429.3793,287.9844,434.5861,298.7959,448.2,285.58" style="stroke:#181818;stroke-width:1.0;"/></g><!--reverse link MeasureData to AxisData--><g id="link_MeasureData_AxisData"><path d="M485.1541,300.88 C469.3641,325.83 456.97,345.44 441.19,370.37 " fill="none" id="MeasureData-backto-AxisData" style="stroke:#181818;stroke-width:1.0;"/><polygon fill="none" points="494.78,285.67,480.0842,297.6713,490.2241,304.0886,494.78,285.67" style="stroke:#181818;stroke-width:1.0;"/></g><!--reverse link MeasureData to ChannelData--><g id="link_MeasureData_ChannelData"><path d="M543.8424,300.8821 C561.3324,328.5321 576.87,353.08 592.69,378.09 " fill="none" id="MeasureData-backto-ChannelData" style="stroke:#181818;stroke-width:1.0;"/><polygon fill="none" points="534.22,285.67,538.7717,304.0896,548.9131,297.6747,534.22,285.67" style="stroke:#181818;stroke-width:1.0;"/></g><!--reverse link MeasureData to TimestampData--><g id="link_MeasureData_TimestampData"><path d="M601.8043,292.9224 C646.8043,312.7324 689.46,331.51 740.28,353.87 " fill="none" id="MeasureData-backto-TimestampData" style="stroke:#181818;stroke-width:1.0;"/><polygon fill="none" points="585.33,285.67,599.3869,298.4138,604.2218,287.4309,585.33,285.67" style="stroke:#181818;stroke-width:1.0;"/></g><!--reverse link ChannelData to AverageChannelData--><g id="link_ChannelData_AverageChannelData"><path d="M554.4462,435.8883 C515.2762,459.7983 468.21,488.54 418.37,518.96 " fill="none" id="ChannelData-backto-AverageChannelData" style="stroke:#181818;stroke-width:1.0;"/><polygon fill="none" points="569.81,426.51,551.3201,430.7671,557.5723,441.0096,569.81,426.51" style="stroke:#181818;stroke-width:1.0;"/></g><!--reverse link AverageChannelData to AverageNormalizedChannelData--><g id="link_AverageChannelData_AverageNormalizedChannelData"><path d="M392.7842,629.8608 C412.2542,652.7108 423.01,665.34 438.7,683.75 " fill="none" id="AverageChannelData-backto-AverageNormalizedChannelData" style="stroke:#181818;stroke-width:1.0;"/><polygon fill="none" points="381.11,616.16,388.2172,633.7522,397.3511,625.9694,381.11,616.16" style="stroke:#181818;stroke-width:1.0;"/></g><!--reverse link NormalizedChannelData to AverageNormalizedChannelData--><g id="link_NormalizedChannelData_AverageNormalizedChannelData"><path d="M554.3156,620.2701 C527.2956,644.7301 506.92,663.17 484.17,683.76 " fill="none" id="NormalizedChannelData-backto-AverageNormalizedChannelData" style="stroke:#181818;stroke-width:1.0;stroke-dasharray:7.0,7.0;"/><polygon fill="none" points="567.66,608.19,550.2889,615.8219,558.3423,624.7182,567.66,608.19" style="stroke:#181818;stroke-width:1.0;"/></g><!--reverse link ChannelData to IntervalChannelData--><g id="link_ChannelData_IntervalChannelData"><path d="M660.5532,435.8893 C696.3432,457.7393 736.2,482.07 783.48,510.93 " fill="none" id="ChannelData-backto-IntervalChannelData" style="stroke:#181818;stroke-width:1.0;"/><polygon fill="none" points="645.19,426.51,657.4268,441.0104,663.6797,430.7683,645.19,426.51" style="stroke:#181818;stroke-width:1.0;"/></g><!--reverse link IntervalChannelData to IntervalNormalizedChannelData--><g id="link_IntervalChannelData_IntervalNormalizedChannelData"><path d="M843.7867,640.6005 C834.8767,661.5205 832.28,667.62 825.31,683.96 " fill="none" id="IntervalChannelData-backto-IntervalNormalizedChannelData" style="stroke:#181818;stroke-width:1.0;"/><polygon fill="none" points="850.84,624.04,838.2666,638.2494,849.3069,642.9516,850.84,624.04" style="stroke:#181818;stroke-width:1.0;"/></g><!--reverse link NormalizedChannelData to IntervalNormalizedChannelData--><g id="link_NormalizedChannelData_IntervalNormalizedChannelData"><path d="M684.5808,618.1126 C720.7308,642.6626 751.06,663.25 781.48,683.9 " fill="none" id="NormalizedChannelData-backto-IntervalNormalizedChannelData" style="stroke:#181818;stroke-width:1.0;stroke-dasharray:7.0,7.0;"/><polygon fill="none" points="669.69,608,681.2099,623.0762,687.9517,613.149,669.69,608" style="stroke:#181818;stroke-width:1.0;"/></g><!--SRC=[dLHDJzmm4BtdLrXSkaK5jGSkI22XegeSwAMzKHIDuaaOrL-oPxTGjF-zjXjd4v7DhfgJFPvvyzwp9-_2Bp8EF6WX7ObF5n-hgb4GWhW51l5QYVXfP91fUodk-sMEMyTaJOXXIGtd46bdFQD_U8pH177N1_9ftQCOTsuaU0ylEPoYg_TvsI7N_NOxPb9WUaR1hds34Icm9zFbcB8WnsLVRxzSJ4hncT78MJnYr5Cq3Sx5TT4se1O3Ok6sCfPHA6pvKdn7Z9dG9ITRwt-QmJHjvLhXULLbHq_Fn8avcLepO9wTveDTBmXhZxbkJBud_TeIAhaLpWPA5r4tTcquJFnTINvnU4M6HyxSMqDi_I5SJKfHmCQcymNG7Vs79v8IpUFrk4KrRZTEsQaRRXetr4prpcJTF5FObrFUHtn66r1hd1BVMV3v2On1jG0pfFuWZO51kmCzYsrrIpvmNMvbltMJejZgs9eq8oLpnONTX_JGy2hXv5k9wUXRY5FopNeDYlwW7Al-HzeCPtjcioJ4MPZ964owsQ273kTiVTkqY0QEO-TuMQr6C6zf1PRBJEP55qupTEEVIw76D43x31jwt2Llu_iwJgw7tyMwsBJ3aOpYn879_HyV2iTb8-QK7EN4Nm00]--></g></svg>