<?xml version="1.0" encoding="us-ascii" standalone="no"?><svg xmlns="http://www.w3.org/2000/svg" xmlns:xlink="http://www.w3.org/1999/xlink" contentStyleType="text/css" height="788px" preserveAspectRatio="none" style="width:1397px;height:788px;background:#FFFFFF;" version="1.1" viewBox="0 0 1397 788" width="1397px" zoomAndPan="magnify"><defs/><g><!--class Data--><g id="elem_Data"><rect codeLine="3" fill="#F1F1F1" height="145.7813" id="Data" rx="2.5" ry="2.5" style="stroke:#181818;stroke-width:0.5;" width="193" x="431" y="7"/><ellipse cx="506.25" cy="23" fill="#ADD1B2" rx="11" ry="11" style="stroke:#181818;stroke-width:1.0;"/><path d="M509.2344,28.6406 Q508.6563,28.9375 508.0156,29.0781 Q507.375,29.2344 506.6719,29.2344 Q504.1563,29.2344 502.8281,27.5938 Q501.5156,25.9375 501.5156,22.8125 Q501.5156,19.6719 502.8281,18.0313 Q504.1563,16.375 506.6719,16.375 Q507.375,16.375 508.0156,16.5313 Q508.6719,16.6719 509.2344,16.9688 L509.2344,19.6875 Q508.5938,19.1094 508,18.8438 Q507.4063,18.5781 506.7813,18.5781 Q505.4375,18.5781 504.75,19.6406 Q504.0625,20.7031 504.0625,22.8125 Q504.0625,24.9063 504.75,25.9844 Q505.4375,27.0469 506.7813,27.0469 Q507.4063,27.0469 508,26.7813 Q508.5938,26.5 509.2344,25.9219 L509.2344,28.6406 Z " fill="#000000"/><text fill="#000000" font-family="sans-serif" font-size="14" lengthAdjust="spacing" textLength="34" x="526.75" y="27.8467">Data</text><line style="stroke:#181818;stroke-width:0.5;" x1="432" x2="623" y1="39" y2="39"/><text fill="#000000" font-family="sans-serif" font-size="14" lengthAdjust="spacing" textLength="149" x="437" y="55.9951">metadata : Metadata</text><text fill="#000000" font-family="sans-serif" font-size="14" lengthAdjust="spacing" textLength="91" x="437" y="72.292">options : dict</text><text fill="#000000" font-family="sans-serif" font-size="14" lengthAdjust="spacing" textLength="181" x="437" y="88.5889">importer[] : DataImporter</text><text fill="#000000" font-family="sans-serif" font-size="14" lengthAdjust="spacing" textLength="130" x="437" y="104.8857">_data : np.ndarray</text><line style="stroke:#181818;stroke-width:0.5;" x1="432" x2="623" y1="112.1875" y2="112.1875"/><text fill="#000000" font-family="sans-serif" font-size="14" lengthAdjust="spacing" textLength="42" x="437" y="129.1826">data()</text><text fill="#000000" font-family="sans-serif" font-size="14" lengthAdjust="spacing" textLength="72" x="437" y="145.4795">get_data()</text></g><!--class DataImporter--><g id="elem_DataImporter"><rect codeLine="12" fill="#F1F1F1" height="80.5938" id="DataImporter" rx="2.5" ry="2.5" style="stroke:#181818;stroke-width:0.5;" width="128" x="728.5" y="39.5"/><ellipse cx="743.5" cy="55.5" fill="#ADD1B2" rx="11" ry="11" style="stroke:#181818;stroke-width:1.0;"/><path d="M746.4844,61.1406 Q745.9063,61.4375 745.2656,61.5781 Q744.625,61.7344 743.9219,61.7344 Q741.4063,61.7344 740.0781,60.0938 Q738.7656,58.4375 738.7656,55.3125 Q738.7656,52.1719 740.0781,50.5313 Q741.4063,48.875 743.9219,48.875 Q744.625,48.875 745.2656,49.0313 Q745.9219,49.1719 746.4844,49.4688 L746.4844,52.1875 Q745.8438,51.6094 745.25,51.3438 Q744.6563,51.0781 744.0313,51.0781 Q742.6875,51.0781 742,52.1406 Q741.3125,53.2031 741.3125,55.3125 Q741.3125,57.4063 742,58.4844 Q742.6875,59.5469 744.0313,59.5469 Q744.6563,59.5469 745.25,59.2813 Q745.8438,59 746.4844,58.4219 L746.4844,61.1406 Z " fill="#000000"/><text fill="#000000" font-family="sans-serif" font-size="14" lengthAdjust="spacing" textLength="96" x="757.5" y="60.3467">DataImporter</text><line style="stroke:#181818;stroke-width:0.5;" x1="729.5" x2="855.5" y1="71.5" y2="71.5"/><text fill="#000000" font-family="sans-serif" font-size="14" lengthAdjust="spacing" textLength="101" x="734.5" y="88.4951">source : string</text><line style="stroke:#181818;stroke-width:0.5;" x1="729.5" x2="855.5" y1="95.7969" y2="95.7969"/><text fill="#000000" font-family="sans-serif" font-size="14" lengthAdjust="spacing" textLength="41" x="734.5" y="112.792">load()</text></g><!--class HDF5DataImporter--><g id="elem_HDF5DataImporter"><rect codeLine="17" fill="#F1F1F1" height="80.5938" id="HDF5DataImporter" rx="2.5" ry="2.5" style="stroke:#181818;stroke-width:0.5;" width="167" x="743" y="213"/><ellipse cx="758" cy="229" fill="#ADD1B2" rx="11" ry="11" style="stroke:#181818;stroke-width:1.0;"/><path d="M760.9844,234.6406 Q760.4063,234.9375 759.7656,235.0781 Q759.125,235.2344 758.4219,235.2344 Q755.9063,235.2344 754.5781,233.5938 Q753.2656,231.9375 753.2656,228.8125 Q753.2656,225.6719 754.5781,224.0313 Q755.9063,222.375 758.4219,222.375 Q759.125,222.375 759.7656,222.5313 Q760.4219,222.6719 760.9844,222.9688 L760.9844,225.6875 Q760.3438,225.1094 759.75,224.8438 Q759.1563,224.5781 758.5313,224.5781 Q757.1875,224.5781 756.5,225.6406 Q755.8125,226.7031 755.8125,228.8125 Q755.8125,230.9063 756.5,231.9844 Q757.1875,233.0469 758.5313,233.0469 Q759.1563,233.0469 759.75,232.7813 Q760.3438,232.5 760.9844,231.9219 L760.9844,234.6406 Z " fill="#000000"/><text fill="#000000" font-family="sans-serif" font-size="14" lengthAdjust="spacing" textLength="135" x="772" y="233.8467">HDF5DataImporter</text><line style="stroke:#181818;stroke-width:0.5;" x1="744" x2="909" y1="245" y2="245"/><text fill="#000000" font-family="sans-serif" font-size="14" lengthAdjust="spacing" textLength="85" x="749" y="261.9951">item : string</text><text fill="#000000" font-family="sans-serif" font-size="14" lengthAdjust="spacing" textLength="102" x="749" y="278.292">mapping : dict</text><line style="stroke:#181818;stroke-width:0.5;" x1="744" x2="909" y1="285.5938" y2="285.5938"/></g><!--class Metadata--><g id="elem_Metadata"><rect codeLine="22" fill="#F1F1F1" height="48" id="Metadata" rx="2.5" ry="2.5" style="stroke:#181818;stroke-width:0.5;" width="99" x="229" y="56"/><ellipse cx="244" cy="72" fill="#ADD1B2" rx="11" ry="11" style="stroke:#181818;stroke-width:1.0;"/><path d="M246.9844,77.6406 Q246.4063,77.9375 245.7656,78.0781 Q245.125,78.2344 244.4219,78.2344 Q241.9063,78.2344 240.5781,76.5938 Q239.2656,74.9375 239.2656,71.8125 Q239.2656,68.6719 240.5781,67.0313 Q241.9063,65.375 244.4219,65.375 Q245.125,65.375 245.7656,65.5313 Q246.4219,65.6719 246.9844,65.9688 L246.9844,68.6875 Q246.3438,68.1094 245.75,67.8438 Q245.1563,67.5781 244.5313,67.5781 Q243.1875,67.5781 242.5,68.6406 Q241.8125,69.7031 241.8125,71.8125 Q241.8125,73.9063 242.5,74.9844 Q243.1875,76.0469 244.5313,76.0469 Q245.1563,76.0469 245.75,75.7813 Q246.3438,75.5 246.9844,74.9219 L246.9844,77.6406 Z " fill="#000000"/><text fill="#000000" font-family="sans-serif" font-size="14" lengthAdjust="spacing" textLength="67" x="258" y="76.8467">Metadata</text><line style="stroke:#181818;stroke-width:0.5;" x1="230" x2="327" y1="88" y2="88"/><line style="stroke:#181818;stroke-width:0.5;" x1="230" x2="327" y1="96" y2="96"/></g><g id="elem_GMN7"><path d="M53,60 L53,100.2656 A0,0 0 0 0 53,100.2656 L194,100.2656 A0,0 0 0 0 194,100.2656 L194,84 L228.68,80 L194,76 L194,70 L184,60 L53,60 A0,0 0 0 0 53,60 " fill="#FEFFDD" style="stroke:#181818;stroke-width:0.5;"/><path d="M184,60 L184,70 L194,70 L184,60 " fill="#FEFFDD" style="stroke:#181818;stroke-width:0.5;"/><text fill="#000000" font-family="sans-serif" font-size="13" lengthAdjust="spacing" textLength="104" x="59" y="77.0669">See diagram for</text><text fill="#000000" font-family="sans-serif" font-size="13" lengthAdjust="spacing" textLength="120" x="59" y="92.1997">metadata module.</text></g><!--class MeasureData--><g id="elem_MeasureData"><rect codeLine="29" fill="#F1F1F1" height="64.2969" id="MeasureData" rx="2.5" ry="2.5" style="stroke:#181818;stroke-width:0.5;" width="293" x="415" y="221.5"/><ellipse cx="509.75" cy="237.5" fill="#ADD1B2" rx="11" ry="11" style="stroke:#181818;stroke-width:1.0;"/><path d="M512.7344,243.1406 Q512.1563,243.4375 511.5156,243.5781 Q510.875,243.7344 510.1719,243.7344 Q507.6563,243.7344 506.3281,242.0938 Q505.0156,240.4375 505.0156,237.3125 Q505.0156,234.1719 506.3281,232.5313 Q507.6563,230.875 510.1719,230.875 Q510.875,230.875 511.5156,231.0313 Q512.1719,231.1719 512.7344,231.4688 L512.7344,234.1875 Q512.0938,233.6094 511.5,233.3438 Q510.9063,233.0781 510.2813,233.0781 Q508.9375,233.0781 508.25,234.1406 Q507.5625,235.2031 507.5625,237.3125 Q507.5625,239.4063 508.25,240.4844 Q508.9375,241.5469 510.2813,241.5469 Q510.9063,241.5469 511.5,241.2813 Q512.0938,241 512.7344,240.4219 L512.7344,243.1406 Z " fill="#000000"/><text fill="#000000" font-family="sans-serif" font-size="14" lengthAdjust="spacing" textLength="95" x="530.25" y="242.3467">MeasureData</text><line style="stroke:#181818;stroke-width:0.5;" x1="416" x2="707" y1="253.5" y2="253.5"/><text fill="#000000" font-family="sans-serif" font-size="14" lengthAdjust="spacing" textLength="281" x="421" y="270.4951">position_counts : np.ndarray(dtype=int)</text><line style="stroke:#181818;stroke-width:0.5;" x1="416" x2="707" y1="277.7969" y2="277.7969"/></g><!--class MonitorData--><g id="elem_MonitorData"><rect codeLine="33" fill="#F1F1F1" height="64.2969" id="MonitorData" rx="2.5" ry="2.5" style="stroke:#181818;stroke-width:0.5;" width="271" x="109" y="221.5"/><ellipse cx="196.25" cy="237.5" fill="#ADD1B2" rx="11" ry="11" style="stroke:#181818;stroke-width:1.0;"/><path d="M199.2344,243.1406 Q198.6563,243.4375 198.0156,243.5781 Q197.375,243.7344 196.6719,243.7344 Q194.1563,243.7344 192.8281,242.0938 Q191.5156,240.4375 191.5156,237.3125 Q191.5156,234.1719 192.8281,232.5313 Q194.1563,230.875 196.6719,230.875 Q197.375,230.875 198.0156,231.0313 Q198.6719,231.1719 199.2344,231.4688 L199.2344,234.1875 Q198.5938,233.6094 198,233.3438 Q197.4063,233.0781 196.7813,233.0781 Q195.4375,233.0781 194.75,234.1406 Q194.0625,235.2031 194.0625,237.3125 Q194.0625,239.4063 194.75,240.4844 Q195.4375,241.5469 196.7813,241.5469 Q197.4063,241.5469 198,241.2813 Q198.5938,241 199.2344,240.4219 L199.2344,243.1406 Z " fill="#000000"/><text fill="#000000" font-family="sans-serif" font-size="14" lengthAdjust="spacing" textLength="88" x="216.75" y="242.3467">MonitorData</text><line style="stroke:#181818;stroke-width:0.5;" x1="110" x2="379" y1="253.5" y2="253.5"/><text fill="#000000" font-family="sans-serif" font-size="14" lengthAdjust="spacing" textLength="259" x="115" y="270.4951">milliseconds : np.ndarray(dtype=int)</text><line style="stroke:#181818;stroke-width:0.5;" x1="110" x2="379" y1="277.7969" y2="277.7969"/></g><!--class DeviceData--><g id="elem_DeviceData"><rect codeLine="40" fill="#F1F1F1" height="48" id="DeviceData" rx="2.5" ry="2.5" style="stroke:#181818;stroke-width:0.5;" width="115" x="230" y="378.5"/><ellipse cx="245" cy="394.5" fill="#ADD1B2" rx="11" ry="11" style="stroke:#181818;stroke-width:1.0;"/><path d="M247.9844,400.1406 Q247.4063,400.4375 246.7656,400.5781 Q246.125,400.7344 245.4219,400.7344 Q242.9063,400.7344 241.5781,399.0938 Q240.2656,397.4375 240.2656,394.3125 Q240.2656,391.1719 241.5781,389.5313 Q242.9063,387.875 245.4219,387.875 Q246.125,387.875 246.7656,388.0313 Q247.4219,388.1719 247.9844,388.4688 L247.9844,391.1875 Q247.3438,390.6094 246.75,390.3438 Q246.1563,390.0781 245.5313,390.0781 Q244.1875,390.0781 243.5,391.1406 Q242.8125,392.2031 242.8125,394.3125 Q242.8125,396.4063 243.5,397.4844 Q244.1875,398.5469 245.5313,398.5469 Q246.1563,398.5469 246.75,398.2813 Q247.3438,398 247.9844,397.4219 L247.9844,400.1406 Z " fill="#000000"/><text fill="#000000" font-family="sans-serif" font-size="14" lengthAdjust="spacing" textLength="83" x="259" y="399.3467">DeviceData</text><line style="stroke:#181818;stroke-width:0.5;" x1="231" x2="344" y1="410.5" y2="410.5"/><line style="stroke:#181818;stroke-width:0.5;" x1="231" x2="344" y1="418.5" y2="418.5"/></g><!--class AxisData--><g id="elem_AxisData"><rect codeLine="42" fill="#F1F1F1" height="64.2969" id="AxisData" rx="2.5" ry="2.5" style="stroke:#181818;stroke-width:0.5;" width="177" x="380" y="370.5"/><ellipse cx="432.75" cy="386.5" fill="#ADD1B2" rx="11" ry="11" style="stroke:#181818;stroke-width:1.0;"/><path d="M435.7344,392.1406 Q435.1563,392.4375 434.5156,392.5781 Q433.875,392.7344 433.1719,392.7344 Q430.6563,392.7344 429.3281,391.0938 Q428.0156,389.4375 428.0156,386.3125 Q428.0156,383.1719 429.3281,381.5313 Q430.6563,379.875 433.1719,379.875 Q433.875,379.875 434.5156,380.0313 Q435.1719,380.1719 435.7344,380.4688 L435.7344,383.1875 Q435.0938,382.6094 434.5,382.3438 Q433.9063,382.0781 433.2813,382.0781 Q431.9375,382.0781 431.25,383.1406 Q430.5625,384.2031 430.5625,386.3125 Q430.5625,388.4063 431.25,389.4844 Q431.9375,390.5469 433.2813,390.5469 Q433.9063,390.5469 434.5,390.2813 Q435.0938,390 435.7344,389.4219 L435.7344,392.1406 Z " fill="#000000"/><text fill="#000000" font-family="sans-serif" font-size="14" lengthAdjust="spacing" textLength="63" x="453.25" y="391.3467">AxisData</text><line style="stroke:#181818;stroke-width:0.5;" x1="381" x2="556" y1="402.5" y2="402.5"/><text fill="#000000" font-family="sans-serif" font-size="14" lengthAdjust="spacing" textLength="165" x="386" y="419.4951">set_values : np.ndarray</text><line style="stroke:#181818;stroke-width:0.5;" x1="381" x2="556" y1="426.7969" y2="426.7969"/></g><!--class ChannelData--><g id="elem_ChannelData"><rect codeLine="46" fill="#F1F1F1" height="48" id="ChannelData" rx="2.5" ry="2.5" style="stroke:#181818;stroke-width:0.5;" width="125" x="592" y="378.5"/><ellipse cx="607" cy="394.5" fill="#ADD1B2" rx="11" ry="11" style="stroke:#181818;stroke-width:1.0;"/><path d="M609.9844,400.1406 Q609.4063,400.4375 608.7656,400.5781 Q608.125,400.7344 607.4219,400.7344 Q604.9063,400.7344 603.5781,399.0938 Q602.2656,397.4375 602.2656,394.3125 Q602.2656,391.1719 603.5781,389.5313 Q604.9063,387.875 607.4219,387.875 Q608.125,387.875 608.7656,388.0313 Q609.4219,388.1719 609.9844,388.4688 L609.9844,391.1875 Q609.3438,390.6094 608.75,390.3438 Q608.1563,390.0781 607.5313,390.0781 Q606.1875,390.0781 605.5,391.1406 Q604.8125,392.2031 604.8125,394.3125 Q604.8125,396.4063 605.5,397.4844 Q606.1875,398.5469 607.5313,398.5469 Q608.1563,398.5469 608.75,398.2813 Q609.3438,398 609.9844,397.4219 L609.9844,400.1406 Z " fill="#000000"/><text fill="#000000" font-family="sans-serif" font-size="14" lengthAdjust="spacing" textLength="93" x="621" y="399.3467">ChannelData</text><line style="stroke:#181818;stroke-width:0.5;" x1="593" x2="716" y1="410.5" y2="410.5"/><line style="stroke:#181818;stroke-width:0.5;" x1="593" x2="716" y1="418.5" y2="418.5"/></g><!--class TimestampData--><g id="elem_TimestampData"><rect codeLine="49" fill="#F1F1F1" height="96.8906" id="TimestampData" rx="2.5" ry="2.5" style="stroke:#181818;stroke-width:0.5;" width="287" x="752" y="354"/><ellipse cx="834.25" cy="370" fill="#ADD1B2" rx="11" ry="11" style="stroke:#181818;stroke-width:1.0;"/><path d="M837.2344,375.6406 Q836.6563,375.9375 836.0156,376.0781 Q835.375,376.2344 834.6719,376.2344 Q832.1563,376.2344 830.8281,374.5938 Q829.5156,372.9375 829.5156,369.8125 Q829.5156,366.6719 830.8281,365.0313 Q832.1563,363.375 834.6719,363.375 Q835.375,363.375 836.0156,363.5313 Q836.6719,363.6719 837.2344,363.9688 L837.2344,366.6875 Q836.5938,366.1094 836,365.8438 Q835.4063,365.5781 834.7813,365.5781 Q833.4375,365.5781 832.75,366.6406 Q832.0625,367.7031 832.0625,369.8125 Q832.0625,371.9063 832.75,372.9844 Q833.4375,374.0469 834.7813,374.0469 Q835.4063,374.0469 836,373.7813 Q836.5938,373.5 837.2344,372.9219 L837.2344,375.6406 Z " fill="#000000"/><text fill="#000000" font-family="sans-serif" font-size="14" lengthAdjust="spacing" textLength="114" x="854.75" y="374.8467">TimestampData</text><line style="stroke:#181818;stroke-width:0.5;" x1="753" x2="1038" y1="386" y2="386"/><text fill="#000000" font-family="sans-serif" font-size="14" lengthAdjust="spacing" textLength="275" x="758" y="402.9951">_first_positions : np.ndarray(dtype=int)</text><text fill="#000000" font-family="sans-serif" font-size="14" lengthAdjust="spacing" textLength="273" x="758" y="419.292">_last_positions : np.ndarray(dtype=int)</text><line style="stroke:#181818;stroke-width:0.5;" x1="753" x2="1038" y1="426.5938" y2="426.5938"/><text fill="#000000" font-family="sans-serif" font-size="14" lengthAdjust="spacing" textLength="258" x="758" y="443.5889">get_position(timestamp, mode=last)</text></g><!--class SinglePointChannelData--><g id="elem_SinglePointChannelData"><rect codeLine="55" fill="#F1F1F1" height="48" id="SinglePointChannelData" rx="2.5" ry="2.5" style="stroke:#181818;stroke-width:0.5;" width="204" x="25.5" y="535.5"/><ellipse cx="40.5" cy="551.5" fill="#ADD1B2" rx="11" ry="11" style="stroke:#181818;stroke-width:1.0;"/><path d="M43.4844,557.1406 Q42.9063,557.4375 42.2656,557.5781 Q41.625,557.7344 40.9219,557.7344 Q38.4063,557.7344 37.0781,556.0938 Q35.7656,554.4375 35.7656,551.3125 Q35.7656,548.1719 37.0781,546.5313 Q38.4063,544.875 40.9219,544.875 Q41.625,544.875 42.2656,545.0313 Q42.9219,545.1719 43.4844,545.4688 L43.4844,548.1875 Q42.8438,547.6094 42.25,547.3438 Q41.6563,547.0781 41.0313,547.0781 Q39.6875,547.0781 39,548.1406 Q38.3125,549.2031 38.3125,551.3125 Q38.3125,553.4063 39,554.4844 Q39.6875,555.5469 41.0313,555.5469 Q41.6563,555.5469 42.25,555.2813 Q42.8438,555 43.4844,554.4219 L43.4844,557.1406 Z " fill="#000000"/><text fill="#000000" font-family="sans-serif" font-size="14" lengthAdjust="spacing" textLength="172" x="54.5" y="556.3467">SinglePointChannelData</text><line style="stroke:#181818;stroke-width:0.5;" x1="26.5" x2="228.5" y1="567.5" y2="567.5"/><line style="stroke:#181818;stroke-width:0.5;" x1="26.5" x2="228.5" y1="575.5" y2="575.5"/></g><!--class NormalizedChannelData--><g id="elem_NormalizedChannelData"><rect codeLine="57" fill="#F1F1F1" height="80.5938" id="NormalizedChannelData" rx="2.5" ry="2.5" style="stroke:#181818;stroke-width:0.5;" width="226" x="545.5" y="519"/><ellipse cx="569.5" cy="535" fill="#B4A7E5" rx="11" ry="11" style="stroke:#181818;stroke-width:1.0;"/><path d="M565.4219,530.75 L565.4219,528.5938 L572.8125,528.5938 L572.8125,530.75 L570.3438,530.75 L570.3438,538.8438 L572.8125,538.8438 L572.8125,541 L565.4219,541 L565.4219,538.8438 L567.8906,538.8438 L567.8906,530.75 L565.4219,530.75 Z " fill="#000000"/><text fill="#000000" font-family="sans-serif" font-size="14" font-style="italic" lengthAdjust="spacing" textLength="174" x="585.5" y="539.8467">NormalizedChannelData</text><line style="stroke:#181818;stroke-width:0.5;" x1="546.5" x2="770.5" y1="551" y2="551"/><text fill="#000000" font-family="sans-serif" font-size="14" lengthAdjust="spacing" textLength="210" x="551.5" y="567.9951">normalized_data : np.ndarray</text><text fill="#000000" font-family="sans-serif" font-size="14" lengthAdjust="spacing" textLength="214" x="551.5" y="584.292">normalizing_data : np.ndarray</text><line style="stroke:#181818;stroke-width:0.5;" x1="546.5" x2="770.5" y1="591.5938" y2="591.5938"/></g><!--class SinglePointNormalizedChannelData--><g id="elem_SinglePointNormalizedChannelData"><rect codeLine="62" fill="#F1F1F1" height="48" id="SinglePointNormalizedChannelData" rx="2.5" ry="2.5" style="stroke:#181818;stroke-width:0.5;" width="285" x="7" y="700.5"/><ellipse cx="22" cy="716.5" fill="#ADD1B2" rx="11" ry="11" style="stroke:#181818;stroke-width:1.0;"/><path d="M24.9844,722.1406 Q24.4063,722.4375 23.7656,722.5781 Q23.125,722.7344 22.4219,722.7344 Q19.9063,722.7344 18.5781,721.0938 Q17.2656,719.4375 17.2656,716.3125 Q17.2656,713.1719 18.5781,711.5313 Q19.9063,709.875 22.4219,709.875 Q23.125,709.875 23.7656,710.0313 Q24.4219,710.1719 24.9844,710.4688 L24.9844,713.1875 Q24.3438,712.6094 23.75,712.3438 Q23.1563,712.0781 22.5313,712.0781 Q21.1875,712.0781 20.5,713.1406 Q19.8125,714.2031 19.8125,716.3125 Q19.8125,718.4063 20.5,719.4844 Q21.1875,720.5469 22.5313,720.5469 Q23.1563,720.5469 23.75,720.2813 Q24.3438,720 24.9844,719.4219 L24.9844,722.1406 Z " fill="#000000"/><text fill="#000000" font-family="sans-serif" font-size="14" lengthAdjust="spacing" textLength="253" x="36" y="721.3467">SinglePointNormalizedChannelData</text><line style="stroke:#181818;stroke-width:0.5;" x1="8" x2="291" y1="732.5" y2="732.5"/><line style="stroke:#181818;stroke-width:0.5;" x1="8" x2="291" y1="740.5" y2="740.5"/></g><!--class AverageChannelData--><g id="elem_AverageChannelData"><rect codeLine="65" fill="#F1F1F1" height="80.5938" id="AverageChannelData" rx="2.5" ry="2.5" style="stroke:#181818;stroke-width:0.5;" width="246" x="264.5" y="519"/><ellipse cx="306.95" cy="535" fill="#ADD1B2" rx="11" ry="11" style="stroke:#181818;stroke-width:1.0;"/><path d="M309.9344,540.6406 Q309.3563,540.9375 308.7156,541.0781 Q308.075,541.2344 307.3719,541.2344 Q304.8563,541.2344 303.5281,539.5938 Q302.2156,537.9375 302.2156,534.8125 Q302.2156,531.6719 303.5281,530.0313 Q304.8563,528.375 307.3719,528.375 Q308.075,528.375 308.7156,528.5313 Q309.3719,528.6719 309.9344,528.9688 L309.9344,531.6875 Q309.2938,531.1094 308.7,530.8438 Q308.1063,530.5781 307.4813,530.5781 Q306.1375,530.5781 305.45,531.6406 Q304.7625,532.7031 304.7625,534.8125 Q304.7625,536.9063 305.45,537.9844 Q306.1375,539.0469 307.4813,539.0469 Q308.1063,539.0469 308.7,538.7813 Q309.2938,538.5 309.9344,537.9219 L309.9344,540.6406 Z " fill="#000000"/><text fill="#000000" font-family="sans-serif" font-size="14" lengthAdjust="spacing" textLength="153" x="327.05" y="539.8467">AverageChannelData</text><line style="stroke:#181818;stroke-width:0.5;" x1="265.5" x2="509.5" y1="551" y2="551"/><text fill="#000000" font-family="sans-serif" font-size="14" lengthAdjust="spacing" textLength="234" x="270.5" y="567.9951">attempts : np.ndarray(dtype=int)</text><text fill="#000000" font-family="sans-serif" font-size="14" lengthAdjust="spacing" textLength="132" x="270.5" y="584.292">mean : np.ndarray</text><line style="stroke:#181818;stroke-width:0.5;" x1="265.5" x2="509.5" y1="591.5938" y2="591.5938"/></g><!--class AverageNormalizedChannelData--><g id="elem_AverageNormalizedChannelData"><rect codeLine="70" fill="#F1F1F1" height="48" id="AverageNormalizedChannelData" rx="2.5" ry="2.5" style="stroke:#181818;stroke-width:0.5;" width="266" x="413.5" y="700.5"/><ellipse cx="428.5" cy="716.5" fill="#ADD1B2" rx="11" ry="11" style="stroke:#181818;stroke-width:1.0;"/><path d="M431.4844,722.1406 Q430.9063,722.4375 430.2656,722.5781 Q429.625,722.7344 428.9219,722.7344 Q426.4063,722.7344 425.0781,721.0938 Q423.7656,719.4375 423.7656,716.3125 Q423.7656,713.1719 425.0781,711.5313 Q426.4063,709.875 428.9219,709.875 Q429.625,709.875 430.2656,710.0313 Q430.9219,710.1719 431.4844,710.4688 L431.4844,713.1875 Q430.8438,712.6094 430.25,712.3438 Q429.6563,712.0781 429.0313,712.0781 Q427.6875,712.0781 427,713.1406 Q426.3125,714.2031 426.3125,716.3125 Q426.3125,718.4063 427,719.4844 Q427.6875,720.5469 429.0313,720.5469 Q429.6563,720.5469 430.25,720.2813 Q430.8438,720 431.4844,719.4219 L431.4844,722.1406 Z " fill="#000000"/><text fill="#000000" font-family="sans-serif" font-size="14" lengthAdjust="spacing" textLength="234" x="442.5" y="721.3467">AverageNormalizedChannelData</text><line style="stroke:#181818;stroke-width:0.5;" x1="414.5" x2="678.5" y1="732.5" y2="732.5"/><line style="stroke:#181818;stroke-width:0.5;" x1="414.5" x2="678.5" y1="740.5" y2="740.5"/></g><!--class IntervalChannelData--><g id="elem_IntervalChannelData"><rect codeLine="73" fill="#F1F1F1" height="96.8906" id="IntervalChannelData" rx="2.5" ry="2.5" style="stroke:#181818;stroke-width:0.5;" width="230" x="806.5" y="511"/><ellipse cx="844.45" cy="527" fill="#ADD1B2" rx="11" ry="11" style="stroke:#181818;stroke-width:1.0;"/><path d="M847.4344,532.6406 Q846.8563,532.9375 846.2156,533.0781 Q845.575,533.2344 844.8719,533.2344 Q842.3563,533.2344 841.0281,531.5938 Q839.7156,529.9375 839.7156,526.8125 Q839.7156,523.6719 841.0281,522.0313 Q842.3563,520.375 844.8719,520.375 Q845.575,520.375 846.2156,520.5313 Q846.8719,520.6719 847.4344,520.9688 L847.4344,523.6875 Q846.7938,523.1094 846.2,522.8438 Q845.6063,522.5781 844.9813,522.5781 Q843.6375,522.5781 842.95,523.6406 Q842.2625,524.7031 842.2625,526.8125 Q842.2625,528.9063 842.95,529.9844 Q843.6375,531.0469 844.9813,531.0469 Q845.6063,531.0469 846.2,530.7813 Q846.7938,530.5 847.4344,529.9219 L847.4344,532.6406 Z " fill="#000000"/><text fill="#000000" font-family="sans-serif" font-size="14" lengthAdjust="spacing" textLength="147" x="863.55" y="531.8467">IntervalChannelData</text><line style="stroke:#181818;stroke-width:0.5;" x1="807.5" x2="1035.5" y1="543" y2="543"/><text fill="#000000" font-family="sans-serif" font-size="14" lengthAdjust="spacing" textLength="218" x="812.5" y="559.9951">counts : np.ndarray(dtype=int)</text><text fill="#000000" font-family="sans-serif" font-size="14" lengthAdjust="spacing" textLength="132" x="812.5" y="576.292">mean : np.ndarray</text><text fill="#000000" font-family="sans-serif" font-size="14" lengthAdjust="spacing" textLength="112" x="812.5" y="592.5889">std : np.ndarray</text><line style="stroke:#181818;stroke-width:0.5;" x1="807.5" x2="1035.5" y1="599.8906" y2="599.8906"/></g><!--class IntervalNormalizedChannelData--><g id="elem_IntervalNormalizedChannelData"><rect codeLine="79" fill="#F1F1F1" height="48" id="IntervalNormalizedChannelData" rx="2.5" ry="2.5" style="stroke:#181818;stroke-width:0.5;" width="260" x="757.5" y="700.5"/><ellipse cx="772.5" cy="716.5" fill="#ADD1B2" rx="11" ry="11" style="stroke:#181818;stroke-width:1.0;"/><path d="M775.4844,722.1406 Q774.9063,722.4375 774.2656,722.5781 Q773.625,722.7344 772.9219,722.7344 Q770.4063,722.7344 769.0781,721.0938 Q767.7656,719.4375 767.7656,716.3125 Q767.7656,713.1719 769.0781,711.5313 Q770.4063,709.875 772.9219,709.875 Q773.625,709.875 774.2656,710.0313 Q774.9219,710.1719 775.4844,710.4688 L775.4844,713.1875 Q774.8438,712.6094 774.25,712.3438 Q773.6563,712.0781 773.0313,712.0781 Q771.6875,712.0781 771,713.1406 Q770.3125,714.2031 770.3125,716.3125 Q770.3125,718.4063 771,719.4844 Q771.6875,720.5469 773.0313,720.5469 Q773.6563,720.5469 774.25,720.2813 Q774.8438,720 775.4844,719.4219 L775.4844,722.1406 Z " fill="#000000"/><text fill="#000000" font-family="sans-serif" font-size="14" lengthAdjust="spacing" textLength="228" x="786.5" y="721.3467">IntervalNormalizedChannelData</text><line style="stroke:#181818;stroke-width:0.5;" x1="758.5" x2="1016.5" y1="732.5" y2="732.5"/><line style="stroke:#181818;stroke-width:0.5;" x1="758.5" x2="1016.5" y1="740.5" y2="740.5"/></g><!--class ArrayChannelData--><g id="elem_ArrayChannelData"><rect codeLine="82" fill="#F1F1F1" height="48" id="ArrayChannelData" rx="2.5" ry="2.5" style="stroke:#181818;stroke-width:0.5;" width="164" x="1071.5" y="535.5"/><ellipse cx="1086.5" cy="551.5" fill="#ADD1B2" rx="11" ry="11" style="stroke:#181818;stroke-width:1.0;"/><path d="M1089.4844,557.1406 Q1088.9063,557.4375 1088.2656,557.5781 Q1087.625,557.7344 1086.9219,557.7344 Q1084.4063,557.7344 1083.0781,556.0938 Q1081.7656,554.4375 1081.7656,551.3125 Q1081.7656,548.1719 1083.0781,546.5313 Q1084.4063,544.875 1086.9219,544.875 Q1087.625,544.875 1088.2656,545.0313 Q1088.9219,545.1719 1089.4844,545.4688 L1089.4844,548.1875 Q1088.8438,547.6094 1088.25,547.3438 Q1087.6563,547.0781 1087.0313,547.0781 Q1085.6875,547.0781 1085,548.1406 Q1084.3125,549.2031 1084.3125,551.3125 Q1084.3125,553.4063 1085,554.4844 Q1085.6875,555.5469 1087.0313,555.5469 Q1087.6563,555.5469 1088.25,555.2813 Q1088.8438,555 1089.4844,554.4219 L1089.4844,557.1406 Z " fill="#000000"/><text fill="#000000" font-family="sans-serif" font-size="14" lengthAdjust="spacing" textLength="132" x="1100.5" y="556.3467">ArrayChannelData</text><line style="stroke:#181818;stroke-width:0.5;" x1="1072.5" x2="1234.5" y1="567.5" y2="567.5"/><line style="stroke:#181818;stroke-width:0.5;" x1="1072.5" x2="1234.5" y1="575.5" y2="575.5"/></g><!--class MCAChannelData--><g id="elem_MCAChannelData"><rect codeLine="85" fill="#F1F1F1" height="64.2969" id="MCAChannelData" rx="2.5" ry="2.5" style="stroke:#181818;stroke-width:0.5;" width="157" x="1075" y="692.5"/><ellipse cx="1090" cy="708.5" fill="#ADD1B2" rx="11" ry="11" style="stroke:#181818;stroke-width:1.0;"/><path d="M1092.9844,714.1406 Q1092.4063,714.4375 1091.7656,714.5781 Q1091.125,714.7344 1090.4219,714.7344 Q1087.9063,714.7344 1086.5781,713.0938 Q1085.2656,711.4375 1085.2656,708.3125 Q1085.2656,705.1719 1086.5781,703.5313 Q1087.9063,701.875 1090.4219,701.875 Q1091.125,701.875 1091.7656,702.0313 Q1092.4219,702.1719 1092.9844,702.4688 L1092.9844,705.1875 Q1092.3438,704.6094 1091.75,704.3438 Q1091.1563,704.0781 1090.5313,704.0781 Q1089.1875,704.0781 1088.5,705.1406 Q1087.8125,706.2031 1087.8125,708.3125 Q1087.8125,710.4063 1088.5,711.4844 Q1089.1875,712.5469 1090.5313,712.5469 Q1091.1563,712.5469 1091.75,712.2813 Q1092.3438,712 1092.9844,711.4219 L1092.9844,714.1406 Z " fill="#000000"/><text fill="#000000" font-family="sans-serif" font-size="14" lengthAdjust="spacing" textLength="125" x="1104" y="713.3467">MCAChannelData</text><line style="stroke:#181818;stroke-width:0.5;" x1="1076" x2="1231" y1="724.5" y2="724.5"/><text fill="#000000" font-family="sans-serif" font-size="14" lengthAdjust="spacing" textLength="70" x="1081" y="741.4951">axis : Axis</text><line style="stroke:#181818;stroke-width:0.5;" x1="1076" x2="1231" y1="748.7969" y2="748.7969"/></g><!--class Axis--><g id="elem_Axis"><rect codeLine="91" fill="#F1F1F1" height="113.1875" id="Axis" rx="2.5" ry="2.5" style="stroke:#181818;stroke-width:0.5;" width="123" x="1267" y="668"/><ellipse cx="1309.9" cy="684" fill="#ADD1B2" rx="11" ry="11" style="stroke:#181818;stroke-width:1.0;"/><path d="M1312.8844,689.6406 Q1312.3063,689.9375 1311.6656,690.0781 Q1311.025,690.2344 1310.3219,690.2344 Q1307.8063,690.2344 1306.4781,688.5938 Q1305.1656,686.9375 1305.1656,683.8125 Q1305.1656,680.6719 1306.4781,679.0313 Q1307.8063,677.375 1310.3219,677.375 Q1311.025,677.375 1311.6656,677.5313 Q1312.3219,677.6719 1312.8844,677.9688 L1312.8844,680.6875 Q1312.2438,680.1094 1311.65,679.8438 Q1311.0563,679.5781 1310.4313,679.5781 Q1309.0875,679.5781 1308.4,680.6406 Q1307.7125,681.7031 1307.7125,683.8125 Q1307.7125,685.9063 1308.4,686.9844 Q1309.0875,688.0469 1310.4313,688.0469 Q1311.0563,688.0469 1311.65,687.7813 Q1312.2438,687.5 1312.8844,686.9219 L1312.8844,689.6406 Z " fill="#000000"/><text fill="#000000" font-family="sans-serif" font-size="14" lengthAdjust="spacing" textLength="29" x="1330.1" y="688.8467">Axis</text><line style="stroke:#181818;stroke-width:0.5;" x1="1268" x2="1389" y1="700" y2="700"/><text fill="#000000" font-family="sans-serif" font-size="14" lengthAdjust="spacing" textLength="111" x="1273" y="716.9951">quantity : string</text><text fill="#000000" font-family="sans-serif" font-size="14" lengthAdjust="spacing" textLength="80" x="1273" y="733.292">unit : string</text><text fill="#000000" font-family="sans-serif" font-size="14" lengthAdjust="spacing" textLength="104" x="1273" y="749.5889">symbol : string</text><text fill="#000000" font-family="sans-serif" font-size="14" lengthAdjust="spacing" textLength="88" x="1273" y="765.8857">label : string</text><line style="stroke:#181818;stroke-width:0.5;" x1="1268" x2="1389" y1="773.1875" y2="773.1875"/></g><!--reverse link DataImporter to HDF5DataImporter--><g id="link_DataImporter_HDF5DataImporter"><path d="M803.8894,138.4366 C809.3794,166.1366 813.17,185.28 818.66,212.94 " fill="none" id="DataImporter-backto-HDF5DataImporter" style="stroke:#181818;stroke-width:1.0;"/><polygon fill="none" points="800.39,120.78,798.0039,139.603,809.775,137.2701,800.39,120.78" style="stroke:#181818;stroke-width:1.0;"/></g><!--reverse link Data to DataImporter--><g id="link_Data_DataImporter"><path codeLine="26" d="M636.03,80 C670.8,80 693.57,80 728.34,80 " fill="none" id="Data-backto-DataImporter" style="stroke:#181818;stroke-width:1.0;"/><polygon fill="#181818" points="624.03,80,630.03,84,636.03,80,630.03,76,624.03,80" style="stroke:#181818;stroke-width:1.0;"/><text fill="#000000" font-family="sans-serif" font-size="13" lengthAdjust="spacing" textLength="8" x="712.459" y="76.2309">n</text></g><!--link Metadata to Data--><g id="link_Metadata_Data"><path codeLine="27" d="M328.11,80 C362.38,80 384.65,80 418.92,80 " fill="none" id="Metadata-to-Data" style="stroke:#181818;stroke-width:1.0;"/><polygon fill="#181818" points="430.92,80,424.92,76,418.92,80,424.92,84,430.92,80" style="stroke:#181818;stroke-width:1.0;"/></g><!--reverse link Data to MeasureData--><g id="link_Data_MeasureData"><path d="M545.3201,170.8864 C550.0401,194.6964 551.54,202.26 555.32,221.33 " fill="none" id="Data-backto-MeasureData" style="stroke:#181818;stroke-width:1.0;"/><polygon fill="none" points="541.82,153.23,539.4347,172.0531,551.2056,169.7197,541.82,153.23" style="stroke:#181818;stroke-width:1.0;"/></g><!--reverse link Data to MonitorData--><g id="link_Data_MonitorData"><path d="M415.5054,148.8678 C370.1854,176.3278 333.42,198.62 295.81,221.4 " fill="none" id="Data-backto-MonitorData" style="stroke:#181818;stroke-width:1.0;"/><polygon fill="none" points="430.9,139.54,412.3962,143.7363,418.6147,153.9993,430.9,139.54" style="stroke:#181818;stroke-width:1.0;"/></g><!--link Metadata to MonitorData--><!--link MonitorData to MeasureData--><!--reverse link MeasureData to DeviceData--><g id="link_MeasureData_DeviceData"><path d="M478.9827,293.3902 C439.8627,312.2302 405.89,329.5 362.5,354 C349.21,361.5 334.99,370.31 322.53,378.28 " fill="none" id="MeasureData-backto-DeviceData" style="stroke:#181818;stroke-width:1.0;"/><polygon fill="none" points="495.2,285.58,476.3793,287.9844,481.5861,298.7959,495.2,285.58" style="stroke:#181818;stroke-width:1.0;"/></g><!--reverse link MeasureData to AxisData--><g id="link_MeasureData_AxisData"><path d="M532.1541,300.88 C516.3641,325.83 503.97,345.44 488.19,370.37 " fill="none" id="MeasureData-backto-AxisData" style="stroke:#181818;stroke-width:1.0;"/><polygon fill="none" points="541.78,285.67,527.0842,297.6713,537.2241,304.0886,541.78,285.67" style="stroke:#181818;stroke-width:1.0;"/></g><!--reverse link MeasureData to ChannelData--><g id="link_MeasureData_ChannelData"><path d="M590.8424,300.8821 C608.3324,328.5321 623.87,353.08 639.69,378.09 " fill="none" id="MeasureData-backto-ChannelData" style="stroke:#181818;stroke-width:1.0;"/><polygon fill="none" points="581.22,285.67,585.7717,304.0896,595.9131,297.6747,581.22,285.67" style="stroke:#181818;stroke-width:1.0;"/></g><!--reverse link MeasureData to TimestampData--><g id="link_MeasureData_TimestampData"><path d="M648.8043,292.9224 C693.8043,312.7324 736.46,331.51 787.28,353.87 " fill="none" id="MeasureData-backto-TimestampData" style="stroke:#181818;stroke-width:1.0;"/><polygon fill="none" points="632.33,285.67,646.3869,298.4138,651.2218,287.4309,632.33,285.67" style="stroke:#181818;stroke-width:1.0;"/></g><!--reverse link ChannelData to SinglePointChannelData--><g id="link_ChannelData_SinglePointChannelData"><path d="M606.3708,436.267 C592.4208,445.097 590.84,444.88 574.5,451 C435.72,502.98 388.91,469.99 246.5,511 C223.84,517.52 199.54,526.79 178.85,535.41 " fill="none" id="ChannelData-backto-SinglePointChannelData" style="stroke:#181818;stroke-width:1.0;"/><polygon fill="none" points="621.58,426.64,603.1618,431.1973,609.5798,441.3368,621.58,426.64" style="stroke:#181818;stroke-width:1.0;"/></g><!--reverse link SinglePointChannelData to SinglePointNormalizedChannelData--><g id="link_SinglePointChannelData_SinglePointNormalizedChannelData"><path d="M133.0169,601.3484 C137.1969,632.3284 142.18,669.29 146.37,700.35 " fill="none" id="SinglePointChannelData-backto-SinglePointNormalizedChannelData" style="stroke:#181818;stroke-width:1.0;"/><polygon fill="none" points="130.61,583.51,127.0707,602.1506,138.963,600.5461,130.61,583.51" style="stroke:#181818;stroke-width:1.0;"/></g><!--reverse link NormalizedChannelData to SinglePointNormalizedChannelData--><g id="link_NormalizedChannelData_SinglePointNormalizedChannelData"><path d="M533.7111,605.9993 C525.8711,608.7293 535.07,605.47 527.5,608 C425.15,642.17 305.91,677.94 229.15,700.45 " fill="none" id="NormalizedChannelData-backto-SinglePointNormalizedChannelData" style="stroke:#181818;stroke-width:1.0;stroke-dasharray:7.0,7.0;"/><polygon fill="none" points="550.71,600.08,531.738,600.333,535.6842,611.6656,550.71,600.08" style="stroke:#181818;stroke-width:1.0;"/></g><!--reverse link ChannelData to AverageChannelData--><g id="link_ChannelData_AverageChannelData"><path d="M600.4378,435.7584 C587.3178,443.5584 588.03,443.1 574.5,451 C535.7,473.67 492.19,498.71 456.9,518.91 " fill="none" id="ChannelData-backto-AverageChannelData" style="stroke:#181818;stroke-width:1.0;"/><polygon fill="none" points="615.91,426.56,597.3717,430.601,603.5039,440.9158,615.91,426.56" style="stroke:#181818;stroke-width:1.0;"/></g><!--reverse link AverageChannelData to AverageNormalizedChannelData--><g id="link_AverageChannelData_AverageNormalizedChannelData"><path d="M438.9663,613.2575 C469.4863,644.5575 498.36,674.15 523.72,700.15 " fill="none" id="AverageChannelData-backto-AverageNormalizedChannelData" style="stroke:#181818;stroke-width:1.0;"/><polygon fill="none" points="426.4,600.37,434.6705,617.4463,443.2622,609.0687,426.4,600.37" style="stroke:#181818;stroke-width:1.0;"/></g><!--reverse link NormalizedChannelData to AverageNormalizedChannelData--><g id="link_NormalizedChannelData_AverageNormalizedChannelData"><path d="M620.9085,615.2069 C599.4085,646.5069 580.41,674.15 562.55,700.15 " fill="none" id="NormalizedChannelData-backto-AverageNormalizedChannelData" style="stroke:#181818;stroke-width:1.0;stroke-dasharray:7.0,7.0;"/><polygon fill="none" points="631.1,600.37,615.9629,611.8097,625.8542,618.6041,631.1,600.37" style="stroke:#181818;stroke-width:1.0;"/></g><!--reverse link ChannelData to IntervalChannelData--><g id="link_ChannelData_IntervalChannelData"><path d="M708.5622,435.7584 C721.6822,443.5584 720.97,443.1 734.5,451 C768.29,470.74 805.65,492.28 838.04,510.86 " fill="none" id="ChannelData-backto-IntervalChannelData" style="stroke:#181818;stroke-width:1.0;"/><polygon fill="none" points="693.09,426.56,705.4961,440.9158,711.6283,430.601,693.09,426.56" style="stroke:#181818;stroke-width:1.0;"/></g><!--reverse link IntervalChannelData to IntervalNormalizedChannelData--><g id="link_IntervalChannelData_IntervalNormalizedChannelData"><path d="M907.8956,625.701 C901.5856,655.961 897.37,676.19 892.38,700.11 " fill="none" id="IntervalChannelData-backto-IntervalNormalizedChannelData" style="stroke:#181818;stroke-width:1.0;"/><polygon fill="none" points="911.57,608.08,902.0219,624.4762,913.7692,626.9258,911.57,608.08" style="stroke:#181818;stroke-width:1.0;"/></g><!--reverse link NormalizedChannelData to IntervalNormalizedChannelData--><g id="link_NormalizedChannelData_IntervalNormalizedChannelData"><path d="M728.8938,610.609 C772.9738,641.989 818.35,674.28 854.94,700.32 " fill="none" id="NormalizedChannelData-backto-IntervalNormalizedChannelData" style="stroke:#181818;stroke-width:1.0;stroke-dasharray:7.0,7.0;"/><polygon fill="none" points="714.23,600.17,725.4142,615.4969,732.3735,605.721,714.23,600.17" style="stroke:#181818;stroke-width:1.0;"/></g><!--reverse link ChannelData to ArrayChannelData--><g id="link_ChannelData_ArrayChannelData"><path d="M702.6472,436.2143 C716.6072,445.0343 718.18,444.84 734.5,451 C869.47,501.94 916.32,466.35 1053.5,511 C1073.06,517.37 1093.73,526.71 1111.18,535.43 " fill="none" id="ChannelData-backto-ArrayChannelData" style="stroke:#181818;stroke-width:1.0;"/><polygon fill="none" points="687.43,426.6,699.4425,441.2867,705.852,431.1419,687.43,426.6" style="stroke:#181818;stroke-width:1.0;"/></g><!--reverse link ArrayChannelData to MCAChannelData--><g id="link_ArrayChannelData_MCAChannelData"><path d="M1153.5,601.51 C1153.5,629.94 1153.5,660.45 1153.5,692.24 " fill="none" id="ArrayChannelData-backto-MCAChannelData" style="stroke:#181818;stroke-width:1.0;"/><polygon fill="none" points="1153.5,583.51,1147.5,601.51,1159.5,601.51,1153.5,583.51" style="stroke:#181818;stroke-width:1.0;"/></g><!--reverse link MCAChannelData to Axis--><g id="link_MCAChannelData_Axis"><path codeLine="89" d="M1244.11,724.5 C1255.66,724.5 1255.21,724.5 1266.75,724.5 " fill="none" id="MCAChannelData-backto-Axis" style="stroke:#181818;stroke-width:1.0;"/><polygon fill="#181818" points="1232.11,724.5,1238.11,728.5,1244.11,724.5,1238.11,720.5,1232.11,724.5" style="stroke:#181818;stroke-width:1.0;"/></g><!--SRC=[bLLDRzim3BtxLnYzB2lMOZlqKg03WXR3UkWmeBjrHS1QJ2fCNvFee5cG_pvAinsfi9FL9viY7zyZAVfT-2MD0m-w5axMdou-LbMZ88Jw1WZgRLNpev50nC_B-gvxJNRhI5eJs2naGyaajREUq3yyiZL2t7Q6TBheK8mxDmAyXqqoH-liVNfT8IswprtEf8Vf60NR-WOPAP2NPfLioeB8mxxUVBaeGl65q8XHF4ceIpGDpl5xhsr0xGl0WRlAMC9QuP8kwtj4zeHLhEJI-fzcA9gsebLuNbMfegTdzOavAKipO9wTfeDzBWYjnnINa-z8RvSIbTZLpWOP6x5eR6ie5FMT2Teul9A6iihSMIF9-cEuMYeb0pOsdXy0tTD_U9P2e7dydAUeydIvorxTq6bSowRKE-8rVv5XogUV3nwZDQWMI-Bx4bm_Wp6e3i0ChZ-ana2WtP6SVTaMI-a3BVgkJ9Uk2E9K_niJxqZlEQEUtOSuQ7WLSR9Mt_CCA_nkENXCScxRSX2xeLy2NwrlrcjGyW-AmYSHCCFPn8Nk7JZvYCSOkV5qFSq95Rni56gCCpz5TyWrNwE75HujGj4L8DuBZWwtGoEO2O5TqiFYHfYzHTXjR1dF-jkK7LaLuxhIpI8n8ROdSbZj6DqtzJ4cFQvrl-kkvwD5Vmtphpp0guNbnGsJDbiPpBixdMHxg8lxtO8XIPlo7zBotYijOQEVh7hrtu8dp4oxwYy0]--></g></svg>