<?xml version="1.0" encoding="us-ascii" standalone="no"?><svg xmlns="http://www.w3.org/2000/svg" xmlns:xlink="http://www.w3.org/1999/xlink" contentStyleType="text/css" height="408px" preserveAspectRatio="none" style="width:195px;height:408px;background:#FFFFFF;" version="1.1" viewBox="0 0 195 408" width="195px" zoomAndPan="magnify"><defs/><g><!--cluster evefile--><g id="cluster_evefile"><path d="M8.5,6 L53.5,6 A3.75,3.75 0 0 1 56,8.5 L63,28.4063 L185.5,28.4063 A2.5,2.5 0 0 1 188,30.9063 L188,236.5 A2.5,2.5 0 0 1 185.5,239 L8.5,239 A2.5,2.5 0 0 1 6,236.5 L6,8.5 A2.5,2.5 0 0 1 8.5,6 " fill="none" style="stroke:#000000;stroke-width:1.5;"/><line style="stroke:#000000;stroke-width:1.5;" x1="6" x2="63" y1="28.4063" y2="28.4063"/><text fill="#000000" font-family="sans-serif" font-size="14" font-weight="bold" lengthAdjust="spacing" textLength="44" x="10" y="20.9883">evefile</text></g><!--cluster entities--><g id="cluster_entities"><path d="M32.5,49 L82.5,49 A3.75,3.75 0 0 1 85,51.5 L92,71.4063 L161.5,71.4063 A2.5,2.5 0 0 1 164,73.9063 L164,212.5 A2.5,2.5 0 0 1 161.5,215 L32.5,215 A2.5,2.5 0 0 1 30,212.5 L30,51.5 A2.5,2.5 0 0 1 32.5,49 " fill="none" style="stroke:#000000;stroke-width:1.5;"/><line style="stroke:#000000;stroke-width:1.5;" x1="30" x2="92" y1="71.4063" y2="71.4063"/><text fill="#000000" font-family="sans-serif" font-size="14" font-weight="bold" lengthAdjust="spacing" textLength="49" x="34" y="63.9883">entities</text></g><!--cluster file--><g id="cluster_file"><path d="M56.5,92 L78.5,92 A3.75,3.75 0 0 1 81,94.5 L88,114.4063 L137.5,114.4063 A2.5,2.5 0 0 1 140,116.9063 L140,188.5 A2.5,2.5 0 0 1 137.5,191 L56.5,191 A2.5,2.5 0 0 1 54,188.5 L54,94.5 A2.5,2.5 0 0 1 56.5,92 " fill="none" style="stroke:#000000;stroke-width:1.5;"/><line style="stroke:#000000;stroke-width:1.5;" x1="54" x2="88" y1="114.4063" y2="114.4063"/><text fill="#000000" font-family="sans-serif" font-size="14" font-weight="bold" lengthAdjust="spacing" textLength="21" x="58" y="106.9883">file</text></g><!--class File--><g id="elem_File"><rect fill="#F1F1F1" height="48" id="File" rx="2.5" ry="2.5" style="stroke:#181818;stroke-width:0.5;" width="53" x="70.5" y="127"/><ellipse cx="85.5" cy="143" fill="#ADD1B2" rx="11" ry="11" style="stroke:#181818;stroke-width:1.0;"/><path d="M85.5469,149.2031 C87.0469,149.2031 88.2813,148.6406 89.1875,147.5781 L87.8125,146.0625 C87.2656,146.6563 86.6094,147.0469 85.8125,147.0469 C84.1406,147.0469 82.9844,145.7188 82.9844,143.4375 C82.9844,141.2188 84.1406,139.875 85.7031,139.875 C86.5156,139.875 87.1094,140.1875 87.6406,140.6719 L89.0156,139.125 C88.2656,138.3906 87.1094,137.7188 85.7031,137.7188 C82.75,137.7188 80.4219,139.8594 80.4219,143.5313 C80.4219,147.25 82.7969,149.2031 85.5469,149.2031 Z " fill="#000000"/><text fill="#000000" font-family="sans-serif" font-size="14" lengthAdjust="spacing" textLength="21" x="99.5" y="147.7852">File</text><line style="stroke:#181818;stroke-width:0.5;" x1="71.5" x2="122.5" y1="159" y2="159"/><line style="stroke:#181818;stroke-width:0.5;" x1="71.5" x2="122.5" y1="167" y2="167"/></g><!--class EveFile--><g id="elem_EveFile"><rect codeLine="3" fill="#F1F1F1" height="146.4375" id="EveFile" rx="2.5" ry="2.5" style="stroke:#181818;stroke-width:0.5;" width="140" x="27" y="255"/><ellipse cx="71.25" cy="271" fill="#ADD1B2" rx="11" ry="11" style="stroke:#181818;stroke-width:1.0;"/><path d="M71.2969,277.2031 C72.7969,277.2031 74.0313,276.6406 74.9375,275.5781 L73.5625,274.0625 C73.0156,274.6563 72.3594,275.0469 71.5625,275.0469 C69.8906,275.0469 68.7344,273.7188 68.7344,271.4375 C68.7344,269.2188 69.8906,267.875 71.4531,267.875 C72.2656,267.875 72.8594,268.1875 73.3906,268.6719 L74.7656,267.125 C74.0156,266.3906 72.8594,265.7188 71.4531,265.7188 C68.5,265.7188 66.1719,267.8594 66.1719,271.5313 C66.1719,275.25 68.5469,277.2031 71.2969,277.2031 Z " fill="#000000"/><text fill="#000000" font-family="sans-serif" font-size="14" lengthAdjust="spacing" textLength="43" x="91.75" y="275.7852">EveFile</text><line style="stroke:#181818;stroke-width:0.5;" x1="28" x2="166" y1="287" y2="287"/><line style="stroke:#181818;stroke-width:0.5;" x1="28" x2="166" y1="295" y2="295"/><text fill="#000000" font-family="sans-serif" font-size="14" lengthAdjust="spacing" textLength="65" x="33" y="311.9883">get_data()</text><text fill="#000000" font-family="sans-serif" font-size="14" lengthAdjust="spacing" textLength="113" x="33" y="328.3945">get_data_names()</text><text fill="#000000" font-family="sans-serif" font-size="14" lengthAdjust="spacing" textLength="128" x="33" y="344.8008">get_preferred_data()</text><text fill="#000000" font-family="sans-serif" font-size="14" lengthAdjust="spacing" textLength="108" x="33" y="361.207">get_joined_data()</text><text fill="#000000" font-family="sans-serif" font-size="14" lengthAdjust="spacing" textLength="102" x="33" y="377.6133">get_dataframe()</text><text fill="#000000" font-family="sans-serif" font-size="14" lengthAdjust="spacing" textLength="74" x="33" y="394.0195">show_info()</text></g><!--reverse link File to EveFile--><g id="link_File_EveFile"><path d="M97,193.24 C97,213.6 97,226.31 97,254.79 " fill="none" id="File-backto-EveFile" style="stroke:#181818;stroke-width:1.0;"/><polygon fill="none" points="97,175.24,91,193.24,103,193.24,97,175.24" style="stroke:#181818;stroke-width:1.0;"/></g><!--SRC=[PSux3i8m44NHtgjm1nGaFJrimnh5pucHV_8C0GcnTun5mMUwS_MAsImYXG_ZM08bkSGmJ3cEKo3clVKqLufATUhZYfCFqBW9acMD5QvvG18l7ZnqzSbTwNOpn5WIskw-Q195y4Si5Gwrmlwkpzcd__gYQt_XtNZ9L-EJoyqFzGG0]--></g></svg>