<?xml version="1.0" encoding="us-ascii" standalone="no"?><svg xmlns="http://www.w3.org/2000/svg" xmlns:xlink="http://www.w3.org/1999/xlink" contentStyleType="text/css" height="657px" preserveAspectRatio="none" style="width:1215px;height:657px;background:#FFFFFF;" version="1.1" viewBox="0 0 1215 657" width="1215px" zoomAndPan="magnify"><defs/><g><!--class Metadata--><g id="elem_Metadata"><rect codeLine="2" fill="#F1F1F1" height="80.5938" id="Metadata" rx="2.5" ry="2.5" style="stroke:#181818;stroke-width:0.5;" width="106" x="532.5" y="7"/><ellipse cx="550.65" cy="23" fill="#ADD1B2" rx="11" ry="11" style="stroke:#181818;stroke-width:1.0;"/><path d="M553.6344,28.6406 Q553.0563,28.9375 552.4156,29.0781 Q551.775,29.2344 551.0719,29.2344 Q548.5563,29.2344 547.2281,27.5938 Q545.9156,25.9375 545.9156,22.8125 Q545.9156,19.6719 547.2281,18.0313 Q548.5563,16.375 551.0719,16.375 Q551.775,16.375 552.4156,16.5313 Q553.0719,16.6719 553.6344,16.9688 L553.6344,19.6875 Q552.9938,19.1094 552.4,18.8438 Q551.8063,18.5781 551.1813,18.5781 Q549.8375,18.5781 549.15,19.6406 Q548.4625,20.7031 548.4625,22.8125 Q548.4625,24.9063 549.15,25.9844 Q549.8375,27.0469 551.1813,27.0469 Q551.8063,27.0469 552.4,26.7813 Q552.9938,26.5 553.6344,25.9219 L553.6344,28.6406 Z " fill="#000000"/><text fill="#000000" font-family="sans-serif" font-size="14" lengthAdjust="spacing" textLength="67" x="565.35" y="27.8467">Metadata</text><line style="stroke:#181818;stroke-width:0.5;" x1="533.5" x2="637.5" y1="39" y2="39"/><text fill="#000000" font-family="sans-serif" font-size="14" lengthAdjust="spacing" textLength="94" x="538.5" y="55.9951">name : string</text><text fill="#000000" font-family="sans-serif" font-size="14" lengthAdjust="spacing" textLength="91" x="538.5" y="72.292">options : dict</text><line style="stroke:#181818;stroke-width:0.5;" x1="533.5" x2="637.5" y1="79.5938" y2="79.5938"/></g><path d="M673.5,15 L673.5,38.6992 L629.5,67.4453 L673.5,46.6992 L673.5,70.3984 A0,0 0 0 0 673.5,70.3984 L1165.5,70.3984 A0,0 0 0 0 1165.5,70.3984 L1165.5,25 L1155.5,15 L673.5,15 A0,0 0 0 0 673.5,15 " fill="#FEFFDD" style="stroke:#181818;stroke-width:0.5;"/><path d="M1155.5,15 L1155.5,25 L1165.5,25 L1155.5,15 " fill="#FEFFDD" style="stroke:#181818;stroke-width:0.5;"/><text fill="#000000" font-family="sans-serif" font-size="13" lengthAdjust="spacing" textLength="154" x="679.5" y="32.0669">The difference between</text><text fill="#000000" font-family="monospace" font-size="13" lengthAdjust="spacing" textLength="56" x="837.5" y="32.0669">options</text><text fill="#000000" font-family="sans-serif" font-size="13" lengthAdjust="spacing" textLength="138" x="897.5" y="32.0669">here in Metadata and</text><text fill="#000000" font-family="monospace" font-size="13" lengthAdjust="spacing" textLength="56" x="1039.5" y="32.0669">options</text><text fill="#000000" font-family="sans-serif" font-size="13" lengthAdjust="spacing" textLength="51" x="1099.5" y="32.0669">in Data:</text><text fill="#000000" font-family="sans-serif" font-size="13" lengthAdjust="spacing" textLength="456" x="679.5" y="47.1997">Options in Data vary potentially for each data point, hence are arrays,</text><text fill="#000000" font-family="sans-serif" font-size="13" lengthAdjust="spacing" textLength="469" x="679.5" y="62.3325">while options in Metadata are scalar and don't change for a Data object.</text><!--class Data--><g id="elem_Data"><rect codeLine="12" fill="#F1F1F1" height="48" id="Data" rx="2.5" ry="2.5" style="stroke:#181818;stroke-width:0.5;" width="66" x="857.5" y="172.5"/><ellipse cx="872.5" cy="188.5" fill="#ADD1B2" rx="11" ry="11" style="stroke:#181818;stroke-width:1.0;"/><path d="M875.4844,194.1406 Q874.9063,194.4375 874.2656,194.5781 Q873.625,194.7344 872.9219,194.7344 Q870.4063,194.7344 869.0781,193.0938 Q867.7656,191.4375 867.7656,188.3125 Q867.7656,185.1719 869.0781,183.5313 Q870.4063,181.875 872.9219,181.875 Q873.625,181.875 874.2656,182.0313 Q874.9219,182.1719 875.4844,182.4688 L875.4844,185.1875 Q874.8438,184.6094 874.25,184.3438 Q873.6563,184.0781 873.0313,184.0781 Q871.6875,184.0781 871,185.1406 Q870.3125,186.2031 870.3125,188.3125 Q870.3125,190.4063 871,191.4844 Q871.6875,192.5469 873.0313,192.5469 Q873.6563,192.5469 874.25,192.2813 Q874.8438,192 875.4844,191.4219 L875.4844,194.1406 Z " fill="#000000"/><text fill="#000000" font-family="sans-serif" font-size="14" lengthAdjust="spacing" textLength="34" x="886.5" y="193.3467">Data</text><line style="stroke:#181818;stroke-width:0.5;" x1="858.5" x2="922.5" y1="204.5" y2="204.5"/><line style="stroke:#181818;stroke-width:0.5;" x1="858.5" x2="922.5" y1="212.5" y2="212.5"/></g><g id="elem_GMN6"><path d="M950,317 L950,357.2656 A0,0 0 0 0 950,357.2656 L1075,357.2656 A0,0 0 0 0 1075,357.2656 L1075,327 L1065,317 L999.56,317 L910.92,220.68 L991.56,317 L950,317 A0,0 0 0 0 950,317 " fill="#FEFFDD" style="stroke:#181818;stroke-width:0.5;"/><path d="M1065,317 L1065,327 L1075,327 L1065,317 " fill="#FEFFDD" style="stroke:#181818;stroke-width:0.5;"/><text fill="#000000" font-family="sans-serif" font-size="13" lengthAdjust="spacing" textLength="104" x="956" y="334.0669">See diagram for</text><text fill="#000000" font-family="sans-serif" font-size="13" lengthAdjust="spacing" textLength="86" x="956" y="349.1997">data module.</text></g><!--class AbstractDeviceMetadata--><g id="elem_AbstractDeviceMetadata"><rect codeLine="16" fill="#F1F1F1" height="96.8906" id="AbstractDeviceMetadata" rx="2.5" ry="2.5" style="stroke:#181818;stroke-width:0.5;" width="207" x="192" y="148"/><ellipse cx="207" cy="164" fill="#B4A7E5" rx="11" ry="11" style="stroke:#181818;stroke-width:1.0;"/><path d="M202.9219,159.75 L202.9219,157.5938 L210.3125,157.5938 L210.3125,159.75 L207.8438,159.75 L207.8438,167.8438 L210.3125,167.8438 L210.3125,170 L202.9219,170 L202.9219,167.8438 L205.3906,167.8438 L205.3906,159.75 L202.9219,159.75 Z " fill="#000000"/><text fill="#000000" font-family="sans-serif" font-size="14" font-style="italic" lengthAdjust="spacing" textLength="175" x="221" y="168.8467">AbstractDeviceMetadata</text><line style="stroke:#181818;stroke-width:0.5;" x1="193" x2="398" y1="180" y2="180"/><text fill="#000000" font-family="sans-serif" font-size="14" lengthAdjust="spacing" textLength="66" x="198" y="196.9951">id : string</text><text fill="#000000" font-family="sans-serif" font-size="14" lengthAdjust="spacing" textLength="70" x="198" y="213.292">pv : string</text><text fill="#000000" font-family="sans-serif" font-size="14" lengthAdjust="spacing" textLength="149" x="198" y="229.5889">access_mode : string</text><line style="stroke:#181818;stroke-width:0.5;" x1="193" x2="398" y1="236.8906" y2="236.8906"/></g><!--class MeasureMetadata--><g id="elem_MeasureMetadata"><rect codeLine="22" fill="#F1F1F1" height="64.2969" id="MeasureMetadata" rx="2.5" ry="2.5" style="stroke:#181818;stroke-width:0.5;" width="160" x="505.5" y="164.5"/><ellipse cx="520.5" cy="180.5" fill="#ADD1B2" rx="11" ry="11" style="stroke:#181818;stroke-width:1.0;"/><path d="M523.4844,186.1406 Q522.9063,186.4375 522.2656,186.5781 Q521.625,186.7344 520.9219,186.7344 Q518.4063,186.7344 517.0781,185.0938 Q515.7656,183.4375 515.7656,180.3125 Q515.7656,177.1719 517.0781,175.5313 Q518.4063,173.875 520.9219,173.875 Q521.625,173.875 522.2656,174.0313 Q522.9219,174.1719 523.4844,174.4688 L523.4844,177.1875 Q522.8438,176.6094 522.25,176.3438 Q521.6563,176.0781 521.0313,176.0781 Q519.6875,176.0781 519,177.1406 Q518.3125,178.2031 518.3125,180.3125 Q518.3125,182.4063 519,183.4844 Q519.6875,184.5469 521.0313,184.5469 Q521.6563,184.5469 522.25,184.2813 Q522.8438,184 523.4844,183.4219 L523.4844,186.1406 Z " fill="#000000"/><text fill="#000000" font-family="sans-serif" font-size="14" lengthAdjust="spacing" textLength="128" x="534.5" y="185.3467">MeasureMetadata</text><line style="stroke:#181818;stroke-width:0.5;" x1="506.5" x2="664.5" y1="196.5" y2="196.5"/><text fill="#000000" font-family="sans-serif" font-size="14" lengthAdjust="spacing" textLength="80" x="511.5" y="213.4951">unit : string</text><line style="stroke:#181818;stroke-width:0.5;" x1="506.5" x2="664.5" y1="220.7969" y2="220.7969"/></g><!--class MonitorMetadata--><g id="elem_MonitorMetadata"><rect codeLine="26" fill="#F1F1F1" height="48" id="MonitorMetadata" rx="2.5" ry="2.5" style="stroke:#181818;stroke-width:0.5;" width="153" x="7" y="313"/><ellipse cx="22" cy="329" fill="#ADD1B2" rx="11" ry="11" style="stroke:#181818;stroke-width:1.0;"/><path d="M24.9844,334.6406 Q24.4063,334.9375 23.7656,335.0781 Q23.125,335.2344 22.4219,335.2344 Q19.9063,335.2344 18.5781,333.5938 Q17.2656,331.9375 17.2656,328.8125 Q17.2656,325.6719 18.5781,324.0313 Q19.9063,322.375 22.4219,322.375 Q23.125,322.375 23.7656,322.5313 Q24.4219,322.6719 24.9844,322.9688 L24.9844,325.6875 Q24.3438,325.1094 23.75,324.8438 Q23.1563,324.5781 22.5313,324.5781 Q21.1875,324.5781 20.5,325.6406 Q19.8125,326.7031 19.8125,328.8125 Q19.8125,330.9063 20.5,331.9844 Q21.1875,333.0469 22.5313,333.0469 Q23.1563,333.0469 23.75,332.7813 Q24.3438,332.5 24.9844,331.9219 L24.9844,334.6406 Z " fill="#000000"/><text fill="#000000" font-family="sans-serif" font-size="14" lengthAdjust="spacing" textLength="121" x="36" y="333.8467">MonitorMetadata</text><line style="stroke:#181818;stroke-width:0.5;" x1="8" x2="159" y1="345" y2="345"/><line style="stroke:#181818;stroke-width:0.5;" x1="8" x2="159" y1="353" y2="353"/></g><!--class DeviceMetadata--><g id="elem_DeviceMetadata"><rect codeLine="29" fill="#F1F1F1" height="48" id="DeviceMetadata" rx="2.5" ry="2.5" style="stroke:#181818;stroke-width:0.5;" width="148" x="359.5" y="313"/><ellipse cx="374.5" cy="329" fill="#ADD1B2" rx="11" ry="11" style="stroke:#181818;stroke-width:1.0;"/><path d="M377.4844,334.6406 Q376.9063,334.9375 376.2656,335.0781 Q375.625,335.2344 374.9219,335.2344 Q372.4063,335.2344 371.0781,333.5938 Q369.7656,331.9375 369.7656,328.8125 Q369.7656,325.6719 371.0781,324.0313 Q372.4063,322.375 374.9219,322.375 Q375.625,322.375 376.2656,322.5313 Q376.9219,322.6719 377.4844,322.9688 L377.4844,325.6875 Q376.8438,325.1094 376.25,324.8438 Q375.6563,324.5781 375.0313,324.5781 Q373.6875,324.5781 373,325.6406 Q372.3125,326.7031 372.3125,328.8125 Q372.3125,330.9063 373,331.9844 Q373.6875,333.0469 375.0313,333.0469 Q375.6563,333.0469 376.25,332.7813 Q376.8438,332.5 377.4844,331.9219 L377.4844,334.6406 Z " fill="#000000"/><text fill="#000000" font-family="sans-serif" font-size="14" lengthAdjust="spacing" textLength="116" x="388.5" y="333.8467">DeviceMetadata</text><line style="stroke:#181818;stroke-width:0.5;" x1="360.5" x2="506.5" y1="345" y2="345"/><line style="stroke:#181818;stroke-width:0.5;" x1="360.5" x2="506.5" y1="353" y2="353"/></g><!--class AxisMetadata--><g id="elem_AxisMetadata"><rect codeLine="32" fill="#F1F1F1" height="64.2969" id="AxisMetadata" rx="2.5" ry="2.5" style="stroke:#181818;stroke-width:0.5;" width="129" x="195" y="305"/><ellipse cx="210.45" cy="321" fill="#ADD1B2" rx="11" ry="11" style="stroke:#181818;stroke-width:1.0;"/><path d="M213.4344,326.6406 Q212.8563,326.9375 212.2156,327.0781 Q211.575,327.2344 210.8719,327.2344 Q208.3563,327.2344 207.0281,325.5938 Q205.7156,323.9375 205.7156,320.8125 Q205.7156,317.6719 207.0281,316.0313 Q208.3563,314.375 210.8719,314.375 Q211.575,314.375 212.2156,314.5313 Q212.8719,314.6719 213.4344,314.9688 L213.4344,317.6875 Q212.7938,317.1094 212.2,316.8438 Q211.6063,316.5781 210.9813,316.5781 Q209.6375,316.5781 208.95,317.6406 Q208.2625,318.7031 208.2625,320.8125 Q208.2625,322.9063 208.95,323.9844 Q209.6375,325.0469 210.9813,325.0469 Q211.6063,325.0469 212.2,324.7813 Q212.7938,324.5 213.4344,323.9219 L213.4344,326.6406 Z " fill="#000000"/><text fill="#000000" font-family="sans-serif" font-size="14" lengthAdjust="spacing" textLength="96" x="224.55" y="325.8467">AxisMetadata</text><line style="stroke:#181818;stroke-width:0.5;" x1="196" x2="323" y1="337" y2="337"/><text fill="#000000" font-family="sans-serif" font-size="14" lengthAdjust="spacing" textLength="117" x="201" y="353.9951">deadband : float</text><line style="stroke:#181818;stroke-width:0.5;" x1="196" x2="323" y1="361.2969" y2="361.2969"/></g><!--class ChannelMetadata--><g id="elem_ChannelMetadata"><rect codeLine="36" fill="#F1F1F1" height="48" id="ChannelMetadata" rx="2.5" ry="2.5" style="stroke:#181818;stroke-width:0.5;" width="158" x="542.5" y="313"/><ellipse cx="557.5" cy="329" fill="#ADD1B2" rx="11" ry="11" style="stroke:#181818;stroke-width:1.0;"/><path d="M560.4844,334.6406 Q559.9063,334.9375 559.2656,335.0781 Q558.625,335.2344 557.9219,335.2344 Q555.4063,335.2344 554.0781,333.5938 Q552.7656,331.9375 552.7656,328.8125 Q552.7656,325.6719 554.0781,324.0313 Q555.4063,322.375 557.9219,322.375 Q558.625,322.375 559.2656,322.5313 Q559.9219,322.6719 560.4844,322.9688 L560.4844,325.6875 Q559.8438,325.1094 559.25,324.8438 Q558.6563,324.5781 558.0313,324.5781 Q556.6875,324.5781 556,325.6406 Q555.3125,326.7031 555.3125,328.8125 Q555.3125,330.9063 556,331.9844 Q556.6875,333.0469 558.0313,333.0469 Q558.6563,333.0469 559.25,332.7813 Q559.8438,332.5 560.4844,331.9219 L560.4844,334.6406 Z " fill="#000000"/><text fill="#000000" font-family="sans-serif" font-size="14" lengthAdjust="spacing" textLength="126" x="571.5" y="333.8467">ChannelMetadata</text><line style="stroke:#181818;stroke-width:0.5;" x1="543.5" x2="699.5" y1="345" y2="345"/><line style="stroke:#181818;stroke-width:0.5;" x1="543.5" x2="699.5" y1="353" y2="353"/></g><!--class TimestampMetadata--><g id="elem_TimestampMetadata"><rect codeLine="39" fill="#F1F1F1" height="48" id="TimestampMetadata" rx="2.5" ry="2.5" style="stroke:#181818;stroke-width:0.5;" width="179" x="736" y="313"/><ellipse cx="751" cy="329" fill="#ADD1B2" rx="11" ry="11" style="stroke:#181818;stroke-width:1.0;"/><path d="M753.9844,334.6406 Q753.4063,334.9375 752.7656,335.0781 Q752.125,335.2344 751.4219,335.2344 Q748.9063,335.2344 747.5781,333.5938 Q746.2656,331.9375 746.2656,328.8125 Q746.2656,325.6719 747.5781,324.0313 Q748.9063,322.375 751.4219,322.375 Q752.125,322.375 752.7656,322.5313 Q753.4219,322.6719 753.9844,322.9688 L753.9844,325.6875 Q753.3438,325.1094 752.75,324.8438 Q752.1563,324.5781 751.5313,324.5781 Q750.1875,324.5781 749.5,325.6406 Q748.8125,326.7031 748.8125,328.8125 Q748.8125,330.9063 749.5,331.9844 Q750.1875,333.0469 751.5313,333.0469 Q752.1563,333.0469 752.75,332.7813 Q753.3438,332.5 753.9844,331.9219 L753.9844,334.6406 Z " fill="#000000"/><text fill="#000000" font-family="sans-serif" font-size="14" lengthAdjust="spacing" textLength="147" x="765" y="333.8467">TimestampMetadata</text><line style="stroke:#181818;stroke-width:0.5;" x1="737" x2="914" y1="345" y2="345"/><line style="stroke:#181818;stroke-width:0.5;" x1="737" x2="914" y1="353" y2="353"/></g><!--class AverageChannelMetadata--><g id="elem_AverageChannelMetadata"><rect codeLine="42" fill="#F1F1F1" height="113.1875" id="AverageChannelMetadata" rx="2.5" ry="2.5" style="stroke:#181818;stroke-width:0.5;" width="218" x="512.5" y="429"/><ellipse cx="527.5" cy="445" fill="#ADD1B2" rx="11" ry="11" style="stroke:#181818;stroke-width:1.0;"/><path d="M530.4844,450.6406 Q529.9063,450.9375 529.2656,451.0781 Q528.625,451.2344 527.9219,451.2344 Q525.4063,451.2344 524.0781,449.5938 Q522.7656,447.9375 522.7656,444.8125 Q522.7656,441.6719 524.0781,440.0313 Q525.4063,438.375 527.9219,438.375 Q528.625,438.375 529.2656,438.5313 Q529.9219,438.6719 530.4844,438.9688 L530.4844,441.6875 Q529.8438,441.1094 529.25,440.8438 Q528.6563,440.5781 528.0313,440.5781 Q526.6875,440.5781 526,441.6406 Q525.3125,442.7031 525.3125,444.8125 Q525.3125,446.9063 526,447.9844 Q526.6875,449.0469 528.0313,449.0469 Q528.6563,449.0469 529.25,448.7813 Q529.8438,448.5 530.4844,447.9219 L530.4844,450.6406 Z " fill="#000000"/><text fill="#000000" font-family="sans-serif" font-size="14" lengthAdjust="spacing" textLength="186" x="541.5" y="449.8467">AverageChannelMetadata</text><line style="stroke:#181818;stroke-width:0.5;" x1="513.5" x2="729.5" y1="461" y2="461"/><text fill="#000000" font-family="sans-serif" font-size="14" lengthAdjust="spacing" textLength="146" x="518.5" y="477.9951">n_averages : integer</text><text fill="#000000" font-family="sans-serif" font-size="14" lengthAdjust="spacing" textLength="107" x="518.5" y="494.292">low_limit : float</text><text fill="#000000" font-family="sans-serif" font-size="14" lengthAdjust="spacing" textLength="165" x="518.5" y="510.5889">max_attempts : integer</text><text fill="#000000" font-family="sans-serif" font-size="14" lengthAdjust="spacing" textLength="149" x="518.5" y="526.8857">max_deviation : float</text><line style="stroke:#181818;stroke-width:0.5;" x1="513.5" x2="729.5" y1="534.1875" y2="534.1875"/></g><!--class IntervalChannelMetadata--><g id="elem_IntervalChannelMetadata"><rect codeLine="49" fill="#F1F1F1" height="64.2969" id="IntervalChannelMetadata" rx="2.5" ry="2.5" style="stroke:#181818;stroke-width:0.5;" width="212" x="980.5" y="453.5"/><ellipse cx="995.5" cy="469.5" fill="#ADD1B2" rx="11" ry="11" style="stroke:#181818;stroke-width:1.0;"/><path d="M998.4844,475.1406 Q997.9063,475.4375 997.2656,475.5781 Q996.625,475.7344 995.9219,475.7344 Q993.4063,475.7344 992.0781,474.0938 Q990.7656,472.4375 990.7656,469.3125 Q990.7656,466.1719 992.0781,464.5313 Q993.4063,462.875 995.9219,462.875 Q996.625,462.875 997.2656,463.0313 Q997.9219,463.1719 998.4844,463.4688 L998.4844,466.1875 Q997.8438,465.6094 997.25,465.3438 Q996.6563,465.0781 996.0313,465.0781 Q994.6875,465.0781 994,466.1406 Q993.3125,467.2031 993.3125,469.3125 Q993.3125,471.4063 994,472.4844 Q994.6875,473.5469 996.0313,473.5469 Q996.6563,473.5469 997.25,473.2813 Q997.8438,473 998.4844,472.4219 L998.4844,475.1406 Z " fill="#000000"/><text fill="#000000" font-family="sans-serif" font-size="14" lengthAdjust="spacing" textLength="180" x="1009.5" y="474.3467">IntervalChannelMetadata</text><line style="stroke:#181818;stroke-width:0.5;" x1="981.5" x2="1191.5" y1="485.5" y2="485.5"/><text fill="#000000" font-family="sans-serif" font-size="14" lengthAdjust="spacing" textLength="154" x="986.5" y="502.4951">trigger_interval : float</text><line style="stroke:#181818;stroke-width:0.5;" x1="981.5" x2="1191.5" y1="509.7969" y2="509.7969"/></g><!--class NormalizedMetadata--><g id="elem_NormalizedMetadata"><rect codeLine="55" fill="#F1F1F1" height="64.2969" id="NormalizedMetadata" rx="2.5" ry="2.5" style="stroke:#181818;stroke-width:0.5;" width="180" x="765.5" y="453.5"/><ellipse cx="780.5" cy="469.5" fill="#B4A7E5" rx="11" ry="11" style="stroke:#181818;stroke-width:1.0;"/><path d="M776.4219,465.25 L776.4219,463.0938 L783.8125,463.0938 L783.8125,465.25 L781.3438,465.25 L781.3438,473.3438 L783.8125,473.3438 L783.8125,475.5 L776.4219,475.5 L776.4219,473.3438 L778.8906,473.3438 L778.8906,465.25 L776.4219,465.25 Z " fill="#000000"/><text fill="#000000" font-family="sans-serif" font-size="14" font-style="italic" lengthAdjust="spacing" textLength="148" x="794.5" y="474.3467">NormalizedMetadata</text><line style="stroke:#181818;stroke-width:0.5;" x1="766.5" x2="944.5" y1="485.5" y2="485.5"/><text fill="#000000" font-family="sans-serif" font-size="14" lengthAdjust="spacing" textLength="144" x="771.5" y="502.4951">normalize_id : string</text><line style="stroke:#181818;stroke-width:0.5;" x1="766.5" x2="944.5" y1="509.7969" y2="509.7969"/></g><!--class AverageNormalizedChannelMetadata--><g id="elem_AverageNormalizedChannelMetadata"><rect codeLine="59" fill="#F1F1F1" height="48" id="AverageNormalizedChannelMetadata" rx="2.5" ry="2.5" style="stroke:#181818;stroke-width:0.5;" width="299" x="557" y="602"/><ellipse cx="572" cy="618" fill="#ADD1B2" rx="11" ry="11" style="stroke:#181818;stroke-width:1.0;"/><path d="M574.9844,623.6406 Q574.4063,623.9375 573.7656,624.0781 Q573.125,624.2344 572.4219,624.2344 Q569.9063,624.2344 568.5781,622.5938 Q567.2656,620.9375 567.2656,617.8125 Q567.2656,614.6719 568.5781,613.0313 Q569.9063,611.375 572.4219,611.375 Q573.125,611.375 573.7656,611.5313 Q574.4219,611.6719 574.9844,611.9688 L574.9844,614.6875 Q574.3438,614.1094 573.75,613.8438 Q573.1563,613.5781 572.5313,613.5781 Q571.1875,613.5781 570.5,614.6406 Q569.8125,615.7031 569.8125,617.8125 Q569.8125,619.9063 570.5,620.9844 Q571.1875,622.0469 572.5313,622.0469 Q573.1563,622.0469 573.75,621.7813 Q574.3438,621.5 574.9844,620.9219 L574.9844,623.6406 Z " fill="#000000"/><text fill="#000000" font-family="sans-serif" font-size="14" lengthAdjust="spacing" textLength="267" x="586" y="622.8467">AverageNormalizedChannelMetadata</text><line style="stroke:#181818;stroke-width:0.5;" x1="558" x2="855" y1="634" y2="634"/><line style="stroke:#181818;stroke-width:0.5;" x1="558" x2="855" y1="642" y2="642"/></g><!--class IntervalNormalizedChannelMetadata--><g id="elem_IntervalNormalizedChannelMetadata"><rect codeLine="61" fill="#F1F1F1" height="48" id="IntervalNormalizedChannelMetadata" rx="2.5" ry="2.5" style="stroke:#181818;stroke-width:0.5;" width="293" x="915" y="602"/><ellipse cx="930" cy="618" fill="#ADD1B2" rx="11" ry="11" style="stroke:#181818;stroke-width:1.0;"/><path d="M932.9844,623.6406 Q932.4063,623.9375 931.7656,624.0781 Q931.125,624.2344 930.4219,624.2344 Q927.9063,624.2344 926.5781,622.5938 Q925.2656,620.9375 925.2656,617.8125 Q925.2656,614.6719 926.5781,613.0313 Q927.9063,611.375 930.4219,611.375 Q931.125,611.375 931.7656,611.5313 Q932.4219,611.6719 932.9844,611.9688 L932.9844,614.6875 Q932.3438,614.1094 931.75,613.8438 Q931.1563,613.5781 930.5313,613.5781 Q929.1875,613.5781 928.5,614.6406 Q927.8125,615.7031 927.8125,617.8125 Q927.8125,619.9063 928.5,620.9844 Q929.1875,622.0469 930.5313,622.0469 Q931.1563,622.0469 931.75,621.7813 Q932.3438,621.5 932.9844,620.9219 L932.9844,623.6406 Z " fill="#000000"/><text fill="#000000" font-family="sans-serif" font-size="14" lengthAdjust="spacing" textLength="261" x="944" y="622.8467">IntervalNormalizedChannelMetadata</text><line style="stroke:#181818;stroke-width:0.5;" x1="916" x2="1207" y1="634" y2="634"/><line style="stroke:#181818;stroke-width:0.5;" x1="916" x2="1207" y1="642" y2="642"/></g><!--class ArrayChannelMetadata--><g id="elem_ArrayChannelMetadata"><rect codeLine="63" fill="#F1F1F1" height="48" id="ArrayChannelMetadata" rx="2.5" ry="2.5" style="stroke:#181818;stroke-width:0.5;" width="197" x="280" y="461.5"/><ellipse cx="295" cy="477.5" fill="#ADD1B2" rx="11" ry="11" style="stroke:#181818;stroke-width:1.0;"/><path d="M297.9844,483.1406 Q297.4063,483.4375 296.7656,483.5781 Q296.125,483.7344 295.4219,483.7344 Q292.9063,483.7344 291.5781,482.0938 Q290.2656,480.4375 290.2656,477.3125 Q290.2656,474.1719 291.5781,472.5313 Q292.9063,470.875 295.4219,470.875 Q296.125,470.875 296.7656,471.0313 Q297.4219,471.1719 297.9844,471.4688 L297.9844,474.1875 Q297.3438,473.6094 296.75,473.3438 Q296.1563,473.0781 295.5313,473.0781 Q294.1875,473.0781 293.5,474.1406 Q292.8125,475.2031 292.8125,477.3125 Q292.8125,479.4063 293.5,480.4844 Q294.1875,481.5469 295.5313,481.5469 Q296.1563,481.5469 296.75,481.2813 Q297.3438,481 297.9844,480.4219 L297.9844,483.1406 Z " fill="#000000"/><text fill="#000000" font-family="sans-serif" font-size="14" lengthAdjust="spacing" textLength="165" x="309" y="482.3467">ArrayChannelMetadata</text><line style="stroke:#181818;stroke-width:0.5;" x1="281" x2="476" y1="493.5" y2="493.5"/><line style="stroke:#181818;stroke-width:0.5;" x1="281" x2="476" y1="501.5" y2="501.5"/></g><!--class MCAChannelMetadata--><g id="elem_MCAChannelMetadata"><rect codeLine="65" fill="#F1F1F1" height="48" id="MCAChannelMetadata" rx="2.5" ry="2.5" style="stroke:#181818;stroke-width:0.5;" width="190" x="283.5" y="602"/><ellipse cx="298.5" cy="618" fill="#ADD1B2" rx="11" ry="11" style="stroke:#181818;stroke-width:1.0;"/><path d="M301.4844,623.6406 Q300.9063,623.9375 300.2656,624.0781 Q299.625,624.2344 298.9219,624.2344 Q296.4063,624.2344 295.0781,622.5938 Q293.7656,620.9375 293.7656,617.8125 Q293.7656,614.6719 295.0781,613.0313 Q296.4063,611.375 298.9219,611.375 Q299.625,611.375 300.2656,611.5313 Q300.9219,611.6719 301.4844,611.9688 L301.4844,614.6875 Q300.8438,614.1094 300.25,613.8438 Q299.6563,613.5781 299.0313,613.5781 Q297.6875,613.5781 297,614.6406 Q296.3125,615.7031 296.3125,617.8125 Q296.3125,619.9063 297,620.9844 Q297.6875,622.0469 299.0313,622.0469 Q299.6563,622.0469 300.25,621.7813 Q300.8438,621.5 301.4844,620.9219 L301.4844,623.6406 Z " fill="#000000"/><text fill="#000000" font-family="sans-serif" font-size="14" lengthAdjust="spacing" textLength="158" x="312.5" y="622.8467">MCAChannelMetadata</text><line style="stroke:#181818;stroke-width:0.5;" x1="284.5" x2="472.5" y1="634" y2="634"/><line style="stroke:#181818;stroke-width:0.5;" x1="284.5" x2="472.5" y1="642" y2="642"/></g><!--reverse link Metadata to MeasureMetadata--><g id="link_Metadata_MeasureMetadata"><path d="M585.5,106.28 C585.5,130.09 585.5,141.92 585.5,164.07 " fill="none" id="Metadata-backto-MeasureMetadata" style="stroke:#181818;stroke-width:1.0;"/><polygon fill="none" points="585.5,88.28,579.5,106.28,591.5,106.28,585.5,88.28" style="stroke:#181818;stroke-width:1.0;"/></g><!--reverse link Metadata to MonitorMetadata--><g id="link_Metadata_MonitorMetadata"><path d="M514.5127,58.1978 C416.3627,72.2878 229.5,103.64 174.5,148 C121.16,191.03 96.98,272.99 87.98,312.95 " fill="none" id="Metadata-backto-MonitorMetadata" style="stroke:#181818;stroke-width:1.0;"/><polygon fill="none" points="532.33,55.64,513.6601,52.2587,515.3653,64.1369,532.33,55.64" style="stroke:#181818;stroke-width:1.0;"/></g><!--reverse link AbstractDeviceMetadata to MonitorMetadata--><g id="link_AbstractDeviceMetadata_MonitorMetadata"><path d="M207.4719,255.0064 C172.3819,277.9364 146.99,294.52 118.79,312.94 " fill="none" id="AbstractDeviceMetadata-backto-MonitorMetadata" style="stroke:#181818;stroke-width:1.0;stroke-dasharray:7.0,7.0;"/><polygon fill="none" points="222.54,245.16,204.1898,249.9837,210.754,260.0291,222.54,245.16" style="stroke:#181818;stroke-width:1.0;"/></g><!--reverse link MeasureMetadata to DeviceMetadata--><g id="link_MeasureMetadata_DeviceMetadata"><path d="M538.0844,240.7028 C510.0744,266.2228 484.33,289.68 458.98,312.78 " fill="none" id="MeasureMetadata-backto-DeviceMetadata" style="stroke:#181818;stroke-width:1.0;"/><polygon fill="none" points="551.39,228.58,534.0435,236.2676,542.1253,245.138,551.39,228.58" style="stroke:#181818;stroke-width:1.0;"/></g><!--reverse link AbstractDeviceMetadata to DeviceMetadata--><g id="link_AbstractDeviceMetadata_DeviceMetadata"><path d="M355.6956,257.9102 C378.4656,280.7602 391.99,294.34 410.34,312.75 " fill="none" id="AbstractDeviceMetadata-backto-DeviceMetadata" style="stroke:#181818;stroke-width:1.0;stroke-dasharray:7.0,7.0;"/><polygon fill="none" points="342.99,245.16,351.4455,262.1454,359.9457,253.675,342.99,245.16" style="stroke:#181818;stroke-width:1.0;"/></g><!--reverse link MeasureMetadata to AxisMetadata--><g id="link_MeasureMetadata_AxisMetadata"><path d="M495.7733,235.6189 C439.2633,259.6289 378.38,285.49 324.14,308.54 " fill="none" id="MeasureMetadata-backto-AxisMetadata" style="stroke:#181818;stroke-width:1.0;"/><polygon fill="none" points="512.34,228.58,493.427,230.0966,498.1196,241.1411,512.34,228.58" style="stroke:#181818;stroke-width:1.0;"/></g><!--reverse link AbstractDeviceMetadata to AxisMetadata--><g id="link_AbstractDeviceMetadata_AxisMetadata"><path d="M278.5865,262.5824 C273.4665,282.3024 272.19,287.2 267.62,304.77 " fill="none" id="AbstractDeviceMetadata-backto-AxisMetadata" style="stroke:#181818;stroke-width:1.0;stroke-dasharray:7.0,7.0;"/><polygon fill="none" points="283.11,245.16,272.7791,261.0745,284.394,264.0902,283.11,245.16" style="stroke:#181818;stroke-width:1.0;"/></g><!--reverse link MeasureMetadata to ChannelMetadata--><g id="link_MeasureMetadata_ChannelMetadata"><path d="M598.1061,246.0017 C604.7361,271.5217 609.46,289.68 615.46,312.78 " fill="none" id="MeasureMetadata-backto-ChannelMetadata" style="stroke:#181818;stroke-width:1.0;"/><polygon fill="none" points="593.58,228.58,592.2989,247.5104,603.9133,244.493,593.58,228.58" style="stroke:#181818;stroke-width:1.0;"/></g><!--reverse link AbstractDeviceMetadata to ChannelMetadata--><g id="link_AbstractDeviceMetadata_ChannelMetadata"><path d="M415.6659,248.5507 C471.4059,272.2407 521.33,293.44 567,312.84 " fill="none" id="AbstractDeviceMetadata-backto-ChannelMetadata" style="stroke:#181818;stroke-width:1.0;stroke-dasharray:7.0,7.0;"/><polygon fill="none" points="399.1,241.51,413.319,254.0726,418.0128,243.0287,399.1,241.51" style="stroke:#181818;stroke-width:1.0;"/></g><!--reverse link MeasureMetadata to TimestampMetadata--><g id="link_MeasureMetadata_TimestampMetadata"><path d="M654.9502,237.577 C699.3102,263.177 745.63,289.91 785.64,313 " fill="none" id="MeasureMetadata-backto-TimestampMetadata" style="stroke:#181818;stroke-width:1.0;"/><polygon fill="none" points="639.36,228.58,651.9512,242.7738,657.9492,232.3803,639.36,228.58" style="stroke:#181818;stroke-width:1.0;"/></g><!--reverse link ChannelMetadata to AverageChannelMetadata--><g id="link_ChannelMetadata_AverageChannelMetadata"><path d="M621.5,379.21 C621.5,397.37 621.5,405.37 621.5,428.83 " fill="none" id="ChannelMetadata-backto-AverageChannelMetadata" style="stroke:#181818;stroke-width:1.0;"/><polygon fill="none" points="621.5,361.21,615.5,379.21,627.5,379.21,621.5,361.21" style="stroke:#181818;stroke-width:1.0;"/></g><!--reverse link ChannelMetadata to IntervalChannelMetadata--><g id="link_ChannelMetadata_IntervalChannelMetadata"><path d="M708.7311,366.3029 C717.7811,369.0929 709.74,366.53 718.5,369 C825.97,399.35 856.89,392.71 962.5,429 C982.58,435.9 1003.86,444.81 1023.02,453.46 " fill="none" id="ChannelMetadata-backto-IntervalChannelMetadata" style="stroke:#181818;stroke-width:1.0;"/><polygon fill="none" points="691.53,361,706.9635,372.0366,710.4988,360.5692,691.53,361" style="stroke:#181818;stroke-width:1.0;"/></g><!--link Metadata to Data--><g id="link_Metadata_Data"><path codeLine="53" d="M638.75,79.16 C644.37,82.22 650.03,85.21 655.5,88 C726.25,124.06 800.4887,156.9033 846.3687,176.6633 " fill="none" id="Metadata-to-Data" style="stroke:#181818;stroke-width:1.0;"/><polygon fill="#181818" points="857.39,181.41,853.4616,175.3629,846.3687,176.6633,850.2971,182.7104,857.39,181.41" style="stroke:#181818;stroke-width:1.0;"/></g><!--reverse link AverageChannelMetadata to AverageNormalizedChannelMetadata--><g id="link_AverageChannelMetadata_AverageNormalizedChannelMetadata"><path d="M664.9957,557.3809 C677.8357,578.3009 682.33,585.62 692.36,601.96 " fill="none" id="AverageChannelMetadata-backto-AverageNormalizedChannelMetadata" style="stroke:#181818;stroke-width:1.0;"/><polygon fill="none" points="655.58,542.04,659.8821,560.5195,670.1094,554.2423,655.58,542.04" style="stroke:#181818;stroke-width:1.0;"/></g><!--reverse link NormalizedMetadata to AverageNormalizedChannelMetadata--><g id="link_NormalizedMetadata_AverageNormalizedChannelMetadata"><path d="M808.8771,529.836 C781.4271,555.356 756.33,578.68 731.48,601.78 " fill="none" id="NormalizedMetadata-backto-AverageNormalizedChannelMetadata" style="stroke:#181818;stroke-width:1.0;stroke-dasharray:7.0,7.0;"/><polygon fill="none" points="822.06,517.58,804.7917,525.4417,812.9624,534.2303,822.06,517.58" style="stroke:#181818;stroke-width:1.0;"/></g><!--reverse link IntervalChannelMetadata to IntervalNormalizedChannelMetadata--><g id="link_IntervalChannelMetadata_IntervalNormalizedChannelMetadata"><path d="M1077.6902,535.2933 C1073.0802,560.8133 1069.86,578.68 1065.69,601.78 " fill="none" id="IntervalChannelMetadata-backto-IntervalNormalizedChannelMetadata" style="stroke:#181818;stroke-width:1.0;"/><polygon fill="none" points="1080.89,517.58,1071.7858,534.2267,1083.5947,536.3599,1080.89,517.58" style="stroke:#181818;stroke-width:1.0;"/></g><!--reverse link NormalizedMetadata to IntervalNormalizedChannelMetadata--><g id="link_NormalizedMetadata_IntervalNormalizedChannelMetadata"><path d="M916.6682,527.6225 C954.7482,553.2225 992.94,578.91 1027.28,602 " fill="none" id="NormalizedMetadata-backto-IntervalNormalizedChannelMetadata" style="stroke:#181818;stroke-width:1.0;stroke-dasharray:7.0,7.0;"/><polygon fill="none" points="901.73,517.58,913.3207,532.6019,920.0157,522.6431,901.73,517.58" style="stroke:#181818;stroke-width:1.0;"/></g><!--reverse link ChannelMetadata to ArrayChannelMetadata--><g id="link_ChannelMetadata_ArrayChannelMetadata"><path d="M567.8455,370.3448 C522.4055,397.7448 462.44,433.9 416.91,461.34 " fill="none" id="ChannelMetadata-backto-ArrayChannelMetadata" style="stroke:#181818;stroke-width:1.0;"/><polygon fill="none" points="583.26,361.05,564.7472,365.2067,570.9438,375.483,583.26,361.05" style="stroke:#181818;stroke-width:1.0;"/></g><!--reverse link ArrayChannelMetadata to MCAChannelMetadata--><g id="link_ArrayChannelMetadata_MCAChannelMetadata"><path d="M378.5,527.68 C378.5,553.25 378.5,576.15 378.5,601.74 " fill="none" id="ArrayChannelMetadata-backto-MCAChannelMetadata" style="stroke:#181818;stroke-width:1.0;"/><polygon fill="none" points="378.5,509.68,372.5,527.68,384.5,527.68,378.5,509.68" style="stroke:#181818;stroke-width:1.0;"/></g><!--SRC=[hLHDRzim3BtxLmYv31ZQ_W3VWkQoGxV3UXnWq19jQz278J5Eig7_VPJY9euJ8nrG0pwO7u-FZwIbWHZ52n8e811_2y6F0ukY5962Tcss-9wqTv6DIaigtWhd2KNGRKV2DwVyiXm3Sz9hXnpUD1ZGIHGrqWxHYTLg35gjHCS-eTsP03Xr4S2-JGBEW3z65gDH310EecScZZGOSn2D3m91TY9ZzLuxUk0QgJg4z0Oun8UCjUkqmLDV5nGuCaem438RvTqN4h83rs8k0CVYllwDafuAv9YaHb78hENcgECeKUs9l2t5JqnQG1l09f1VBfUoNcqDFXK54yNG0FDSromxIDhWe2NE1gFLvLZwuV8RfCGOAuQTpE_jdTaBGjo6CoRkMJbrDVsjqtGhsxFTX-LiRNk3bcSHbviueSqyPx1BYlSnfw3hlOwV0vbqK0YgJXjGYiPue7ETPru6X-QJsRzgYv70zdTnfoqF6A359KPp-tZV5HpJqa6drMinP8Vnkyfec-T_x3bPBUmh84BRqpmXkHIt1EcCheNwbjPw0FD_z7ZnMYvGwJ5xYdiAVNpycazjUZlVVR1Wz1zKyuRV7TNqWkOYdjEN-2weFPdpBGfNSjmlj2JSHokjqv_kWwgV3lnvlTZt3RZY7m00]--></g></svg>