<?xml version="1.0" encoding="us-ascii" standalone="no"?><svg xmlns="http://www.w3.org/2000/svg" xmlns:xlink="http://www.w3.org/1999/xlink" contentStyleType="text/css" height="915px" preserveAspectRatio="none" style="width:1018px;height:915px;background:#FFFFFF;" version="1.1" viewBox="0 0 1018 915" width="1018px" zoomAndPan="magnify"><defs/><g><!--class Data--><g id="elem_Data"><rect codeLine="3" fill="#F1F1F1" height="143.3396" id="Data" rx="2.5" ry="2.5" style="stroke:#181818;stroke-width:0.5;" width="180" x="341" y="7"/><ellipse cx="411.25" cy="23" fill="#ADD1B2" rx="11" ry="11" style="stroke:#181818;stroke-width:1.0;"/><path d="M410.7188,29.9219 Q408.9688,29.9219 407.8281,29.1875 Q406.7031,28.4375 406.1406,27.0938 Q405.5938,25.7344 405.5938,23.9375 Q405.5938,21.9063 406.25,20.4531 Q406.9063,19 408.1875,18.2188 Q409.4688,17.4375 411.3438,17.4375 Q412.2344,17.4375 412.9063,17.625 Q413.5781,17.7969 414.2656,18.1406 L413.4531,20.1563 Q412.8281,19.8438 412.2813,19.7188 Q411.75,19.5938 411.2656,19.5938 Q410.0938,19.5938 409.3906,20.125 Q408.6875,20.6563 408.3906,21.6094 Q408.0938,22.5625 408.0938,23.8281 Q408.0938,25.8438 408.8125,26.8125 Q409.5313,27.7656 411.125,27.7656 Q411.7188,27.7656 412.3438,27.6094 Q412.9688,27.4531 413.7969,27.0781 L413.7969,29.2969 Q413.0625,29.6094 412.2656,29.7656 Q411.4844,29.9219 410.7188,29.9219 Z " fill="#000000"/><text fill="#000000" font-family="sans-serif" font-size="14" lengthAdjust="spacing" textLength="31" x="431.75" y="28.432">Data</text><line style="stroke:#181818;stroke-width:0.5;" x1="342" x2="520" y1="39" y2="39"/><text fill="#000000" font-family="sans-serif" font-size="14" lengthAdjust="spacing" textLength="140" x="347" y="57.9659">metadata : Metadata</text><text fill="#000000" font-family="sans-serif" font-size="14" lengthAdjust="spacing" textLength="87" x="347" y="77.0339">options : dict</text><text fill="#000000" font-family="sans-serif" font-size="14" lengthAdjust="spacing" textLength="123" x="347" y="96.1018">_data : np.ndarray</text><text fill="#000000" font-family="sans-serif" font-size="14" lengthAdjust="spacing" textLength="168" x="347" y="115.1697">_importer : DataImporter</text><line style="stroke:#181818;stroke-width:0.5;" x1="342" x2="520" y1="123.2717" y2="123.2717"/><text fill="#000000" font-family="sans-serif" font-size="14" lengthAdjust="spacing" textLength="38" x="347" y="142.2376">data()</text></g><!--class Metadata--><g id="elem_Metadata"><rect codeLine="62" fill="#F1F1F1" height="86.1358" id="Metadata" rx="2.5" ry="2.5" style="stroke:#181818;stroke-width:0.5;" width="102" x="575" y="35.5"/><ellipse cx="592.7" cy="51.5" fill="#ADD1B2" rx="11" ry="11" style="stroke:#181818;stroke-width:1.0;"/><path d="M592.1688,58.4219 Q590.4188,58.4219 589.2781,57.6875 Q588.1531,56.9375 587.5906,55.5938 Q587.0438,54.2344 587.0438,52.4375 Q587.0438,50.4063 587.7,48.9531 Q588.3563,47.5 589.6375,46.7188 Q590.9188,45.9375 592.7938,45.9375 Q593.6844,45.9375 594.3563,46.125 Q595.0281,46.2969 595.7156,46.6406 L594.9031,48.6563 Q594.2781,48.3438 593.7313,48.2188 Q593.2,48.0938 592.7156,48.0938 Q591.5438,48.0938 590.8406,48.625 Q590.1375,49.1563 589.8406,50.1094 Q589.5438,51.0625 589.5438,52.3281 Q589.5438,54.3438 590.2625,55.3125 Q590.9813,56.2656 592.575,56.2656 Q593.1688,56.2656 593.7938,56.1094 Q594.4188,55.9531 595.2469,55.5781 L595.2469,57.7969 Q594.5125,58.1094 593.7156,58.2656 Q592.9344,58.4219 592.1688,58.4219 Z " fill="#000000"/><text fill="#000000" font-family="sans-serif" font-size="14" lengthAdjust="spacing" textLength="64" x="607.3" y="56.932">Metadata</text><line style="stroke:#181818;stroke-width:0.5;" x1="576" x2="676" y1="67.5" y2="67.5"/><text fill="#000000" font-family="sans-serif" font-size="14" lengthAdjust="spacing" textLength="90" x="581" y="86.4659">name : string</text><text fill="#000000" font-family="sans-serif" font-size="14" lengthAdjust="spacing" textLength="87" x="581" y="105.5339">options : dict</text><line style="stroke:#181818;stroke-width:0.5;" x1="576" x2="676" y1="113.6358" y2="113.6358"/></g><!--class MeasureData--><g id="elem_MeasureData"><rect codeLine="13" fill="#F1F1F1" height="67.0679" id="MeasureData" rx="2.5" ry="2.5" style="stroke:#181818;stroke-width:0.5;" width="276" x="256" y="229"/><ellipse cx="344.75" cy="245" fill="#ADD1B2" rx="11" ry="11" style="stroke:#181818;stroke-width:1.0;"/><path d="M344.2188,251.9219 Q342.4688,251.9219 341.3281,251.1875 Q340.2031,250.4375 339.6406,249.0938 Q339.0938,247.7344 339.0938,245.9375 Q339.0938,243.9063 339.75,242.4531 Q340.4063,241 341.6875,240.2188 Q342.9688,239.4375 344.8438,239.4375 Q345.7344,239.4375 346.4063,239.625 Q347.0781,239.7969 347.7656,240.1406 L346.9531,242.1563 Q346.3281,241.8438 345.7813,241.7188 Q345.25,241.5938 344.7656,241.5938 Q343.5938,241.5938 342.8906,242.125 Q342.1875,242.6563 341.8906,243.6094 Q341.5938,244.5625 341.5938,245.8281 Q341.5938,247.8438 342.3125,248.8125 Q343.0313,249.7656 344.625,249.7656 Q345.2188,249.7656 345.8438,249.6094 Q346.4688,249.4531 347.2969,249.0781 L347.2969,251.2969 Q346.5625,251.6094 345.7656,251.7656 Q344.9844,251.9219 344.2188,251.9219 Z " fill="#000000"/><text fill="#000000" font-family="sans-serif" font-size="14" lengthAdjust="spacing" textLength="90" x="365.25" y="250.432">MeasureData</text><line style="stroke:#181818;stroke-width:0.5;" x1="257" x2="531" y1="261" y2="261"/><text fill="#000000" font-family="sans-serif" font-size="14" lengthAdjust="spacing" textLength="264" x="262" y="279.9659">position_counts : np.ndarray(dtype=int)</text><line style="stroke:#181818;stroke-width:0.5;" x1="257" x2="531" y1="288.0679" y2="288.0679"/></g><!--class MeasureMetadata--><g id="elem_MeasureMetadata"><rect codeLine="67" fill="#F1F1F1" height="67.0679" id="MeasureMetadata" rx="2.5" ry="2.5" style="stroke:#181818;stroke-width:0.5;" width="155" x="567.5" y="229"/><ellipse cx="582.5" cy="245" fill="#ADD1B2" rx="11" ry="11" style="stroke:#181818;stroke-width:1.0;"/><path d="M581.9688,251.9219 Q580.2188,251.9219 579.0781,251.1875 Q577.9531,250.4375 577.3906,249.0938 Q576.8438,247.7344 576.8438,245.9375 Q576.8438,243.9063 577.5,242.4531 Q578.1563,241 579.4375,240.2188 Q580.7188,239.4375 582.5938,239.4375 Q583.4844,239.4375 584.1563,239.625 Q584.8281,239.7969 585.5156,240.1406 L584.7031,242.1563 Q584.0781,241.8438 583.5313,241.7188 Q583,241.5938 582.5156,241.5938 Q581.3438,241.5938 580.6406,242.125 Q579.9375,242.6563 579.6406,243.6094 Q579.3438,244.5625 579.3438,245.8281 Q579.3438,247.8438 580.0625,248.8125 Q580.7813,249.7656 582.375,249.7656 Q582.9688,249.7656 583.5938,249.6094 Q584.2188,249.4531 585.0469,249.0781 L585.0469,251.2969 Q584.3125,251.6094 583.5156,251.7656 Q582.7344,251.9219 581.9688,251.9219 Z " fill="#000000"/><text fill="#000000" font-family="sans-serif" font-size="14" lengthAdjust="spacing" textLength="123" x="596.5" y="250.432">MeasureMetadata</text><line style="stroke:#181818;stroke-width:0.5;" x1="568.5" x2="721.5" y1="261" y2="261"/><text fill="#000000" font-family="sans-serif" font-size="14" lengthAdjust="spacing" textLength="79" x="573.5" y="279.9659">unit : string</text><line style="stroke:#181818;stroke-width:0.5;" x1="568.5" x2="721.5" y1="288.0679" y2="288.0679"/></g><!--class ChannelData--><g id="elem_ChannelData"><rect codeLine="19" fill="#F1F1F1" height="48" id="ChannelData" rx="2.5" ry="2.5" style="stroke:#181818;stroke-width:0.5;" width="119" x="334.5" y="375"/><ellipse cx="349.5" cy="391" fill="#ADD1B2" rx="11" ry="11" style="stroke:#181818;stroke-width:1.0;"/><path d="M348.9688,397.9219 Q347.2188,397.9219 346.0781,397.1875 Q344.9531,396.4375 344.3906,395.0938 Q343.8438,393.7344 343.8438,391.9375 Q343.8438,389.9063 344.5,388.4531 Q345.1563,387 346.4375,386.2188 Q347.7188,385.4375 349.5938,385.4375 Q350.4844,385.4375 351.1563,385.625 Q351.8281,385.7969 352.5156,386.1406 L351.7031,388.1563 Q351.0781,387.8438 350.5313,387.7188 Q350,387.5938 349.5156,387.5938 Q348.3438,387.5938 347.6406,388.125 Q346.9375,388.6563 346.6406,389.6094 Q346.3438,390.5625 346.3438,391.8281 Q346.3438,393.8438 347.0625,394.8125 Q347.7813,395.7656 349.375,395.7656 Q349.9688,395.7656 350.5938,395.6094 Q351.2188,395.4531 352.0469,395.0781 L352.0469,397.2969 Q351.3125,397.6094 350.5156,397.7656 Q349.7344,397.9219 348.9688,397.9219 Z " fill="#000000"/><text fill="#000000" font-family="sans-serif" font-size="14" lengthAdjust="spacing" textLength="87" x="363.5" y="396.432">ChannelData</text><line style="stroke:#181818;stroke-width:0.5;" x1="335.5" x2="452.5" y1="407" y2="407"/><line style="stroke:#181818;stroke-width:0.5;" x1="335.5" x2="452.5" y1="415" y2="415"/></g><!--class ChannelMetadata--><g id="elem_ChannelMetadata"><rect codeLine="79" fill="#F1F1F1" height="48" id="ChannelMetadata" rx="2.5" ry="2.5" style="stroke:#181818;stroke-width:0.5;" width="152" x="571" y="375"/><ellipse cx="586" cy="391" fill="#ADD1B2" rx="11" ry="11" style="stroke:#181818;stroke-width:1.0;"/><path d="M585.4688,397.9219 Q583.7188,397.9219 582.5781,397.1875 Q581.4531,396.4375 580.8906,395.0938 Q580.3438,393.7344 580.3438,391.9375 Q580.3438,389.9063 581,388.4531 Q581.6563,387 582.9375,386.2188 Q584.2188,385.4375 586.0938,385.4375 Q586.9844,385.4375 587.6563,385.625 Q588.3281,385.7969 589.0156,386.1406 L588.2031,388.1563 Q587.5781,387.8438 587.0313,387.7188 Q586.5,387.5938 586.0156,387.5938 Q584.8438,387.5938 584.1406,388.125 Q583.4375,388.6563 583.1406,389.6094 Q582.8438,390.5625 582.8438,391.8281 Q582.8438,393.8438 583.5625,394.8125 Q584.2813,395.7656 585.875,395.7656 Q586.4688,395.7656 587.0938,395.6094 Q587.7188,395.4531 588.5469,395.0781 L588.5469,397.2969 Q587.8125,397.6094 587.0156,397.7656 Q586.2344,397.9219 585.4688,397.9219 Z " fill="#000000"/><text fill="#000000" font-family="sans-serif" font-size="14" lengthAdjust="spacing" textLength="120" x="600" y="396.432">ChannelMetadata</text><line style="stroke:#181818;stroke-width:0.5;" x1="572" x2="722" y1="407" y2="407"/><line style="stroke:#181818;stroke-width:0.5;" x1="572" x2="722" y1="415" y2="415"/></g><!--class ArrayChannelData--><g id="elem_ArrayChannelData"><rect codeLine="23" fill="#F1F1F1" height="48" id="ArrayChannelData" rx="2.5" ry="2.5" style="stroke:#181818;stroke-width:0.5;" width="155" x="316.5" y="483"/><ellipse cx="331.5" cy="499" fill="#ADD1B2" rx="11" ry="11" style="stroke:#181818;stroke-width:1.0;"/><path d="M330.9688,505.9219 Q329.2188,505.9219 328.0781,505.1875 Q326.9531,504.4375 326.3906,503.0938 Q325.8438,501.7344 325.8438,499.9375 Q325.8438,497.9063 326.5,496.4531 Q327.1563,495 328.4375,494.2188 Q329.7188,493.4375 331.5938,493.4375 Q332.4844,493.4375 333.1563,493.625 Q333.8281,493.7969 334.5156,494.1406 L333.7031,496.1563 Q333.0781,495.8438 332.5313,495.7188 Q332,495.5938 331.5156,495.5938 Q330.3438,495.5938 329.6406,496.125 Q328.9375,496.6563 328.6406,497.6094 Q328.3438,498.5625 328.3438,499.8281 Q328.3438,501.8438 329.0625,502.8125 Q329.7813,503.7656 331.375,503.7656 Q331.9688,503.7656 332.5938,503.6094 Q333.2188,503.4531 334.0469,503.0781 L334.0469,505.2969 Q333.3125,505.6094 332.5156,505.7656 Q331.7344,505.9219 330.9688,505.9219 Z " fill="#000000"/><text fill="#000000" font-family="sans-serif" font-size="14" lengthAdjust="spacing" textLength="123" x="345.5" y="504.432">ArrayChannelData</text><line style="stroke:#181818;stroke-width:0.5;" x1="317.5" x2="470.5" y1="515" y2="515"/><line style="stroke:#181818;stroke-width:0.5;" x1="317.5" x2="470.5" y1="523" y2="523"/></g><!--class MCAChannelData--><g id="elem_MCAChannelData"><rect codeLine="25" fill="#F1F1F1" height="124.2717" id="MCAChannelData" rx="2.5" ry="2.5" style="stroke:#181818;stroke-width:0.5;" width="195" x="296.5" y="591"/><ellipse cx="331.75" cy="607" fill="#ADD1B2" rx="11" ry="11" style="stroke:#181818;stroke-width:1.0;"/><path d="M331.2188,613.9219 Q329.4688,613.9219 328.3281,613.1875 Q327.2031,612.4375 326.6406,611.0938 Q326.0938,609.7344 326.0938,607.9375 Q326.0938,605.9063 326.75,604.4531 Q327.4063,603 328.6875,602.2188 Q329.9688,601.4375 331.8438,601.4375 Q332.7344,601.4375 333.4063,601.625 Q334.0781,601.7969 334.7656,602.1406 L333.9531,604.1563 Q333.3281,603.8438 332.7813,603.7188 Q332.25,603.5938 331.7656,603.5938 Q330.5938,603.5938 329.8906,604.125 Q329.1875,604.6563 328.8906,605.6094 Q328.5938,606.5625 328.5938,607.8281 Q328.5938,609.8438 329.3125,610.8125 Q330.0313,611.7656 331.625,611.7656 Q332.2188,611.7656 332.8438,611.6094 Q333.4688,611.4531 334.2969,611.0781 L334.2969,613.2969 Q333.5625,613.6094 332.7656,613.7656 Q331.9844,613.9219 331.2188,613.9219 Z " fill="#000000"/><text fill="#000000" font-family="sans-serif" font-size="14" lengthAdjust="spacing" textLength="118" x="350.25" y="612.432">MCAChannelData</text><line style="stroke:#181818;stroke-width:0.5;" x1="297.5" x2="490.5" y1="623" y2="623"/><text fill="#000000" font-family="sans-serif" font-size="14" lengthAdjust="spacing" textLength="65" x="302.5" y="641.9659">axis : Axis</text><text fill="#000000" font-family="sans-serif" font-size="14" lengthAdjust="spacing" textLength="183" x="302.5" y="661.0339">roi[] : MCAChannelROIData</text><text fill="#000000" font-family="sans-serif" font-size="14" lengthAdjust="spacing" textLength="144" x="302.5" y="680.1018">life_time : np.ndarray</text><text fill="#000000" font-family="sans-serif" font-size="14" lengthAdjust="spacing" textLength="149" x="302.5" y="699.1697">real_time : np.ndarray</text><line style="stroke:#181818;stroke-width:0.5;" x1="297.5" x2="490.5" y1="707.2717" y2="707.2717"/></g><!--class Axis--><g id="elem_Axis"><rect codeLine="32" fill="#F1F1F1" height="124.2717" id="Axis" rx="2.5" ry="2.5" style="stroke:#181818;stroke-width:0.5;" width="120" x="334" y="780"/><ellipse cx="376.45" cy="796" fill="#ADD1B2" rx="11" ry="11" style="stroke:#181818;stroke-width:1.0;"/><path d="M375.9188,802.9219 Q374.1688,802.9219 373.0281,802.1875 Q371.9031,801.4375 371.3406,800.0938 Q370.7938,798.7344 370.7938,796.9375 Q370.7938,794.9063 371.45,793.4531 Q372.1063,792 373.3875,791.2188 Q374.6688,790.4375 376.5438,790.4375 Q377.4344,790.4375 378.1063,790.625 Q378.7781,790.7969 379.4656,791.1406 L378.6531,793.1563 Q378.0281,792.8438 377.4813,792.7188 Q376.95,792.5938 376.4656,792.5938 Q375.2938,792.5938 374.5906,793.125 Q373.8875,793.6563 373.5906,794.6094 Q373.2938,795.5625 373.2938,796.8281 Q373.2938,798.8438 374.0125,799.8125 Q374.7313,800.7656 376.325,800.7656 Q376.9188,800.7656 377.5438,800.6094 Q378.1688,800.4531 378.9969,800.0781 L378.9969,802.2969 Q378.2625,802.6094 377.4656,802.7656 Q376.6844,802.9219 375.9188,802.9219 Z " fill="#000000"/><text fill="#000000" font-family="sans-serif" font-size="14" lengthAdjust="spacing" textLength="27" x="396.55" y="801.432">Axis</text><line style="stroke:#181818;stroke-width:0.5;" x1="335" x2="453" y1="812" y2="812"/><text fill="#000000" font-family="sans-serif" font-size="14" lengthAdjust="spacing" textLength="108" x="340" y="830.9659">quantity : string</text><text fill="#000000" font-family="sans-serif" font-size="14" lengthAdjust="spacing" textLength="79" x="340" y="850.0339">unit : string</text><text fill="#000000" font-family="sans-serif" font-size="14" lengthAdjust="spacing" textLength="100" x="340" y="869.1018">symbol : string</text><text fill="#000000" font-family="sans-serif" font-size="14" lengthAdjust="spacing" textLength="85" x="340" y="888.1697">label : string</text><line style="stroke:#181818;stroke-width:0.5;" x1="335" x2="453" y1="896.2717" y2="896.2717"/></g><!--class MCAChannelMetadata--><g id="elem_MCAChannelMetadata"><rect codeLine="83" fill="#F1F1F1" height="105.2038" id="MCAChannelMetadata" rx="2.5" ry="2.5" style="stroke:#181818;stroke-width:0.5;" width="257" x="526.5" y="600.5"/><ellipse cx="575.25" cy="616.5" fill="#ADD1B2" rx="11" ry="11" style="stroke:#181818;stroke-width:1.0;"/><path d="M574.7188,623.4219 Q572.9688,623.4219 571.8281,622.6875 Q570.7031,621.9375 570.1406,620.5938 Q569.5938,619.2344 569.5938,617.4375 Q569.5938,615.4063 570.25,613.9531 Q570.9063,612.5 572.1875,611.7188 Q573.4688,610.9375 575.3438,610.9375 Q576.2344,610.9375 576.9063,611.125 Q577.5781,611.2969 578.2656,611.6406 L577.4531,613.6563 Q576.8281,613.3438 576.2813,613.2188 Q575.75,613.0938 575.2656,613.0938 Q574.0938,613.0938 573.3906,613.625 Q572.6875,614.1563 572.3906,615.1094 Q572.0938,616.0625 572.0938,617.3281 Q572.0938,619.3438 572.8125,620.3125 Q573.5313,621.2656 575.125,621.2656 Q575.7188,621.2656 576.3438,621.1094 Q576.9688,620.9531 577.7969,620.5781 L577.7969,622.7969 Q577.0625,623.1094 576.2656,623.2656 Q575.4844,623.4219 574.7188,623.4219 Z " fill="#000000"/><text fill="#000000" font-family="sans-serif" font-size="14" lengthAdjust="spacing" textLength="151" x="595.75" y="621.932">MCAChannelMetadata</text><line style="stroke:#181818;stroke-width:0.5;" x1="527.5" x2="782.5" y1="632.5" y2="632.5"/><text fill="#000000" font-family="sans-serif" font-size="14" lengthAdjust="spacing" textLength="245" x="532.5" y="651.4659">calibration : MCAChannelCalibration</text><text fill="#000000" font-family="sans-serif" font-size="14" lengthAdjust="spacing" textLength="148" x="532.5" y="670.5339">preset_life_time : float</text><text fill="#000000" font-family="sans-serif" font-size="14" lengthAdjust="spacing" textLength="153" x="532.5" y="689.6018">preset_real_time : float</text><line style="stroke:#181818;stroke-width:0.5;" x1="527.5" x2="782.5" y1="697.7038" y2="697.7038"/></g><!--class MCAChannelROIData--><g id="elem_MCAChannelROIData"><rect codeLine="47" fill="#F1F1F1" height="86.1358" id="MCAChannelROIData" rx="2.5" ry="2.5" style="stroke:#181818;stroke-width:0.5;" width="219" x="42.5" y="610"/><ellipse cx="77.3" cy="626" fill="#ADD1B2" rx="11" ry="11" style="stroke:#181818;stroke-width:1.0;"/><path d="M76.7688,632.9219 Q75.0188,632.9219 73.8781,632.1875 Q72.7531,631.4375 72.1906,630.0938 Q71.6438,628.7344 71.6438,626.9375 Q71.6438,624.9063 72.3,623.4531 Q72.9563,622 74.2375,621.2188 Q75.5188,620.4375 77.3938,620.4375 Q78.2844,620.4375 78.9563,620.625 Q79.6281,620.7969 80.3156,621.1406 L79.5031,623.1563 Q78.8781,622.8438 78.3313,622.7188 Q77.8,622.5938 77.3156,622.5938 Q76.1438,622.5938 75.4406,623.125 Q74.7375,623.6563 74.4406,624.6094 Q74.1438,625.5625 74.1438,626.8281 Q74.1438,628.8438 74.8625,629.8125 Q75.5813,630.7656 77.175,630.7656 Q77.7688,630.7656 78.3938,630.6094 Q79.0188,630.4531 79.8469,630.0781 L79.8469,632.2969 Q79.1125,632.6094 78.3156,632.7656 Q77.5344,632.9219 76.7688,632.9219 Z " fill="#000000"/><text fill="#000000" font-family="sans-serif" font-size="14" lengthAdjust="spacing" textLength="143" x="95.7" y="631.432">MCAChannelROIData</text><line style="stroke:#181818;stroke-width:0.5;" x1="43.5" x2="260.5" y1="642" y2="642"/><text fill="#000000" font-family="sans-serif" font-size="14" lengthAdjust="spacing" textLength="85" x="48.5" y="660.9659">label : string</text><text fill="#000000" font-family="sans-serif" font-size="14" lengthAdjust="spacing" textLength="207" x="48.5" y="680.0339">marker : np.ndarray(dtype=int)</text><line style="stroke:#181818;stroke-width:0.5;" x1="43.5" x2="260.5" y1="688.1358" y2="688.1358"/></g><g id="elem_GMN25"><path d="M6,775 L6,908.9421 A0,0 0 0 0 6,908.9421 L298,908.9421 A0,0 0 0 0 298,908.9421 L298,785 L288,775 L156,775 L152,696.43 L148,775 L6,775 A0,0 0 0 0 6,775 " fill="#FEFFDD" style="stroke:#181818;stroke-width:0.5;"/><path d="M288,775 L288,785 L298,785 L288,775 " fill="#FEFFDD" style="stroke:#181818;stroke-width:0.5;"/><text fill="#000000" font-family="sans-serif" font-size="13" lengthAdjust="spacing" textLength="235" x="12" y="793.897">Marker should be a two-element vector</text><text fill="#000000" font-family="sans-serif" font-size="13" lengthAdjust="spacing" textLength="263" x="12" y="811.603">with positions on the x axis of the spectrum.</text><text fill="#000000" font-family="sans-serif" font-size="13" lengthAdjust="spacing" textLength="271" x="12" y="829.309">Is "marker" the best name? Can we generalise</text><text fill="#000000" font-family="sans-serif" font-size="13" lengthAdjust="spacing" textLength="44" x="12" y="847.0151">to fit to</text><text fill="#000000" font-family="monospace" font-size="13" lengthAdjust="spacing" textLength="144" x="59" y="847.0151">AreaChannelROIData</text><text fill="#000000" font-family="sans-serif" font-size="13" lengthAdjust="spacing" textLength="45" x="206" y="847.0151">as well?</text><text fill="#000000" font-family="sans-serif" font-size="13" lengthAdjust="spacing" textLength="3" x="12" y="864.7211">&#160;</text><text fill="#000000" font-family="sans-serif" font-size="13" lengthAdjust="spacing" textLength="224" x="12" y="882.4271">What other attributes are relevant for</text><text fill="#000000" font-family="sans-serif" font-size="13" lengthAdjust="spacing" textLength="121" x="12" y="900.1331">Array Channel ROIs?</text></g><!--class DeviceMetadata--><g id="elem_DeviceMetadata"><rect codeLine="71" fill="#F1F1F1" height="105.2038" id="DeviceMetadata" rx="2.5" ry="2.5" style="stroke:#181818;stroke-width:0.5;" width="152" x="758" y="210"/><ellipse cx="781.55" cy="226" fill="#B4A7E5" rx="11" ry="11" style="stroke:#181818;stroke-width:1.0;"/><path d="M777.5813,232.5 L777.5813,230.7969 L779.9406,230.5313 L779.9406,222.3281 L777.5813,222.0625 L777.5813,220.3594 L784.7219,220.3594 L784.7219,222.0625 L782.3,222.3281 L782.3,230.5313 L784.7219,230.7969 L784.7219,232.5 L777.5813,232.5 Z " fill="#000000"/><text fill="#000000" font-family="sans-serif" font-size="14" font-style="italic" lengthAdjust="spacing" textLength="101" x="797.45" y="231.432">DeviceMetadata</text><line style="stroke:#181818;stroke-width:0.5;" x1="759" x2="909" y1="242" y2="242"/><text fill="#000000" font-family="sans-serif" font-size="14" lengthAdjust="spacing" textLength="65" x="764" y="260.9659">id : string</text><text fill="#000000" font-family="sans-serif" font-size="14" lengthAdjust="spacing" textLength="68" x="764" y="280.0339">pv : string</text><text fill="#000000" font-family="sans-serif" font-size="14" lengthAdjust="spacing" textLength="140" x="764" y="299.1018">access_mode : string</text><line style="stroke:#181818;stroke-width:0.5;" x1="759" x2="909" y1="307.2038" y2="307.2038"/></g><!--class ArrayChannelMetadata--><g id="elem_ArrayChannelMetadata"><rect codeLine="81" fill="#F1F1F1" height="48" id="ArrayChannelMetadata" rx="2.5" ry="2.5" style="stroke:#181818;stroke-width:0.5;" width="188" x="558" y="483"/><ellipse cx="573" cy="499" fill="#ADD1B2" rx="11" ry="11" style="stroke:#181818;stroke-width:1.0;"/><path d="M572.4688,505.9219 Q570.7188,505.9219 569.5781,505.1875 Q568.4531,504.4375 567.8906,503.0938 Q567.3438,501.7344 567.3438,499.9375 Q567.3438,497.9063 568,496.4531 Q568.6563,495 569.9375,494.2188 Q571.2188,493.4375 573.0938,493.4375 Q573.9844,493.4375 574.6563,493.625 Q575.3281,493.7969 576.0156,494.1406 L575.2031,496.1563 Q574.5781,495.8438 574.0313,495.7188 Q573.5,495.5938 573.0156,495.5938 Q571.8438,495.5938 571.1406,496.125 Q570.4375,496.6563 570.1406,497.6094 Q569.8438,498.5625 569.8438,499.8281 Q569.8438,501.8438 570.5625,502.8125 Q571.2813,503.7656 572.875,503.7656 Q573.4688,503.7656 574.0938,503.6094 Q574.7188,503.4531 575.5469,503.0781 L575.5469,505.2969 Q574.8125,505.6094 574.0156,505.7656 Q573.2344,505.9219 572.4688,505.9219 Z " fill="#000000"/><text fill="#000000" font-family="sans-serif" font-size="14" lengthAdjust="spacing" textLength="156" x="587" y="504.432">ArrayChannelMetadata</text><line style="stroke:#181818;stroke-width:0.5;" x1="559" x2="745" y1="515" y2="515"/><line style="stroke:#181818;stroke-width:0.5;" x1="559" x2="745" y1="523" y2="523"/></g><!--class MCAChannelCalibration--><g id="elem_MCAChannelCalibration"><rect codeLine="91" fill="#F1F1F1" height="124.2717" id="MCAChannelCalibration" rx="2.5" ry="2.5" style="stroke:#181818;stroke-width:0.5;" width="193" x="818.5" y="591"/><ellipse cx="833.5" cy="607" fill="#ADD1B2" rx="11" ry="11" style="stroke:#181818;stroke-width:1.0;"/><path d="M832.9688,613.9219 Q831.2188,613.9219 830.0781,613.1875 Q828.9531,612.4375 828.3906,611.0938 Q827.8438,609.7344 827.8438,607.9375 Q827.8438,605.9063 828.5,604.4531 Q829.1563,603 830.4375,602.2188 Q831.7188,601.4375 833.5938,601.4375 Q834.4844,601.4375 835.1563,601.625 Q835.8281,601.7969 836.5156,602.1406 L835.7031,604.1563 Q835.0781,603.8438 834.5313,603.7188 Q834,603.5938 833.5156,603.5938 Q832.3438,603.5938 831.6406,604.125 Q830.9375,604.6563 830.6406,605.6094 Q830.3438,606.5625 830.3438,607.8281 Q830.3438,609.8438 831.0625,610.8125 Q831.7813,611.7656 833.375,611.7656 Q833.9688,611.7656 834.5938,611.6094 Q835.2188,611.4531 836.0469,611.0781 L836.0469,613.2969 Q835.3125,613.6094 834.5156,613.7656 Q833.7344,613.9219 832.9688,613.9219 Z " fill="#000000"/><text fill="#000000" font-family="sans-serif" font-size="14" lengthAdjust="spacing" textLength="161" x="847.5" y="612.432">MCAChannelCalibration</text><line style="stroke:#181818;stroke-width:0.5;" x1="819.5" x2="1010.5" y1="623" y2="623"/><text fill="#000000" font-family="sans-serif" font-size="14" lengthAdjust="spacing" textLength="80" x="824.5" y="641.9659">offset : float</text><text fill="#000000" font-family="sans-serif" font-size="14" lengthAdjust="spacing" textLength="78" x="824.5" y="661.0339">slope : float</text><text fill="#000000" font-family="sans-serif" font-size="14" lengthAdjust="spacing" textLength="107" x="824.5" y="680.1018">quadratic : float</text><line style="stroke:#181818;stroke-width:0.5;" x1="819.5" x2="1010.5" y1="688.2038" y2="688.2038"/><text fill="#000000" font-family="sans-serif" font-size="14" lengthAdjust="spacing" textLength="67" x="824.5" y="707.1697">calibrate()</text></g><!--reverse link Data to Metadata--><g id="link_Data_Metadata"><path codeLine="11" d="M533.26,78.5 C551.13,78.5 556.99,78.5 574.86,78.5 " fill="none" id="Data-backto-Metadata" style="stroke:#181818;stroke-width:1.0;"/><polygon fill="#181818" points="521.26,78.5,527.26,82.5,533.26,78.5,527.26,74.5,521.26,78.5" style="stroke:#181818;stroke-width:1.0;"/></g><!--reverse link Data to MeasureData--><g id="link_Data_MeasureData"><path d="M413.0562,167.7696 C407.5362,194.9396 405.07,207.04 400.62,228.94 " fill="none" id="Data-backto-MeasureData" style="stroke:#181818;stroke-width:1.0;"/><polygon fill="none" points="416.64,150.13,407.1764,166.575,418.9361,168.9642,416.64,150.13" style="stroke:#181818;stroke-width:1.0;"/></g><!--reverse link MeasureData to MeasureMetadata--><g id="link_MeasureData_MeasureMetadata"><path codeLine="17" d="M544.25,262.5 C555.99,262.5 555.74,262.5 567.48,262.5 " fill="none" id="MeasureData-backto-MeasureMetadata" style="stroke:#181818;stroke-width:1.0;"/><polygon fill="#181818" points="532.25,262.5,538.25,266.5,544.25,262.5,538.25,258.5,532.25,262.5" style="stroke:#181818;stroke-width:1.0;"/></g><!--reverse link MeasureData to ChannelData--><g id="link_MeasureData_ChannelData"><path d="M394,314.06 C394,338.32 394,352.86 394,374.59 " fill="none" id="MeasureData-backto-ChannelData" style="stroke:#181818;stroke-width:1.0;"/><polygon fill="none" points="394,296.06,388,314.06,400,314.06,394,296.06" style="stroke:#181818;stroke-width:1.0;"/></g><!--reverse link ChannelData to ChannelMetadata--><g id="link_ChannelData_ChannelMetadata"><path codeLine="21" d="M465.79,399 C504.79,399 531.78,399 570.77,399 " fill="none" id="ChannelData-backto-ChannelMetadata" style="stroke:#181818;stroke-width:1.0;"/><polygon fill="#181818" points="453.79,399,459.79,403,465.79,399,459.79,395,453.79,399" style="stroke:#181818;stroke-width:1.0;"/></g><!--reverse link ChannelData to ArrayChannelData--><g id="link_ChannelData_ArrayChannelData"><path d="M394,441 C394,458.66 394,464.94 394,482.68 " fill="none" id="ChannelData-backto-ArrayChannelData" style="stroke:#181818;stroke-width:1.0;"/><polygon fill="none" points="394,423,388,441,400,441,394,423" style="stroke:#181818;stroke-width:1.0;"/></g><!--reverse link ArrayChannelData to MCAChannelData--><g id="link_ArrayChannelData_MCAChannelData"><path d="M394,549.14 C394,565.28 394,569.62 394,590.7 " fill="none" id="ArrayChannelData-backto-MCAChannelData" style="stroke:#181818;stroke-width:1.0;"/><polygon fill="none" points="394,531.14,388,549.14,400,549.14,394,531.14" style="stroke:#181818;stroke-width:1.0;"/></g><!--reverse link MCAChannelData to MCAChannelMetadata--><g id="link_MCAChannelData_MCAChannelMetadata"><path codeLine="39" d="M503.62,653 C515.21,653 514.81,653 526.4,653 " fill="none" id="MCAChannelData-backto-MCAChannelMetadata" style="stroke:#181818;stroke-width:1.0;"/><polygon fill="#181818" points="491.62,653,497.62,657,503.62,653,497.62,649,491.62,653" style="stroke:#181818;stroke-width:1.0;"/></g><!--reverse link MCAChannelData to Axis--><g id="link_MCAChannelData_Axis"><path codeLine="41" d="M394,727.23 C394,748 394,759.19 394,779.95 " fill="none" id="MCAChannelData-backto-Axis" style="stroke:#181818;stroke-width:1.0;"/><polygon fill="#181818" points="394,715.23,390,721.23,394,727.23,398,721.23,394,715.23" style="stroke:#181818;stroke-width:1.0;"/></g><!--link MCAChannelROIData to MCAChannelData--><g id="link_MCAChannelROIData_MCAChannelData"><path codeLine="43" d="M261.66,684.97 C273.2,685.54 272.8133,686.4709 284.3533,685.2809 " fill="none" id="MCAChannelROIData-to-MCAChannelData" style="stroke:#181818;stroke-width:1.0;"/><polygon fill="#181818" points="296.29,684.05,289.9113,680.6866,284.3533,685.2809,290.732,688.6444,296.29,684.05" style="stroke:#181818;stroke-width:1.0;"/><text fill="#000000" font-family="sans-serif" font-size="13" lengthAdjust="spacing" textLength="21" x="269.3578" y="683.3888">0..n</text></g><!--link MCAChannelROIData to MCAChannelData--><!--reverse link ChannelData to MCAChannelROIData--><g id="link_ChannelData_MCAChannelROIData"><path d="M351.8349,434.5368 C332.4649,450.6868 320.35,461.61 299,483 C257.94,524.15 214.7,574.88 185.84,609.96 " fill="none" id="ChannelData-backto-MCAChannelROIData" style="stroke:#181818;stroke-width:1.0;"/><polygon fill="none" points="365.66,423.01,347.9927,429.9285,355.6772,439.1452,365.66,423.01" style="stroke:#181818;stroke-width:1.0;"/></g><!--reverse link Metadata to MeasureMetadata--><g id="link_Metadata_MeasureMetadata"><path d="M632.2792,139.6127 C635.6892,172.2727 638.47,198.93 641.59,228.88 " fill="none" id="Metadata-backto-MeasureMetadata" style="stroke:#181818;stroke-width:1.0;"/><polygon fill="none" points="630.41,121.71,626.3116,140.2358,638.2468,138.9896,630.41,121.71" style="stroke:#181818;stroke-width:1.0;"/></g><!--link MeasureMetadata to DeviceMetadata--><!--reverse link MeasureMetadata to ChannelMetadata--><g id="link_MeasureMetadata_ChannelMetadata"><path d="M645.7471,314.058 C646.1071,338.318 646.33,352.86 646.65,374.59 " fill="none" id="MeasureMetadata-backto-ChannelMetadata" style="stroke:#181818;stroke-width:1.0;"/><polygon fill="none" points="645.48,296.06,639.7477,314.147,651.7464,313.969,645.48,296.06" style="stroke:#181818;stroke-width:1.0;"/></g><!--reverse link DeviceMetadata to ChannelMetadata--><g id="link_DeviceMetadata_ChannelMetadata"><path d="M747.6249,325.6271 C718.9849,346.2171 702.09,358.38 679.27,374.79 " fill="none" id="DeviceMetadata-backto-ChannelMetadata" style="stroke:#181818;stroke-width:1.0;stroke-dasharray:7.0,7.0;"/><polygon fill="none" points="762.24,315.12,744.1226,320.7554,751.1273,330.4988,762.24,315.12" style="stroke:#181818;stroke-width:1.0;"/></g><!--reverse link ChannelMetadata to ArrayChannelMetadata--><g id="link_ChannelMetadata_ArrayChannelMetadata"><path d="M648.9352,440.9797 C649.7752,458.6397 650.06,464.94 650.9,482.68 " fill="none" id="ChannelMetadata-backto-ArrayChannelMetadata" style="stroke:#181818;stroke-width:1.0;"/><polygon fill="none" points="648.08,423,642.942,441.2647,654.9284,440.6946,648.08,423" style="stroke:#181818;stroke-width:1.0;"/></g><!--reverse link ArrayChannelMetadata to MCAChannelMetadata--><g id="link_ArrayChannelMetadata_MCAChannelMetadata"><path d="M652.8573,549.136 C653.2473,567.736 653.43,576.58 653.92,600.25 " fill="none" id="ArrayChannelMetadata-backto-MCAChannelMetadata" style="stroke:#181818;stroke-width:1.0;"/><polygon fill="none" points="652.48,531.14,646.8587,549.2618,658.856,549.0103,652.48,531.14" style="stroke:#181818;stroke-width:1.0;"/></g><!--reverse link MCAChannelMetadata to MCAChannelCalibration--><g id="link_MCAChannelMetadata_MCAChannelCalibration"><path codeLine="89" d="M795.73,653 C807.27,653 806.81,653 818.34,653 " fill="none" id="MCAChannelMetadata-backto-MCAChannelCalibration" style="stroke:#181818;stroke-width:1.0;"/><polygon fill="#181818" points="783.73,653,789.73,657,795.73,653,789.73,649,783.73,653" style="stroke:#181818;stroke-width:1.0;"/></g><!--SRC=[TLKxRzim4DxrAmvQcWQmqpb06nZEui4eqAL341WdwHGHeKYLF3an0l_tafGiYvBinRxNTqz-_bOnD_RnuQ6HgBYjvJhNzKCkqTfL8V3DO9qaGOHdP8Il1Dod9iR2Yu-mxty6lMvOQ6MTkX0v1zMXzrFDMXLe39uwjQWRRPYCCtdWNIy6em-v-vwSaoJal5zTi_Irx0bjQoYOwPD95L5zNwKWMPoXqLRuYWwvRXNRg8oxWayD_HIAGwOnOaWOn6dUROLAaOpoZYAJPEpWO7fn2hFn1InXZNLVvw7RxMR9UORIDO-VmdUwSLz1DbgylFfD3IX_Vk-UBokJegG3YvhcEpA4Si4qbEKpz3d_jUvw19-SfsKZr5lGjafmhB6dEjCoradCQAJokuZxzUiODDTHphnMNS_9h558VwpNAeNL_MIKIxwhbqeK1QdNNpFdwJOk8OlRYmvnqkFOLADv3y_WrcagpGIPPjOrwFB66lSTYgrqAml8213uGwz8KasAuKWvw-vnVGYkXeTXGIlWYk2pEnk7xoNRE7_JrkiGiREGTbMcmPgHPL1OqnDiKS47mHifCYY5fH306agtUVULfXjtHN6zQGfeNPIKJqbm_riXWtR81f3TWBAMoG8QSXSewUWk2yg- -73obpc30xHFYHiz-1abLtBesQdRWQyq7ls4fiuJLXdYhoyy0epFsaMxHP4fCITufgF8QU8lYZXzSunbp7Eozb3hWk9dC2bdT9bndWaxBTGV0pdkxUx2tW0QCyiCxGQdpP_e8b5DPfExgyaC-dr45BMzwhkP6RB4Xp5RbL8ZZurZlkgC4PSCcIC-6IUQTJ8ozlNgidIfeknMwYQknx5XuQFoI7jfbS9Vsty0]--></g></svg>