<?xml version="1.0" encoding="us-ascii" standalone="no"?><svg xmlns="http://www.w3.org/2000/svg" xmlns:xlink="http://www.w3.org/1999/xlink" contentStyleType="text/css" height="864px" preserveAspectRatio="none" style="width:1075px;height:864px;background:#FFFFFF;" version="1.1" viewBox="0 0 1075 864" width="1075px" zoomAndPan="magnify"><defs/><g><!--class Data--><g id="elem_Data"><rect codeLine="3" fill="#F1F1F1" height="129.4844" id="Data" rx="2.5" ry="2.5" style="stroke:#181818;stroke-width:0.5;" width="190" x="199" y="7"/><ellipse cx="272.75" cy="23" fill="#ADD1B2" rx="11" ry="11" style="stroke:#181818;stroke-width:1.0;"/><path d="M275.7344,28.6406 Q275.1563,28.9375 274.5156,29.0781 Q273.875,29.2344 273.1719,29.2344 Q270.6563,29.2344 269.3281,27.5938 Q268.0156,25.9375 268.0156,22.8125 Q268.0156,19.6719 269.3281,18.0313 Q270.6563,16.375 273.1719,16.375 Q273.875,16.375 274.5156,16.5313 Q275.1719,16.6719 275.7344,16.9688 L275.7344,19.6875 Q275.0938,19.1094 274.5,18.8438 Q273.9063,18.5781 273.2813,18.5781 Q271.9375,18.5781 271.25,19.6406 Q270.5625,20.7031 270.5625,22.8125 Q270.5625,24.9063 271.25,25.9844 Q271.9375,27.0469 273.2813,27.0469 Q273.9063,27.0469 274.5,26.7813 Q275.0938,26.5 275.7344,25.9219 L275.7344,28.6406 Z " fill="#000000"/><text fill="#000000" font-family="sans-serif" font-size="14" lengthAdjust="spacing" textLength="34" x="293.25" y="27.8467">Data</text><line style="stroke:#181818;stroke-width:0.5;" x1="200" x2="388" y1="39" y2="39"/><text fill="#000000" font-family="sans-serif" font-size="14" lengthAdjust="spacing" textLength="149" x="205" y="55.9951">metadata : Metadata</text><text fill="#000000" font-family="sans-serif" font-size="14" lengthAdjust="spacing" textLength="91" x="205" y="72.292">options : dict</text><text fill="#000000" font-family="sans-serif" font-size="14" lengthAdjust="spacing" textLength="130" x="205" y="88.5889">_data : np.ndarray</text><text fill="#000000" font-family="sans-serif" font-size="14" lengthAdjust="spacing" textLength="178" x="205" y="104.8857">_importer : DataImporter</text><line style="stroke:#181818;stroke-width:0.5;" x1="200" x2="388" y1="112.1875" y2="112.1875"/><text fill="#000000" font-family="sans-serif" font-size="14" lengthAdjust="spacing" textLength="42" x="205" y="129.1826">data()</text></g><!--class Metadata--><g id="elem_Metadata"><rect codeLine="62" fill="#F1F1F1" height="80.5938" id="Metadata" rx="2.5" ry="2.5" style="stroke:#181818;stroke-width:0.5;" width="106" x="444" y="31"/><ellipse cx="462.15" cy="47" fill="#ADD1B2" rx="11" ry="11" style="stroke:#181818;stroke-width:1.0;"/><path d="M465.1344,52.6406 Q464.5563,52.9375 463.9156,53.0781 Q463.275,53.2344 462.5719,53.2344 Q460.0563,53.2344 458.7281,51.5938 Q457.4156,49.9375 457.4156,46.8125 Q457.4156,43.6719 458.7281,42.0313 Q460.0563,40.375 462.5719,40.375 Q463.275,40.375 463.9156,40.5313 Q464.5719,40.6719 465.1344,40.9688 L465.1344,43.6875 Q464.4938,43.1094 463.9,42.8438 Q463.3063,42.5781 462.6813,42.5781 Q461.3375,42.5781 460.65,43.6406 Q459.9625,44.7031 459.9625,46.8125 Q459.9625,48.9063 460.65,49.9844 Q461.3375,51.0469 462.6813,51.0469 Q463.3063,51.0469 463.9,50.7813 Q464.4938,50.5 465.1344,49.9219 L465.1344,52.6406 Z " fill="#000000"/><text fill="#000000" font-family="sans-serif" font-size="14" lengthAdjust="spacing" textLength="67" x="476.85" y="51.8467">Metadata</text><line style="stroke:#181818;stroke-width:0.5;" x1="445" x2="549" y1="63" y2="63"/><text fill="#000000" font-family="sans-serif" font-size="14" lengthAdjust="spacing" textLength="94" x="450" y="79.9951">name : string</text><text fill="#000000" font-family="sans-serif" font-size="14" lengthAdjust="spacing" textLength="91" x="450" y="96.292">options : dict</text><line style="stroke:#181818;stroke-width:0.5;" x1="445" x2="549" y1="103.5938" y2="103.5938"/></g><!--class MeasureData--><g id="elem_MeasureData"><rect codeLine="13" fill="#F1F1F1" height="64.2969" id="MeasureData" rx="2.5" ry="2.5" style="stroke:#181818;stroke-width:0.5;" width="293" x="108.5" y="212.5"/><ellipse cx="203.25" cy="228.5" fill="#ADD1B2" rx="11" ry="11" style="stroke:#181818;stroke-width:1.0;"/><path d="M206.2344,234.1406 Q205.6563,234.4375 205.0156,234.5781 Q204.375,234.7344 203.6719,234.7344 Q201.1563,234.7344 199.8281,233.0938 Q198.5156,231.4375 198.5156,228.3125 Q198.5156,225.1719 199.8281,223.5313 Q201.1563,221.875 203.6719,221.875 Q204.375,221.875 205.0156,222.0313 Q205.6719,222.1719 206.2344,222.4688 L206.2344,225.1875 Q205.5938,224.6094 205,224.3438 Q204.4063,224.0781 203.7813,224.0781 Q202.4375,224.0781 201.75,225.1406 Q201.0625,226.2031 201.0625,228.3125 Q201.0625,230.4063 201.75,231.4844 Q202.4375,232.5469 203.7813,232.5469 Q204.4063,232.5469 205,232.2813 Q205.5938,232 206.2344,231.4219 L206.2344,234.1406 Z " fill="#000000"/><text fill="#000000" font-family="sans-serif" font-size="14" lengthAdjust="spacing" textLength="95" x="223.75" y="233.3467">MeasureData</text><line style="stroke:#181818;stroke-width:0.5;" x1="109.5" x2="400.5" y1="244.5" y2="244.5"/><text fill="#000000" font-family="sans-serif" font-size="14" lengthAdjust="spacing" textLength="281" x="114.5" y="261.4951">position_counts : np.ndarray(dtype=int)</text><line style="stroke:#181818;stroke-width:0.5;" x1="109.5" x2="400.5" y1="268.7969" y2="268.7969"/></g><!--class MeasureMetadata--><g id="elem_MeasureMetadata"><rect codeLine="67" fill="#F1F1F1" height="64.2969" id="MeasureMetadata" rx="2.5" ry="2.5" style="stroke:#181818;stroke-width:0.5;" width="160" x="437" y="212.5"/><ellipse cx="452" cy="228.5" fill="#ADD1B2" rx="11" ry="11" style="stroke:#181818;stroke-width:1.0;"/><path d="M454.9844,234.1406 Q454.4063,234.4375 453.7656,234.5781 Q453.125,234.7344 452.4219,234.7344 Q449.9063,234.7344 448.5781,233.0938 Q447.2656,231.4375 447.2656,228.3125 Q447.2656,225.1719 448.5781,223.5313 Q449.9063,221.875 452.4219,221.875 Q453.125,221.875 453.7656,222.0313 Q454.4219,222.1719 454.9844,222.4688 L454.9844,225.1875 Q454.3438,224.6094 453.75,224.3438 Q453.1563,224.0781 452.5313,224.0781 Q451.1875,224.0781 450.5,225.1406 Q449.8125,226.2031 449.8125,228.3125 Q449.8125,230.4063 450.5,231.4844 Q451.1875,232.5469 452.5313,232.5469 Q453.1563,232.5469 453.75,232.2813 Q454.3438,232 454.9844,231.4219 L454.9844,234.1406 Z " fill="#000000"/><text fill="#000000" font-family="sans-serif" font-size="14" lengthAdjust="spacing" textLength="128" x="466" y="233.3467">MeasureMetadata</text><line style="stroke:#181818;stroke-width:0.5;" x1="438" x2="596" y1="244.5" y2="244.5"/><text fill="#000000" font-family="sans-serif" font-size="14" lengthAdjust="spacing" textLength="80" x="443" y="261.4951">unit : string</text><line style="stroke:#181818;stroke-width:0.5;" x1="438" x2="596" y1="268.7969" y2="268.7969"/></g><!--class ChannelData--><g id="elem_ChannelData"><rect codeLine="19" fill="#F1F1F1" height="48" id="ChannelData" rx="2.5" ry="2.5" style="stroke:#181818;stroke-width:0.5;" width="125" x="362.5" y="353"/><ellipse cx="377.5" cy="369" fill="#ADD1B2" rx="11" ry="11" style="stroke:#181818;stroke-width:1.0;"/><path d="M380.4844,374.6406 Q379.9063,374.9375 379.2656,375.0781 Q378.625,375.2344 377.9219,375.2344 Q375.4063,375.2344 374.0781,373.5938 Q372.7656,371.9375 372.7656,368.8125 Q372.7656,365.6719 374.0781,364.0313 Q375.4063,362.375 377.9219,362.375 Q378.625,362.375 379.2656,362.5313 Q379.9219,362.6719 380.4844,362.9688 L380.4844,365.6875 Q379.8438,365.1094 379.25,364.8438 Q378.6563,364.5781 378.0313,364.5781 Q376.6875,364.5781 376,365.6406 Q375.3125,366.7031 375.3125,368.8125 Q375.3125,370.9063 376,371.9844 Q376.6875,373.0469 378.0313,373.0469 Q378.6563,373.0469 379.25,372.7813 Q379.8438,372.5 380.4844,371.9219 L380.4844,374.6406 Z " fill="#000000"/><text fill="#000000" font-family="sans-serif" font-size="14" lengthAdjust="spacing" textLength="93" x="391.5" y="373.8467">ChannelData</text><line style="stroke:#181818;stroke-width:0.5;" x1="363.5" x2="486.5" y1="385" y2="385"/><line style="stroke:#181818;stroke-width:0.5;" x1="363.5" x2="486.5" y1="393" y2="393"/></g><!--class ChannelMetadata--><g id="elem_ChannelMetadata"><rect codeLine="79" fill="#F1F1F1" height="48" id="ChannelMetadata" rx="2.5" ry="2.5" style="stroke:#181818;stroke-width:0.5;" width="158" x="542" y="353"/><ellipse cx="557" cy="369" fill="#ADD1B2" rx="11" ry="11" style="stroke:#181818;stroke-width:1.0;"/><path d="M559.9844,374.6406 Q559.4063,374.9375 558.7656,375.0781 Q558.125,375.2344 557.4219,375.2344 Q554.9063,375.2344 553.5781,373.5938 Q552.2656,371.9375 552.2656,368.8125 Q552.2656,365.6719 553.5781,364.0313 Q554.9063,362.375 557.4219,362.375 Q558.125,362.375 558.7656,362.5313 Q559.4219,362.6719 559.9844,362.9688 L559.9844,365.6875 Q559.3438,365.1094 558.75,364.8438 Q558.1563,364.5781 557.5313,364.5781 Q556.1875,364.5781 555.5,365.6406 Q554.8125,366.7031 554.8125,368.8125 Q554.8125,370.9063 555.5,371.9844 Q556.1875,373.0469 557.5313,373.0469 Q558.1563,373.0469 558.75,372.7813 Q559.3438,372.5 559.9844,371.9219 L559.9844,374.6406 Z " fill="#000000"/><text fill="#000000" font-family="sans-serif" font-size="14" lengthAdjust="spacing" textLength="126" x="571" y="373.8467">ChannelMetadata</text><line style="stroke:#181818;stroke-width:0.5;" x1="543" x2="699" y1="385" y2="385"/><line style="stroke:#181818;stroke-width:0.5;" x1="543" x2="699" y1="393" y2="393"/></g><!--class ArrayChannelData--><g id="elem_ArrayChannelData"><rect codeLine="23" fill="#F1F1F1" height="48" id="ArrayChannelData" rx="2.5" ry="2.5" style="stroke:#181818;stroke-width:0.5;" width="164" x="343" y="461"/><ellipse cx="358" cy="477" fill="#ADD1B2" rx="11" ry="11" style="stroke:#181818;stroke-width:1.0;"/><path d="M360.9844,482.6406 Q360.4063,482.9375 359.7656,483.0781 Q359.125,483.2344 358.4219,483.2344 Q355.9063,483.2344 354.5781,481.5938 Q353.2656,479.9375 353.2656,476.8125 Q353.2656,473.6719 354.5781,472.0313 Q355.9063,470.375 358.4219,470.375 Q359.125,470.375 359.7656,470.5313 Q360.4219,470.6719 360.9844,470.9688 L360.9844,473.6875 Q360.3438,473.1094 359.75,472.8438 Q359.1563,472.5781 358.5313,472.5781 Q357.1875,472.5781 356.5,473.6406 Q355.8125,474.7031 355.8125,476.8125 Q355.8125,478.9063 356.5,479.9844 Q357.1875,481.0469 358.5313,481.0469 Q359.1563,481.0469 359.75,480.7813 Q360.3438,480.5 360.9844,479.9219 L360.9844,482.6406 Z " fill="#000000"/><text fill="#000000" font-family="sans-serif" font-size="14" lengthAdjust="spacing" textLength="132" x="372" y="481.8467">ArrayChannelData</text><line style="stroke:#181818;stroke-width:0.5;" x1="344" x2="506" y1="493" y2="493"/><line style="stroke:#181818;stroke-width:0.5;" x1="344" x2="506" y1="501" y2="501"/></g><!--class MCAChannelData--><g id="elem_MCAChannelData"><rect codeLine="25" fill="#F1F1F1" height="113.1875" id="MCAChannelData" rx="2.5" ry="2.5" style="stroke:#181818;stroke-width:0.5;" width="204" x="323" y="569"/><ellipse cx="359.15" cy="585" fill="#ADD1B2" rx="11" ry="11" style="stroke:#181818;stroke-width:1.0;"/><path d="M362.1344,590.6406 Q361.5563,590.9375 360.9156,591.0781 Q360.275,591.2344 359.5719,591.2344 Q357.0563,591.2344 355.7281,589.5938 Q354.4156,587.9375 354.4156,584.8125 Q354.4156,581.6719 355.7281,580.0313 Q357.0563,578.375 359.5719,578.375 Q360.275,578.375 360.9156,578.5313 Q361.5719,578.6719 362.1344,578.9688 L362.1344,581.6875 Q361.4938,581.1094 360.9,580.8438 Q360.3063,580.5781 359.6813,580.5781 Q358.3375,580.5781 357.65,581.6406 Q356.9625,582.7031 356.9625,584.8125 Q356.9625,586.9063 357.65,587.9844 Q358.3375,589.0469 359.6813,589.0469 Q360.3063,589.0469 360.9,588.7813 Q361.4938,588.5 362.1344,587.9219 L362.1344,590.6406 Z " fill="#000000"/><text fill="#000000" font-family="sans-serif" font-size="14" lengthAdjust="spacing" textLength="125" x="377.85" y="589.8467">MCAChannelData</text><line style="stroke:#181818;stroke-width:0.5;" x1="324" x2="526" y1="601" y2="601"/><text fill="#000000" font-family="sans-serif" font-size="14" lengthAdjust="spacing" textLength="70" x="329" y="617.9951">axis : Axis</text><text fill="#000000" font-family="sans-serif" font-size="14" lengthAdjust="spacing" textLength="192" x="329" y="634.292">roi[] : MCAChannelROIData</text><text fill="#000000" font-family="sans-serif" font-size="14" lengthAdjust="spacing" textLength="152" x="329" y="650.5889">life_time : np.ndarray</text><text fill="#000000" font-family="sans-serif" font-size="14" lengthAdjust="spacing" textLength="158" x="329" y="666.8857">real_time : np.ndarray</text><line style="stroke:#181818;stroke-width:0.5;" x1="324" x2="526" y1="674.1875" y2="674.1875"/></g><!--class Axis--><g id="elem_Axis"><rect codeLine="32" fill="#F1F1F1" height="113.1875" id="Axis" rx="2.5" ry="2.5" style="stroke:#181818;stroke-width:0.5;" width="123" x="365.5" y="743.5"/><ellipse cx="408.4" cy="759.5" fill="#ADD1B2" rx="11" ry="11" style="stroke:#181818;stroke-width:1.0;"/><path d="M411.3844,765.1406 Q410.8063,765.4375 410.1656,765.5781 Q409.525,765.7344 408.8219,765.7344 Q406.3063,765.7344 404.9781,764.0938 Q403.6656,762.4375 403.6656,759.3125 Q403.6656,756.1719 404.9781,754.5313 Q406.3063,752.875 408.8219,752.875 Q409.525,752.875 410.1656,753.0313 Q410.8219,753.1719 411.3844,753.4688 L411.3844,756.1875 Q410.7438,755.6094 410.15,755.3438 Q409.5563,755.0781 408.9313,755.0781 Q407.5875,755.0781 406.9,756.1406 Q406.2125,757.2031 406.2125,759.3125 Q406.2125,761.4063 406.9,762.4844 Q407.5875,763.5469 408.9313,763.5469 Q409.5563,763.5469 410.15,763.2813 Q410.7438,763 411.3844,762.4219 L411.3844,765.1406 Z " fill="#000000"/><text fill="#000000" font-family="sans-serif" font-size="14" lengthAdjust="spacing" textLength="29" x="428.6" y="764.3467">Axis</text><line style="stroke:#181818;stroke-width:0.5;" x1="366.5" x2="487.5" y1="775.5" y2="775.5"/><text fill="#000000" font-family="sans-serif" font-size="14" lengthAdjust="spacing" textLength="111" x="371.5" y="792.4951">quantity : string</text><text fill="#000000" font-family="sans-serif" font-size="14" lengthAdjust="spacing" textLength="80" x="371.5" y="808.792">unit : string</text><text fill="#000000" font-family="sans-serif" font-size="14" lengthAdjust="spacing" textLength="104" x="371.5" y="825.0889">symbol : string</text><text fill="#000000" font-family="sans-serif" font-size="14" lengthAdjust="spacing" textLength="88" x="371.5" y="841.3857">label : string</text><line style="stroke:#181818;stroke-width:0.5;" x1="366.5" x2="487.5" y1="848.6875" y2="848.6875"/></g><!--class MCAChannelMetadata--><g id="elem_MCAChannelMetadata"><rect codeLine="83" fill="#F1F1F1" height="96.8906" id="MCAChannelMetadata" rx="2.5" ry="2.5" style="stroke:#181818;stroke-width:0.5;" width="270" x="562" y="577"/><ellipse cx="613.75" cy="593" fill="#ADD1B2" rx="11" ry="11" style="stroke:#181818;stroke-width:1.0;"/><path d="M616.7344,598.6406 Q616.1563,598.9375 615.5156,599.0781 Q614.875,599.2344 614.1719,599.2344 Q611.6563,599.2344 610.3281,597.5938 Q609.0156,595.9375 609.0156,592.8125 Q609.0156,589.6719 610.3281,588.0313 Q611.6563,586.375 614.1719,586.375 Q614.875,586.375 615.5156,586.5313 Q616.1719,586.6719 616.7344,586.9688 L616.7344,589.6875 Q616.0938,589.1094 615.5,588.8438 Q614.9063,588.5781 614.2813,588.5781 Q612.9375,588.5781 612.25,589.6406 Q611.5625,590.7031 611.5625,592.8125 Q611.5625,594.9063 612.25,595.9844 Q612.9375,597.0469 614.2813,597.0469 Q614.9063,597.0469 615.5,596.7813 Q616.0938,596.5 616.7344,595.9219 L616.7344,598.6406 Z " fill="#000000"/><text fill="#000000" font-family="sans-serif" font-size="14" lengthAdjust="spacing" textLength="158" x="634.25" y="597.8467">MCAChannelMetadata</text><line style="stroke:#181818;stroke-width:0.5;" x1="563" x2="831" y1="609" y2="609"/><text fill="#000000" font-family="sans-serif" font-size="14" lengthAdjust="spacing" textLength="258" x="568" y="625.9951">calibration : MCAChannelCalibration</text><text fill="#000000" font-family="sans-serif" font-size="14" lengthAdjust="spacing" textLength="158" x="568" y="642.292">preset_life_time : float</text><text fill="#000000" font-family="sans-serif" font-size="14" lengthAdjust="spacing" textLength="164" x="568" y="658.5889">preset_real_time : float</text><line style="stroke:#181818;stroke-width:0.5;" x1="563" x2="831" y1="665.8906" y2="665.8906"/></g><!--class MCAChannelROIData--><g id="elem_MCAChannelROIData"><rect codeLine="47" fill="#F1F1F1" height="80.5938" id="MCAChannelROIData" rx="2.5" ry="2.5" style="stroke:#181818;stroke-width:0.5;" width="235" x="52.5" y="585"/><ellipse cx="91.35" cy="601" fill="#ADD1B2" rx="11" ry="11" style="stroke:#181818;stroke-width:1.0;"/><path d="M94.3344,606.6406 Q93.7563,606.9375 93.1156,607.0781 Q92.475,607.2344 91.7719,607.2344 Q89.2563,607.2344 87.9281,605.5938 Q86.6156,603.9375 86.6156,600.8125 Q86.6156,597.6719 87.9281,596.0313 Q89.2563,594.375 91.7719,594.375 Q92.475,594.375 93.1156,594.5313 Q93.7719,594.6719 94.3344,594.9688 L94.3344,597.6875 Q93.6938,597.1094 93.1,596.8438 Q92.5063,596.5781 91.8813,596.5781 Q90.5375,596.5781 89.85,597.6406 Q89.1625,598.7031 89.1625,600.8125 Q89.1625,602.9063 89.85,603.9844 Q90.5375,605.0469 91.8813,605.0469 Q92.5063,605.0469 93.1,604.7813 Q93.6938,604.5 94.3344,603.9219 L94.3344,606.6406 Z " fill="#000000"/><text fill="#000000" font-family="sans-serif" font-size="14" lengthAdjust="spacing" textLength="150" x="110.65" y="605.8467">MCAChannelROIData</text><line style="stroke:#181818;stroke-width:0.5;" x1="53.5" x2="286.5" y1="617" y2="617"/><text fill="#000000" font-family="sans-serif" font-size="14" lengthAdjust="spacing" textLength="88" x="58.5" y="633.9951">label : string</text><text fill="#000000" font-family="sans-serif" font-size="14" lengthAdjust="spacing" textLength="223" x="58.5" y="650.292">marker : np.ndarray(dtype=int)</text><line style="stroke:#181818;stroke-width:0.5;" x1="53.5" x2="286.5" y1="657.5938" y2="657.5938"/></g><g id="elem_GMN25"><path d="M6,742 L6,857.9297 A0,0 0 0 0 6,857.9297 L330,857.9297 A0,0 0 0 0 330,857.9297 L330,752 L320,742 L172.66,742 L169.54,666.07 L164.66,742 L6,742 A0,0 0 0 0 6,742 " fill="#FEFFDD" style="stroke:#181818;stroke-width:0.5;"/><path d="M320,742 L320,752 L330,752 L320,742 " fill="#FEFFDD" style="stroke:#181818;stroke-width:0.5;"/><text fill="#000000" font-family="sans-serif" font-size="13" lengthAdjust="spacing" textLength="256" x="12" y="759.0669">Marker should be a two-element vector</text><text fill="#000000" font-family="sans-serif" font-size="13" lengthAdjust="spacing" textLength="290" x="12" y="774.1997">with positions on the x axis of the spectrum.</text><text fill="#000000" font-family="sans-serif" font-size="13" lengthAdjust="spacing" textLength="303" x="12" y="789.3325">Is "marker" the best name? Can we generalise</text><text fill="#000000" font-family="sans-serif" font-size="13" lengthAdjust="spacing" textLength="48" x="12" y="804.4653">to fit to</text><text fill="#000000" font-family="monospace" font-size="13" lengthAdjust="spacing" textLength="144" x="64" y="804.4653">AreaChannelROIData</text><text fill="#000000" font-family="sans-serif" font-size="13" lengthAdjust="spacing" textLength="53" x="212" y="804.4653">as well?</text><text fill="#000000" font-family="sans-serif" font-size="13" lengthAdjust="spacing" textLength="8" x="12" y="819.5981">&#160;</text><text fill="#000000" font-family="sans-serif" font-size="13" lengthAdjust="spacing" textLength="244" x="12" y="834.731">What other attributes are relevant for</text><text fill="#000000" font-family="sans-serif" font-size="13" lengthAdjust="spacing" textLength="133" x="12" y="849.8638">Array Channel ROIs?</text></g><!--class DeviceMetadata--><g id="elem_DeviceMetadata"><rect codeLine="71" fill="#F1F1F1" height="96.8906" id="DeviceMetadata" rx="2.5" ry="2.5" style="stroke:#181818;stroke-width:0.5;" width="161" x="632.5" y="196"/><ellipse cx="653.35" cy="212" fill="#B4A7E5" rx="11" ry="11" style="stroke:#181818;stroke-width:1.0;"/><path d="M649.2719,207.75 L649.2719,205.5938 L656.6625,205.5938 L656.6625,207.75 L654.1938,207.75 L654.1938,215.8438 L656.6625,215.8438 L656.6625,218 L649.2719,218 L649.2719,215.8438 L651.7406,215.8438 L651.7406,207.75 L649.2719,207.75 Z " fill="#000000"/><text fill="#000000" font-family="sans-serif" font-size="14" font-style="italic" lengthAdjust="spacing" textLength="116" x="668.65" y="216.8467">DeviceMetadata</text><line style="stroke:#181818;stroke-width:0.5;" x1="633.5" x2="792.5" y1="228" y2="228"/><text fill="#000000" font-family="sans-serif" font-size="14" lengthAdjust="spacing" textLength="66" x="638.5" y="244.9951">id : string</text><text fill="#000000" font-family="sans-serif" font-size="14" lengthAdjust="spacing" textLength="70" x="638.5" y="261.292">pv : string</text><text fill="#000000" font-family="sans-serif" font-size="14" lengthAdjust="spacing" textLength="149" x="638.5" y="277.5889">access_mode : string</text><line style="stroke:#181818;stroke-width:0.5;" x1="633.5" x2="792.5" y1="284.8906" y2="284.8906"/></g><!--class ArrayChannelMetadata--><g id="elem_ArrayChannelMetadata"><rect codeLine="81" fill="#F1F1F1" height="48" id="ArrayChannelMetadata" rx="2.5" ry="2.5" style="stroke:#181818;stroke-width:0.5;" width="197" x="570.5" y="461"/><ellipse cx="585.5" cy="477" fill="#ADD1B2" rx="11" ry="11" style="stroke:#181818;stroke-width:1.0;"/><path d="M588.4844,482.6406 Q587.9063,482.9375 587.2656,483.0781 Q586.625,483.2344 585.9219,483.2344 Q583.4063,483.2344 582.0781,481.5938 Q580.7656,479.9375 580.7656,476.8125 Q580.7656,473.6719 582.0781,472.0313 Q583.4063,470.375 585.9219,470.375 Q586.625,470.375 587.2656,470.5313 Q587.9219,470.6719 588.4844,470.9688 L588.4844,473.6875 Q587.8438,473.1094 587.25,472.8438 Q586.6563,472.5781 586.0313,472.5781 Q584.6875,472.5781 584,473.6406 Q583.3125,474.7031 583.3125,476.8125 Q583.3125,478.9063 584,479.9844 Q584.6875,481.0469 586.0313,481.0469 Q586.6563,481.0469 587.25,480.7813 Q587.8438,480.5 588.4844,479.9219 L588.4844,482.6406 Z " fill="#000000"/><text fill="#000000" font-family="sans-serif" font-size="14" lengthAdjust="spacing" textLength="165" x="599.5" y="481.8467">ArrayChannelMetadata</text><line style="stroke:#181818;stroke-width:0.5;" x1="571.5" x2="766.5" y1="493" y2="493"/><line style="stroke:#181818;stroke-width:0.5;" x1="571.5" x2="766.5" y1="501" y2="501"/></g><!--class MCAChannelCalibration--><g id="elem_MCAChannelCalibration"><rect codeLine="91" fill="#F1F1F1" height="113.1875" id="MCAChannelCalibration" rx="2.5" ry="2.5" style="stroke:#181818;stroke-width:0.5;" width="201" x="867.5" y="569"/><ellipse cx="882.5" cy="585" fill="#ADD1B2" rx="11" ry="11" style="stroke:#181818;stroke-width:1.0;"/><path d="M885.4844,590.6406 Q884.9063,590.9375 884.2656,591.0781 Q883.625,591.2344 882.9219,591.2344 Q880.4063,591.2344 879.0781,589.5938 Q877.7656,587.9375 877.7656,584.8125 Q877.7656,581.6719 879.0781,580.0313 Q880.4063,578.375 882.9219,578.375 Q883.625,578.375 884.2656,578.5313 Q884.9219,578.6719 885.4844,578.9688 L885.4844,581.6875 Q884.8438,581.1094 884.25,580.8438 Q883.6563,580.5781 883.0313,580.5781 Q881.6875,580.5781 881,581.6406 Q880.3125,582.7031 880.3125,584.8125 Q880.3125,586.9063 881,587.9844 Q881.6875,589.0469 883.0313,589.0469 Q883.6563,589.0469 884.25,588.7813 Q884.8438,588.5 885.4844,587.9219 L885.4844,590.6406 Z " fill="#000000"/><text fill="#000000" font-family="sans-serif" font-size="14" lengthAdjust="spacing" textLength="169" x="896.5" y="589.8467">MCAChannelCalibration</text><line style="stroke:#181818;stroke-width:0.5;" x1="868.5" x2="1067.5" y1="601" y2="601"/><text fill="#000000" font-family="sans-serif" font-size="14" lengthAdjust="spacing" textLength="85" x="873.5" y="617.9951">offset : float</text><text fill="#000000" font-family="sans-serif" font-size="14" lengthAdjust="spacing" textLength="83" x="873.5" y="634.292">slope : float</text><text fill="#000000" font-family="sans-serif" font-size="14" lengthAdjust="spacing" textLength="113" x="873.5" y="650.5889">quadratic : float</text><line style="stroke:#181818;stroke-width:0.5;" x1="868.5" x2="1067.5" y1="657.8906" y2="657.8906"/><text fill="#000000" font-family="sans-serif" font-size="14" lengthAdjust="spacing" textLength="73" x="873.5" y="674.8857">calibrate()</text></g><!--reverse link Data to Metadata--><g id="link_Data_Metadata"><path codeLine="11" d="M401.16,71.5 C419.41,71.5 425.67,71.5 443.92,71.5 " fill="none" id="Data-backto-Metadata" style="stroke:#181818;stroke-width:1.0;"/><polygon fill="#181818" points="389.16,71.5,395.16,75.5,401.16,71.5,395.16,67.5,389.16,71.5" style="stroke:#181818;stroke-width:1.0;"/></g><!--reverse link Data to MeasureData--><g id="link_Data_MeasureData"><path d="M275.4739,153.7185 C269.5339,179.7385 266.95,191.1 262.1,212.35 " fill="none" id="Data-backto-MeasureData" style="stroke:#181818;stroke-width:1.0;"/><polygon fill="none" points="279.48,136.17,269.6244,152.3832,281.3234,155.0539,279.48,136.17" style="stroke:#181818;stroke-width:1.0;"/></g><!--reverse link MeasureData to MeasureMetadata--><g id="link_MeasureData_MeasureMetadata"><path codeLine="17" d="M413.61,244.5 C425.33,244.5 425.05,244.5 436.77,244.5 " fill="none" id="MeasureData-backto-MeasureMetadata" style="stroke:#181818;stroke-width:1.0;"/><polygon fill="#181818" points="401.61,244.5,407.61,248.5,413.61,244.5,407.61,240.5,401.61,244.5" style="stroke:#181818;stroke-width:1.0;"/></g><!--reverse link MeasureData to ChannelData--><g id="link_MeasureData_ChannelData"><path d="M309.9985,287.7201 C340.5485,311.1701 367.4,331.79 394.99,352.97 " fill="none" id="MeasureData-backto-ChannelData" style="stroke:#181818;stroke-width:1.0;"/><polygon fill="none" points="295.72,276.76,306.3451,292.4796,313.6519,282.9606,295.72,276.76" style="stroke:#181818;stroke-width:1.0;"/></g><!--reverse link ChannelData to ChannelMetadata--><g id="link_ChannelData_ChannelMetadata"><path codeLine="21" d="M499.78,377 C517.82,377 523.86,377 541.9,377 " fill="none" id="ChannelData-backto-ChannelMetadata" style="stroke:#181818;stroke-width:1.0;"/><polygon fill="#181818" points="487.78,377,493.78,381,499.78,377,493.78,373,487.78,377" style="stroke:#181818;stroke-width:1.0;"/></g><!--reverse link ChannelData to ArrayChannelData--><g id="link_ChannelData_ArrayChannelData"><path d="M425,419 C425,436.66 425,442.94 425,460.68 " fill="none" id="ChannelData-backto-ArrayChannelData" style="stroke:#181818;stroke-width:1.0;"/><polygon fill="none" points="425,401,419,419,431,419,425,401" style="stroke:#181818;stroke-width:1.0;"/></g><!--reverse link ArrayChannelData to MCAChannelData--><g id="link_ArrayChannelData_MCAChannelData"><path d="M425,527.18 C425,543.51 425,548.08 425,568.94 " fill="none" id="ArrayChannelData-backto-MCAChannelData" style="stroke:#181818;stroke-width:1.0;"/><polygon fill="none" points="425,509.18,419,527.18,431,527.18,425,509.18" style="stroke:#181818;stroke-width:1.0;"/></g><!--reverse link MCAChannelData to MCAChannelMetadata--><g id="link_MCAChannelData_MCAChannelMetadata"><path codeLine="39" d="M539,625.5 C550.62,625.5 550.24,625.5 561.86,625.5 " fill="none" id="MCAChannelData-backto-MCAChannelMetadata" style="stroke:#181818;stroke-width:1.0;"/><polygon fill="#181818" points="527,625.5,533,629.5,539,625.5,533,621.5,527,625.5" style="stroke:#181818;stroke-width:1.0;"/></g><!--reverse link MCAChannelData to Axis--><g id="link_MCAChannelData_Axis"><path codeLine="41" d="M425.7808,694.0292 C426.0108,713.6292 426.13,723.66 426.35,743.28 " fill="none" id="MCAChannelData-backto-Axis" style="stroke:#181818;stroke-width:1.0;"/><polygon fill="#181818" points="425.64,682.03,421.7107,688.0765,425.7808,694.0292,429.7101,687.9827,425.64,682.03" style="stroke:#181818;stroke-width:1.0;"/></g><!--link MCAChannelROIData to MCAChannelData--><g id="link_MCAChannelROIData_MCAChannelData"><path codeLine="43" d="M287.54,655.69 C299.35,656.13 299.2246,656.933 311.0346,655.803 " fill="none" id="MCAChannelROIData-to-MCAChannelData" style="stroke:#181818;stroke-width:1.0;"/><polygon fill="#181818" points="322.98,654.66,316.6263,651.2497,311.0346,655.803,317.3883,659.2133,322.98,654.66" style="stroke:#181818;stroke-width:1.0;"/><text fill="#000000" font-family="sans-serif" font-size="13" lengthAdjust="spacing" textLength="24" x="295.4338" y="654.156">0..n</text></g><!--link MCAChannelROIData to MCAChannelData--><!--reverse link MeasureData to MCAChannelROIData--><g id="link_MeasureData_MCAChannelROIData"><path d="M244.1016,294.0839 C228.7416,362.5839 195.87,509.16 178.87,584.93 " fill="none" id="MeasureData-backto-MCAChannelROIData" style="stroke:#181818;stroke-width:1.0;"/><polygon fill="none" points="248.04,276.52,238.247,292.7711,249.9562,295.3967,248.04,276.52" style="stroke:#181818;stroke-width:1.0;"/></g><!--reverse link Metadata to MeasureMetadata--><g id="link_Metadata_MeasureMetadata"><path d="M503.7275,130.0385 C507.2875,160.5285 510.06,184.17 513.35,212.31 " fill="none" id="Metadata-backto-MeasureMetadata" style="stroke:#181818;stroke-width:1.0;"/><polygon fill="none" points="501.64,112.16,497.768,130.7344,509.687,129.3427,501.64,112.16" style="stroke:#181818;stroke-width:1.0;"/></g><!--link MeasureMetadata to DeviceMetadata--><!--reverse link MeasureMetadata to ChannelMetadata--><g id="link_MeasureMetadata_ChannelMetadata"><path d="M553.1303,290.835 C571.7603,314.205 585.6,331.58 602.48,352.76 " fill="none" id="MeasureMetadata-backto-ChannelMetadata" style="stroke:#181818;stroke-width:1.0;"/><polygon fill="none" points="541.91,276.76,548.4386,294.5751,557.8219,287.0949,541.91,276.76" style="stroke:#181818;stroke-width:1.0;"/></g><!--reverse link DeviceMetadata to ChannelMetadata--><g id="link_DeviceMetadata_ChannelMetadata"><path d="M668.8943,308.0657 C654.6443,328.2957 649.06,336.2 637.45,352.66 " fill="none" id="DeviceMetadata-backto-ChannelMetadata" style="stroke:#181818;stroke-width:1.0;stroke-dasharray:7.0,7.0;"/><polygon fill="none" points="679.26,293.35,663.989,304.6105,673.7995,311.5209,679.26,293.35" style="stroke:#181818;stroke-width:1.0;"/></g><!--reverse link ChannelMetadata to ArrayChannelMetadata--><g id="link_ChannelMetadata_ArrayChannelMetadata"><path d="M638.8398,417.3996 C646.8298,435.0596 650.41,442.94 658.44,460.68 " fill="none" id="ChannelMetadata-backto-ArrayChannelMetadata" style="stroke:#181818;stroke-width:1.0;"/><polygon fill="none" points="631.42,401,633.3732,419.8729,644.3063,414.9264,631.42,401" style="stroke:#181818;stroke-width:1.0;"/></g><!--reverse link ArrayChannelMetadata to MCAChannelMetadata--><g id="link_ArrayChannelMetadata_MCAChannelMetadata"><path d="M677.2551,526.8234 C680.9751,545.2334 682.73,553.94 687.36,576.8 " fill="none" id="ArrayChannelMetadata-backto-MCAChannelMetadata" style="stroke:#181818;stroke-width:1.0;"/><polygon fill="none" points="673.69,509.18,671.374,528.0118,683.1362,525.635,673.69,509.18" style="stroke:#181818;stroke-width:1.0;"/></g><!--reverse link MCAChannelMetadata to MCAChannelCalibration--><g id="link_MCAChannelMetadata_MCAChannelCalibration"><path codeLine="89" d="M844.24,625.5 C855.9,625.5 855.57,625.5 867.24,625.5 " fill="none" id="MCAChannelMetadata-backto-MCAChannelCalibration" style="stroke:#181818;stroke-width:1.0;"/><polygon fill="#181818" points="832.24,625.5,838.24,629.5,844.24,625.5,838.24,621.5,832.24,625.5" style="stroke:#181818;stroke-width:1.0;"/></g><!--SRC=[TLKxRzim4DxrAmvQcWQmqpb06nZEui4eqAL341WdwHGHeKYLF3an0l_tafGiYvBinRxNTqz-_bOnD_RnuQ6HgBYjvJhNzKCkqTfL8V3DO9qaGOHdP8Il1Dod9iR2Yu-mxty6lMvOQ6MTkX0v1zMXzrFDMXLe39uwjQWRRPYCCtdWNIy6em-v-vwSaoJal5zTi_Irx0bjQoYOwPD95L5zNwKWMPoXqLRuYWwvRXNRg8oxWayD_HIAGwOnOaWOn6dUROLAaOpoZYAJPEpWO7fn2hFn1InXZNLVvw7RxMR9UORIDO-VmdUwSLz1DbgylFfD3IX_Vk-UBokJegG3YvhcEpA4Si4qbEKpz3d_jUvw19-SfsKZr5lGjafmhB6dEjCoradCQAJokuZxzUiODDTHphnMNS_9h558VwpNAeNL_MIKIxwhbqeK1QdNNpFdwJOk8GkNC3d4IOzZKutcFJo3MwUfD1DacbdNeCiRQzntABRIhImW8q3W3xqYIJKfXYFbhBl7zI6u6Xw61Qs0AuBFxcmSlfTiu_nDMwz3nCv2sbMP1cj6ba5XJK-mHGKV16-aoA0Kba80QoZTvjrNccxS5SNrfYcWTL5IFYN1_M-53DeX6q1s0yfQ9Wjeo5sWfAExB2ZxuiF9Nru9E43xbBZHWvzHSYM7dfsw7VXAuz5FQEeyOPKX_hhN230-QnVj5aMcn9pWcOuYfuc_AEBqpJ6MCS_9saEj2ugVmQISqMN6UIRij51_3EIujxiBUmDep2mpj1kSDd-YYqGrcKtkhYOpwFSHKTJsgkzcPiWI7yPiLKgDF3QE-QepHbmoP8xuP9nerid8sDUhozAbYh9RgPku7iU6XO_A8-sbLGf_RVy1]--></g></svg>